<svg width="118" height="53" viewBox="0 0 118 53" fill="none" xmlns="http://www.w3.org/2000/svg">
<rect x="0.5" y="0.5" width="117" height="52" rx="26" stroke="#438006"/>
<path d="M18.9375 29.1289C18.9375 30.0078 18.8236 30.7923 18.5957 31.4824C18.3678 32.1725 18.0391 32.7552 17.6094 33.2305C17.1797 33.7057 16.6589 34.0703 16.0469 34.3242C15.4414 34.5716 14.7546 34.6953 13.9863 34.6953C13.2702 34.6953 12.6126 34.5716 12.0137 34.3242C11.4212 34.0703 10.9069 33.7057 10.4707 33.2305C10.041 32.7552 9.70573 32.1725 9.46484 31.4824C9.23047 30.7923 9.11328 30.0078 9.11328 29.1289C9.11328 27.957 9.31185 26.9609 9.70898 26.1406C10.1061 25.3138 10.6725 24.6855 11.4082 24.2559C12.1504 23.8197 13.0326 23.6016 14.0547 23.6016C15.0312 23.6016 15.8841 23.8197 16.6133 24.2559C17.349 24.6921 17.9186 25.3236 18.3223 26.1504C18.7324 26.9707 18.9375 27.9635 18.9375 29.1289ZM10.793 29.1289C10.793 29.9883 10.9069 30.7337 11.1348 31.3652C11.3626 31.9967 11.7142 32.485 12.1895 32.8301C12.6647 33.1751 13.2767 33.3477 14.0254 33.3477C14.7676 33.3477 15.3763 33.1751 15.8516 32.8301C16.3333 32.485 16.6882 31.9967 16.916 31.3652C17.1439 30.7337 17.2578 29.9883 17.2578 29.1289C17.2578 28.276 17.1439 27.5404 16.916 26.9219C16.6882 26.2969 16.3366 25.8151 15.8613 25.4766C15.3861 25.138 14.7708 24.9688 14.0156 24.9688C12.9023 24.9688 12.0853 25.3366 11.5645 26.0723C11.0501 26.8079 10.793 27.8268 10.793 29.1289ZM26.8086 23.6016C28.0781 23.6016 29.0384 23.9141 29.6895 24.5391C30.3405 25.1576 30.666 26.1536 30.666 27.5273V34.5H29.0645V27.6348C29.0645 26.7428 28.8594 26.0755 28.4492 25.6328C28.0456 25.1901 27.4238 24.9688 26.584 24.9688C25.3991 24.9688 24.5658 25.304 24.084 25.9746C23.6022 26.6452 23.3613 27.6185 23.3613 28.8945V34.5H21.7402V23.7969H23.0488L23.293 25.3398H23.3809C23.6087 24.9622 23.8984 24.6465 24.25 24.3926C24.6016 24.1322 24.9954 23.9368 25.4316 23.8066C25.8678 23.6699 26.3268 23.6016 26.8086 23.6016ZM44.0645 23.6016C44.2793 23.6016 44.5039 23.6146 44.7383 23.6406C44.9727 23.6602 45.181 23.6895 45.3633 23.7285L45.1582 25.2324C44.9824 25.1868 44.7871 25.151 44.5723 25.125C44.3574 25.099 44.1556 25.0859 43.9668 25.0859C43.5371 25.0859 43.1302 25.1738 42.7461 25.3496C42.3685 25.5189 42.0365 25.7663 41.75 26.0918C41.4635 26.4108 41.2389 26.7982 41.0762 27.2539C40.9134 27.7031 40.832 28.2044 40.832 28.7578V34.5H39.2012V23.7969H40.5488L40.7246 25.7695H40.793C41.0143 25.3724 41.2812 25.0111 41.5938 24.6855C41.9062 24.3535 42.2676 24.0898 42.6777 23.8945C43.0944 23.6992 43.5566 23.6016 44.0645 23.6016ZM51.5059 23.6016C52.4173 23.6016 53.1986 23.8034 53.8496 24.207C54.5007 24.6107 54.9987 25.1771 55.3438 25.9062C55.6888 26.6289 55.8613 27.4753 55.8613 28.4453V29.4512H48.4688C48.4883 30.7077 48.8008 31.6647 49.4062 32.3223C50.0117 32.9798 50.8646 33.3086 51.9648 33.3086C52.6419 33.3086 53.2409 33.2467 53.7617 33.123C54.2826 32.9993 54.8229 32.8171 55.3828 32.5762V34.002C54.8424 34.2428 54.3053 34.4186 53.7715 34.5293C53.2441 34.64 52.6191 34.6953 51.8965 34.6953C50.8678 34.6953 49.9694 34.487 49.2012 34.0703C48.4395 33.6471 47.847 33.0286 47.4238 32.2148C47.0007 31.401 46.7891 30.4049 46.7891 29.2266C46.7891 28.0742 46.9811 27.0781 47.3652 26.2383C47.7559 25.3919 48.3027 24.7409 49.0059 24.2852C49.7155 23.8294 50.5488 23.6016 51.5059 23.6016ZM51.4863 24.9297C50.6204 24.9297 49.9303 25.2129 49.416 25.7793C48.9017 26.3457 48.5957 27.1367 48.498 28.1523H54.1621C54.1556 27.5143 54.0547 26.9544 53.8594 26.4727C53.6706 25.9844 53.3809 25.6068 52.9902 25.3398C52.5996 25.0664 52.0983 24.9297 51.4863 24.9297ZM65.793 39.2852V34.6953C65.793 34.4414 65.7995 34.1484 65.8125 33.8164C65.8255 33.4844 65.8483 33.1979 65.8809 32.957H65.7734C65.474 33.4518 65.0475 33.8652 64.4941 34.1973C63.9408 34.5293 63.2279 34.6953 62.3555 34.6953C61.0469 34.6953 59.9954 34.2331 59.2012 33.3086C58.4069 32.3841 58.0098 31.0039 58.0098 29.168C58.0098 27.9635 58.1921 26.9479 58.5566 26.1211C58.9212 25.2943 59.4355 24.6693 60.0996 24.2461C60.7702 23.8164 61.5514 23.6016 62.4434 23.6016C63.2962 23.6016 63.9928 23.7708 64.5332 24.1094C65.0736 24.4414 65.4967 24.8483 65.8027 25.3301H65.8809L66.125 23.7969H67.4141V39.2852H65.793ZM62.6582 33.3477C63.4134 33.3477 64.0189 33.2077 64.4746 32.9277C64.9303 32.6413 65.2624 32.2116 65.4707 31.6387C65.6855 31.0658 65.7995 30.3529 65.8125 29.5V29.1582C65.8125 27.778 65.5781 26.7331 65.1094 26.0234C64.6406 25.3073 63.8236 24.9492 62.6582 24.9492C61.6556 24.9492 60.9102 25.3333 60.4219 26.1016C59.9336 26.8633 59.6895 27.8984 59.6895 29.207C59.6895 30.5156 59.9336 31.5345 60.4219 32.2637C60.9102 32.9863 61.6556 33.3477 62.6582 33.3477ZM79.6992 23.7969V34.5H78.3711L78.1367 32.9961H78.0488C77.8275 33.3672 77.541 33.6797 77.1895 33.9336C76.8379 34.1875 76.4408 34.3763 75.998 34.5C75.5618 34.6302 75.0964 34.6953 74.6016 34.6953C73.7552 34.6953 73.0456 34.5586 72.4727 34.2852C71.8997 34.0117 71.4668 33.5885 71.1738 33.0156C70.8874 32.4427 70.7441 31.707 70.7441 30.8086V23.7969H72.3848V30.6914C72.3848 31.5833 72.5866 32.2507 72.9902 32.6934C73.3939 33.1296 74.0091 33.3477 74.8359 33.3477C75.6302 33.3477 76.2617 33.1979 76.7305 32.8984C77.2057 32.599 77.5475 32.1595 77.7559 31.5801C77.9642 30.9941 78.0684 30.278 78.0684 29.4316V23.7969H79.6992ZM87.248 23.6016C88.1595 23.6016 88.9408 23.8034 89.5918 24.207C90.2428 24.6107 90.7409 25.1771 91.0859 25.9062C91.431 26.6289 91.6035 27.4753 91.6035 28.4453V29.4512H84.2109C84.2305 30.7077 84.543 31.6647 85.1484 32.3223C85.7539 32.9798 86.6068 33.3086 87.707 33.3086C88.3841 33.3086 88.9831 33.2467 89.5039 33.123C90.0247 32.9993 90.5651 32.8171 91.125 32.5762V34.002C90.5846 34.2428 90.0475 34.4186 89.5137 34.5293C88.9863 34.64 88.3613 34.6953 87.6387 34.6953C86.61 34.6953 85.7116 34.487 84.9434 34.0703C84.1816 33.6471 83.5892 33.0286 83.166 32.2148C82.7428 31.401 82.5312 30.4049 82.5312 29.2266C82.5312 28.0742 82.7233 27.0781 83.1074 26.2383C83.498 25.3919 84.0449 24.7409 84.748 24.2852C85.4577 23.8294 86.291 23.6016 87.248 23.6016ZM87.2285 24.9297C86.3626 24.9297 85.6725 25.2129 85.1582 25.7793C84.6439 26.3457 84.3379 27.1367 84.2402 28.1523H89.9043C89.8978 27.5143 89.7969 26.9544 89.6016 26.4727C89.4128 25.9844 89.123 25.6068 88.7324 25.3398C88.3418 25.0664 87.8405 24.9297 87.2285 24.9297ZM101.281 31.5703C101.281 32.2539 101.109 32.8301 100.764 33.2988C100.425 33.7611 99.9368 34.1094 99.2988 34.3438C98.6673 34.5781 97.9121 34.6953 97.0332 34.6953C96.2845 34.6953 95.6367 34.6367 95.0898 34.5195C94.543 34.4023 94.0645 34.2363 93.6543 34.0215V32.5273C94.0905 32.7422 94.6113 32.9375 95.2168 33.1133C95.8223 33.2891 96.4408 33.377 97.0723 33.377C97.9967 33.377 98.6673 33.2272 99.084 32.9277C99.5007 32.6283 99.709 32.2214 99.709 31.707C99.709 31.4141 99.6243 31.1569 99.4551 30.9355C99.2923 30.7077 99.0156 30.4896 98.625 30.2812C98.2344 30.0664 97.694 29.832 97.0039 29.5781C96.3203 29.3177 95.7279 29.0605 95.2266 28.8066C94.7318 28.5462 94.3477 28.2305 94.0742 27.8594C93.8073 27.4883 93.6738 27.0065 93.6738 26.4141C93.6738 25.5091 94.0384 24.8158 94.7676 24.334C95.5033 23.8457 96.4668 23.6016 97.6582 23.6016C98.3027 23.6016 98.9049 23.6667 99.4648 23.7969C100.031 23.9206 100.559 24.0898 101.047 24.3047L100.5 25.6035C100.057 25.4147 99.5853 25.2552 99.084 25.125C98.5827 24.9948 98.0716 24.9297 97.5508 24.9297C96.8021 24.9297 96.2259 25.0534 95.8223 25.3008C95.4251 25.5482 95.2266 25.8867 95.2266 26.3164C95.2266 26.6484 95.3177 26.9219 95.5 27.1367C95.6888 27.3516 95.9883 27.5534 96.3984 27.7422C96.8086 27.931 97.349 28.1523 98.0195 28.4062C98.6901 28.6536 99.2695 28.9108 99.7578 29.1777C100.246 29.4382 100.62 29.7572 100.881 30.1348C101.148 30.5059 101.281 30.9844 101.281 31.5703ZM107.346 33.3672C107.613 33.3672 107.886 33.3444 108.166 33.2988C108.446 33.2533 108.674 33.1979 108.85 33.1328V34.3926C108.661 34.4772 108.397 34.5488 108.059 34.6074C107.727 34.666 107.401 34.6953 107.082 34.6953C106.516 34.6953 106.001 34.5977 105.539 34.4023C105.077 34.2005 104.706 33.862 104.426 33.3867C104.152 32.9115 104.016 32.2539 104.016 31.4141V25.0664H102.492V24.2754L104.025 23.6406L104.67 21.3164H105.646V23.7969H108.781V25.0664H105.646V31.3652C105.646 32.0358 105.799 32.5371 106.105 32.8691C106.418 33.2012 106.831 33.3672 107.346 33.3672Z" fill="#59B202"/>
</svg>
