<svg width="149" height="158" viewBox="0 0 149 158" fill="none" xmlns="http://www.w3.org/2000/svg">
<g clip-path="url(#clip0_176_41650)">
<path fill-rule="evenodd" clip-rule="evenodd" d="M133.75 53.0686L76.851 6.85509L19.9753 53.0495H25.7534C27.4126 53.0495 28.7574 54.3996 28.7574 56.0647V65.7328H48.0645C49.7236 65.7328 51.0686 67.0831 51.0686 68.7481V71.3539L45.0605 77.0751V71.7634H6.00806V151.969H45.0605V91.0122L51.0686 85.402V121.817H68.9233C69.4959 120.256 70.3857 118.97 71.5134 117.928C70.2902 117.547 69.4022 116.401 69.4022 115.048V114.445C69.4022 112.779 70.7468 111.43 72.4062 111.43H76.3102C80.0767 97.0512 94.1332 92.7351 108.455 92.7351C114.275 92.7351 119.977 93.4498 124.968 95.2523V56.0839C124.968 54.4187 126.313 53.0686 127.972 53.0686H133.75ZM51.0686 127.847H68.2005V141.884C68.2005 142.871 68.6722 143.746 69.4022 144.296V148.216C69.4022 149.881 70.7468 151.231 72.4062 151.231H78.4143C80.0731 151.231 81.4183 149.881 81.4183 148.216V144.899H134.89V148.216C134.89 149.881 136.235 151.231 137.894 151.231H143.902C145.561 151.231 146.906 149.881 146.906 148.216V144.648C147.967 144.183 148.709 143.12 148.709 141.884V126.205C148.709 122.896 147.312 119.915 145.077 117.823C146.152 117.364 146.906 116.295 146.906 115.048V114.445C146.906 112.779 145.561 111.43 143.902 111.43H140.487C138.803 105.4 135.41 101.135 130.976 98.2175V59.2739H141.72C142.692 59.2739 143.919 58.9406 144.646 58.0388C145.689 56.7442 145.489 54.8455 144.2 53.798L78.812 0.690557C78.3686 0.33014 77.8537 0.117393 77.3262 0.0461337C76.4995 -0.100213 75.6169 0.0998728 74.9134 0.671422L9.52573 53.7789C8.23616 54.8264 8.03663 56.7251 9.07981 58.0197C9.80678 58.9215 11.0342 59.2548 12.0053 59.2548L22.7494 59.2739V65.7328H3.00403C1.34495 65.7328 0 67.0831 0 68.7481V154.985C0 156.65 1.34495 158 3.00403 158H48.0645C49.7236 158 51.0686 156.65 51.0686 154.985V127.847ZM25.2339 143.527C23.5748 143.527 22.2298 144.877 22.2298 146.542C22.2298 148.208 23.5748 149.557 25.2339 149.557H25.8347C27.4938 149.557 28.8387 148.208 28.8387 146.542C28.8387 144.877 27.4938 143.527 25.8347 143.527C24.1756 143.527 25.2339 143.527 25.2339 143.527ZM77.6939 120.293L80.618 118.935V116.305C82.2624 102.016 96.3988 98.7657 108.455 98.7657C120.51 98.7657 133.977 101.86 135.968 116.305V118.935L139.2 120.287C141.254 121.064 142.701 123.89 142.701 126.205V138.869H131.871C132.06 136.953 131.045 134.949 128.882 134.949H88.0272C86.3677 134.949 85.0231 136.299 85.0231 137.964V138.869H74.2086V126.205C74.2086 123.896 75.6469 121.074 77.6939 120.293ZM111.773 108.191C112.48 106.684 111.835 104.888 110.335 104.179C108.833 103.469 107.043 104.116 106.337 105.623L101.531 115.875C101.093 116.809 101.161 117.903 101.712 118.774C102.263 119.646 103.22 120.174 104.249 120.174H106.847L103.827 124.871C102.928 126.271 103.329 128.137 104.723 129.04C106.117 129.942 107.976 129.54 108.876 128.141L114.884 118.794C115.48 117.866 115.524 116.685 114.997 115.716C114.471 114.747 113.459 114.144 112.36 114.144H108.983L111.773 108.191ZM81.2206 128.015C83.1943 128.027 87.7268 128.053 87.7268 126.506C87.7268 124.841 82.4763 121.983 80.8175 121.983C79.1581 121.983 77.8135 123.333 77.8135 124.999C77.8135 126.664 79.1581 128.014 80.8175 128.014C80.8734 128.014 80.9334 128.014 80.9971 128.014C81.0662 128.014 81.1395 128.015 81.2164 128.015H81.2182H81.2206ZM128.882 126.205C128.882 127.751 133.414 127.726 135.388 127.713H135.39H135.392H135.394C135.542 127.713 135.675 127.712 135.791 127.712C137.45 127.712 138.795 126.362 138.795 124.697C138.795 123.031 137.45 121.682 135.791 121.682C134.132 121.682 128.882 124.539 128.882 126.205ZM29.1366 103.067C29.1682 104.731 27.8491 106.107 26.1904 106.139C24.5316 106.171 23.1612 104.846 23.1296 103.181C23.098 101.516 24.4171 100.141 26.0759 100.109C26.695 100.097 27.274 100.275 27.7582 100.588C27.8488 100.685 27.9468 100.776 28.0522 100.863C28.1406 100.935 28.2318 101.002 28.3255 101.063C28.816 101.587 29.1219 102.29 29.1366 103.067ZM33.8683 98.4792C34.6505 99.7891 35.1125 101.315 35.1436 102.951C35.2384 107.947 31.2812 112.073 26.3048 112.168C21.3285 112.263 17.2175 108.291 17.1226 103.296C17.0278 98.3013 20.9851 94.1746 25.9614 94.08C27.1146 94.0576 28.2213 94.2542 29.2423 94.6311L66.6583 59.7268C65.3888 57.8565 64.6288 55.6069 64.5831 53.1755C64.5296 50.3631 65.4392 47.7573 67.0085 45.6754C65.1563 43.0746 63.2409 40.5543 61.2486 38.0603C61.0137 38.0929 60.5319 38.1166 60.5319 38.1166C57.2143 38.18 54.4736 35.532 54.4104 32.202C54.3472 28.872 56.9854 26.1211 60.3029 26.0577C63.6206 25.9943 66.3615 28.6423 66.4246 31.9723C66.4402 32.8076 65.9938 34.3356 65.9938 34.3356C67.9921 37.3306 70.3749 40.0288 71.7189 41.9196C73.1422 41.2846 74.7127 40.9185 76.3679 40.8868C79.2211 40.8323 81.8611 41.7806 83.9537 43.409L88.0788 40.2946C87.8812 39.5771 87.7688 38.8232 87.7538 38.0445C87.6589 33.0495 91.6164 28.9231 96.5923 28.8279C101.569 28.7328 105.68 32.7049 105.774 37.6998C105.869 42.6947 101.912 46.8211 96.9359 46.9163C94.9214 46.9548 93.0487 46.3267 91.5263 45.234L87.6378 48.1779C88.2362 49.5724 88.5799 51.1042 88.6105 52.7159C88.6424 54.3826 88.3354 55.9768 87.7538 57.4323L107.985 72.8501C109.381 71.8972 111.06 71.3274 112.874 71.2924C117.85 71.1971 121.961 75.1694 122.056 80.1645C122.151 85.1596 118.193 89.2857 113.217 89.381C108.241 89.4762 104.129 85.5039 104.034 80.5088C104.016 79.5331 104.152 78.5905 104.42 77.7046L84.1946 62.2906C83.455 62.8973 82.6421 63.4171 81.7704 63.835L84.6296 77.1251C87.2017 77.7668 89.1302 80.0765 89.1831 82.8632C89.2462 86.1932 86.6081 88.9437 83.2904 89.0077C79.9727 89.071 77.2325 86.423 77.1694 83.0929C77.1375 81.4303 77.7798 79.9118 78.8432 78.8004L75.871 64.9856C74.1912 64.8849 72.6009 64.4375 71.1733 63.7114L33.8683 98.4792ZM82.6037 52.8308C82.6668 56.1607 80.0286 58.9117 76.711 58.9751C73.3939 59.0386 70.653 56.3906 70.59 53.0606C70.5269 49.7306 73.165 46.9797 76.4821 46.9163C79.7997 46.8528 82.5406 49.5008 82.6037 52.8308ZM99.7675 37.8147C99.7994 39.4797 98.48 40.8551 96.8212 40.8868C95.1629 40.9186 93.7925 39.5946 93.7607 37.9296C93.7294 36.2646 95.0482 34.8891 96.707 34.8574C98.3658 34.8257 99.7363 36.1497 99.7675 37.8147ZM113.102 83.3516C114.761 83.3197 116.08 81.9441 116.049 80.2791C116.017 78.6141 114.646 77.2903 112.988 77.3217C111.329 77.3537 110.01 78.7292 110.042 80.3943C110.073 82.0593 111.444 83.383 113.102 83.3516Z" fill="#59B202"/>
</g>
<defs>
<clipPath id="clip0_176_41650">
<rect width="149" height="158" fill="white"/>
</clipPath>
</defs>
</svg>
