<?xml version="1.0" encoding="UTF-8"?>
<svg xmlns="http://www.w3.org/2000/svg" xmlns:xlink="http://www.w3.org/1999/xlink" width="24px" height="24px" viewBox="0 0 24 24" version="1.1">
<g id="surface1">
<path style="fill:none;stroke-width:1;stroke-linecap:butt;stroke-linejoin:miter;stroke:rgb(34.901962%,69.803923%,0.784314%);stroke-opacity:1;stroke-miterlimit:4;" d="M 11.750814 5.666341 L 31.249186 5.666341 C 31.529134 5.666341 31.753092 5.890625 31.753092 6.16569 L 31.753092 23.105469 C 31.753092 23.380534 31.529134 23.604818 31.249186 23.604818 L 11.750814 23.604818 C 11.470866 23.604818 11.246908 23.380534 11.246908 23.105469 L 11.246908 6.16569 C 11.246908 5.890625 11.470866 5.666341 11.750814 5.666341 Z M 11.750814 5.666341 " transform="matrix(0.55814,0,0,0.923077,0,0)"/>
<path style="fill:none;stroke-width:1;stroke-linecap:round;stroke-linejoin:miter;stroke:rgb(34.901962%,69.803923%,0.784314%);stroke-opacity:1;stroke-miterlimit:4;" d="M 11.750814 0.998698 L 15.194173 5.54362 L 18.350586 1.379557 " transform="matrix(0.55814,0,0,0.923077,0,0)"/>
<path style="fill:none;stroke-width:1;stroke-linecap:butt;stroke-linejoin:miter;stroke:rgb(34.901962%,69.803923%,0.784314%);stroke-opacity:1;stroke-miterlimit:4;" d="M 14.000651 20.500488 L 24.999023 20.500488 C 25.274089 20.500488 25.498372 20.724447 25.498372 20.997396 L 25.498372 36.002604 C 25.498372 36.275553 25.274089 36.499512 24.999023 36.499512 L 14.000651 36.499512 C 13.725586 36.499512 13.501302 36.275553 13.501302 36.002604 L 13.501302 20.997396 C 13.501302 20.724447 13.725586 20.500488 14.000651 20.500488 Z M 14.000651 20.500488 " transform="matrix(0.000000000000000034,-0.923077,0.55814,0.000000000000000057,-3.906977,31.384615)"/>
</g>
</svg>
