<svg width="24" height="20" viewBox="0 0 24 20" fill="none" xmlns="http://www.w3.org/2000/svg">
<path d="M11.9996 18.9993C13.2399 18.9993 14.2453 17.9938 14.2453 16.7536C14.2453 15.5133 13.2399 14.5078 11.9996 14.5078C10.7594 14.5078 9.75391 15.5133 9.75391 16.7536C9.75391 17.9938 10.7594 18.9993 11.9996 18.9993Z" stroke="#59B202" stroke-linecap="round" stroke-linejoin="round"/>
<path d="M7.76562 11.7145C8.32306 11.1422 8.98949 10.6874 9.72555 10.3768C10.4616 10.0662 11.2524 9.90625 12.0513 9.90625C12.8502 9.90625 13.6411 10.0662 14.3771 10.3768C15.1132 10.6874 15.7796 11.1422 16.3371 11.7145" stroke="#59B202" stroke-linecap="round" stroke-linejoin="round"/>
<path d="M4.04688 8.81776C5.09038 7.76817 6.33109 6.93523 7.69765 6.36684C9.06421 5.79847 10.5297 5.50586 12.0097 5.50586C13.4898 5.50586 14.9552 5.79847 16.3218 6.36684C17.6883 6.93523 18.9291 7.76817 19.9726 8.81776" stroke="#59B202" stroke-linecap="round" stroke-linejoin="round"/>
<path d="M0.857422 5.62894C2.32044 4.16515 4.05755 3.00398 5.96949 2.21174C7.88142 1.4195 9.93071 1.01172 12.0003 1.01172C14.0699 1.01172 16.1191 1.4195 18.0311 2.21174C19.9431 3.00398 21.6802 4.16515 23.1431 5.62894" stroke="#59B202" stroke-linecap="round" stroke-linejoin="round"/>
</svg>
