<svg width="148" height="159" viewBox="0 0 148 159" fill="none" xmlns="http://www.w3.org/2000/svg">
<g clip-path="url(#clip0_308_3934)">
<path d="M133.976 134.204C131.898 134.216 127.127 134.244 127.127 132.625C127.127 130.883 132.654 127.893 134.4 127.893C136.147 127.893 137.563 129.305 137.563 131.047C137.563 132.79 136.147 134.202 134.4 134.202L134.139 134.203L133.982 134.204H133.976Z" fill="#59B202"/>
<path d="M83.8031 132.941C83.8031 134.56 79.0323 134.532 76.9546 134.52H76.9502H76.9318L76.6308 134.519L76.5296 134.519C74.7833 134.519 73.3672 133.106 73.3672 131.364C73.3672 129.622 74.7833 128.209 76.5296 128.209C78.2765 128.209 83.8031 131.199 83.8031 132.941Z" fill="#59B202"/>
<path d="M107.48 107.554C105.895 106.822 104.015 107.511 103.282 109.091L98.5411 119.305C98.2167 119.804 98.0301 120.399 98.0332 121.038C98.0434 122.78 99.4671 124.185 101.214 124.175L104.487 124.157L101.783 129.193C100.958 130.729 101.538 132.641 103.077 133.464C104.617 134.286 106.534 133.708 107.359 132.172L112.217 123.122C112.747 122.554 113.07 121.791 113.065 120.953C113.055 119.211 111.632 117.806 109.885 117.816L106.192 117.837L109.021 111.743C109.755 110.161 109.065 108.286 107.48 107.554Z" fill="#59B202"/>
<path fill-rule="evenodd" clip-rule="evenodd" d="M63.2478 133.762H18.5648C16.8181 133.762 15.4024 132.349 15.4024 130.607L15.4006 62.0163L4.09005 61.9962C3.06783 61.9962 1.7757 61.6475 1.01043 60.7038C-0.0877663 59.3495 0.122236 57.3628 1.47984 56.2668L70.3142 0.702482C71.0548 0.104497 71.9839 -0.104848 72.8542 0.0482664C73.4095 0.122826 73.9516 0.345413 74.419 0.722508L143.254 56.2868C144.611 57.3829 144.821 59.3695 143.723 60.7238C142.958 61.6675 141.665 62.0163 140.644 62.0163H129.333V102.761C134.001 105.814 137.571 110.276 139.345 116.584H142.94C144.687 116.584 146.102 117.997 146.102 119.739V120.37C146.102 121.674 145.309 122.794 144.178 123.274C146.529 125.463 148 128.581 148 132.043V148.448C148 149.742 147.219 150.853 146.102 151.34V155.073C146.102 156.815 144.687 158.227 142.94 158.227H136.615C134.869 158.227 133.453 156.815 133.453 155.073V151.602H77.162V155.073C77.162 156.815 75.7465 158.227 73.9996 158.227H67.6749C65.9286 158.227 64.5125 156.815 64.5125 155.073V150.972C63.7446 150.396 63.2478 149.48 63.2478 148.448V133.762ZM72.3539 7.17224L132.253 55.5237H126.17C124.424 55.5237 123.008 56.9363 123.008 58.6785V65.6673H58.1892C56.4425 65.6673 55.0268 67.08 55.0268 68.822C55.0268 70.5647 56.4425 71.9768 58.1892 71.9768H123.008V78.2863H58.1892C56.4425 78.2863 55.0268 79.699 55.0268 81.4411C55.0268 83.1838 56.4425 84.5958 58.1892 84.5958H123.008V90.9054H58.1892C56.4425 90.9054 55.0268 92.3181 55.0268 94.0601C55.0268 95.8028 56.4425 97.2149 58.1892 97.2149H100.431C93.0164 97.7745 85.9737 99.6295 80.6116 103.524H58.1892C56.4425 103.524 55.0268 104.937 55.0268 106.679C55.0268 108.422 56.4425 109.834 58.1892 109.834H74.6701C73.4336 111.803 72.4545 114.044 71.7853 116.584L71.6297 116.774H41.7447V103.334H44.9071C46.6539 103.334 48.0695 101.922 48.0695 100.18V68.6321C48.0695 66.8901 46.6539 65.4773 44.9071 65.4773H32.2576C30.5108 65.4773 29.0952 66.8901 29.0952 68.6321V100.18C29.0952 101.922 30.5108 103.334 32.2576 103.334H35.42V119.929C35.42 121.672 36.8356 123.084 38.5823 123.084H66.957L66.7356 123.384C65.4624 124.346 64.6118 125.82 64.009 127.453H21.7272L21.7253 58.6585C21.7253 56.9163 20.3097 55.5037 18.5629 55.5037H12.4803L72.3539 7.17224ZM110.797 97.2149H123.008V99.6592C119.245 98.3083 115.099 97.5417 110.797 97.2149ZM76.3196 124.437L73.2419 125.858C71.0871 126.675 69.5723 129.628 69.5723 132.043V145.293H80.9569V144.346C80.9569 142.604 82.373 141.192 84.1193 141.192H127.128C129.405 141.192 130.474 143.29 130.275 145.293H141.675V132.043C141.675 129.622 140.153 126.665 137.989 125.852L134.587 124.437V121.686C132.492 106.573 118.315 103.334 105.624 103.334C92.9322 103.334 78.0513 106.736 76.3196 121.686V124.437ZM40.5613 71.4569C42.1419 72.1989 42.8201 74.0785 42.0764 75.6546L39.1382 81.8834H42.6935C43.851 81.8834 44.9164 82.5143 45.4705 83.5283C46.0245 84.5428 45.9788 85.7776 45.3506 86.748L39.0258 96.5278C38.079 97.9922 36.1216 98.4131 34.6541 97.4685C33.1865 96.524 32.7647 94.5712 33.7116 93.1074L36.89 88.1929H34.155C33.0723 88.1929 32.0648 87.6402 31.4849 86.7285C30.9049 85.8161 30.8327 84.6716 31.2934 83.6948L36.3532 72.9686C37.0969 71.3919 38.9814 70.7155 40.5613 71.4569Z" fill="#59B202"/>
</g>
<defs>
<clipPath id="clip0_308_3934">
<rect width="148" height="159" fill="white"/>
</clipPath>
</defs>
</svg>
