<svg width="118" height="53" viewBox="0 0 118 53" fill="none" xmlns="http://www.w3.org/2000/svg">
<rect x="0.5" y="0.5" width="117" height="52" rx="26" stroke="#438006"/>
<path d="M16.9746 25.0664H14.3086V34.5H12.6875V25.0664H10.793V24.2852L12.6875 23.748V23.0352C12.6875 22.1367 12.821 21.4076 13.0879 20.8477C13.3548 20.2812 13.7422 19.8646 14.25 19.5977C14.7578 19.3307 15.3763 19.1973 16.1055 19.1973C16.5156 19.1973 16.89 19.2331 17.2285 19.3047C17.5736 19.3763 17.8763 19.4577 18.1367 19.5488L17.7168 20.8281C17.4954 20.7565 17.2448 20.6914 16.9648 20.6328C16.6914 20.5677 16.4115 20.5352 16.125 20.5352C15.5065 20.5352 15.0475 20.737 14.748 21.1406C14.4551 21.5378 14.3086 22.1628 14.3086 23.0156V23.7969H16.9746V25.0664ZM23.8105 23.6016C24.0254 23.6016 24.25 23.6146 24.4844 23.6406C24.7188 23.6602 24.9271 23.6895 25.1094 23.7285L24.9043 25.2324C24.7285 25.1868 24.5332 25.151 24.3184 25.125C24.1035 25.099 23.9017 25.0859 23.7129 25.0859C23.2832 25.0859 22.8763 25.1738 22.4922 25.3496C22.1146 25.5189 21.7826 25.7663 21.4961 26.0918C21.2096 26.4108 20.985 26.7982 20.8223 27.2539C20.6595 27.7031 20.5781 28.2044 20.5781 28.7578V34.5H18.9473V23.7969H20.2949L20.4707 25.7695H20.5391C20.7604 25.3724 21.0273 25.0111 21.3398 24.6855C21.6523 24.3535 22.0137 24.0898 22.4238 23.8945C22.8405 23.6992 23.3027 23.6016 23.8105 23.6016ZM36.3594 29.1289C36.3594 30.0078 36.2454 30.7923 36.0176 31.4824C35.7897 32.1725 35.4609 32.7552 35.0312 33.2305C34.6016 33.7057 34.0807 34.0703 33.4688 34.3242C32.8633 34.5716 32.1764 34.6953 31.4082 34.6953C30.6921 34.6953 30.0345 34.5716 29.4355 34.3242C28.8431 34.0703 28.3288 33.7057 27.8926 33.2305C27.4629 32.7552 27.1276 32.1725 26.8867 31.4824C26.6523 30.7923 26.5352 30.0078 26.5352 29.1289C26.5352 27.957 26.7337 26.9609 27.1309 26.1406C27.528 25.3138 28.0944 24.6855 28.8301 24.2559C29.5723 23.8197 30.4544 23.6016 31.4766 23.6016C32.4531 23.6016 33.306 23.8197 34.0352 24.2559C34.7708 24.6921 35.3405 25.3236 35.7441 26.1504C36.1543 26.9707 36.3594 27.9635 36.3594 29.1289ZM28.2148 29.1289C28.2148 29.9883 28.3288 30.7337 28.5566 31.3652C28.7845 31.9967 29.1361 32.485 29.6113 32.8301C30.0866 33.1751 30.6986 33.3477 31.4473 33.3477C32.1895 33.3477 32.7982 33.1751 33.2734 32.8301C33.7552 32.485 34.11 31.9967 34.3379 31.3652C34.5658 30.7337 34.6797 29.9883 34.6797 29.1289C34.6797 28.276 34.5658 27.5404 34.3379 26.9219C34.11 26.2969 33.7585 25.8151 33.2832 25.4766C32.8079 25.138 32.1927 24.9688 31.4375 24.9688C30.3242 24.9688 29.5072 25.3366 28.9863 26.0723C28.472 26.8079 28.2148 27.8268 28.2148 29.1289ZM50.7832 23.6016C51.9616 23.6016 52.8503 23.9108 53.4492 24.5293C54.0482 25.1413 54.3477 26.1276 54.3477 27.4883V34.5H52.7461V27.5664C52.7461 26.7005 52.5573 26.0527 52.1797 25.623C51.8086 25.1868 51.2552 24.9688 50.5195 24.9688C49.4844 24.9688 48.7324 25.2682 48.2637 25.8672C47.7949 26.4661 47.5605 27.3483 47.5605 28.5137V34.5H45.9492V27.5664C45.9492 26.987 45.8646 26.5052 45.6953 26.1211C45.5326 25.737 45.2852 25.4505 44.9531 25.2617C44.6276 25.0664 44.2142 24.9688 43.7129 24.9688C43.0033 24.9688 42.4336 25.1152 42.0039 25.4082C41.5742 25.7012 41.2617 26.1374 41.0664 26.7168C40.8776 27.2897 40.7832 27.9961 40.7832 28.8359V34.5H39.1621V23.7969H40.4707L40.7148 25.3105H40.8027C41.0176 24.9395 41.2878 24.627 41.6133 24.373C41.9388 24.1191 42.3034 23.9271 42.707 23.7969C43.1107 23.6667 43.5404 23.6016 43.9961 23.6016C44.8099 23.6016 45.4902 23.7546 46.0371 24.0605C46.5905 24.36 46.9909 24.819 47.2383 25.4375H47.3262C47.6777 24.819 48.1595 24.36 48.7715 24.0605C49.3835 23.7546 50.054 23.6016 50.7832 23.6016ZM66.2227 35.6621V33.6113C65.474 33.5983 64.7578 33.5332 64.0742 33.416C63.3971 33.2988 62.8438 33.1458 62.4141 32.957V31.375C62.8633 31.5833 63.4395 31.7656 64.1426 31.9219C64.8457 32.0781 65.5391 32.1628 66.2227 32.1758V27.8789C65.3633 27.638 64.6504 27.3646 64.084 27.0586C63.5241 26.7461 63.1042 26.3652 62.8242 25.916C62.5443 25.4668 62.4043 24.9232 62.4043 24.2852C62.4043 23.6211 62.5605 23.0547 62.873 22.5859C63.1921 22.1107 63.638 21.7396 64.2109 21.4727C64.7839 21.2057 65.4544 21.0527 66.2227 21.0137V19.3242H67.4141V20.9941C68.1107 21.0137 68.7454 21.0918 69.3184 21.2285C69.8913 21.3587 70.4219 21.528 70.9102 21.7363L70.4023 23.0938C69.9596 22.918 69.4811 22.7682 68.9668 22.6445C68.4525 22.5208 67.9349 22.4362 67.4141 22.3906V26.6582C68.2865 26.9121 69.0156 27.1823 69.6016 27.4688C70.194 27.7552 70.64 28.11 70.9395 28.5332C71.2389 28.9564 71.3887 29.5033 71.3887 30.1738C71.3887 31.1243 71.0404 31.8926 70.3438 32.4785C69.6471 33.0579 68.6706 33.4095 67.4141 33.5332V35.6621H66.2227ZM67.4141 32.0879C68.2148 32.0098 68.8105 31.8177 69.2012 31.5117C69.5983 31.1992 69.7969 30.7891 69.7969 30.2812C69.7969 29.9167 69.7188 29.6172 69.5625 29.3828C69.4128 29.1484 69.1654 28.9466 68.8203 28.7773C68.4753 28.6016 68.0065 28.4355 67.4141 28.2793V32.0879ZM66.2227 26.248V22.4297C65.7344 22.4622 65.3242 22.5534 64.9922 22.7031C64.6602 22.8529 64.4095 23.0482 64.2402 23.2891C64.0775 23.5299 63.9961 23.8164 63.9961 24.1484C63.9961 24.5326 64.0677 24.8548 64.2109 25.1152C64.3607 25.3691 64.5983 25.5872 64.9238 25.7695C65.2559 25.9453 65.6888 26.1048 66.2227 26.248ZM83.6641 31.1895H81.5254V34.5H79.9434V31.1895H73.0391V29.8223L79.8359 20.1445H81.5254V29.7246H83.6641V31.1895ZM79.9434 29.7246V25.0566C79.9434 24.6986 79.9466 24.3763 79.9531 24.0898C79.9596 23.7969 79.9694 23.5267 79.9824 23.2793C79.9954 23.0254 80.0052 22.7845 80.0117 22.5566C80.0247 22.3288 80.0345 22.1042 80.041 21.8828H79.9629C79.8392 22.1432 79.696 22.4199 79.5332 22.7129C79.377 22.9993 79.2174 23.2565 79.0547 23.4844L74.6504 29.7246H79.9434ZM95.1094 31.1895H92.9707V34.5H91.3887V31.1895H84.4844V29.8223L91.2812 20.1445H92.9707V29.7246H95.1094V31.1895ZM91.3887 29.7246V25.0566C91.3887 24.6986 91.3919 24.3763 91.3984 24.0898C91.4049 23.7969 91.4147 23.5267 91.4277 23.2793C91.4408 23.0254 91.4505 22.7845 91.457 22.5566C91.4701 22.3288 91.4798 22.1042 91.4863 21.8828H91.4082C91.2845 22.1432 91.1413 22.4199 90.9785 22.7129C90.8223 22.9993 90.6628 23.2565 90.5 23.4844L86.0957 29.7246H91.3887ZM100.998 25.7695C101.968 25.7695 102.811 25.9355 103.527 26.2676C104.243 26.5931 104.797 27.0684 105.188 27.6934C105.585 28.3184 105.783 29.0768 105.783 29.9688C105.783 30.9453 105.572 31.7884 105.148 32.498C104.725 33.2012 104.117 33.7448 103.322 34.1289C102.528 34.5065 101.577 34.6953 100.471 34.6953C99.7285 34.6953 99.0384 34.6302 98.4004 34.5C97.7624 34.3698 97.2253 34.1745 96.7891 33.9141V32.3711C97.2643 32.6576 97.8405 32.8854 98.5176 33.0547C99.1947 33.224 99.8522 33.3086 100.49 33.3086C101.213 33.3086 101.844 33.1947 102.385 32.9668C102.932 32.7324 103.355 32.3809 103.654 31.9121C103.96 31.4368 104.113 30.8411 104.113 30.125C104.113 29.1745 103.82 28.4421 103.234 27.9277C102.655 27.4069 101.737 27.1465 100.48 27.1465C100.077 27.1465 99.6341 27.179 99.1523 27.2441C98.6706 27.3092 98.2734 27.3809 97.9609 27.459L97.1406 26.9219L97.6875 20.2227H104.787V21.707H99.0742L98.7129 26.0137C98.9603 25.9616 99.2793 25.9095 99.6699 25.8574C100.061 25.7988 100.503 25.7695 100.998 25.7695Z" fill="#59B202"/>
</svg>
