<svg width="153" height="167" viewBox="0 0 153 167" fill="none" xmlns="http://www.w3.org/2000/svg">
<g clip-path="url(#clip0_308_3985)">
<path d="M75.3639 48.2012L77.1715 53.8147H73.4375L75.2488 48.2012H75.3639Z" fill="#59B202"/>
<path fill-rule="evenodd" clip-rule="evenodd" d="M92.0974 54.9003C93.3315 53.6557 93.3315 51.6378 92.0974 50.3932L85.1302 43.369C84.5371 42.7713 83.7329 42.4355 82.8946 42.4355H67.1084C65.3628 42.4355 63.9473 43.8624 63.9473 45.6226V59.6709C63.9473 61.431 65.3628 62.8579 67.1084 62.8579H82.8946C83.7329 62.8579 84.5371 62.5221 85.1302 61.9244L92.0974 54.9003ZM71.5555 59.6455H68.2218L73.3011 44.8113H77.3101L82.3825 59.6455H79.0487L77.9594 56.2629H72.6468L71.5555 59.6455Z" fill="#59B202"/>
<path d="M72.7617 77.7893H75.0681C75.4942 77.7893 75.8729 77.7147 76.2036 77.5649C76.5387 77.4107 76.8023 77.1933 76.9939 76.9128C77.1899 76.633 77.2885 76.2971 77.2885 75.9064C77.2885 75.3703 77.0988 74.9382 76.7208 74.6099C76.3471 74.2816 75.8154 74.1172 75.1256 74.1172H72.7617V77.7893Z" fill="#59B202"/>
<path d="M72.7617 83.8525H75.2982C76.165 83.8525 76.7973 83.6855 77.1949 83.3528C77.5926 83.0144 77.7911 82.5656 77.7911 82.0053C77.7911 81.5949 77.6931 81.2328 77.4965 80.9186C77.2999 80.605 77.0198 80.3589 76.6563 80.1798C76.2965 80.0013 75.8679 79.9121 75.3697 79.9121H72.7617V83.8525Z" fill="#59B202"/>
<path fill-rule="evenodd" clip-rule="evenodd" d="M105.951 77.2002C107.186 78.4444 107.186 80.4624 105.951 81.7073L98.9843 88.7315C98.3919 89.3287 97.5877 89.6646 96.7493 89.6646H67.1084C65.3622 89.6646 63.9473 88.2381 63.9473 86.4776V72.4292C63.9473 70.6693 65.3622 69.2422 67.1084 69.2422H96.7493C97.5877 69.2422 98.3919 69.5781 98.9843 70.176L105.951 77.2002ZM69.6513 71.584V86.4177H75.9375C77.0395 86.4177 77.9657 86.2392 78.7181 85.8823C79.4698 85.5247 80.0376 85.0396 80.4207 84.4258C80.8089 83.8082 81.003 83.1051 81.003 82.3185C81.003 81.5894 80.8493 80.9615 80.5427 80.435C80.2361 79.9041 79.8365 79.491 79.3434 79.1965C78.8546 78.9021 78.3299 78.7427 77.7697 78.7185V78.5738C78.2818 78.4578 78.7371 78.2621 79.1347 77.9867C79.5368 77.7069 79.8529 77.3493 80.0831 76.9146C80.3132 76.4755 80.4276 75.9662 80.4276 75.3868C80.4276 74.6429 80.2462 73.9864 79.882 73.4166C79.5179 72.8416 78.9741 72.3929 78.2509 72.0691C77.5276 71.7459 76.6248 71.584 75.5424 71.584H69.6513Z" fill="#59B202"/>
<path fill-rule="evenodd" clip-rule="evenodd" d="M120.313 108.513C121.546 107.268 121.546 105.252 120.313 104.007L113.352 96.9833C112.759 96.3854 111.954 96.0488 111.116 96.0488H67.1084C65.3622 96.0488 63.9473 97.476 63.9473 99.2359V113.284C63.9473 115.045 65.3622 116.471 67.1084 116.471H111.116C111.954 116.471 112.759 116.135 113.352 115.537L120.313 108.513ZM82.6335 103.549H79.4869C79.4293 103.138 79.3118 102.773 79.1347 102.455C78.9577 102.131 78.7301 101.856 78.4519 101.629C78.1744 101.402 77.8532 101.228 77.4897 101.107C77.1299 100.987 76.7398 100.926 76.3181 100.926C75.5569 100.926 74.8937 101.117 74.3285 101.499C73.7633 101.875 73.3245 102.425 73.0135 103.15C72.7024 103.869 72.5462 104.744 72.5462 105.772C72.5462 106.829 72.7024 107.718 73.0135 108.437C73.3296 109.157 73.7702 109.7 74.3355 110.067C74.9007 110.434 75.5544 110.617 76.2966 110.617C76.7133 110.617 77.0989 110.562 77.4536 110.451C77.8127 110.34 78.1314 110.178 78.4089 109.966C78.6871 109.749 78.9166 109.485 79.0987 109.176C79.2858 108.867 79.4148 108.515 79.4869 108.119L82.6335 108.133C82.5519 108.814 82.3484 109.471 82.0228 110.104C81.7016 110.731 81.2685 111.294 80.7223 111.791C80.1811 112.284 79.5343 112.675 78.7826 112.964C78.0353 113.249 77.19 113.392 76.2467 113.392C74.9342 113.392 73.7608 113.092 72.7264 112.494C71.6965 111.895 70.8822 111.028 70.2835 109.893C69.6892 108.759 69.3927 107.384 69.3927 105.772C69.3927 104.154 69.6942 102.778 70.298 101.643C70.9012 100.509 71.7206 99.6444 72.7549 99.0504C73.7892 98.4512 74.9531 98.1523 76.2467 98.1523C77.0989 98.1523 77.8892 98.2727 78.6176 98.5143C79.3503 98.7559 79.999 99.1084 80.5642 99.5718C81.1294 100.031 81.589 100.593 81.9437 101.26C82.3028 101.926 82.533 102.689 82.6335 103.549Z" fill="#59B202"/>
<path d="M23.3926 154.89C23.3926 153.13 24.8079 151.703 26.5537 151.703H27.186C28.9319 151.703 30.3471 153.13 30.3471 154.89C30.3471 156.651 28.9319 158.077 27.186 158.077H26.5537C24.8079 158.077 23.3926 156.651 23.3926 154.89Z" fill="#59B202"/>
<path d="M37.5081 97.7608C38.581 98.3855 38.581 99.9465 37.5081 100.571L29.0592 105.489C27.9863 106.113 26.6452 105.333 26.6452 104.084V102.385C23.4504 102.705 20.9551 105.422 20.9551 108.727C20.9551 112.247 23.7858 115.101 27.2774 115.101C30.7692 115.101 33.5998 112.247 33.5998 108.727C33.5998 105.207 39.606 104.584 39.9221 108.727C39.9221 115.42 34.2609 121.475 27.2774 121.475C20.294 121.475 14.6328 115.768 14.6328 108.727C14.6328 101.9 19.9555 96.3267 26.6452 95.9946V94.2481C26.6452 92.9988 27.9863 92.2186 29.0592 92.8426L37.5081 97.7608Z" fill="#59B202"/>
<path fill-rule="evenodd" clip-rule="evenodd" d="M53.7397 135.13V163.813C53.7397 165.573 52.3244 167 50.5786 167H3.16116C1.4153 167 0 165.573 0 163.813V72.6641C0 70.9042 1.4153 69.4771 3.16116 69.4771H23.9393V62.6503L12.6332 62.63C11.6114 62.63 10.3197 62.2777 9.55472 61.3246C8.45698 59.9562 8.66694 57.9494 10.024 56.8422L78.8317 0.709667C79.572 0.105562 80.5008 -0.105921 81.3707 0.0487616C81.9258 0.12408 82.4676 0.348946 82.9342 0.729892L151.742 56.8624C153.099 57.9697 153.309 59.9765 152.212 61.3448C151.447 62.2979 150.155 62.6503 149.133 62.6503H137.827V131.354C137.827 133.114 136.503 135.178 134.758 135.178L53.7397 135.13ZM80.8706 7.24557L140.746 56.0915H134.666C132.92 56.0915 131.505 57.5185 131.505 59.2786V128.756H53.7397V72.6641C53.7397 70.9042 52.3244 69.4771 50.5786 69.4771H30.2616V59.2583C30.2616 57.4983 28.8464 56.0713 27.1004 56.0713H21.0201L80.8706 7.24557ZM47.4174 75.8511V160.626H6.32231V75.8511H47.4174Z" fill="#59B202"/>
</g>
<defs>
<clipPath id="clip0_308_3985">
<rect width="153" height="167" fill="white"/>
</clipPath>
</defs>
</svg>
