<svg width="198" height="166" viewBox="0 0 198 166" fill="none" xmlns="http://www.w3.org/2000/svg">
<g clip-path="url(#clip0_108_8987)">
<path d="M28.1878 17C38.5989 17 48.2015 20.4925 55.9069 26.3796L51.8946 31.3366C45.2843 26.3484 37.078 23.3942 28.1878 23.3942C19.345 23.3942 11.1789 26.3168 4.58702 31.2568L0.574219 26.2991C8.26167 20.4607 17.8241 17 28.1878 17Z" fill="#59B202"/>
<path d="M14.3265 43.2924C18.0459 40.0573 22.8893 38.1013 28.1856 38.1013C33.5296 38.1013 38.4124 40.0926 42.1448 43.3799L46.1554 38.4248C41.3293 34.2377 35.0504 31.707 28.1856 31.707C21.3684 31.707 15.129 34.2028 10.3164 38.338L14.3265 43.2924Z" fill="#59B202"/>
<path d="M98.2474 79.6641C96.4967 79.6641 95.0781 81.0957 95.0781 82.8612C95.0781 84.6266 96.4967 86.0583 98.2474 86.0583C99.9981 86.0583 101.417 84.6266 101.417 82.8612C101.417 81.0957 99.9981 79.6641 98.2474 79.6641Z" fill="#59B202"/>
<path d="M98.2474 95.0098C96.4967 95.0098 95.0781 96.4414 95.0781 98.2069C95.0781 99.9723 96.4967 101.404 98.2474 101.404C99.9981 101.404 101.417 99.9723 101.417 98.2069C101.417 96.4414 99.9981 95.0098 98.2474 95.0098Z" fill="#59B202"/>
<path d="M95.0781 113.553C95.0781 111.787 96.4967 110.355 98.2474 110.355C99.9981 110.355 101.417 111.787 101.417 113.553C101.417 115.318 99.9981 116.75 98.2474 116.75C96.4967 116.75 95.0781 115.318 95.0781 113.553Z" fill="#59B202"/>
<path d="M114.728 79.6641C112.977 79.6641 111.559 81.0957 111.559 82.8612C111.559 84.6266 112.977 86.0583 114.728 86.0583C116.479 86.0583 117.897 84.6266 117.897 82.8612C117.897 81.0957 116.479 79.6641 114.728 79.6641Z" fill="#59B202"/>
<path d="M111.559 98.2069C111.559 96.4414 112.977 95.0098 114.728 95.0098C116.479 95.0098 117.897 96.4414 117.897 98.2069C117.897 99.9723 116.479 101.404 114.728 101.404C112.977 101.404 111.559 99.9723 111.559 98.2069Z" fill="#59B202"/>
<path d="M114.728 110.355C112.977 110.355 111.559 111.787 111.559 113.553C111.559 115.318 112.977 116.75 114.728 116.75C116.479 116.75 117.897 115.318 117.897 113.553C117.897 111.787 116.479 110.355 114.728 110.355Z" fill="#59B202"/>
<path d="M128.039 82.8612C128.039 81.0957 129.458 79.6641 131.208 79.6641C132.959 79.6641 134.378 81.0957 134.378 82.8612C134.378 84.6266 132.959 86.0583 131.208 86.0583C129.458 86.0583 128.039 84.6266 128.039 82.8612Z" fill="#59B202"/>
<path d="M122.97 123.145C121.219 123.145 119.801 124.576 119.801 126.342C119.801 128.107 121.219 129.539 122.97 129.539C124.721 129.539 126.139 128.107 126.139 126.342C126.139 124.576 124.721 123.145 122.97 123.145Z" fill="#59B202"/>
<path d="M128.039 98.2069C128.039 96.4414 129.458 95.0098 131.208 95.0098C132.959 95.0098 134.378 96.4414 134.378 98.2069C134.378 99.9723 132.959 101.404 131.208 101.404C129.458 101.404 128.039 99.9723 128.039 98.2069Z" fill="#59B202"/>
<path d="M131.208 110.355C129.458 110.355 128.039 111.787 128.039 113.553C128.039 115.318 129.458 116.75 131.208 116.75C132.959 116.75 134.378 115.318 134.378 113.553C134.378 111.787 132.959 110.355 131.208 110.355Z" fill="#59B202"/>
<path d="M144.52 82.8612C144.52 81.0957 145.938 79.6641 147.689 79.6641C149.44 79.6641 150.858 81.0957 150.858 82.8612C150.858 84.6266 149.44 86.0583 147.689 86.0583C145.938 86.0583 144.52 84.6266 144.52 82.8612Z" fill="#59B202"/>
<path d="M147.689 95.0098C145.938 95.0098 144.52 96.4414 144.52 98.2069C144.52 99.9723 145.938 101.404 147.689 101.404C149.44 101.404 150.858 99.9723 150.858 98.2069C150.858 96.4414 149.44 95.0098 147.689 95.0098Z" fill="#59B202"/>
<path d="M144.52 113.553C144.52 111.787 145.938 110.355 147.689 110.355C149.44 110.355 150.858 111.787 150.858 113.553C150.858 115.318 149.44 116.75 147.689 116.75C145.938 116.75 144.52 115.318 144.52 113.553Z" fill="#59B202"/>
<path fill-rule="evenodd" clip-rule="evenodd" d="M84.9364 121.227H62.7513C61.001 121.227 59.582 119.795 59.582 118.03V47.6932C59.582 45.9275 61.001 44.4961 62.7513 44.4961H132.476C134.226 44.4961 135.645 45.9275 135.645 47.6932V64.3182H157.83C159.58 64.3182 160.999 65.7496 160.999 67.5153V137.852C160.999 139.617 159.58 141.049 157.83 141.049H88.1057C86.3556 141.049 84.9364 139.617 84.9364 137.852V121.227ZM84.9364 108.006L67.5034 81.2744L87.5834 50.8903H106.072L115.073 64.3182H88.1057C86.3556 64.3182 84.9364 65.7496 84.9364 67.5153V108.006ZM122.725 64.3182H129.306V50.8903H113.724L122.725 64.3182ZM65.9206 72.1423V50.8903H79.965L65.9206 72.1423ZM65.9206 90.4815V114.833H81.8013L65.9206 90.4815ZM91.2749 70.7124V134.655H154.661V70.7124H91.2749Z" fill="#59B202"/>
<path fill-rule="evenodd" clip-rule="evenodd" d="M12.0207 56.6446C12.0324 54.8789 13.4608 53.4571 15.211 53.4688L40.5648 53.6392C42.3151 53.6509 43.7246 55.0918 43.7129 56.8575L43.122 146.375C43.1103 148.14 41.682 149.562 39.9316 149.55L14.5779 149.38C12.8275 149.369 11.4181 147.927 11.4298 146.162L12.0207 56.6446ZM18.3201 62.61L18.3381 59.8842L37.3534 60.012L37.3394 62.1289L27.7145 69.9427L18.3201 62.61ZM18.2669 70.6533L18.2217 77.5045L27.6754 85.7896L37.237 77.6328L37.2849 70.3808L29.74 76.5059C28.5975 77.4334 26.9734 77.449 25.8136 76.5438L18.2669 70.6533ZM18.1132 93.9467L18.1662 85.9258L22.7775 89.9675L18.1132 93.9467ZM18.1132 102.363L17.7893 143.007L36.8046 143.135L37.1285 102.363L27.6193 94.2108L18.1132 102.363ZM37.1285 94.0746L37.1815 86.0543L32.5172 90.0334L37.1285 94.0746Z" fill="#59B202"/>
</g>
<defs>
<clipPath id="clip0_108_8987">
<rect width="161" height="133" fill="white" transform="translate(0 17)"/>
</clipPath>
</defs>
</svg>
