<svg width="202" height="172" viewBox="0 0 202 172" fill="none" xmlns="http://www.w3.org/2000/svg">
<g filter="url(#filter0_d_108_8939)">
<g clip-path="url(#clip0_108_8939)">
<path d="M20.9922 2H27.2849V160.824H20.9922V2Z" fill="#59B202"/>
<path d="M4 35.6699H16.5854V48.3758H4V35.6699Z" fill="#59B202"/>
<path d="M4 54.7285H16.5854V61.0815H4V54.7285Z" fill="#59B202"/>
<path d="M4 67.4355H16.5854V73.7885H4V67.4355Z" fill="#59B202"/>
<path d="M33.5742 2H39.8669V160.824H33.5742V2Z" fill="#59B202"/>
<path d="M67.5544 50.2818V32.4936H87.691V29.3171C87.691 27.5628 86.2821 26.1406 84.5446 26.1406H64.4081C62.6704 26.1406 61.2617 27.5628 61.2617 29.3171V53.4583C61.2617 55.2126 62.6704 56.6347 64.4081 56.6347H84.5446C86.2821 56.6347 87.691 55.2126 87.691 53.4583V50.2818H67.5544Z" fill="#59B202"/>
<path d="M104.683 150.024C104.683 151.778 103.274 153.201 101.537 153.201C99.7996 153.201 98.3906 151.778 98.3906 150.024C98.3906 148.27 99.7996 146.848 101.537 146.848C103.274 146.848 104.683 148.27 104.683 150.024Z" fill="#59B202"/>
<path fill-rule="evenodd" clip-rule="evenodd" d="M92.0995 96.6597V103.013C90.3621 103.013 88.9531 104.435 88.9531 106.189V124.613C88.9531 126.367 90.3621 127.789 92.0995 127.789H110.978C112.715 127.789 114.124 126.367 114.124 124.613V106.189C114.124 104.435 112.715 103.013 110.978 103.013H110.348V96.6597C110.348 91.7476 106.404 87.7656 101.538 87.7656H100.909C96.0437 87.7656 92.0995 91.7476 92.0995 96.6597ZM101.538 94.1186H100.909C99.5192 94.1186 98.3921 95.2564 98.3921 96.6597V103.013H104.056V96.6597C104.056 95.2564 102.929 94.1186 101.538 94.1186ZM105.943 112.224C105.943 114.053 104.923 115.64 103.426 116.44V121.436H99.0214V116.44C97.5244 115.64 96.5043 114.053 96.5043 112.224C96.5043 109.593 98.6174 107.46 101.224 107.46C103.83 107.46 105.943 109.593 105.943 112.224Z" fill="#59B202"/>
<path fill-rule="evenodd" clip-rule="evenodd" d="M96.5019 9.62374V35.0355H126.707C130.182 35.0355 132.999 37.8798 132.999 41.3884C132.999 44.897 130.182 47.7414 126.707 47.7414H96.5019V66.8002H124.819C126.556 66.8002 127.965 68.2226 127.965 69.9767V160.824C127.965 162.578 126.556 164 124.819 164H78.2531C76.5157 164 75.1068 162.578 75.1068 160.824V101.741H55.5995C53.8618 101.741 52.4531 100.319 52.4531 98.5649V9.62374C52.4531 7.86942 53.8618 6.44727 55.5995 6.44727H93.3556C95.093 6.44727 96.5019 7.86942 96.5019 9.62374ZM75.1068 95.3884H58.7458V12.8002H90.2092V35.0355H76.3653C72.8899 35.0355 70.0726 37.8798 70.0726 41.3884C70.0726 44.897 72.8899 47.7414 76.3653 47.7414H90.2092V66.8002H78.2531C76.5157 66.8002 75.1068 68.2226 75.1068 69.9767V95.3884ZM81.3995 73.1532V157.647H121.673V73.1532H81.3995Z" fill="#59B202"/>
</g>
</g>
<defs>
<filter id="filter0_d_108_8939" x="0" y="0" width="206" height="174" filterUnits="userSpaceOnUse" color-interpolation-filters="sRGB">
<feFlood flood-opacity="0" result="BackgroundImageFix"/>
<feColorMatrix in="SourceAlpha" type="matrix" values="0 0 0 0 0 0 0 0 0 0 0 0 0 0 0 0 0 0 127 0" result="hardAlpha"/>
<feOffset dy="4"/>
<feGaussianBlur stdDeviation="2"/>
<feComposite in2="hardAlpha" operator="out"/>
<feColorMatrix type="matrix" values="0 0 0 0 0 0 0 0 0 0 0 0 0 0 0 0 0 0 0.25 0"/>
<feBlend mode="normal" in2="BackgroundImageFix" result="effect1_dropShadow_108_8939"/>
<feBlend mode="normal" in="SourceGraphic" in2="effect1_dropShadow_108_8939" result="shape"/>
</filter>
<clipPath id="clip0_108_8939">
<rect width="129" height="162" fill="white" transform="translate(4 2)"/>
</clipPath>
</defs>
</svg>
