<svg width="53" height="53" viewBox="0 0 53 53" fill="none" xmlns="http://www.w3.org/2000/svg">
<rect x="0.5" y="0.5" width="52" height="52" rx="26" stroke="#438006"/>
<path d="M9.02148 34.5H7.43945V24.3828C7.43945 23.9987 7.43945 23.6699 7.43945 23.3965C7.44596 23.1165 7.45247 22.8626 7.45898 22.6348C7.47201 22.4004 7.48828 22.1628 7.50781 21.9219C7.30599 22.1302 7.11719 22.3092 6.94141 22.459C6.76562 22.6022 6.54753 22.7812 6.28711 22.9961L4.65625 24.3047L3.80664 23.2012L7.67383 20.2227H9.02148V34.5ZM14.9102 33.4844C14.9102 33.0286 15.0208 32.7064 15.2422 32.5176C15.4635 32.3223 15.7337 32.2246 16.0527 32.2246C16.3848 32.2246 16.6647 32.3223 16.8926 32.5176C17.1204 32.7064 17.2344 33.0286 17.2344 33.4844C17.2344 33.9336 17.1204 34.2624 16.8926 34.4707C16.6647 34.6725 16.3848 34.7734 16.0527 34.7734C15.7337 34.7734 15.4635 34.6725 15.2422 34.4707C15.0208 34.2624 14.9102 33.9336 14.9102 33.4844ZM24.1973 25.7695C25.1673 25.7695 26.0104 25.9355 26.7266 26.2676C27.4427 26.5931 27.9961 27.0684 28.3867 27.6934C28.7839 28.3184 28.9824 29.0768 28.9824 29.9688C28.9824 30.9453 28.7708 31.7884 28.3477 32.498C27.9245 33.2012 27.3158 33.7448 26.5215 34.1289C25.7272 34.5065 24.7767 34.6953 23.6699 34.6953C22.9277 34.6953 22.2376 34.6302 21.5996 34.5C20.9616 34.3698 20.4245 34.1745 19.9883 33.9141V32.3711C20.4635 32.6576 21.0397 32.8854 21.7168 33.0547C22.3939 33.224 23.0514 33.3086 23.6895 33.3086C24.4121 33.3086 25.0436 33.1947 25.584 32.9668C26.1309 32.7324 26.554 32.3809 26.8535 31.9121C27.1595 31.4368 27.3125 30.8411 27.3125 30.125C27.3125 29.1745 27.0195 28.4421 26.4336 27.9277C25.8542 27.4069 24.9362 27.1465 23.6797 27.1465C23.276 27.1465 22.8333 27.179 22.3516 27.2441C21.8698 27.3092 21.4727 27.3809 21.1602 27.459L20.3398 26.9219L20.8867 20.2227H27.9863V21.707H22.2734L21.9121 26.0137C22.1595 25.9616 22.4785 25.9095 22.8691 25.8574C23.2598 25.7988 23.7025 25.7695 24.1973 25.7695ZM33.4746 19.3047V23.8457C33.4746 24.1061 33.4681 24.3698 33.4551 24.6367C33.4421 24.8971 33.4193 25.138 33.3867 25.3594H33.4941C33.7155 24.9818 33.9954 24.666 34.334 24.4121C34.679 24.1517 35.0697 23.9564 35.5059 23.8262C35.9421 23.6895 36.4043 23.6211 36.8926 23.6211C37.752 23.6211 38.4681 23.7578 39.041 24.0312C39.6204 24.3047 40.0534 24.7279 40.3398 25.3008C40.6328 25.8737 40.7793 26.6159 40.7793 27.5273V34.5H39.1777V27.6348C39.1777 26.7428 38.9727 26.0755 38.5625 25.6328C38.1589 25.1901 37.5371 24.9688 36.6973 24.9688C35.903 24.9688 35.2682 25.1217 34.793 25.4277C34.3242 25.7272 33.9857 26.1699 33.7773 26.7559C33.5755 27.3418 33.4746 28.0579 33.4746 28.9043V34.5H31.8535V19.3047H33.4746ZM48.9824 23.6016C49.1973 23.6016 49.4219 23.6146 49.6562 23.6406C49.8906 23.6602 50.099 23.6895 50.2812 23.7285L50.0762 25.2324C49.9004 25.1868 49.7051 25.151 49.4902 25.125C49.2754 25.099 49.0736 25.0859 48.8848 25.0859C48.4551 25.0859 48.0482 25.1738 47.6641 25.3496C47.2865 25.5189 46.9544 25.7663 46.668 26.0918C46.3815 26.4108 46.1569 26.7982 45.9941 27.2539C45.8314 27.7031 45.75 28.2044 45.75 28.7578V34.5H44.1191V23.7969H45.4668L45.6426 25.7695H45.7109C45.9323 25.3724 46.1992 25.0111 46.5117 24.6855C46.8242 24.3535 47.1855 24.0898 47.5957 23.8945C48.0124 23.6992 48.4746 23.6016 48.9824 23.6016Z" fill="#59B202"/>
</svg>
