<svg width="198" height="166" viewBox="0 0 198 166" fill="none" xmlns="http://www.w3.org/2000/svg">
<g clip-path="url(#clip0_108_8971)">
<path d="M23.5742 153.961C23.5742 152.212 25.0002 150.793 26.7597 150.793H27.3968C29.1563 150.793 30.5823 152.212 30.5823 153.961C30.5823 155.711 29.1563 157.129 27.3968 157.129H26.7597C25.0002 157.129 23.5742 155.711 23.5742 153.961Z" fill="#59B202"/>
<path d="M27.5141 136.374C28.4256 136.374 29.2929 135.986 29.8976 135.308L38.9371 125.17C40.1043 123.861 39.9835 121.859 38.6677 120.698C37.3512 119.537 35.3379 119.658 34.1707 120.966L27.5141 128.431L20.8582 120.966C19.691 119.658 17.6777 119.537 16.3612 120.698C15.0447 121.859 14.924 123.861 16.0912 125.17L25.1312 135.308C25.7354 135.986 26.6033 136.374 27.5141 136.374Z" fill="#59B202"/>
<path d="M29.8976 91.0344C29.2929 90.3565 28.4256 89.9688 27.5141 89.9688C26.6033 89.9688 25.7354 90.3565 25.1312 91.0344L16.0912 101.172C14.924 102.481 15.0447 104.484 16.3612 105.644C17.6777 106.805 19.691 106.685 20.8582 105.376L27.5141 97.9114L34.1707 105.376C35.3379 106.685 37.3512 106.805 38.6677 105.644C39.9835 104.484 40.1043 102.481 38.9371 101.172L29.8976 91.0344Z" fill="#59B202"/>
<path d="M93.0238 132.912C93.0238 134.537 88.2176 134.509 86.1253 134.497H86.1202L85.8877 134.496H85.6972C83.9375 134.496 82.5117 133.077 82.5117 131.328C82.5117 129.578 83.9375 128.16 85.6972 128.16C87.4562 128.16 93.0238 131.162 93.0238 132.912Z" fill="#59B202"/>
<path d="M143.573 134.181C141.474 134.193 136.668 134.221 136.668 132.596C136.668 130.846 142.235 127.844 143.995 127.844C145.754 127.844 147.18 129.262 147.18 131.012C147.18 132.761 145.754 134.18 143.995 134.18L143.573 134.181Z" fill="#59B202"/>
<path fill-rule="evenodd" clip-rule="evenodd" d="M138.888 103.191C143.59 106.256 147.186 110.737 148.973 117.072H152.594C154.353 117.072 155.78 118.49 155.78 120.24V120.873C155.78 122.183 154.98 123.307 153.84 123.789C156.209 125.987 157.691 129.118 157.691 132.595V149.068C157.691 150.367 156.904 151.483 155.78 151.972V155.721C155.78 157.47 154.353 158.889 152.594 158.889H146.223C144.464 158.889 143.038 157.47 143.038 155.721V152.236H86.3362V155.721C86.3362 157.47 84.9097 158.889 83.1507 158.889H76.7797C75.0201 158.889 73.5942 157.47 73.5942 155.721V151.602C72.8202 151.025 72.32 150.104 72.32 149.068V134.321H54.1532V162.832C54.1532 164.582 52.7272 166 50.9677 166H3.18548C1.426 166 0 164.582 0 162.832V72.229C0 70.4797 1.426 69.0611 3.18548 69.0611H24.1232V62.275L12.7301 62.2549C11.7004 62.2549 10.3989 61.9046 9.628 60.9574C8.52181 59.5971 8.73332 57.6022 10.1009 56.5018L79.4383 0.705278C80.1844 0.104792 81.1203 -0.105269 81.9969 0.0484872C82.1931 0.0747836 82.3874 0.119332 82.5779 0.182444C82.9302 0.299076 83.2673 0.479438 83.5731 0.725388L152.91 56.5219C154.277 57.6224 154.489 59.6172 153.383 60.9775C152.612 61.9248 151.31 62.275 150.281 62.275H138.888V103.191ZM81.493 7.20206L141.829 55.7557H135.702C133.943 55.7557 132.517 57.1741 132.517 58.9236V65.8931H68.1694C66.4097 65.8931 64.9839 67.3117 64.9839 69.0611C64.9839 70.8104 66.4097 72.229 68.1694 72.229H132.517V78.5649H68.1694C66.4097 78.5649 64.9839 79.9835 64.9839 81.7328C64.9839 83.4822 66.4097 84.9008 68.1694 84.9008H132.517V100.075C127.223 98.1814 121.177 97.4306 115.006 97.4306C99.819 97.4306 84.9129 101.965 80.9196 117.072H76.7797C75.0201 117.072 73.5942 118.49 73.5942 120.24V120.873C73.5942 122.295 74.5359 123.498 75.833 123.899C74.6372 124.994 73.6936 126.345 73.0865 127.985H71.3548V93.1374C71.3548 91.3881 69.929 89.9695 68.1694 89.9695C66.4097 89.9695 64.9839 91.3881 64.9839 93.1374V127.985H54.1532V72.229C54.1532 70.4797 52.7272 69.0611 50.9677 69.0611H30.4942V58.9035C30.4942 57.154 29.0682 55.7355 27.3087 55.7355H21.1816L81.493 7.20206ZM47.7823 75.3969V159.664H6.37097V75.3969H47.7823ZM85.4876 124.957L82.3868 126.384C80.2162 127.204 78.691 130.169 78.691 132.595V145.9H90.1587V144.95C90.1587 143.2 91.5846 141.782 93.3442 141.782H136.667C138.96 141.782 140.038 143.888 139.836 145.9H151.32V132.595C151.32 130.163 149.787 127.194 147.608 126.377L144.181 124.957V122.194C142.069 107.017 127.79 103.766 115.006 103.766C102.221 103.766 87.2313 107.182 85.4876 122.194V124.957Z" fill="#59B202"/>
</g>
<defs>
<clipPath id="clip0_108_8971">
<rect width="158" height="166" fill="white"/>
</clipPath>
</defs>
</svg>
