<svg width="202" height="171" viewBox="0 0 202 171" fill="none" xmlns="http://www.w3.org/2000/svg">
<g filter="url(#filter0_d_108_8955)">
<g clip-path="url(#clip0_108_8955)">
<path d="M101.605 4.00002C103.283 3.99386 104.649 5.34675 104.655 7.02179L104.676 12.5821C104.681 14.2571 103.326 15.6201 101.648 15.6262C99.9699 15.6323 98.6048 14.2794 98.5985 12.6044L98.5781 7.04409C98.5718 5.36906 99.9273 4.00618 101.605 4.00002Z" fill="#59B202"/>
<path d="M67.4621 127.526C69.2143 127.526 70.6352 126.108 70.6352 124.359C70.6352 122.61 69.2143 121.191 67.4621 121.191C65.7097 121.191 64.2891 122.61 64.2891 124.359C64.2891 126.108 65.7097 127.526 67.4621 127.526Z" fill="#59B202"/>
<path d="M67.58 62.2793C68.4875 62.2793 69.3518 62.6673 69.9541 63.3452L78.958 73.4809C80.1212 74.7896 80.0007 76.7914 78.6896 77.9519C77.3784 79.1124 75.3731 78.992 74.2098 77.6833L67.58 70.2204L60.9495 77.6833C59.7868 78.992 57.7813 79.1124 56.4702 77.9519C55.159 76.7914 55.0387 74.7896 56.2014 73.4809L65.2058 63.3452C65.8079 62.6673 66.6722 62.2793 67.58 62.2793Z" fill="#59B202"/>
<path d="M69.9541 107.457C69.3518 108.135 68.4875 108.523 67.58 108.523C66.6722 108.523 65.8079 108.135 65.2058 107.457L56.2014 97.3212C55.0387 96.0124 55.159 94.0107 56.4702 92.8501C57.7813 91.6896 59.7868 91.81 60.9495 93.1187L67.58 100.582L74.2098 93.1187C75.3731 91.81 77.3784 91.6896 78.6896 92.8501C80.0007 94.0107 80.1212 96.0124 78.958 97.3212L69.9541 107.457Z" fill="#59B202"/>
<path fill-rule="evenodd" clip-rule="evenodd" d="M88.0903 24.4334C89.7137 22.8007 91.5617 21.5247 93.5347 20.6056L93.6217 20.4829C96.103 19.3744 98.7735 18.8245 101.442 18.8324C104.133 18.8146 106.828 19.3645 109.331 20.4826L109.418 20.6063C111.392 21.5253 113.239 22.8012 114.862 24.4337C122.251 31.8637 122.207 43.8658 114.764 51.2412C110.982 54.9884 106.278 56.844 101.464 56.7764C98.9448 56.8084 96.4565 56.3138 94.1154 55.2971V137.028C94.1154 138.777 92.6945 140.195 90.9423 140.195H54.7688C54.7423 141.921 53.3322 143.313 51.5962 143.313H51.4654L51.6234 143.593C52.4824 145.118 51.9408 147.049 50.4137 147.907C48.886 148.764 46.9512 148.224 46.0922 146.699L44.1847 143.313H34.8805L39.1672 150.725L43.6312 150.675C45.3833 150.655 46.8198 152.057 46.8396 153.806C46.8594 155.555 45.4545 156.989 43.7025 157.009L42.8082 157.019L43.2383 157.762C44.1146 159.278 43.5947 161.215 42.0769 162.09C40.5592 162.964 38.6188 162.445 37.7424 160.93L37.4791 160.475L37.2987 160.796C36.4391 162.32 34.5049 162.861 32.9772 162.004C31.4502 161.146 30.9086 159.214 31.7675 157.69L33.7916 154.099L29.3846 146.48L25.1158 153.86L27.2744 157.69C28.1333 159.214 27.5917 161.146 26.0647 162.004C24.537 162.861 22.6028 162.32 21.7432 160.796L21.4277 160.236L21.0268 160.93C20.1505 162.445 18.2101 162.964 16.6923 162.09C15.1746 161.215 14.6546 159.278 15.5309 157.762L15.9629 157.016L15.3394 157.009C13.5874 156.989 12.1825 155.555 12.2023 153.806C12.2221 152.057 13.6587 150.655 15.4107 150.675L19.6039 150.721L23.8887 143.313H14.6843L12.6386 146.76C11.7455 148.266 9.79892 148.763 8.29109 147.872C6.78326 146.98 6.28561 145.037 7.17866 143.532L7.3088 143.313H7.17308C5.42045 143.313 4 141.895 4 140.146C4 138.397 5.42045 136.978 7.17308 136.978H7.75563L7.26232 136.103C6.40336 134.578 6.94501 132.647 8.47206 131.789C9.99972 130.932 11.9345 131.472 12.7935 132.998L15.0363 136.978H23.8887L19.4179 129.248L15.5136 129.42C13.7628 129.497 12.281 128.143 12.2035 126.396C12.1267 124.647 13.4833 123.169 15.234 123.092L15.8414 123.065L15.5309 122.528C14.6546 121.013 15.1746 119.077 16.6923 118.202C18.2101 117.327 20.1505 117.846 21.0268 119.361L21.2084 119.675L21.5095 119.097C22.3183 117.546 24.2339 116.941 25.7889 117.748C27.3432 118.555 27.9487 120.468 27.1399 122.02L24.9721 126.182L29.3846 133.811L33.7953 126.185L31.7675 122.587C30.9086 121.063 31.4502 119.132 32.9772 118.274C34.5049 117.416 36.4391 117.957 37.2987 119.482L37.4834 119.809L37.7424 119.361C38.3863 118.248 39.6047 117.672 40.8077 117.793V46.4422C40.8077 44.6929 42.2283 43.2749 43.9808 43.2749H83.3866C81.4402 36.8281 83.0045 29.5476 88.0903 24.4334ZM101.5 50.6777C98.9099 50.6642 96.3226 49.8779 94.1154 48.3173V46.4422C94.1154 44.6929 92.6945 43.2749 90.9423 43.2749H89.8787C87.6353 38.5122 88.473 32.6585 92.4032 28.7069C94.8979 26.1978 98.1706 24.9274 101.453 24.8984C104.751 24.9156 108.043 26.1862 110.549 28.7072C115.574 33.7595 115.544 41.9209 110.482 46.9362C107.993 49.4028 104.75 50.649 101.5 50.6777ZM40.8077 129.571V136.978H34.8805L39.1753 129.554L40.8077 129.571ZM47.1538 49.6095V133.861H87.7692V49.6095H47.1538Z" fill="#59B202"/>
<path d="M81.0736 14.9879C79.8825 13.8078 77.959 13.8148 76.7767 15.0037C75.5944 16.1924 75.6014 18.1128 76.7925 19.2928L80.7455 23.2102C81.9367 24.3902 83.8609 24.3832 85.0425 23.1944C86.2248 22.0056 86.2178 20.0853 85.0273 18.9052L81.0736 14.9879Z" fill="#59B202"/>
<path d="M121.878 14.9879C123.07 13.8078 124.993 13.8148 126.175 15.0037C127.358 16.1924 127.351 18.1128 126.16 19.2929L122.207 23.2102C121.015 24.3902 119.091 24.3832 117.91 23.1944C116.727 22.0056 116.734 20.0853 117.925 18.9052L121.878 14.9879Z" fill="#59B202"/>
<path d="M101.609 58.8008C99.9308 58.7947 98.5657 60.1476 98.5594 61.8226L98.5391 67.3827C98.5327 69.0582 99.8883 70.4208 101.566 70.4271C103.244 70.4335 104.61 69.0804 104.616 67.4055L104.636 61.8449C104.642 60.1699 103.287 58.8069 101.609 58.8008Z" fill="#59B202"/>
<path d="M116.726 53.5719C115.535 54.7519 115.528 56.6722 116.71 57.8611L120.634 61.8072C121.816 62.9961 123.741 63.0031 124.931 61.823C126.122 60.643 126.129 58.7226 124.947 57.5338L121.023 53.5876C119.841 52.3989 117.917 52.3918 116.726 53.5719Z" fill="#59B202"/>
<path d="M132.464 36.5674C134.142 36.5735 135.497 37.9363 135.492 39.6114C135.485 41.2864 134.119 42.6393 132.442 42.6332L126.872 42.6127C125.193 42.6066 123.838 41.2437 123.844 39.5687C123.85 37.8936 125.216 36.5408 126.894 36.5469L132.464 36.5674Z" fill="#59B202"/>
<path d="M26.5285 28.0723C24.7761 28.0723 23.3555 29.4903 23.3555 31.2396V110.74C23.3555 112.489 24.7761 113.907 26.5285 113.907C28.281 113.907 29.7016 112.489 29.7016 110.74V34.4069H72.5382C74.2903 34.4069 75.7112 32.9888 75.7112 31.2396C75.7112 29.4903 74.2903 28.0723 72.5382 28.0723H26.5285Z" fill="#59B202"/>
<path d="M107.761 158.249C109.513 158.249 110.934 156.83 110.934 155.081V75.5814C110.934 73.8324 109.513 72.4141 107.761 72.4141C106.009 72.4141 104.588 73.8324 104.588 75.5814V151.914H61.7512C59.9988 151.914 58.5781 153.332 58.5781 155.081C58.5781 156.83 59.9988 158.249 61.7512 158.249H107.761Z" fill="#59B202"/>
</g>
</g>
<defs>
<filter id="filter0_d_108_8955" x="0" y="0" width="206" height="174" filterUnits="userSpaceOnUse" color-interpolation-filters="sRGB">
<feFlood flood-opacity="0" result="BackgroundImageFix"/>
<feColorMatrix in="SourceAlpha" type="matrix" values="0 0 0 0 0 0 0 0 0 0 0 0 0 0 0 0 0 0 127 0" result="hardAlpha"/>
<feOffset dy="4"/>
<feGaussianBlur stdDeviation="2"/>
<feComposite in2="hardAlpha" operator="out"/>
<feColorMatrix type="matrix" values="0 0 0 0 0 0 0 0 0 0 0 0 0 0 0 0 0 0 0.25 0"/>
<feBlend mode="normal" in2="BackgroundImageFix" result="effect1_dropShadow_108_8955"/>
<feBlend mode="normal" in="SourceGraphic" in2="effect1_dropShadow_108_8955" result="shape"/>
</filter>
<clipPath id="clip0_108_8955">
<rect width="132" height="159" fill="white" transform="translate(4 4)"/>
</clipPath>
</defs>
</svg>
