<svg width="133" height="176" viewBox="0 0 133 176" fill="none" xmlns="http://www.w3.org/2000/svg">
<g clip-path="url(#clip0_308_3995)">
<path fill-rule="evenodd" clip-rule="evenodd" d="M49.6458 41.3018C55.767 41.3018 60.7292 35.1857 60.7292 27.6411C60.7292 20.0965 55.767 13.9805 49.6458 13.9805C43.5247 13.9805 38.5625 20.0965 38.5625 27.6411C38.5625 35.1857 43.5247 41.3018 49.6458 41.3018ZM49.6458 34.948C51.1131 34.948 54.3958 32.9615 54.3958 27.6411C54.3958 22.3207 51.1131 20.3343 49.6458 20.3343C48.1786 20.3343 44.8958 22.3207 44.8958 27.6411C44.8958 32.9615 48.1786 34.948 49.6458 34.948Z" fill="#59B202"/>
<path fill-rule="evenodd" clip-rule="evenodd" d="M27.7966 27.8361L11.4226 5.10795C9.82923 3.01751 11.315 0.00124097 13.9381 0.00124097H47.1139L47.113 0L129.552 0.000887631C131.03 0.000887631 131.979 1.272 131.979 2.54275L132.297 26.6845V50.1148C132.734 51.9926 131.349 54.0085 129.205 54.0085H101.263V84.3078H106.33V76.2467C106.33 74.4925 107.748 73.0699 109.497 73.0699H129.763C131.513 73.0699 132.93 74.4925 132.93 76.2467V109.922C132.93 111.676 131.513 113.099 129.763 113.099H109.497C107.748 113.099 106.33 111.676 106.33 109.922V101.027H87.9632C86.2146 101.027 84.7966 99.5868 84.7966 97.8115V54.0085H30.9633C29.3665 53.8458 27.7966 52.4765 27.7966 50.8316V27.8361ZM116.463 84.3078H112.663V79.4236H126.597V106.745H112.663V101.027H116.463C119.961 101.027 122.797 98.1476 122.797 94.5959V90.7378C122.797 87.1867 119.961 84.3078 116.463 84.3078ZM84.7966 26.6872V47.6547H125.963V26.6872H84.7966ZM91.1299 54.0085V94.6727H116.44C116.444 94.6689 116.447 94.6651 116.449 94.6613C116.452 94.6575 116.454 94.653 116.456 94.6492C116.458 94.6448 116.459 94.6397 116.46 94.6327C116.461 94.6302 116.461 94.6264 116.462 94.6213C116.463 94.6149 116.463 94.6067 116.463 94.5959V90.7378C116.463 90.7194 116.461 90.7074 116.46 90.701C116.459 90.6946 116.458 90.6896 116.456 90.6851C116.452 90.6768 116.447 90.6686 116.44 90.6616H94.9299V54.0085H91.1299ZM60.0966 6.35506L70.8246 20.3306H125.963V6.35506H60.0966ZM72.7632 26.6872H78.4632V47.6547H72.7632V26.6872ZM66.4299 25.0297L52.0176 6.35506H34.13V47.6547H66.4299V25.0297ZM27.7966 16.6582V6.35506H20.3461L27.7966 16.6582Z" fill="#59B202"/>
<path fill-rule="evenodd" clip-rule="evenodd" d="M39.9049 113.097C46.9006 113.097 52.5716 107.408 52.5716 100.389C52.5716 93.3708 46.9006 87.6816 39.9049 87.6816C32.9093 87.6816 27.2383 93.3708 27.2383 100.389C27.2383 107.408 32.9093 113.097 39.9049 113.097ZM39.9049 106.743C43.4027 106.743 46.2383 103.898 46.2383 100.389C46.2383 96.88 43.4027 94.0354 39.9049 94.0354C36.4071 94.0354 33.5716 96.88 33.5716 100.389C33.5716 103.898 36.4071 106.743 39.9049 106.743Z" fill="#59B202"/>
<path fill-rule="evenodd" clip-rule="evenodd" d="M65.239 73.7044C67.7724 73.7044 69.0327 75.6105 69.0327 78.152L69.0333 123.901C69.0333 125.545 67.4633 126.915 65.8667 127.078H48.1332V160.714C48.1332 162.49 46.7154 163.93 44.9665 163.93H26.6V172.825C26.6 174.579 25.1822 176.002 23.4333 176.002H3.16667C1.41776 176.002 0 174.579 0 172.825V139.15C0 137.395 1.41777 135.973 3.16667 135.973H23.4333C25.1822 135.973 26.6 137.395 26.6 139.15V147.21H31.6666V127.078H14.492C12.3475 127.078 10.9633 125.061 11.4 123.183V76.2453C11.4 74.9745 12.349 73.7031 13.8264 73.7031L65.239 73.7044ZM20.2667 147.21H16.4667C12.9688 147.21 10.1333 150.089 10.1333 153.641V157.499C10.1333 161.051 12.9688 163.93 16.4667 163.93H20.2667V169.648H6.33333V142.327H20.2667V147.21ZM63.0222 120.724V79.4241H17.7333V120.724H63.0222ZM41.7999 157.576V127.078H37.9999V153.564H16.4892C16.4878 153.566 16.4863 153.568 16.485 153.57L16.4819 153.574C16.4805 153.576 16.4793 153.579 16.4781 153.58C16.4767 153.583 16.4756 153.586 16.4746 153.588C16.4727 153.593 16.471 153.598 16.4697 153.604C16.4691 153.607 16.4685 153.61 16.468 153.615C16.4672 153.622 16.4667 153.63 16.4667 153.641V157.499L16.4668 157.507L16.467 157.513C16.4672 157.517 16.4676 157.521 16.4679 157.524C16.4683 157.527 16.4686 157.529 16.4689 157.531L16.4697 157.536C16.471 157.542 16.4727 157.547 16.4746 157.552C16.4779 157.56 16.483 157.568 16.4892 157.576H41.7999Z" fill="#59B202"/>
</g>
<defs>
<clipPath id="clip0_308_3995">
<rect width="133" height="176" fill="white"/>
</clipPath>
</defs>
</svg>
