<svg width="198" height="166" viewBox="0 0 198 166" fill="none" xmlns="http://www.w3.org/2000/svg">
<g clip-path="url(#clip0_108_9003)">
<path d="M169.639 30.7939C169.639 19.8851 165.81 9.86702 159.417 2L154.838 6.41335C160.136 13.1267 163.296 21.5928 163.296 30.7939C163.296 40.2004 159.993 48.8386 154.48 55.6212L159.055 60.0293C165.664 52.0972 169.639 41.9078 169.639 30.7939Z" fill="#59B202"/>
<path d="M143.992 45.5156C147.695 41.7065 149.975 36.5158 149.975 30.7949C149.975 25.2786 147.855 20.2552 144.384 16.4881L148.944 12.0938C153.52 16.9989 156.318 23.5715 156.318 30.7949C156.318 38.2229 153.359 44.9626 148.551 49.9087L143.992 45.5156Z" fill="#59B202"/>
<path d="M69.2131 2.00195C62.8211 9.86897 58.9922 19.8871 58.9922 30.7959C58.9922 41.9098 62.9664 52.0992 69.5766 60.0313L74.1507 55.6232C68.6378 48.8406 65.3355 40.2023 65.3355 30.7959C65.3355 21.5947 68.4951 13.1287 73.793 6.4153L69.2131 2.00195Z" fill="#59B202"/>
<path d="M84.6375 45.5176C80.9349 41.7084 78.6558 36.5177 78.6558 30.7969C78.6558 25.2806 80.7744 20.2572 84.2461 16.49L79.6859 12.0957C75.1105 17.0009 72.3125 23.5734 72.3125 30.7969C72.3125 38.2249 75.271 44.9646 80.0792 49.9107L84.6375 45.5176Z" fill="#59B202"/>
<path d="M114.179 22.8491C115.931 22.8491 117.351 21.4348 117.351 19.6902C117.351 17.9456 115.931 16.5312 114.179 16.5312C112.428 16.5312 111.008 17.9456 111.008 19.6902C111.008 21.4348 112.428 22.8491 114.179 22.8491Z" fill="#59B202"/>
<path fill-rule="evenodd" clip-rule="evenodd" d="M91.9763 56.3337H109.85V63.0021L109.535 62.3717C108.329 59.9516 105.382 58.9635 102.951 60.1647C100.522 61.366 99.5293 64.3019 100.736 66.7221C101.789 68.8354 102.82 71.5021 103.929 74.3679C107.771 84.3046 112.541 96.6389 122.375 96.6389H126.305C133.558 96.6389 139.477 90.9453 139.8 83.7998C139.805 83.7195 139.81 83.638 139.812 83.5565L139.813 83.4296V66.3063C139.813 63.6046 137.614 61.4143 134.901 61.4143C134.674 61.4143 134.45 61.4295 134.231 61.4594C134.01 61.4895 133.794 61.5342 133.584 61.5922C132.869 59.7698 131.089 58.4789 129.007 58.4789C128.323 58.4789 127.671 58.6181 127.08 58.8697C126.536 57.7013 125.542 56.7825 124.321 56.3337H136.379C138.131 56.3337 139.551 54.9193 139.551 53.1747V8.94993C139.551 7.20531 138.131 5.79102 136.379 5.79102H91.9763C90.2249 5.79102 88.8047 7.20531 88.8047 8.94993V53.1747C88.8047 54.9193 90.2249 56.3337 91.9763 56.3337ZM117.349 34.853C117.349 35.2864 117.262 35.6994 117.103 36.0754C116.407 35.6987 115.61 35.4848 114.762 35.4848C113.545 35.4848 112.431 35.9257 111.573 36.6558C111.216 36.1445 111.006 35.5232 111.006 34.853C111.006 33.1084 112.426 31.6941 114.178 31.6941C115.929 31.6941 117.349 33.1084 117.349 34.853ZM123.693 34.853C123.693 38.0477 122.106 40.8732 119.674 42.5899V50.0158H133.208V12.1088H95.148V50.0158H109.85V43.2949C106.771 41.7257 104.663 38.5345 104.663 34.853C104.663 29.6192 108.923 25.3763 114.178 25.3763C119.433 25.3763 123.693 29.6192 123.693 34.853ZM119.674 57.0109C120.051 56.7286 120.47 56.4992 120.921 56.3337H119.674V57.0109Z" fill="#59B202"/>
<path fill-rule="evenodd" clip-rule="evenodd" d="M48.8452 114.478C42.1889 114.478 36.793 109.104 36.793 102.475C36.793 95.8446 42.1889 90.4707 48.8452 90.4707C55.5015 90.4707 60.8974 95.8446 60.8974 102.475C60.8974 109.104 55.5015 114.478 48.8452 114.478ZM54.5542 102.475C54.5542 105.615 51.9982 108.161 48.8452 108.161C45.6922 108.161 43.1363 105.615 43.1363 102.475C43.1363 99.334 45.6922 96.7885 48.8452 96.7885C51.9982 96.7885 54.5542 99.334 54.5542 102.475Z" fill="#59B202"/>
<path fill-rule="evenodd" clip-rule="evenodd" d="M14.3561 74.6543C12.7334 74.6543 11.418 75.9646 11.418 77.5807V134.949C11.418 136.565 12.7334 137.875 14.3561 137.875H80.7932C82.4158 137.875 83.7314 136.565 83.7314 134.949V77.5807C83.7314 75.9646 82.4158 74.6543 80.7932 74.6543H14.3561ZM17.7613 80.9721V131.557H32.7739V122.479C32.7739 118.06 36.3712 114.477 40.8088 114.477H48.8433H56.8784C61.3159 114.477 64.9134 118.06 64.9134 122.479V131.557H77.3881V80.9721H17.7613ZM39.1172 122.479C39.1172 121.549 39.8745 120.795 40.8088 120.795H56.8784C57.8126 120.795 58.5699 121.549 58.5699 122.479V131.366H39.1172V122.479Z" fill="#59B202"/>
<path d="M23.4685 142.887C21.7169 142.887 20.2969 144.301 20.2969 146.046V152.363C20.2969 154.108 21.7169 155.522 23.4685 155.522H29.8118C31.5634 155.522 32.9834 154.108 32.9834 152.363V146.046C32.9834 144.301 31.5634 142.887 29.8118 142.887H23.4685Z" fill="#59B202"/>
<path d="M64.7031 146.046C64.7031 144.301 66.1234 142.887 67.8748 142.887H74.2181C75.9694 142.887 77.3897 144.301 77.3897 146.046V152.363C77.3897 154.108 75.9694 155.522 74.2181 155.522H67.8748C66.1234 155.522 64.7031 154.108 64.7031 152.363V146.046Z" fill="#59B202"/>
<path fill-rule="evenodd" clip-rule="evenodd" d="M4.7292 63.9141C2.11734 63.9141 0 66.023 0 68.624V160.289C0 162.89 2.11734 164.999 4.7292 164.999H90.4203C93.0319 164.999 95.1493 162.89 95.1493 160.289V68.624C95.1493 66.023 93.0319 63.9141 90.4203 63.9141H4.7292ZM6.34328 70.2319V158.682H88.806V70.2319H6.34328Z" fill="#59B202"/>
</g>
<defs>
<clipPath id="clip0_108_9003">
<rect width="170" height="163" fill="white" transform="translate(0 2)"/>
</clipPath>
</defs>
</svg>
