<svg xmlns="http://www.w3.org/2000/svg" version="1.1" xmlns:xlink="http://www.w3.org/1999/xlink" xmlns:svgjs="http://svgjs.dev/svgjs" width="1000" height="1000"><g clip-path="url(#SvgjsClipPath1322)"><rect width="1000" height="1000" fill="#6cd008"></rect><g transform="matrix(7.142857142857143,0,0,7.142857142857143,150,350)"><svg xmlns="http://www.w3.org/2000/svg" version="1.1" xmlns:xlink="http://www.w3.org/1999/xlink" xmlns:svgjs="http://svgjs.dev/svgjs" width="98" height="42"><svg width="98" height="42" viewBox="0 0 98 42" fill="none" xmlns="http://www.w3.org/2000/svg">
<path d="M0.458943 9.45531C-0.027981 9.9283 -0.027981 10.6953 0.458943 11.1683L31.7875 41.6029C32.2745 42.0759 33.0639 42.0759 33.5509 41.6029L45.2963 30.1926C45.7832 29.7196 46.5727 29.7196 47.0596 30.1926L58.73 41.53L58.7328 41.5326L58.7599 41.559C59.2468 42.032 60.0363 42.032 60.5232 41.559L72.2688 30.1488C72.7557 29.6757 73.545 29.6757 74.0319 30.1488L85.7023 41.4861C86.1892 41.9591 86.9785 41.9591 87.4654 41.4861L96.7226 32.4929C97.2101 32.0198 97.2101 31.2529 96.7226 30.7799L85.0527 19.4426C84.5658 18.9696 84.5658 18.2026 85.0527 17.7296L96.6709 6.4427C97.1578 5.96964 97.1578 5.20273 96.6709 4.72968L94.0263 2.1602C93.5394 1.68717 92.7495 1.68717 92.2626 2.1602L80.6445 13.4471C80.1576 13.9202 79.3677 13.9202 78.8809 13.4471L65.4243 0.374304C64.9374 -0.0987263 64.1475 -0.0987263 63.6606 0.374304L54.4035 9.36749C53.9166 9.84055 53.9166 10.6075 54.4035 11.0805L67.8606 24.1533C68.3475 24.6263 68.3475 25.3933 67.8606 25.8663L67.1356 26.5703C66.6487 27.0433 65.8594 27.0433 65.3725 26.5703L38.452 0.418212C37.9651 -0.0548179 37.1756 -0.0548179 36.6887 0.418212L27.4313 9.4114C26.9444 9.88446 26.9444 10.6514 27.4313 11.1244L40.888 24.1971C41.3749 24.6702 41.3749 25.4371 40.888 25.9101L40.1633 26.6142C39.6763 27.0872 38.8869 27.0872 38.3999 26.6142L11.4796 0.462091C10.9927 -0.0109398 10.2032 -0.0109398 9.71632 0.462091L0.458943 9.45531Z" fill="white"></path>
</svg></svg></g></g><defs><clipPath id="SvgjsClipPath1322"><rect width="1000" height="1000" x="0" y="0" rx="200" ry="200"></rect></clipPath></defs></svg>