<svg width="198" height="166" viewBox="0 0 198 166" fill="none" xmlns="http://www.w3.org/2000/svg">
<path fill-rule="evenodd" clip-rule="evenodd" d="M107.203 46.1425C99.1932 38.0898 88.7391 33.9937 78.2422 33.8541L78.3303 27.1398C90.5069 27.3015 102.634 32.053 111.925 41.3944C121.423 50.9431 126.15 63.4717 126.107 75.9868L119.428 76.0292C119.482 65.2183 115.407 54.3908 107.203 46.1425ZM78.4933 14.7145C93.9357 14.7991 109.352 20.7646 121.135 32.6108C133.024 44.5645 138.957 60.2387 138.935 75.9063L145.614 75.864C145.625 58.4921 139.04 41.1168 125.857 27.8626C112.793 14.7278 95.7036 8.10691 78.5814 8L78.4933 14.7145ZM19.3075 106.151C23.254 106.151 26.7755 105.255 29.872 103.465C36.2915 99.7097 39.8293 92.7766 39.8293 85.3957C39.8293 74.0561 31.4693 64.3963 20.0361 64.3963C17.9515 64.3963 12.4769 64.3963 8.80358 66.3496L10.681 54.5988H36.6671V47.884H4.36659L0.971449 73.5529L8.01443 74.4075C9.30969 73.4715 10.9591 72.7085 12.9627 72.1184C17.1971 70.8282 22.0028 70.7852 25.8951 73.1256C30.2126 75.7216 32.5434 80.5361 32.5434 85.5172C32.5434 93.1063 26.9144 99.4357 19.3075 99.4357C13.5558 99.4357 7.89514 95.7506 7.28585 89.6683H0C0.519164 99.8467 9.84899 106.151 19.3075 106.151ZM106.283 76.422H91.9468V83.1368H99.5098C99.5098 88.8444 89.1665 99.5882 77.2303 99.5882C64.5048 99.5882 54.1887 89.2164 54.1887 76.422C54.1887 63.6277 64.5048 53.2559 77.2303 53.2559C83.2886 53.2559 88.8018 55.607 92.9146 59.4513L97.6391 54.7008C92.3162 49.6423 85.1332 46.541 77.2303 46.541C60.8159 46.541 47.51 59.9192 47.51 76.422C47.51 92.925 60.8159 106.303 77.2303 106.303C93.6446 106.303 106.306 94.2163 106.306 80.7866C106.302 80.9867 106.283 77.495 106.283 76.422ZM158.953 102.274C160.797 102.274 162.292 100.771 162.292 98.9167C162.292 97.0627 160.797 95.5592 158.953 95.5592C157.109 95.5592 155.613 97.0627 155.613 98.9167C155.613 100.771 157.109 102.274 158.953 102.274ZM158.953 108.989C164.485 108.989 168.971 104.479 168.971 98.9167C168.971 93.3541 164.485 88.8444 158.953 88.8444C153.42 88.8444 148.935 93.3541 148.935 98.9167C148.935 104.479 153.42 108.989 158.953 108.989ZM142.119 111.678L101.885 150.204C100.549 151.483 100.498 153.608 101.77 154.951C103.041 156.294 105.155 156.345 106.491 155.067L132.818 129.857C135.263 131.879 139.796 135.533 138.996 139.149C137.821 144.465 132.769 147.704 128.99 151.159C127.626 152.406 127.526 154.53 128.766 155.901C130.007 157.273 132.119 157.374 133.484 156.126C138.332 151.695 144.011 147.417 145.516 140.606C146.546 135.942 144.018 131.815 141.513 128.937C140.337 127.585 139.008 126.327 137.686 125.197L146.631 116.631C152.602 123.642 157.958 126.898 163.005 127.745C168.304 128.633 172.595 126.692 175.45 125.401L175.452 125.399C177.284 124.571 178.625 122.814 177.699 120.72C176.865 118.833 174.771 118.353 173.014 119.139C169.963 120.504 167.362 121.668 164.104 121.121C160.794 120.567 156.034 118.048 149.576 109.625C144.382 102.851 136.604 102.676 130.176 104.499C123.756 106.319 117.693 110.323 114.248 113.601C112.908 114.876 112.85 117.001 114.117 118.347C115.386 119.694 117.499 119.753 118.839 118.478C121.628 115.825 126.768 112.442 131.989 110.961C135.996 109.825 139.464 109.922 142.119 111.678ZM100.18 122.419C102.024 122.419 103.52 120.915 103.52 119.061C103.52 117.207 102.024 115.704 100.18 115.704H8.68229C6.83804 115.704 5.34295 117.207 5.34295 119.061C5.34295 120.915 6.83804 122.419 8.68229 122.419H100.18ZM90.1623 132.491C90.1623 134.345 88.6669 135.848 86.8229 135.848H38.7364C36.8921 135.848 35.397 134.345 35.397 132.491C35.397 130.637 36.8921 129.133 38.7364 129.133H86.8229C88.6669 129.133 90.1623 130.637 90.1623 132.491ZM76.137 149.278C77.981 149.278 79.4764 147.774 79.4764 145.921C79.4764 144.067 77.981 142.563 76.137 142.563H54.7652C52.921 142.563 51.4259 144.067 51.4259 145.921C51.4259 147.774 52.921 149.278 54.7652 149.278H76.137ZM32.0577 132.491C32.0577 134.345 30.5626 135.848 28.7184 135.848H19.3682C17.5239 135.848 16.0289 134.345 16.0289 132.491C16.0289 130.637 17.5239 129.133 19.3682 129.133H28.7184C30.5626 129.133 32.0577 130.637 32.0577 132.491ZM34.3952 149.278C36.2395 149.278 37.7346 147.774 37.7346 145.921C37.7346 144.067 36.2395 142.563 34.3952 142.563H34.0613C32.2171 142.563 30.722 144.067 30.722 145.921C30.722 147.774 32.2171 149.278 34.0613 149.278H34.3952ZM47.7526 145.921C47.7526 147.774 46.2575 149.278 44.4133 149.278H44.0793C42.2351 149.278 40.74 147.774 40.74 145.921C40.74 144.067 42.2351 142.563 44.0793 142.563H44.4133C46.2575 142.563 47.7526 144.067 47.7526 145.921Z" fill="#59B202"/>
</svg>
