<svg width="162" height="144" viewBox="0 0 162 144" fill="none" xmlns="http://www.w3.org/2000/svg">
<g clip-path="url(#clip0_176_40310)">
<path fill-rule="evenodd" clip-rule="evenodd" d="M21.0822 21.871C25.5837 20.4449 28.8493 16.2029 28.8493 11.1917C28.8493 5.01068 23.8815 0 17.7534 0C11.6254 0 6.65753 5.01068 6.65753 11.1917C6.65753 15.9241 9.56947 19.9704 13.6849 21.6072V99.2332H3.69863C1.65608 99.2332 0 100.904 0 102.964V136.539C0 138.599 1.65608 140.269 3.69863 140.269H9.61644C9.61644 142.329 11.2725 144 13.3151 144H19.9726C22.0151 144 23.6712 142.329 23.6712 140.269H139.068C139.068 142.329 140.725 144 142.767 144H149.425C151.467 144 153.123 142.329 153.123 140.269H158.301C160.344 140.269 162 138.599 162 136.539V102.964C162 100.904 160.344 99.2332 158.301 99.2332H21.0822V21.871ZM21.4521 11.1917C21.4521 13.2521 19.796 14.9223 17.7534 14.9223C15.7109 14.9223 14.0548 13.2521 14.0548 11.1917C14.0548 9.13132 15.7109 7.46114 17.7534 7.46114C19.796 7.46114 21.4521 9.13132 21.4521 11.1917ZM7.39726 106.694V132.808H154.603V106.694H7.39726ZM17.7534 116.394C15.7109 116.394 14.0548 118.064 14.0548 120.124C14.0548 122.184 15.7109 123.855 17.7534 123.855H65.8356C67.8781 123.855 69.5342 122.184 69.5342 120.124C69.5342 118.064 67.8781 116.394 65.8356 116.394H17.7534ZM104.301 123.855C106.344 123.855 108 122.184 108 120.124C108 118.064 106.344 116.394 104.301 116.394C102.259 116.394 100.603 118.064 100.603 120.124C100.603 122.184 102.259 123.855 104.301 123.855ZM127.233 120.124C127.233 122.184 125.577 123.855 123.534 123.855C121.492 123.855 119.836 122.184 119.836 120.124C119.836 118.064 121.492 116.394 123.534 116.394C125.577 116.394 127.233 118.064 127.233 120.124ZM146.466 120.124C146.466 122.184 144.81 123.855 142.767 123.855C140.725 123.855 139.068 122.184 139.068 120.124C139.068 118.064 140.725 116.394 142.767 116.394C144.81 116.394 146.466 118.064 146.466 120.124ZM104.279 79.0881C106.322 79.0881 107.978 77.4175 107.978 75.3575C107.978 73.2972 106.322 71.6269 104.279 71.6269C102.236 71.6269 100.581 73.2972 100.581 75.3575C100.581 77.4175 102.236 79.0881 104.279 79.0881ZM104.279 86.5492C110.407 86.5492 115.375 81.5383 115.375 75.3575C115.375 69.1765 110.407 64.1658 104.279 64.1658C98.1505 64.1658 93.1833 69.1765 93.1833 75.3575C93.1833 81.5383 98.1505 86.5492 104.279 86.5492ZM103.909 51.4819C97.3709 51.4819 91.425 54.0354 86.997 58.2075L81.8344 52.8618C87.5961 47.3805 95.3633 44.0207 103.909 44.0207C112.723 44.0207 120.709 47.5951 126.521 53.3853L121.323 58.6942C116.848 54.2348 110.697 51.4819 103.909 51.4819ZM71.6551 42.3209C79.9851 34.1386 91.3636 29.0984 103.909 29.0984C116.759 29.0984 128.385 34.3865 136.764 42.9227L141.962 37.6135C132.247 27.7466 118.785 21.6373 103.909 21.6373C89.3552 21.6373 76.1563 27.4842 66.4937 36.9761L71.6551 42.3209ZM104.279 7.46113C85.8238 7.46113 69.1027 14.9524 56.9423 27.0847L51.7808 21.7397C65.2741 8.29791 83.8161 0 104.279 0C124.929 0 143.621 8.44937 157.144 22.1073L151.946 27.4163C139.759 15.089 122.903 7.46113 104.279 7.46113Z" fill="#59B202"/>
</g>
<defs>
<clipPath id="clip0_176_40310">
<rect width="162" height="144" fill="white"/>
</clipPath>
</defs>
</svg>
