<svg width="53" height="53" viewBox="0 0 53 53" fill="none" xmlns="http://www.w3.org/2000/svg">
<rect x="0.5" y="0.5" width="52" height="52" rx="26" stroke="#438006"/>
<path d="M20.8418 34.5H11.4863V33.1426L15.3047 29.2656C16.0143 28.5495 16.61 27.9115 17.0918 27.3516C17.5801 26.7917 17.9512 26.2415 18.2051 25.7012C18.459 25.1543 18.5859 24.5553 18.5859 23.9043C18.5859 23.097 18.3451 22.4818 17.8633 22.0586C17.388 21.6289 16.7598 21.4141 15.9785 21.4141C15.2949 21.4141 14.6895 21.5312 14.1621 21.7656C13.6348 22 13.0944 22.332 12.541 22.7617L11.6719 21.668C12.0495 21.349 12.4596 21.0658 12.9023 20.8184C13.3516 20.571 13.8301 20.3757 14.3379 20.2324C14.8522 20.0892 15.3991 20.0176 15.9785 20.0176C16.8574 20.0176 17.6159 20.1706 18.2539 20.4766C18.8919 20.7826 19.3835 21.2188 19.7285 21.7852C20.0801 22.3516 20.2559 23.0254 20.2559 23.8066C20.2559 24.5618 20.1061 25.265 19.8066 25.916C19.5072 26.5605 19.0872 27.2018 18.5469 27.8398C18.0065 28.4714 17.375 29.1419 16.6523 29.8516L13.5469 32.9473V33.0156H20.8418V34.5ZM25.2754 19.3047V23.8457C25.2754 24.1061 25.2689 24.3698 25.2559 24.6367C25.2428 24.8971 25.2201 25.138 25.1875 25.3594H25.2949C25.5163 24.9818 25.7962 24.666 26.1348 24.4121C26.4798 24.1517 26.8704 23.9564 27.3066 23.8262C27.7428 23.6895 28.2051 23.6211 28.6934 23.6211C29.5527 23.6211 30.2689 23.7578 30.8418 24.0312C31.4212 24.3047 31.8542 24.7279 32.1406 25.3008C32.4336 25.8737 32.5801 26.6159 32.5801 27.5273V34.5H30.9785V27.6348C30.9785 26.7428 30.7734 26.0755 30.3633 25.6328C29.9596 25.1901 29.3379 24.9688 28.498 24.9688C27.7038 24.9688 27.069 25.1217 26.5938 25.4277C26.125 25.7272 25.7865 26.1699 25.5781 26.7559C25.3763 27.3418 25.2754 28.0579 25.2754 28.9043V34.5H23.6543V19.3047H25.2754ZM40.7832 23.6016C40.998 23.6016 41.2227 23.6146 41.457 23.6406C41.6914 23.6602 41.8997 23.6895 42.082 23.7285L41.877 25.2324C41.7012 25.1868 41.5059 25.151 41.291 25.125C41.0762 25.099 40.8743 25.0859 40.6855 25.0859C40.2559 25.0859 39.849 25.1738 39.4648 25.3496C39.0872 25.5189 38.7552 25.7663 38.4688 26.0918C38.1823 26.4108 37.9577 26.7982 37.7949 27.2539C37.6322 27.7031 37.5508 28.2044 37.5508 28.7578V34.5H35.9199V23.7969H37.2676L37.4434 25.7695H37.5117C37.7331 25.3724 38 25.0111 38.3125 24.6855C38.625 24.3535 38.9863 24.0898 39.3965 23.8945C39.8132 23.6992 40.2754 23.6016 40.7832 23.6016Z" fill="#59B202"/>
</svg>
