<svg width="177" height="153" viewBox="0 0 177 153" fill="none" xmlns="http://www.w3.org/2000/svg">
<g clip-path="url(#clip0_176_40360)">
<path fill-rule="evenodd" clip-rule="evenodd" d="M4.43891 23.7598V16.3287C22.7044 12.9748 39.651 29.9658 36.1731 48.3498H28.7496C32.5357 33.9312 18.6859 20.1327 4.43891 23.7598ZM4.43891 7.67964V0.357522C31.2744 -2.75141 55.1094 21.5045 51.6337 48.3498H44.3159C47.9102 25.4385 27.3149 4.47124 4.43891 7.67964ZM10.8738 48.3498C14.9918 48.3498 18.3302 45.0024 18.3302 40.8733C18.3302 36.7441 14.9918 33.3968 10.8738 33.3968C6.75568 33.3968 3.41733 36.7441 3.41733 40.8733C3.41733 45.0024 6.75568 48.3498 10.8738 48.3498ZM86.618 6.75752C86.618 4.70652 88.2823 3.04392 90.3364 3.04392C92.3905 3.04392 94.0549 4.70652 94.0549 6.75752V12.9567L117.073 4.72302C118.314 4.27931 119.947 4.27496 121.2 4.72302L174.006 23.7412C175.93 24.4296 176.937 26.5404 176.26 28.4666C175.578 30.4108 173.44 31.4281 171.498 30.7332L160.201 26.699L160.192 26.6958L160.183 26.6925L160.174 26.6892L160.166 26.6861C146.5 21.8105 132.733 16.8992 119.341 11.9566L67.3188 30.4093C65.3768 31.1042 63.2394 30.0869 62.5567 28.1428C61.8798 26.2166 62.8872 24.1057 64.811 23.4174L86.618 15.5978C86.618 12.651 86.618 9.70429 86.618 6.75752ZM119.341 23.5485L160.244 38.003V86.2281H78.4373V38.003L119.341 23.5485ZM71.0003 35.3778C71.0003 33.8044 71.9931 32.4018 73.4783 31.8769L118.1 16.1084C118.903 15.8248 119.779 15.8248 120.581 16.1084L165.203 31.8769C166.688 32.4018 167.681 33.8044 167.681 35.3778V89.9417C167.681 91.993 166.017 93.6552 163.962 93.6552H74.7188C72.6649 93.6552 71.0003 91.993 71.0003 89.9417V35.3778ZM94.0549 53.5488V68.4032H108.929V53.5488H94.0549ZM90.3364 46.1216C88.2823 46.1216 86.618 47.7842 86.618 49.8352V72.1168C86.618 74.1677 88.2823 75.83 90.3364 75.83H112.647C114.701 75.83 116.366 74.1677 116.366 72.1168V49.8352C116.366 47.7842 114.701 46.1216 112.647 46.1216H90.3364ZM130.496 68.4032V53.5488H145.37V68.4032H130.496ZM123.059 49.8352C123.059 47.7842 124.724 46.1216 126.778 46.1216H149.089C151.143 46.1216 152.807 47.7842 152.807 49.8352V72.1168C152.807 74.1677 151.143 75.83 149.089 75.83H126.778C124.724 75.83 123.059 74.1677 123.059 72.1168V49.8352ZM27.542 105.647V78.9665L6.50716 93.018C4.80043 94.1581 2.4909 93.7005 1.34921 91.996C0.206788 90.2915 0.665062 87.9846 2.37251 86.8445L28.9503 69.0902C30.3218 68.1741 32.6525 68.1741 34.024 69.0902L60.6018 86.8445C62.3092 87.9846 62.7675 90.2915 61.6251 91.996C60.4834 93.7005 58.1738 94.1581 56.4671 93.018L34.979 78.6635V105.647H38.6975C40.7514 105.647 42.416 107.309 42.416 109.361C42.416 111.411 40.7514 113.074 38.6975 113.074H34.979V124.958C34.979 127.008 33.3144 128.671 31.2605 128.671C29.2067 128.671 27.542 127.008 27.542 124.958V113.074H23.8236C21.7697 113.074 20.1051 111.411 20.1051 109.361C20.1051 107.309 21.7697 105.647 23.8236 105.647H27.542ZM12.4677 112.923H17.261C19.4984 112.923 20.1713 114.511 21.1001 116.144L24.8011 122.586C25.823 124.365 25.2078 126.635 23.4263 127.655C21.6447 128.676 19.3723 128.062 18.3504 126.282L14.942 120.35H12.1822L9.2009 126.282C8.17906 128.062 5.90653 128.676 4.125 127.655C2.34347 126.635 1.72832 124.365 2.75018 122.586L6.05179 116.096C5.68793 115.694 5.40614 115.206 5.24345 114.651L2.68989 105.949C2.11179 103.982 3.24113 101.919 5.21223 101.342C7.18259 100.765 9.24879 101.893 9.8262 103.86C10.6996 106.836 11.8994 111.037 12.4677 112.923ZM50.0375 112.923C50.0021 113.043 50.0594 112.803 50.0375 112.923H45.2441C43.007 112.923 42.3349 114.513 41.4051 116.144L37.704 122.586C36.6822 124.365 37.2973 126.635 39.0788 127.655C40.8603 128.676 43.1328 128.062 44.1547 126.282L47.563 120.35H50.3229L53.3042 126.282C54.3261 128.062 56.5986 128.676 58.3801 127.655C60.1617 126.635 60.7768 124.365 59.7549 122.586L56.4534 116.096C56.8167 115.694 57.0991 115.206 57.2617 114.651L59.8152 105.949C60.3933 103.982 59.264 101.919 57.2929 101.342C55.3226 100.765 53.2563 101.893 52.6789 103.86L50.0375 112.923ZM136.21 119.164V124.751C138.319 124.659 140.322 124.358 142.371 123.846C144.364 123.348 146.382 124.558 146.88 126.548C147.379 128.538 146.167 130.554 144.176 131.051C136.649 132.935 128.511 132.312 120.821 132.29H120.774C115.924 132.276 111.052 132.123 106.205 132.275C93.7522 132.664 87.4412 134.211 84.2604 135.781C82.2078 136.795 81.0834 138.166 81.0424 140.447C83.3353 140.447 85.6378 141.487 85.6378 144.16C85.6378 146.211 83.9726 147.874 81.9193 147.874H74.0129C73.8691 145.943 73.6907 144.012 73.6273 142.075C73.4389 136.253 75.6707 131.737 80.9636 129.124C85.4117 126.927 92.575 125.392 104.296 124.912C111.848 116.042 122.115 111.385 133.791 111.485C141.105 111.82 146.242 114.168 149.898 116.899C152.332 118.718 154.251 120.894 155.396 122.25H167.072V140.374L161.96 144.46C160.356 145.741 158.016 145.482 156.732 143.881C155.45 142.28 155.71 139.942 157.313 138.661L159.635 136.805V129.677H152.089C149.892 127.368 148.015 124.769 145.443 122.846C143.352 121.284 140.435 119.78 136.21 119.164ZM128.773 119.125C122.727 119.848 118.227 122.273 114.953 124.85C119.808 124.855 124.898 124.881 128.773 124.874V119.125ZM102.608 144.903C102.608 142.851 104.273 141.189 106.327 141.189H135.094C137.148 141.189 138.813 142.851 138.813 144.903C138.813 146.953 137.148 148.616 135.094 148.616H106.327C104.273 148.616 102.608 146.953 102.608 144.903ZM101.628 145.274C101.628 149.376 98.2977 152.701 94.191 152.701C90.0836 152.701 86.754 149.376 86.754 145.274C86.754 141.172 90.0836 137.847 94.191 137.847C98.2977 137.847 101.628 141.172 101.628 145.274ZM147.737 152.701C151.844 152.701 155.174 149.376 155.174 145.274C155.174 141.172 151.844 137.847 147.737 137.847C143.63 137.847 140.3 141.172 140.3 145.274C140.3 149.376 143.63 152.701 147.737 152.701Z" fill="#59B202"/>
</g>
<defs>
<clipPath id="clip0_176_40360">
<rect width="177" height="153" fill="white"/>
</clipPath>
</defs>
</svg>
