<svg width="133" height="155" viewBox="0 0 133 155" fill="none" xmlns="http://www.w3.org/2000/svg">
<g clip-path="url(#clip0_176_40327)">
<path fill-rule="evenodd" clip-rule="evenodd" d="M6.33333 13.6578V137.531H107.667V94.1187L114 82.4587V151.824C114 153.578 112.583 155 110.833 155H3.16667C1.41758 155 0 153.578 0 151.824V3.17623C0 1.42202 1.41758 0 3.16667 0H110.833C112.583 0 114 1.42202 114 3.17623V52.5423L107.667 49.5492V13.6578H6.33333ZM63.3333 146.107C63.3333 149.615 60.4976 152.459 57 152.459C53.5024 152.459 50.6667 149.615 50.6667 146.107C50.6667 142.598 53.5024 139.754 57 139.754C60.4976 139.754 63.3333 142.598 63.3333 146.107ZM37.3667 3.81148C35.6176 3.81148 34.2 5.23349 34.2 6.98771C34.2 8.74194 35.6176 10.1639 37.3667 10.1639H65.2333C66.9826 10.1639 68.4 8.74194 68.4 6.98771C68.4 5.23349 66.9826 3.81148 65.2333 3.81148H37.3667ZM79.1667 6.98771C79.1667 8.74194 77.7493 10.1639 76 10.1639C74.2507 10.1639 72.8333 8.74194 72.8333 6.98771C72.8333 5.23349 74.2507 3.81148 76 3.81148C77.7493 3.81148 79.1667 5.23349 79.1667 6.98771ZM29.0727 108.938C29.0727 110.427 30.2763 111.634 31.7607 111.634C33.2451 111.634 34.4486 110.427 34.4486 108.938V100.019C34.7604 99.9039 35.0646 99.7717 35.3584 99.6224C38.7713 98.1779 41.1667 94.7895 41.1667 90.8402C41.1667 86.5484 38.3377 82.9193 34.4486 81.7263V37.6349C34.4486 36.1457 33.2451 34.9385 31.7607 34.9385C30.2763 34.9385 29.0727 36.1457 29.0727 37.6349V81.671C25.0872 82.803 22.1667 86.4798 22.1667 90.8402C22.1667 93.4326 23.1989 95.7837 24.8738 97.502C25.9636 98.7807 27.4164 99.7387 29.0727 100.214V108.938ZM57.1491 111.634C55.6647 111.634 54.4611 110.427 54.4611 108.938V64.4508C50.4471 63.3371 47.5 59.6469 47.5 55.2664C47.5 50.8859 50.4471 47.1957 54.4611 46.0818V37.6349C54.4611 36.1457 55.6647 34.9385 57.1491 34.9385C58.6341 34.9385 59.8377 36.1457 59.8377 37.6349V46.1701C63.6981 47.3804 66.5 50.9953 66.5 55.2664C66.5 59.5375 63.6981 63.1524 59.8377 64.3625V108.938C59.8377 110.427 58.6341 111.634 57.1491 111.634ZM79.8494 93.075C75.8075 94.1701 72.8333 97.8742 72.8333 102.275C72.8333 107.537 77.0868 111.803 82.3333 111.803C87.5799 111.803 91.8333 107.537 91.8333 102.275C91.8333 98.0235 89.0581 94.423 85.2258 93.1957V37.6349C85.2258 36.1457 84.0224 34.9385 82.5379 34.9385C81.0534 34.9385 79.8494 36.1457 79.8494 37.6349V93.075ZM86.7078 42.5027L132.747 63.3884L120.066 70.0625L128.106 78.1264L122.732 83.5164L114.534 75.2938L107.531 88.6803L86.7078 42.5027Z" fill="#59B202"/>
</g>
<defs>
<clipPath id="clip0_176_40327">
<rect width="133" height="155" fill="white"/>
</clipPath>
</defs>
</svg>
