<svg width="206" height="137" viewBox="0 0 206 137" fill="none" xmlns="http://www.w3.org/2000/svg">
<g clip-path="url(#clip0_176_40378)">
<path fill-rule="evenodd" clip-rule="evenodd" d="M158.404 120.579V129.224H40.1588V76.4068L32.722 80.9803V132.927C32.722 134.972 34.3866 136.63 36.4404 136.63H162.123C164.177 136.63 165.841 134.972 165.841 132.927V116.281L158.404 120.579ZM165.841 20.462V3.7027C165.841 1.65772 164.177 0 162.123 0H36.4404C34.3866 0 32.722 1.65772 32.722 3.7027V56.1253L40.1588 60.5099V7.40541H158.404V16.0043L165.841 20.462ZM119.733 111.822C114.876 111.822 110.744 108.731 109.213 104.416H98.9098C96.8557 104.416 95.1913 102.758 95.1913 100.714V71.8324H77.4515C75.9203 76.1468 71.7885 79.2378 66.9314 79.2378C60.7706 79.2378 55.7762 74.2644 55.7762 68.1297C55.7762 61.9949 60.7706 57.0216 66.9314 57.0216C71.7885 57.0216 75.9203 60.1127 77.4515 64.427H95.1913V35.5459C95.1913 33.5009 96.8557 31.8432 98.9098 31.8432H109.213C110.744 27.5289 114.876 24.4378 119.733 24.4378C125.894 24.4378 130.888 29.4112 130.888 35.5459C130.888 41.6807 125.894 46.6541 119.733 46.6541C114.876 46.6541 110.744 43.563 109.213 39.2486H102.628V64.427H129.292C130.823 60.1127 134.955 57.0216 139.812 57.0216C145.973 57.0216 150.968 61.9949 150.968 68.1297C150.968 74.2644 145.973 79.2378 139.812 79.2378C134.955 79.2378 130.823 76.1468 129.292 71.8324H102.628V97.0108H109.213C110.744 92.6964 114.876 89.6054 119.733 89.6054C125.894 89.6054 130.888 94.5789 130.888 100.714C130.888 106.848 125.894 111.822 119.733 111.822ZM139.812 64.427C137.758 64.427 136.094 66.0847 136.094 68.1297C136.094 70.1747 137.758 71.8324 139.812 71.8324C141.866 71.8324 143.531 70.1747 143.531 68.1297C143.531 66.0847 141.866 64.427 139.812 64.427ZM63.213 68.1297C63.213 66.0847 64.8776 64.427 66.9314 64.427C68.9852 64.427 70.6498 66.0847 70.6498 68.1297C70.6498 70.1747 68.9852 71.8324 66.9314 71.8324C64.8776 71.8324 63.213 70.1747 63.213 68.1297ZM119.733 97.0108C117.679 97.0108 116.014 98.6689 116.014 100.714C116.014 102.758 117.679 104.416 119.733 104.416C121.787 104.416 123.451 102.758 123.451 100.714C123.451 98.6689 121.787 97.0108 119.733 97.0108ZM116.014 35.5459C116.014 33.5009 117.679 31.8432 119.733 31.8432C121.787 31.8432 123.451 33.5009 123.451 35.5459C123.451 37.591 121.787 39.2486 119.733 39.2486C117.679 39.2486 116.014 37.591 116.014 35.5459ZM20.4513 84.4216L48.3394 68.3886L20.4513 52.3556V64.6859H0V72.0913H20.4513V84.4216ZM185.921 100.973L158.404 117.005V104.675H137.581V97.27H158.404V85.1622L185.921 100.973ZM158.404 51.8378L185.921 35.8048L158.404 19.9946V32.1021H137.581V39.5075H158.404V51.8378ZM206 69.1292L178.112 85.1622V72.8319H158.404V65.4265H178.112V53.0962L206 69.1292Z" fill="#59B202"/>
</g>
<defs>
<clipPath id="clip0_176_40378">
<rect width="206" height="137" fill="white"/>
</clipPath>
</defs>
</svg>
