<svg width="118" height="53" viewBox="0 0 118 53" fill="none" xmlns="http://www.w3.org/2000/svg">
<rect x="0.5" y="0.5" width="117" height="52" rx="26" stroke="#438006"/>
<path d="M16.9746 25.0664H14.3086V34.5H12.6875V25.0664H10.793V24.2852L12.6875 23.748V23.0352C12.6875 22.1367 12.821 21.4076 13.0879 20.8477C13.3548 20.2812 13.7422 19.8646 14.25 19.5977C14.7578 19.3307 15.3763 19.1973 16.1055 19.1973C16.5156 19.1973 16.89 19.2331 17.2285 19.3047C17.5736 19.3763 17.8763 19.4577 18.1367 19.5488L17.7168 20.8281C17.4954 20.7565 17.2448 20.6914 16.9648 20.6328C16.6914 20.5677 16.4115 20.5352 16.125 20.5352C15.5065 20.5352 15.0475 20.737 14.748 21.1406C14.4551 21.5378 14.3086 22.1628 14.3086 23.0156V23.7969H16.9746V25.0664ZM23.8105 23.6016C24.0254 23.6016 24.25 23.6146 24.4844 23.6406C24.7188 23.6602 24.9271 23.6895 25.1094 23.7285L24.9043 25.2324C24.7285 25.1868 24.5332 25.151 24.3184 25.125C24.1035 25.099 23.9017 25.0859 23.7129 25.0859C23.2832 25.0859 22.8763 25.1738 22.4922 25.3496C22.1146 25.5189 21.7826 25.7663 21.4961 26.0918C21.2096 26.4108 20.985 26.7982 20.8223 27.2539C20.6595 27.7031 20.5781 28.2044 20.5781 28.7578V34.5H18.9473V23.7969H20.2949L20.4707 25.7695H20.5391C20.7604 25.3724 21.0273 25.0111 21.3398 24.6855C21.6523 24.3535 22.0137 24.0898 22.4238 23.8945C22.8405 23.6992 23.3027 23.6016 23.8105 23.6016ZM36.3594 29.1289C36.3594 30.0078 36.2454 30.7923 36.0176 31.4824C35.7897 32.1725 35.4609 32.7552 35.0312 33.2305C34.6016 33.7057 34.0807 34.0703 33.4688 34.3242C32.8633 34.5716 32.1764 34.6953 31.4082 34.6953C30.6921 34.6953 30.0345 34.5716 29.4355 34.3242C28.8431 34.0703 28.3288 33.7057 27.8926 33.2305C27.4629 32.7552 27.1276 32.1725 26.8867 31.4824C26.6523 30.7923 26.5352 30.0078 26.5352 29.1289C26.5352 27.957 26.7337 26.9609 27.1309 26.1406C27.528 25.3138 28.0944 24.6855 28.8301 24.2559C29.5723 23.8197 30.4544 23.6016 31.4766 23.6016C32.4531 23.6016 33.306 23.8197 34.0352 24.2559C34.7708 24.6921 35.3405 25.3236 35.7441 26.1504C36.1543 26.9707 36.3594 27.9635 36.3594 29.1289ZM28.2148 29.1289C28.2148 29.9883 28.3288 30.7337 28.5566 31.3652C28.7845 31.9967 29.1361 32.485 29.6113 32.8301C30.0866 33.1751 30.6986 33.3477 31.4473 33.3477C32.1895 33.3477 32.7982 33.1751 33.2734 32.8301C33.7552 32.485 34.11 31.9967 34.3379 31.3652C34.5658 30.7337 34.6797 29.9883 34.6797 29.1289C34.6797 28.276 34.5658 27.5404 34.3379 26.9219C34.11 26.2969 33.7585 25.8151 33.2832 25.4766C32.8079 25.138 32.1927 24.9688 31.4375 24.9688C30.3242 24.9688 29.5072 25.3366 28.9863 26.0723C28.472 26.8079 28.2148 27.8268 28.2148 29.1289ZM50.7832 23.6016C51.9616 23.6016 52.8503 23.9108 53.4492 24.5293C54.0482 25.1413 54.3477 26.1276 54.3477 27.4883V34.5H52.7461V27.5664C52.7461 26.7005 52.5573 26.0527 52.1797 25.623C51.8086 25.1868 51.2552 24.9688 50.5195 24.9688C49.4844 24.9688 48.7324 25.2682 48.2637 25.8672C47.7949 26.4661 47.5605 27.3483 47.5605 28.5137V34.5H45.9492V27.5664C45.9492 26.987 45.8646 26.5052 45.6953 26.1211C45.5326 25.737 45.2852 25.4505 44.9531 25.2617C44.6276 25.0664 44.2142 24.9688 43.7129 24.9688C43.0033 24.9688 42.4336 25.1152 42.0039 25.4082C41.5742 25.7012 41.2617 26.1374 41.0664 26.7168C40.8776 27.2897 40.7832 27.9961 40.7832 28.8359V34.5H39.1621V23.7969H40.4707L40.7148 25.3105H40.8027C41.0176 24.9395 41.2878 24.627 41.6133 24.373C41.9388 24.1191 42.3034 23.9271 42.707 23.7969C43.1107 23.6667 43.5404 23.6016 43.9961 23.6016C44.8099 23.6016 45.4902 23.7546 46.0371 24.0605C46.5905 24.36 46.9909 24.819 47.2383 25.4375H47.3262C47.6777 24.819 48.1595 24.36 48.7715 24.0605C49.3835 23.7546 50.054 23.6016 50.7832 23.6016ZM66.2227 35.6621V33.6113C65.474 33.5983 64.7578 33.5332 64.0742 33.416C63.3971 33.2988 62.8438 33.1458 62.4141 32.957V31.375C62.8633 31.5833 63.4395 31.7656 64.1426 31.9219C64.8457 32.0781 65.5391 32.1628 66.2227 32.1758V27.8789C65.3633 27.638 64.6504 27.3646 64.084 27.0586C63.5241 26.7461 63.1042 26.3652 62.8242 25.916C62.5443 25.4668 62.4043 24.9232 62.4043 24.2852C62.4043 23.6211 62.5605 23.0547 62.873 22.5859C63.1921 22.1107 63.638 21.7396 64.2109 21.4727C64.7839 21.2057 65.4544 21.0527 66.2227 21.0137V19.3242H67.4141V20.9941C68.1107 21.0137 68.7454 21.0918 69.3184 21.2285C69.8913 21.3587 70.4219 21.528 70.9102 21.7363L70.4023 23.0938C69.9596 22.918 69.4811 22.7682 68.9668 22.6445C68.4525 22.5208 67.9349 22.4362 67.4141 22.3906V26.6582C68.2865 26.9121 69.0156 27.1823 69.6016 27.4688C70.194 27.7552 70.64 28.11 70.9395 28.5332C71.2389 28.9564 71.3887 29.5033 71.3887 30.1738C71.3887 31.1243 71.0404 31.8926 70.3438 32.4785C69.6471 33.0579 68.6706 33.4095 67.4141 33.5332V35.6621H66.2227ZM67.4141 32.0879C68.2148 32.0098 68.8105 31.8177 69.2012 31.5117C69.5983 31.1992 69.7969 30.7891 69.7969 30.2812C69.7969 29.9167 69.7188 29.6172 69.5625 29.3828C69.4128 29.1484 69.1654 28.9466 68.8203 28.7773C68.4753 28.6016 68.0065 28.4355 67.4141 28.2793V32.0879ZM66.2227 26.248V22.4297C65.7344 22.4622 65.3242 22.5534 64.9922 22.7031C64.6602 22.8529 64.4095 23.0482 64.2402 23.2891C64.0775 23.5299 63.9961 23.8164 63.9961 24.1484C63.9961 24.5326 64.0677 24.8548 64.2109 25.1152C64.3607 25.3691 64.5983 25.5872 64.9238 25.7695C65.2559 25.9453 65.6888 26.1048 66.2227 26.248ZM82.9707 26.3066C82.9707 27.1725 82.9089 28.0156 82.7852 28.8359C82.668 29.6562 82.4629 30.4212 82.1699 31.1309C81.8835 31.8405 81.4928 32.4622 80.998 32.9961C80.5033 33.5299 79.8815 33.9499 79.1328 34.2559C78.3906 34.5553 77.502 34.7051 76.4668 34.7051C76.1868 34.7051 75.8678 34.6855 75.5098 34.6465C75.1517 34.6139 74.8587 34.5651 74.6309 34.5V33.0938C74.8717 33.1784 75.1549 33.2467 75.4805 33.2988C75.806 33.3444 76.125 33.3672 76.4375 33.3672C77.6549 33.3672 78.612 33.1068 79.3086 32.5859C80.0052 32.0586 80.5065 31.3457 80.8125 30.4473C81.1185 29.5423 81.291 28.5267 81.3301 27.4004H81.2129C81.0176 27.7129 80.7604 28.0026 80.4414 28.2695C80.1289 28.5299 79.748 28.7415 79.2988 28.9043C78.8496 29.0605 78.3255 29.1387 77.7266 29.1387C76.8997 29.1387 76.1771 28.9694 75.5586 28.6309C74.9466 28.2923 74.4681 27.8008 74.123 27.1562C73.7845 26.5117 73.6152 25.7337 73.6152 24.8223C73.6152 23.8392 73.8008 22.9896 74.1719 22.2734C74.5495 21.5508 75.0768 20.9941 75.7539 20.6035C76.431 20.2129 77.2285 20.0176 78.1465 20.0176C78.8496 20.0176 79.4941 20.151 80.0801 20.418C80.666 20.6849 81.1738 21.0853 81.6035 21.6191C82.0397 22.1465 82.375 22.8008 82.6094 23.582C82.8503 24.3633 82.9707 25.2715 82.9707 26.3066ZM78.1465 21.3945C77.2806 21.3945 76.5775 21.6777 76.0371 22.2441C75.5033 22.8105 75.2363 23.6634 75.2363 24.8027C75.2363 25.7467 75.4674 26.4922 75.9297 27.0391C76.3919 27.5859 77.1048 27.8594 78.0684 27.8594C78.7324 27.8594 79.3053 27.7259 79.7871 27.459C80.2754 27.1921 80.6497 26.8535 80.9102 26.4434C81.1771 26.0332 81.3105 25.6133 81.3105 25.1836C81.3105 24.7539 81.2454 24.3177 81.1152 23.875C80.9915 23.4323 80.7995 23.0254 80.5391 22.6543C80.2786 22.2767 79.9499 21.974 79.5527 21.7461C79.1556 21.5117 78.6868 21.3945 78.1465 21.3945ZM89.7578 20.0176C90.5846 20.0176 91.3171 20.1478 91.9551 20.4082C92.5931 20.6686 93.0911 21.0527 93.4492 21.5605C93.8138 22.0618 93.9961 22.6803 93.9961 23.416C93.9961 23.9954 93.8691 24.5033 93.6152 24.9395C93.3678 25.3691 93.0326 25.7467 92.6094 26.0723C92.1862 26.3913 91.7174 26.6777 91.2031 26.9316C91.8151 27.2116 92.3652 27.5273 92.8535 27.8789C93.3483 28.2305 93.7389 28.6439 94.0254 29.1191C94.3118 29.5944 94.4551 30.1576 94.4551 30.8086C94.4551 31.6094 94.2598 32.3027 93.8691 32.8887C93.485 33.4681 92.9447 33.9141 92.248 34.2266C91.5514 34.5391 90.7344 34.6953 89.7969 34.6953C88.7878 34.6953 87.9284 34.5456 87.2188 34.2461C86.5156 33.9401 85.9785 33.5039 85.6074 32.9375C85.2428 32.3646 85.0605 31.6777 85.0605 30.877C85.0605 30.2194 85.2005 29.6497 85.4805 29.168C85.7604 28.6797 86.1315 28.2598 86.5938 27.9082C87.056 27.5566 87.5605 27.2604 88.1074 27.0195C87.6322 26.7591 87.196 26.4629 86.7988 26.1309C86.4082 25.7988 86.0957 25.4115 85.8613 24.9688C85.6335 24.5195 85.5195 23.9987 85.5195 23.4062C85.5195 22.6836 85.7018 22.0716 86.0664 21.5703C86.4375 21.0625 86.9421 20.6784 87.5801 20.418C88.2246 20.151 88.9505 20.0176 89.7578 20.0176ZM86.6523 30.8867C86.6523 31.6159 86.9095 32.2181 87.4238 32.6934C87.9382 33.1621 88.7161 33.3965 89.7578 33.3965C90.7474 33.3965 91.5124 33.1621 92.0527 32.6934C92.5931 32.2181 92.8633 31.5964 92.8633 30.8281C92.8633 30.3529 92.7396 29.9362 92.4922 29.5781C92.2448 29.2135 91.8932 28.888 91.4375 28.6016C90.9818 28.3151 90.4447 28.0547 89.8262 27.8203L89.4746 27.6934C88.8757 27.9408 88.3646 28.2174 87.9414 28.5234C87.5247 28.8229 87.2057 29.1647 86.9844 29.5488C86.763 29.9329 86.6523 30.3789 86.6523 30.8867ZM89.7383 21.3457C88.9701 21.3457 88.3418 21.5312 87.8535 21.9023C87.3652 22.2669 87.1211 22.7943 87.1211 23.4844C87.1211 23.9792 87.2383 24.3991 87.4727 24.7441C87.7135 25.0827 88.0391 25.3757 88.4492 25.623C88.8594 25.8639 89.3184 26.0885 89.8262 26.2969C90.321 26.0885 90.7604 25.8607 91.1445 25.6133C91.5286 25.3594 91.8314 25.0599 92.0527 24.7148C92.2741 24.3698 92.3848 23.9564 92.3848 23.4746C92.3848 22.7845 92.1406 22.2572 91.6523 21.8926C91.1706 21.528 90.5326 21.3457 89.7383 21.3457ZM105.861 26.3066C105.861 27.1725 105.799 28.0156 105.676 28.8359C105.559 29.6562 105.354 30.4212 105.061 31.1309C104.774 31.8405 104.383 32.4622 103.889 32.9961C103.394 33.5299 102.772 33.9499 102.023 34.2559C101.281 34.5553 100.393 34.7051 99.3574 34.7051C99.0775 34.7051 98.7585 34.6855 98.4004 34.6465C98.0423 34.6139 97.7493 34.5651 97.5215 34.5V33.0938C97.7624 33.1784 98.0456 33.2467 98.3711 33.2988C98.6966 33.3444 99.0156 33.3672 99.3281 33.3672C100.546 33.3672 101.503 33.1068 102.199 32.5859C102.896 32.0586 103.397 31.3457 103.703 30.4473C104.009 29.5423 104.182 28.5267 104.221 27.4004H104.104C103.908 27.7129 103.651 28.0026 103.332 28.2695C103.02 28.5299 102.639 28.7415 102.189 28.9043C101.74 29.0605 101.216 29.1387 100.617 29.1387C99.7904 29.1387 99.0677 28.9694 98.4492 28.6309C97.8372 28.2923 97.3587 27.8008 97.0137 27.1562C96.6751 26.5117 96.5059 25.7337 96.5059 24.8223C96.5059 23.8392 96.6914 22.9896 97.0625 22.2734C97.4401 21.5508 97.9674 20.9941 98.6445 20.6035C99.3216 20.2129 100.119 20.0176 101.037 20.0176C101.74 20.0176 102.385 20.151 102.971 20.418C103.557 20.6849 104.064 21.0853 104.494 21.6191C104.93 22.1465 105.266 22.8008 105.5 23.582C105.741 24.3633 105.861 25.2715 105.861 26.3066ZM101.037 21.3945C100.171 21.3945 99.4681 21.6777 98.9277 22.2441C98.3939 22.8105 98.127 23.6634 98.127 24.8027C98.127 25.7467 98.3581 26.4922 98.8203 27.0391C99.2826 27.5859 99.9954 27.8594 100.959 27.8594C101.623 27.8594 102.196 27.7259 102.678 27.459C103.166 27.1921 103.54 26.8535 103.801 26.4434C104.068 26.0332 104.201 25.6133 104.201 25.1836C104.201 24.7539 104.136 24.3177 104.006 23.875C103.882 23.4323 103.69 23.0254 103.43 22.6543C103.169 22.2767 102.84 21.974 102.443 21.7461C102.046 21.5117 101.577 21.3945 101.037 21.3945Z" fill="#59B202"/>
</svg>
