<svg width="156" height="164" viewBox="0 0 156 164" fill="none" xmlns="http://www.w3.org/2000/svg">
<g clip-path="url(#clip0_176_40395)">
<path fill-rule="evenodd" clip-rule="evenodd" d="M80.7611 0V35.2911H73.8584V33.2152C73.8584 20.6035 63.66 10.3797 51.0796 10.3797H48.3186C48.3186 8.46883 46.7736 6.91983 44.8673 6.91983C42.9609 6.91983 41.4159 8.46883 41.4159 10.3797H23.469C23.469 8.46883 21.924 6.91983 20.0177 6.91983C18.1114 6.91983 16.5664 8.46883 16.5664 10.3797H0V17.2996H16.5664V24.2194H0.69026V31.1392H16.5664C16.5664 33.0502 18.1114 34.5992 20.0177 34.5992C21.924 34.5992 23.469 33.0502 23.469 31.1392H41.4159C41.4159 33.0502 42.9609 34.5992 44.8673 34.5992C46.7736 34.5992 48.3186 33.0502 48.3186 31.1392C50.7937 31.1392 53.1504 32.5056 53.1504 35.2911C51.2441 35.2911 49.6991 36.8401 49.6991 38.7511C49.6991 40.662 51.2441 42.211 53.1504 42.211V91.1106L60.0531 79.5774V42.211H66.9557V68.0445L73.8584 56.5114V42.211H80.7611V47.2584C82.9188 46.1715 85.5059 46.1716 87.6637 47.2588V42.211H94.5664V56.4405L101.469 67.8425V42.211C103.376 42.211 104.92 40.662 104.92 38.7511C104.92 36.8401 103.376 35.2911 101.469 35.2911V0H94.5664V35.2911H87.6637V0H80.7611ZM101.469 112.966V122.481H108.372V112.966H115.274V122.481C117.181 122.481 118.726 124.03 118.726 125.941C118.726 127.851 117.181 129.401 115.274 129.401C115.274 132.186 117.631 133.553 120.106 133.553C120.106 131.642 121.651 130.093 123.558 130.093C125.464 130.093 127.009 131.642 127.009 133.553H143.575C143.575 131.642 145.12 130.093 147.027 130.093C148.933 130.093 150.478 131.642 150.478 133.553H156V140.473H150.478C150.478 142.383 148.933 143.932 147.027 143.932C145.12 143.932 143.575 142.383 143.575 140.473H127.009C127.009 142.383 125.464 143.932 123.558 143.932C121.651 143.932 120.106 142.383 120.106 140.473C113.848 140.473 108.372 135.973 108.372 129.401H101.469V164H94.5664V129.401H87.6637V164H80.7611V129.401H73.8584V164H66.9557V129.401H60.0531V164H53.1504V129.401C51.2441 129.401 49.6991 127.851 49.6991 125.941C49.6991 124.03 51.2441 122.481 53.1504 122.481V112.966H60.0531V122.481H66.9557V112.966H73.8584V122.481H80.7611V112.966H87.6637V122.481H94.5664V112.966H101.469ZM115.274 90.6463L108.674 79.7434C109.902 74.6152 114.714 71.2743 120.106 71.2743C120.106 69.3637 121.651 67.8143 123.558 67.8143C125.464 67.8143 127.009 69.3637 127.009 71.2743H143.575C143.575 69.3637 145.12 67.8143 147.027 67.8143C148.933 67.8143 150.478 69.3637 150.478 71.2743H156V78.1941H150.478C150.478 80.1047 148.933 81.654 147.027 81.654C145.12 81.654 143.575 80.1047 143.575 78.1941H127.009C127.009 80.1047 125.464 81.654 123.558 81.654C121.651 81.654 120.106 80.1047 120.106 78.1941C117.631 78.1941 115.274 79.5608 115.274 82.346V90.6463ZM66.9557 35.2911H60.0531C60.0531 29.1764 55.1084 24.2194 49.0089 24.2194H48.3186V17.2996H51.0796C59.8478 17.2996 66.9557 24.4253 66.9557 33.2152V35.2911ZM41.4159 17.2996V24.2194H23.469V17.2996H41.4159ZM112.075 103.624L84.2124 57.0491L56.3489 103.624H112.075ZM90.1314 53.49C87.4511 49.009 80.973 49.009 78.2927 53.49L50.4291 100.066C47.6699 104.678 50.9841 110.544 56.3489 110.544H112.075C117.44 110.544 120.754 104.678 117.995 100.066L90.1314 53.49ZM87.242 76.3908C88.1552 74.7134 87.5388 72.6119 85.8649 71.6964C84.1917 70.7816 82.0953 71.3995 81.1828 73.0776L74.9704 84.4953C74.3871 85.5672 74.4106 86.8681 75.0325 87.9178C75.6538 88.9683 76.7817 89.6118 78 89.6118H82.0173L78.2913 94.875C77.1882 96.4334 77.5541 98.5931 79.1086 99.6995C80.663 100.805 82.8174 100.439 83.9211 98.8802L91.514 88.1545C92.2609 87.0992 92.3582 85.7139 91.7653 84.5638C91.173 83.4144 89.9899 82.692 88.6991 82.692H83.8141L87.242 76.3908Z" fill="#59B202"/>
</g>
<defs>
<clipPath id="clip0_176_40395">
<rect width="156" height="164" fill="white"/>
</clipPath>
</defs>
</svg>
