<svg width="286" height="51" viewBox="0 0 286 51" fill="none" xmlns="http://www.w3.org/2000/svg">
<g clip-path="url(#clip0_414_6441)">
<path d="M252.654 39.0673L279.857 0V31.7922H286V39.0673L279.857 39.1309V48.3507H270.984L270.871 39.0673H252.654ZM270.984 26.4935L266.888 31.7922H266.844H270.984V26.4935Z" fill="white"/>
<path d="M217.061 1.98633H245.729V5.29802H220.473V23.8435H243.7V27.1128H220.473V45.0383H245.729V48.3499H217.061V1.98633Z" fill="white"/>
<path d="M170.303 1.98633L187.027 42.3889L203.834 1.98633H207.504L187.027 50.9993L166.568 1.98633H170.303Z" fill="white"/>
<path d="M153.58 1.98633H156.993V48.3499H153.58V1.98633Z" fill="white"/>
<path d="M113.957 1.98633H117.346V45.0383H142.658V48.3499H113.934L113.957 1.98633Z" fill="white"/>
<path d="M70.9883 1.98633H103.752V10.5967H79.8618V20.5318H101.022V29.1422H79.8618V39.7396H103.752V48.3499H70.9883V1.98633Z" fill="white"/>
<path d="M0 1.98633H10.9212L20.4773 25.8305L27.3031 9.27203L32.7637 22.5188L20.4773 50.337L0 1.98633ZM23.8902 1.98633H34.8115L44.3675 25.8305L53.9236 1.98633H64.8449L44.3675 50.337L23.8902 1.98633Z" fill="white"/>
</g>
<defs>
<clipPath id="clip0_414_6441">
<rect width="286" height="51" fill="white"/>
</clipPath>
</defs>
</svg>
