<svg width="963" height="123" viewBox="0 0 963 123" fill="none" xmlns="http://www.w3.org/2000/svg">
<path d="M670.458 24.1391C663.748 24.1391 658.466 18.6378 658.466 11.9863C658.466 5.41057 664.104 0 670.624 0C677.068 0 682.616 5.76613 682.616 12.1528C682.616 18.7261 676.982 24.1391 670.458 24.1391Z" fill="#59B202"/>
<path d="M660.735 37.9845C660.735 37.0268 661.512 36.2504 662.47 36.2504L679.019 36.2503C679.977 36.2503 680.754 37.0267 680.754 37.9844V117.754C680.754 118.712 679.977 119.489 679.019 119.489H662.47C661.512 119.489 660.735 118.712 660.735 117.754V37.9845Z" fill="#59B202"/>
<path fill-rule="evenodd" clip-rule="evenodd" d="M823.047 122.616C797.538 122.616 779.744 102.609 779.744 78.0003C779.744 53.3258 797.382 33.551 822.215 33.551C847.853 33.551 863.686 55.8105 863.686 79.6037C863.686 80.5614 862.909 81.3378 861.951 81.3378H800.658C799.685 81.3378 798.898 82.1384 798.953 83.1095C799.668 95.6496 810.578 105.802 823.047 105.802C831.022 105.802 838.107 101.3 842.117 94.5083C842.567 93.7475 843.491 93.3875 844.317 93.702L858.618 99.1476C859.557 99.5052 860 100.585 859.54 101.478C852.478 115.196 838.235 122.616 823.047 122.616ZM799.955 67.1646C799.7 68.2164 800.525 69.1988 801.607 69.1988H842.9C843.858 69.1988 844.624 68.417 844.409 67.4836C842.096 57.4382 832.703 50.3651 822.548 50.3651C812.222 50.3651 802.419 56.9942 799.955 67.1646Z" fill="#59B202"/>
<path d="M733.515 87.9758C732.9 89.3814 730.896 89.3548 730.318 87.9334L709.752 37.3317C709.486 36.6779 708.851 36.2503 708.145 36.2503H691.096C689.858 36.2503 689.018 37.5091 689.495 38.6514L722.747 118.421C723.016 119.068 723.648 119.489 724.348 119.489H739.406C740.096 119.489 740.719 119.081 740.996 118.45L775.911 38.6795C776.412 37.5338 775.572 36.2503 774.321 36.2503H757.29C756.6 36.2503 755.976 36.6581 755.7 37.2893L733.515 87.9758Z" fill="#59B202"/>
<path d="M573.99 119.489C573.032 119.489 572.255 118.712 572.255 117.754V5.03591C572.255 4.07817 573.032 3.30177 573.99 3.30177H589.604C590.562 3.30177 591.339 4.07817 591.339 5.0359V98.679C591.339 99.6367 592.116 100.413 593.074 100.413H646.856C647.814 100.413 648.591 101.19 648.591 102.147V117.754C648.591 118.712 647.814 119.489 646.856 119.489H573.99Z" fill="#59B202"/>
<path d="M881.068 5.0359C881.068 4.07817 881.845 3.30177 882.803 3.30177H898.417C899.375 3.30177 900.152 4.07817 900.152 5.03591V77.8694C900.152 78.8272 900.929 79.6036 901.887 79.6036H922.706C923.664 79.6036 924.441 78.8272 924.441 77.8694V37.9846C924.441 37.0268 925.217 36.2504 926.176 36.2504H941.859C942.817 36.2504 943.594 37.0268 943.594 37.9846V77.8694C943.594 78.8272 944.371 79.6036 945.329 79.6036H960.874C961.832 79.6036 962.609 80.3799 962.609 81.3377V96.9449C962.609 97.9026 961.832 98.679 960.874 98.679H945.329C944.371 98.679 943.594 99.4554 943.594 100.413V117.754C943.594 118.712 942.817 119.489 941.859 119.489H926.176C925.217 119.489 924.441 118.712 924.441 117.754V100.413C924.441 99.4554 923.664 98.679 922.706 98.679H882.803C881.845 98.679 881.068 97.9026 881.068 96.9449V5.0359Z" fill="white"/>
<path fill-rule="evenodd" clip-rule="evenodd" d="M512.282 122.616C527.471 122.616 541.713 115.196 548.775 101.478C549.235 100.585 548.793 99.5052 547.854 99.1476L533.552 93.702C532.727 93.3875 531.802 93.7475 531.353 94.5083C527.342 101.3 520.257 105.802 512.282 105.802C499.44 105.802 489.243 95.5754 488.303 83.1451C488.228 82.1615 489.02 81.3378 490.007 81.3378H551.186C552.144 81.3378 552.921 80.5614 552.921 79.6037C552.921 55.8105 537.088 33.551 511.45 33.551C486.14 33.551 468.979 53.7922 468.979 78.0003C468.979 103.095 487.262 122.616 512.282 122.616ZM533.716 67.4932C533.993 68.4096 533.311 69.1812 532.353 69.1816L491.058 69.1979C489.976 69.1984 489.149 68.2169 489.369 67.1577C491.503 56.9123 501.563 50.3651 511.783 50.3651C522.304 50.3651 530.709 57.5601 533.716 67.4932Z" fill="white"/>
<path d="M410.528 118.272C410.755 118.996 411.426 119.489 412.184 119.489H428.709C429.472 119.489 430.145 118.991 430.368 118.262L464.872 5.54328C465.213 4.4287 464.379 3.30177 463.213 3.30177H446.905C446.136 3.30177 445.458 3.80865 445.241 4.54674L422.175 82.9619C421.69 84.6121 419.356 84.6253 418.852 82.9808L394.803 4.52788C394.58 3.79926 393.907 3.30177 393.144 3.30177H375.772C375.003 3.30177 374.326 3.8072 374.108 4.54384L351.013 82.5562C350.52 84.2204 348.158 84.2093 347.681 82.5405L325.391 4.5595C325.178 3.81504 324.497 3.30177 323.722 3.30177H307.408C306.247 3.30177 305.414 4.41978 305.746 5.53193L339.408 118.25C339.627 118.985 340.303 119.489 341.07 119.489H357.586C358.345 119.489 359.016 118.996 359.242 118.272L383.229 41.5469C383.737 39.9244 386.034 39.9244 386.541 41.5469L410.528 118.272Z" fill="white"/>
<path d="M1.01628 29.9349C-0.338761 31.2893 -0.338761 33.4853 1.01628 34.8398L88.1996 121.984C89.5546 123.339 91.7516 123.339 93.1066 121.984L125.793 89.3127C127.148 87.9582 129.345 87.9582 130.7 89.3127L163.177 121.775C164.532 123.125 166.787 123.238 168.167 121.858L200.853 89.1872C202.208 87.8327 204.405 87.8327 205.76 89.1872L238.237 121.65C239.592 123.004 241.789 123.004 243.144 121.65L268.906 95.8992C270.261 94.5447 270.261 92.3488 268.906 90.9943L236.429 58.5318C235.074 57.1774 235.074 54.9814 236.429 53.6269L268.762 21.3088C270.117 19.9543 270.117 17.7583 268.762 16.4039L261.401 9.0466C260.046 7.69216 257.849 7.69216 256.494 9.0466L224.161 41.3648C222.806 42.7192 220.609 42.7192 219.254 41.3648L181.806 3.93299C180.451 2.57855 178.254 2.57854 176.899 3.93299L151.137 29.6835C149.782 31.038 149.782 33.2339 151.137 34.5884L188.585 72.0202C189.94 73.3746 189.94 75.5706 188.585 76.925L186.569 78.9409C185.214 80.2954 183.017 80.2954 181.661 78.9409L106.746 4.05872C105.391 2.70428 103.194 2.70428 101.839 4.05872L76.0768 29.8093C74.7218 31.1637 74.7218 33.3597 76.0768 34.7141L113.525 72.1457C114.88 73.5001 114.88 75.6961 113.525 77.0505L111.508 79.0666C110.153 80.421 107.956 80.421 106.601 79.0666L31.6854 4.18435C30.3303 2.82991 28.1334 2.82991 26.7783 4.18435L1.01628 29.9349Z" fill="#59B202"/>
</svg>
