<svg width="346" height="43" viewBox="0 0 346 43" fill="none" xmlns="http://www.w3.org/2000/svg">
<g clip-path="url(#clip0_509_4762)">
<path d="M241.018 8.43042C239.821 8.43042 238.804 8.02344 237.966 7.20947C237.128 6.39549 236.709 5.38772 236.709 4.18614C236.709 3.06208 237.128 2.09307 237.966 1.2791C238.804 0.426366 239.841 0 241.078 0C242.235 0 243.232 0.426366 244.07 1.2791C244.948 2.09307 245.387 3.08146 245.387 4.24428C245.387 5.4071 244.948 6.39549 244.07 7.20947C243.232 8.02344 242.215 8.43042 241.018 8.43042Z" fill="#59B202"/>
<path d="M237.524 13.2659C237.524 12.9314 237.804 12.6602 238.148 12.6602L244.095 12.6602C244.439 12.6602 244.718 12.9313 244.718 13.2658V41.1249C244.718 41.4594 244.439 41.7306 244.095 41.7306H238.148C237.804 41.7306 237.524 41.4594 237.524 41.1249V13.2659Z" fill="#59B202"/>
<path fill-rule="evenodd" clip-rule="evenodd" d="M295.85 42.8222C292.777 42.8222 290.064 42.1633 287.71 40.8454C285.396 39.5275 283.581 37.7058 282.264 35.3801C280.947 33.0545 280.289 30.3412 280.289 27.2404C280.289 24.1783 280.927 21.4845 282.204 19.1588C283.521 16.7944 285.316 14.9727 287.591 13.6936C289.905 12.3757 292.558 11.7168 295.55 11.7168C298.543 11.7168 301.136 12.3951 303.331 13.7517C305.565 15.0696 307.301 16.9301 308.538 19.3332C309.814 21.7364 310.453 23.3353 310.453 26.5524V27.8004C310.453 28.1349 310.173 28.4061 309.829 28.4061H287.804C287.455 28.4061 287.172 28.6856 287.192 29.0248C287.303 30.9239 287.716 31.6755 288.309 32.7056C289.107 33.9847 290.164 35.0119 291.481 35.7871C292.797 36.5623 294.254 36.9499 295.85 36.9499C297.366 36.9499 298.742 36.5623 299.979 35.7871C301.103 35.0704 302.011 34.1432 302.702 33.0057C302.864 32.74 303.196 32.6143 303.493 32.7242L308.632 34.626C308.969 34.7509 309.128 35.1281 308.963 35.44C307.776 37.6803 306.098 39.4433 303.929 40.7291C301.615 42.1245 298.922 42.8222 295.85 42.8222ZM288.249 21.6589C287.928 22.2133 287.712 22.8144 287.551 23.4562C287.46 23.8235 287.756 24.1666 288.145 24.1666H302.984C303.328 24.1666 303.603 23.8935 303.525 23.5675C303.381 22.9583 303.043 22.1539 302.493 21.31C301.775 20.1085 300.817 19.1976 299.62 18.5774C298.463 17.9185 297.146 17.589 295.67 17.589C294.074 17.589 292.618 17.9572 291.301 18.6937C289.985 19.3914 288.967 20.3798 288.249 21.6589Z" fill="#59B202"/>
<path d="M263.676 30.7249C263.456 31.2158 262.736 31.2065 262.528 30.7102L255.137 13.0378C255.042 12.8095 254.814 12.6602 254.56 12.6602H248.434C247.989 12.6602 247.687 13.0998 247.858 13.4987L259.807 41.3579C259.904 41.5836 260.131 41.7306 260.383 41.7306H265.794C266.041 41.7306 266.266 41.5881 266.365 41.3677L278.911 13.5085C279.091 13.1084 278.789 12.6602 278.34 12.6602H272.22C271.972 12.6602 271.748 12.8026 271.649 13.0231L263.676 30.7249Z" fill="#59B202"/>
<path d="M206.353 41.7298C206.009 41.7298 205.729 41.4587 205.729 41.1242V1.75798C205.729 1.4235 206.009 1.15234 206.353 1.15234H211.964C212.308 1.15234 212.587 1.4235 212.587 1.75798V34.4622C212.587 34.7967 212.866 35.0678 213.211 35.0678H232.537C232.881 35.0678 233.16 35.339 233.16 35.6735V41.1242C233.16 41.4587 232.881 41.7298 232.537 41.7298H206.353Z" fill="#59B202"/>
<path d="M316.699 1.75798C316.699 1.4235 316.979 1.15234 317.323 1.15234H322.933C323.278 1.15234 323.557 1.4235 323.557 1.75798V27.1946C323.557 27.5291 323.836 27.8002 324.18 27.8002H331.661C332.006 27.8002 332.285 27.5291 332.285 27.1946V13.2651C332.285 12.9306 332.564 12.6595 332.908 12.6595H338.544C338.888 12.6595 339.167 12.9306 339.167 13.2651V27.1946C339.167 27.5291 339.447 27.8002 339.791 27.8002H345.377C345.721 27.8002 346 28.0714 346 28.4059V33.8566C346 34.1911 345.721 34.4622 345.377 34.4622H339.791C339.447 34.4622 339.167 34.7333 339.167 35.0678V41.1242C339.167 41.4587 338.888 41.7298 338.544 41.7298H332.908C332.564 41.7298 332.285 41.4587 332.285 41.1242V35.0678C332.285 34.7333 332.006 34.4622 331.661 34.4622H317.323C316.979 34.4622 316.699 34.1911 316.699 33.8566V1.75798Z" fill="white"/>
<path fill-rule="evenodd" clip-rule="evenodd" d="M176.039 40.8454C178.393 42.1633 181.107 42.8222 184.179 42.8222C187.251 42.8222 189.944 42.1245 192.258 40.7291C194.427 39.4433 196.106 37.6803 197.292 35.44C197.457 35.1281 197.298 34.7509 196.961 34.626L191.822 32.7242C191.525 32.6143 191.193 32.74 191.031 33.0057C190.34 34.1432 189.432 35.0704 188.308 35.7871C187.072 36.5623 185.695 36.9499 184.179 36.9499C182.583 36.9499 181.127 36.5623 179.81 35.7871C178.493 35.0119 177.436 33.9847 176.638 32.7056C176.06 31.7008 175.698 30.7849 175.562 29.0372C175.535 28.6937 175.819 28.4061 176.174 28.4061H198.158C198.503 28.4061 198.782 28.1349 198.782 27.8004V26.5524C198.782 23.3353 198.144 21.7364 196.867 19.3332C195.63 16.9301 193.894 15.0696 191.66 13.7517C189.465 12.3951 186.872 11.7168 183.88 11.7168C180.887 11.7168 178.234 12.3757 175.92 13.6936C173.645 14.9727 171.85 16.7944 170.533 19.1588C169.257 21.4845 168.618 24.1783 168.618 27.2404C168.618 30.3412 169.277 33.0545 170.593 35.3801C171.91 37.7058 173.725 39.5275 176.039 40.8454ZM191.881 23.5709C191.98 23.8909 191.735 24.1605 191.391 24.1606L176.552 24.1663C176.163 24.1664 175.865 23.8237 175.945 23.4537C176.082 22.8127 176.256 22.2144 176.578 21.6589C177.296 20.3798 178.314 19.3914 179.63 18.6937C180.947 17.9572 182.403 17.589 183.999 17.589C185.476 17.589 186.792 17.9185 187.949 18.5774C189.146 19.1976 190.104 20.1085 190.822 21.31C191.334 22.0954 191.698 22.9849 191.881 23.5709Z" fill="white"/>
<path d="M147.615 41.3048C147.696 41.5576 147.937 41.7298 148.21 41.7298H154.148C154.422 41.7298 154.664 41.5559 154.744 41.3014L167.143 1.93518C167.265 1.54591 166.965 1.15234 166.547 1.15234H160.686C160.41 1.15234 160.166 1.32937 160.088 1.58714L151.8 28.9731C151.625 29.5494 150.787 29.554 150.606 28.9797L141.964 1.58056C141.884 1.32609 141.642 1.15234 141.368 1.15234H135.125C134.849 1.15234 134.606 1.32886 134.527 1.58613L126.228 28.8314C126.051 29.4126 125.202 29.4087 125.031 28.8259L117.021 1.5916C116.945 1.3316 116.7 1.15234 116.422 1.15234H110.559C110.142 1.15234 109.842 1.5428 109.962 1.93121L122.058 41.2974C122.137 41.554 122.38 41.7298 122.656 41.7298H128.591C128.863 41.7298 129.104 41.5576 129.185 41.3048L137.805 14.5092C137.987 13.9425 138.813 13.9425 138.995 14.5092L147.615 41.3048Z" fill="white"/>
<path d="M0.45992 10.4553C-0.0270045 10.9283 -0.0270044 11.6953 0.45992 12.1683L31.7885 42.6029C32.2754 43.0759 33.0649 43.0759 33.5518 42.6029L45.2973 31.1926C45.7842 30.7196 46.5737 30.7196 47.0605 31.1926L58.731 42.53L58.7338 42.5326L58.7608 42.559C59.2478 43.032 60.0372 43.032 60.5242 42.559L72.2698 31.1488C72.7567 30.6757 73.5459 30.6757 74.0328 31.1488L85.7033 42.4861C86.1902 42.9591 86.9795 42.9591 87.4664 42.4861L96.7236 33.4929C97.2111 33.0198 97.2111 32.2529 96.7236 31.7799L85.0537 20.4426C84.5668 19.9696 84.5668 19.2026 85.0537 18.7296L96.6718 7.4427C97.1587 6.96964 97.1587 6.20273 96.6718 5.72968L94.0273 3.1602C93.5404 2.68717 92.7505 2.68717 92.2636 3.1602L80.6455 14.4471C80.1586 14.9202 79.3687 14.9202 78.8818 14.4471L65.4252 1.3743C64.9383 0.901274 64.1485 0.901274 63.6616 1.3743L54.4045 10.3675C53.9176 10.8405 53.9176 11.6075 54.4045 12.0805L67.8616 25.1533C68.3485 25.6263 68.3485 26.3933 67.8616 26.8663L67.1365 27.5703C66.6496 28.0433 65.8604 28.0433 65.3735 27.5703L38.4529 1.41821C37.966 0.945182 37.1766 0.945182 36.6896 1.41821L27.4323 10.4114C26.9454 10.8845 26.9454 11.6514 27.4323 12.1244L40.889 25.1971C41.3759 25.6702 41.3759 26.4371 40.889 26.9101L40.1642 27.6142C39.6773 28.0872 38.8878 28.0872 38.4009 27.6142L11.4806 1.46209C10.9937 0.98906 10.2042 0.98906 9.7173 1.46209L0.45992 10.4553Z" fill="white"/>
</g>
<defs>
<clipPath id="clip0_509_4762">
<rect width="346" height="43" fill="white"/>
</clipPath>
</defs>
</svg>
