<svg width="204" height="101" viewBox="0 0 204 101" fill="none" xmlns="http://www.w3.org/2000/svg">
<path d="M29.04 62.728H18.144V91H11.568V62.728H0.672V56.92H29.04V62.728ZM50.0707 91V56.92H56.6947V91H50.0707ZM80.6051 91V56.92H92.9891C96.7011 56.92 99.8051 57.688 102.301 59.224C104.797 60.728 106.669 62.776 107.917 65.368C109.165 67.928 109.789 70.776 109.789 73.912C109.789 77.368 109.101 80.376 107.725 82.936C106.349 85.496 104.397 87.48 101.869 88.888C99.3731 90.296 96.4131 91 92.9891 91H80.6051ZM103.117 73.912C103.117 71.704 102.717 69.768 101.917 68.104C101.117 66.408 99.9651 65.096 98.4611 64.168C96.9571 63.208 95.1331 62.728 92.9891 62.728H87.2291V85.192H92.9891C95.1651 85.192 97.0051 84.712 98.5091 83.752C100.013 82.76 101.149 81.416 101.917 79.72C102.717 77.992 103.117 76.056 103.117 73.912ZM139.716 56.92H146.436L158.964 91H152.148L148.98 82.504H137.076L133.956 91H127.14L139.716 56.92ZM147.78 77.848L143.076 63.784L138.18 77.848H147.78ZM179.502 91V56.92H186.126V85.192H203.502V91H179.502Z" fill="white"/>
<rect x="70" y="10.6074" width="15" height="15" transform="rotate(-45 70 10.6074)" fill="#D9D9D9"/>
<rect x="91.1074" y="10.6074" width="15" height="15" transform="rotate(-45 91.1074 10.6074)" fill="#D9D9D9"/>
<rect x="112.107" y="10.6074" width="15" height="15" transform="rotate(-45 112.107 10.6074)" fill="#D9D9D9"/>
<rect x="91.1074" y="31.7129" width="15" height="15" transform="rotate(-45 91.1074 31.7129)" fill="#D9D9D9"/>
</svg>
