<svg width="198" height="318" viewBox="0 0 198 318" fill="none" xmlns="http://www.w3.org/2000/svg">
<path d="M0 318V296.75L104.055 180.111C117.639 164.807 128.578 151.726 136.874 140.869C145.169 130.012 151.183 119.981 154.916 110.778C158.753 101.575 160.671 92.0106 160.671 82.0838C160.671 69.9856 157.819 59.4384 152.116 50.4422C146.517 41.3426 138.792 34.2595 128.941 29.1927C119.09 24.1259 107.995 21.5925 95.6559 21.5925C82.5907 21.5925 71.1328 24.3844 61.282 29.9682C51.535 35.552 43.9654 43.2039 38.5735 52.9239C33.1815 62.6439 30.4855 73.8115 30.4855 86.4268H2.64415C2.64415 68.8481 6.68814 53.2858 14.7761 39.7399C22.9678 26.0906 34.1147 15.3882 48.2168 7.63294C62.4226 -0.122354 78.4949 -4 96.4336 -4C114.165 -4 129.926 -0.174048 143.717 7.47785C157.508 15.0263 168.344 25.315 176.225 38.3439C184.105 51.3728 188.046 65.9528 188.046 82.0838C188.046 93.7685 185.972 105.091 181.824 116.052C177.78 127.013 170.781 139.215 160.826 152.657C150.872 166.1 137.081 182.541 119.453 201.981L40.4399 289.926V291.942H198V318H0Z" fill="#151517" fill-opacity="0.8"/>
</svg>
