<svg width="202" height="318" viewBox="0 0 202 318" fill="none" xmlns="http://www.w3.org/2000/svg">
<path d="M101.152 318C82.015 318 64.9033 314.563 49.8165 307.69C34.7298 300.716 22.782 291.063 13.9729 278.731C5.16391 266.4 0.506266 252.199 0 236.127H28.7053C29.2115 247.448 32.7048 257.354 39.185 265.844C45.6652 274.234 54.2717 280.804 65.0045 285.554C75.7373 290.204 87.6852 292.529 100.848 292.529C115.226 292.529 127.883 289.85 138.818 284.493C149.855 279.136 158.461 271.808 164.638 262.509C170.915 253.108 174.054 242.495 174.054 230.669C174.054 218.136 170.865 207.068 164.486 197.465C158.107 187.863 148.943 180.383 136.995 175.026C125.149 169.669 110.973 166.99 94.4692 166.99H76.2436V141.519H94.4692C107.936 141.519 119.833 139.093 130.161 134.241C140.59 129.289 148.791 122.365 154.765 113.47C160.739 104.575 163.726 94.1138 163.726 82.0856C163.726 70.6638 161.144 60.6066 155.98 51.914C150.817 43.2213 143.526 36.3986 134.11 31.4458C124.794 26.493 113.91 24.0166 101.456 24.0166C89.4065 24.0166 78.3699 26.3414 68.3459 30.991C58.3218 35.6405 50.2215 42.2105 44.0451 50.701C37.9699 59.1915 34.7298 69.2487 34.3248 80.8726H6.83459C7.2396 64.7002 11.6947 50.4989 20.2 38.2685C28.8065 25.9371 40.1975 16.3348 54.3729 9.46151C68.6496 2.48717 84.4451 -1 101.759 -1C120.086 -1 135.932 2.73986 149.298 10.2196C162.663 17.6993 172.991 27.6554 180.281 40.0879C187.673 52.4194 191.368 66.0143 191.368 80.8726C191.368 98.5611 186.559 113.723 176.94 126.357C167.321 138.891 154.36 147.584 138.059 152.435V154.406C157.904 158.348 173.497 167.142 184.838 180.788C196.279 194.332 202 210.959 202 230.669C202 247.246 197.646 262.155 188.938 275.396C180.231 288.536 168.283 298.947 153.095 306.629C138.008 314.21 120.694 318 101.152 318Z" fill="#151517" fill-opacity="0.8"/>
</svg>
