<svg width="195" height="318" viewBox="0 0 195 318" fill="none" xmlns="http://www.w3.org/2000/svg">
<path d="M93.6993 321C76.0143 321 60.1909 317.444 46.2291 310.331C32.3707 303.115 21.3047 293.219 13.031 280.643C4.86078 268.067 0.517105 253.687 0 237.503H28.0788C29.0095 254.305 35.6285 268.118 47.9356 278.942C60.2426 289.663 75.4972 295.023 93.6993 295.023C107.868 295.023 120.485 291.673 131.551 284.973C142.617 278.169 151.253 268.892 157.458 257.14C163.767 245.286 166.921 231.936 166.921 217.092C166.818 201.63 163.457 188.023 156.838 176.272C150.219 164.417 141.221 155.14 129.845 148.439C118.572 141.739 105.903 138.389 91.8377 138.389C81.1854 138.286 70.7399 140.038 60.5012 143.646C50.2625 147.254 41.7303 151.893 34.9045 157.562L5.89499 153.851L24.9761 0H181.969V25.9769H49.3317L36.611 131.895H38.1623C45.1949 126.019 53.7271 121.225 63.7589 117.514C73.8942 113.803 84.5982 111.948 95.8711 111.948C114.59 111.948 131.396 116.432 146.289 125.4C161.285 134.368 173.127 146.738 181.814 162.51C190.605 178.179 195 196.218 195 216.629C195 236.627 190.605 254.512 181.814 270.283C173.127 285.952 161.13 298.322 145.823 307.393C130.621 316.464 113.246 321 93.6993 321Z" fill="#151517" fill-opacity="0.8"/>
</svg>
