<svg width="224" height="318" viewBox="0 0 224 318" fill="none" xmlns="http://www.w3.org/2000/svg">
<path d="M225 212.967C225 232.743 219.948 250.897 209.844 267.426C200.037 283.661 186.665 296.648 169.726 306.389C152.787 316.13 133.768 321 112.669 321C90.6778 321 71.0644 315.835 53.8284 305.503C36.8895 294.877 23.5168 279.676 13.7101 259.899C3.90335 240.123 -1 216.657 -1 189.501C-1 146.701 3.90335 111.428 13.7101 83.6814C23.5168 55.64 37.1867 34.6828 54.7199 20.8097C72.2531 6.93655 92.6095 0 115.789 0C136.888 0 155.759 5.31311 172.4 15.9393C189.042 26.2703 201.672 40.4386 210.29 58.4441L190.677 76.1545C184.436 61.1007 174.481 49.1462 160.811 40.291C147.438 31.1407 132.431 26.5655 115.789 26.5655C98.2558 26.5655 82.9514 32.0262 69.8757 42.9476C56.8001 53.869 46.5477 69.5131 39.1183 89.88C31.9862 110.247 28.4201 134.894 28.4201 163.821C32.8777 152.309 39.4155 142.273 48.0335 133.713C56.6515 125.153 66.7554 118.512 78.3452 113.789C90.2321 109.066 102.862 106.705 116.235 106.705C136.442 106.705 154.719 111.428 171.063 120.873C187.705 130.319 200.78 143.159 210.29 159.393C220.097 175.332 225 193.19 225 212.967ZM113.56 294.435C128.419 294.435 142.089 290.745 154.57 283.366C167.051 275.986 177.007 266.098 184.436 253.701C192.162 241.303 196.026 227.726 196.026 212.967C196.026 198.208 192.162 184.63 184.436 172.233C177.007 159.836 167.051 149.948 154.57 142.568C142.089 135.189 128.419 131.499 113.56 131.499C98.4043 131.499 84.4372 135.189 71.6588 142.568C59.1775 149.948 49.2222 159.836 41.7929 172.233C34.3636 184.335 30.6489 197.913 30.6489 212.967C30.6489 227.726 34.3636 241.303 41.7929 253.701C49.5194 266.098 59.6233 275.986 72.1045 283.366C84.5858 290.745 98.4043 294.435 113.56 294.435Z" fill="#151517" fill-opacity="0.8"/>
</svg>
