<svg width="146" height="165" viewBox="0 0 146 165" fill="none" xmlns="http://www.w3.org/2000/svg">
<g clip-path="url(#clip0_342_3692)">
<path fill-rule="evenodd" clip-rule="evenodd" d="M66.3618 34.9573C66.3618 44.6106 58.5429 52.4361 48.8977 52.4361C39.2526 52.4361 31.4336 44.6106 31.4336 34.9573C31.4336 25.3041 39.2526 17.4785 48.8977 17.4785C58.5429 17.4785 66.3618 25.3041 66.3618 34.9573ZM43.4177 29.2804C43.4157 27.6658 45.1608 26.6545 46.559 27.46L55.9965 32.8973C57.3947 33.7029 57.3972 35.7212 56.0011 36.5303L46.5774 41.9916C45.1813 42.8007 43.4336 41.7938 43.4316 40.1792L43.4177 29.2804Z" fill="#59B202"/>
<path fill-rule="evenodd" clip-rule="evenodd" d="M13.6472 80.9227C13.6459 83.604 16.5371 85.2882 18.866 83.9633L43.5607 69.9153H94.3062C96.2357 69.9153 97.799 68.35 97.799 66.4195V3.49576C97.799 1.56524 96.2357 0 94.3062 0H3.49282C1.56358 0 0 1.56524 0 3.49576V66.4195C0 68.35 1.56358 69.9153 3.49282 69.9153H13.652L13.6472 80.9227ZM18.5927 64.9726C19.9029 66.2844 20.6385 68.0635 20.6377 69.918L20.6355 74.9149L40.1087 63.837C41.1609 63.2384 42.3504 62.9237 43.5607 62.9237H90.8134V6.99153H6.98565V62.9237H13.652C15.5053 62.9237 17.2826 63.6608 18.5927 64.9726Z" fill="#59B202"/>
<path d="M78.2402 92.9863C76.3115 92.9863 74.7474 94.5517 74.7474 96.4821V117.457C70.8892 117.457 67.7617 120.587 67.7617 124.448C67.7617 128.31 70.8892 131.44 74.7474 131.44C78.6055 131.44 81.733 128.31 81.733 124.448V96.4821C81.733 94.5517 80.1689 92.9863 78.2402 92.9863Z" fill="#59B202"/>
<path d="M104.085 109.008V131.899C104.035 135.717 100.926 138.797 97.0989 138.797C93.2408 138.797 90.1133 135.667 90.1133 131.806C90.1133 127.944 93.2408 124.814 97.0989 124.814V106.948C97.0989 105.677 97.7884 104.506 98.8991 103.89L117.76 93.4315C120.088 92.1402 122.946 93.8251 122.946 96.4889V122.258L122.931 122.265C123.184 126.234 119.943 129.708 115.96 129.708C112.102 129.708 108.975 126.578 108.975 122.717C108.975 118.855 112.102 115.725 115.96 115.725V102.423L104.085 109.008Z" fill="#59B202"/>
<path fill-rule="evenodd" clip-rule="evenodd" d="M132.351 161.325C132.353 164.006 129.461 165.691 127.132 164.366L102.438 150.318H51.692C49.7628 150.318 48.1992 148.752 48.1992 146.822V83.8981C48.1992 81.9677 49.7628 80.4023 51.692 80.4023H142.505C144.435 80.4023 145.998 81.9677 145.998 83.8981V146.822C145.998 148.752 144.435 150.318 142.505 150.318H132.346L132.351 161.325ZM127.405 145.375C126.095 146.687 125.36 148.466 125.361 150.32L125.363 155.317L105.889 144.239C104.837 143.641 103.648 143.326 102.438 143.326H55.1849V87.3939H139.013V143.326H132.346C130.493 143.326 128.716 144.063 127.405 145.375Z" fill="#59B202"/>
</g>
<defs>
<clipPath id="clip0_342_3692">
<rect width="146" height="165" fill="white"/>
</clipPath>
</defs>
</svg>
