<svg width="131" height="173" viewBox="0 0 131 173" fill="none" xmlns="http://www.w3.org/2000/svg">
<g clip-path="url(#clip0_342_3635)">
<path d="M23.9002 116.806V99.3594L17.75 102.651V119.863C17.75 121.551 19.1266 122.919 20.8251 122.919H39.3605V116.806H23.9002Z" fill="#59B202"/>
<path d="M116.159 95.9753H110.008V55.1956C110.008 51.8194 112.762 49.0825 116.159 49.0825H119.219L66.9027 6.95038L44.8257 24.758H35.0586L64.9198 0.681797C65.64 0.102431 66.5429 -0.101736 67.3891 0.0466132C67.9291 0.118848 68.4562 0.335552 68.9101 0.700901L129.694 49.6437C131.015 50.7057 131.219 52.6298 130.15 53.942C129.406 54.8562 128.151 55.1956 127.157 55.1956H116.159V95.9753Z" fill="#59B202"/>
<path d="M38.9705 63.1864V63.8533H45.5682V63.1864C45.5682 62.4455 45.6848 61.8159 45.9178 61.2969C46.0607 60.9715 46.2469 60.6692 46.4751 60.3897C46.6175 60.2155 46.7767 60.0501 46.952 59.8937C47.4085 59.4767 47.9725 59.074 48.6433 58.6848C49.5563 58.1571 50.3533 57.5735 51.0332 56.9344C51.7227 56.2861 52.259 55.5405 52.641 54.6975C52.7761 54.4026 52.8885 54.0913 52.9773 53.7642C53.0422 53.5236 53.0944 53.2744 53.1341 53.0164C53.1965 52.6117 53.2278 52.1857 53.2278 51.7383C53.2278 49.997 52.7761 48.5475 51.8722 47.3896C50.9683 46.2225 49.7335 45.3518 48.1677 44.7776C46.6025 44.194 44.8229 43.9023 42.8282 43.9023C41.0204 43.9023 39.3621 44.2032 37.8522 44.8053C36.3429 45.3981 35.1314 46.3336 34.2179 47.612C33.305 48.8809 32.8389 50.5342 32.8203 52.5717H39.9772C39.9772 52.0347 40.1027 51.5622 40.3543 51.1548C40.615 50.747 40.9555 50.4277 41.3748 50.196C41.8036 49.9644 42.2691 49.8486 42.7724 49.8486C42.8535 49.8486 42.9333 49.8516 43.0121 49.8575C43.1015 49.8641 43.1892 49.8749 43.2751 49.8892C43.3274 49.8979 43.3784 49.9077 43.4295 49.919C43.5652 49.9495 43.6968 49.9901 43.8241 50.0408C43.8703 50.0593 43.916 50.0788 43.961 50.0996L44.0445 50.1405C44.2409 50.2405 44.4163 50.3611 44.5706 50.5023C44.7166 50.6363 44.8445 50.7888 44.9532 50.9601C45.0048 51.0416 45.0505 51.1261 45.0902 51.2136C45.1352 51.3121 45.1724 51.4148 45.2018 51.521C45.2181 51.5798 45.2325 51.6395 45.2445 51.7004C45.2523 51.7416 45.2595 51.7834 45.2655 51.8258C45.2709 51.8669 45.2752 51.9088 45.2787 51.9511C45.2854 52.0267 45.2883 52.104 45.2883 52.1827C45.2883 52.7016 45.149 53.1645 44.8691 53.5723C44.5988 53.9797 44.2265 54.3641 43.7508 54.7253C43.4944 54.9241 43.218 55.1274 42.922 55.3348C42.788 55.4285 42.6505 55.5232 42.5087 55.6187C42.394 55.6954 42.2769 55.7727 42.1574 55.8506C41.6889 56.1527 41.2702 56.4801 40.9009 56.8333L40.8078 56.924L40.7483 56.9837L40.7123 57.0204C40.6072 57.1282 40.5063 57.2386 40.4102 57.3511C39.9351 57.8977 39.576 58.6248 39.3339 59.5325C39.0918 60.4402 38.9705 61.6581 38.9705 63.1864Z" fill="#59B202"/>
<path d="M39.5971 72.0645C40.3708 72.8146 41.2981 73.1899 42.3792 73.1899C43.0687 73.1899 43.7065 73.0182 44.2939 72.6758C44.8807 72.3237 45.3564 71.8555 45.7198 71.2723C46.0922 70.6799 46.2831 70.0215 46.2928 69.2996C46.2831 68.2438 45.8826 67.3403 45.0903 66.5903C44.3077 65.8402 43.4038 65.4648 42.3792 65.4648C41.2981 65.4648 40.3708 65.8402 39.5971 66.5903C38.8332 67.3403 38.456 68.2438 38.465 69.2996C38.456 70.3834 38.8332 71.3047 39.5971 72.0645Z" fill="#59B202"/>
<path fill-rule="evenodd" clip-rule="evenodd" d="M12.0152 97.6535C12.014 99.9979 14.5594 101.471 16.6098 100.312L38.3513 88.0291H83.0282C84.7269 88.0291 86.1033 86.6604 86.1033 84.9726V29.955C86.1033 28.267 84.7269 26.8984 83.0282 26.8984H3.07512C1.37659 26.8984 0 28.267 0 29.955V84.9726C0 86.6604 1.37659 88.0291 3.07512 88.0291H12.0194L12.0152 97.6535ZM16.369 83.7078C17.5228 84.8546 18.1702 86.4104 18.1696 88.0316L18.1678 92.4006L35.3122 82.7144C36.2383 82.1911 37.2858 81.916 38.3513 81.916H79.953V33.0115H6.15023V81.916H12.0194C13.6512 81.916 15.2158 82.5604 16.369 83.7078Z" fill="#59B202"/>
<path d="M51.6602 116.806H110.005V108.201H116.155V117.888C116.209 118.115 116.238 118.351 116.238 118.593V149.77H110.087V122.919H51.6602V116.806Z" fill="#59B202"/>
<path d="M54.7383 128.986C54.7383 127.298 56.1149 125.93 57.8134 125.93H70.1139C71.8126 125.93 73.189 127.298 73.189 128.986C73.189 130.674 71.8126 132.043 70.1139 132.043H57.8134C56.1149 132.043 54.7383 130.674 54.7383 128.986Z" fill="#59B202"/>
<path d="M63.9618 135.1C62.2631 135.1 60.8867 136.468 60.8867 138.156C60.8867 139.844 62.2631 141.213 63.9618 141.213H76.2623C77.961 141.213 79.3374 139.844 79.3374 138.156C79.3374 136.468 77.961 135.1 76.2623 135.1H63.9618Z" fill="#59B202"/>
<path d="M67.0391 147.326C67.0391 145.638 68.4155 144.27 70.1142 144.27H82.4146C84.1133 144.27 85.4898 145.638 85.4898 147.326C85.4898 149.014 84.1133 150.383 82.4146 150.383H70.1142C68.4155 150.383 67.0391 149.014 67.0391 147.326Z" fill="#59B202"/>
<path fill-rule="evenodd" clip-rule="evenodd" d="M116.526 169.786C116.527 172.131 113.981 173.603 111.931 172.445L90.1898 160.162H45.5126C43.8141 160.162 42.4375 158.793 42.4375 157.105V102.088C42.4375 100.4 43.8141 99.0312 45.5126 99.0312H125.466C127.164 99.0312 128.541 100.4 128.541 102.088V157.105C128.541 158.793 127.164 160.162 125.466 160.162H116.521L116.526 169.786ZM112.172 155.841C111.018 156.987 110.371 158.543 110.371 160.164L110.373 164.533L93.2286 154.847C92.3024 154.324 91.255 154.049 90.1898 154.049H48.5877V105.144H122.391V154.049H116.521C114.89 154.049 113.325 154.693 112.172 155.841Z" fill="#59B202"/>
</g>
<defs>
<clipPath id="clip0_342_3635">
<rect width="131" height="173" fill="white"/>
</clipPath>
</defs>
</svg>
