<svg width="121" height="159" viewBox="0 0 121 159" fill="none" xmlns="http://www.w3.org/2000/svg">
<g clip-path="url(#clip0_342_3651)">
<path d="M99.8805 49.7465V87.1936H105.588V49.1766H115.795C116.717 49.1766 117.882 48.8602 118.573 48.0079C119.564 46.7846 119.374 44.991 118.149 44.0009L62.3111 0.653416C61.8899 0.312818 61.4008 0.110796 60.8996 0.0434553C60.1143 -0.0948438 59.2758 0.0954912 58.6081 0.635607L31.2539 21.656H40.5332L60.4482 6.47951L108.428 43.4777H105.588C102.436 43.4777 99.8805 46.599 99.8805 49.7465Z" fill="#59B202"/>
<path d="M20.4693 92.8457V108.323H38.2413V114.022H17.6155C16.0392 114.022 14.7617 112.747 14.7617 111.173V96.0371L20.4693 92.8457Z" fill="#59B202"/>
<path d="M35.3872 57.8698V58.4915H41.51V57.8698C41.51 57.7666 41.5122 57.6658 41.5173 57.5666C41.5446 57.0058 41.6505 56.5199 41.8344 56.1086C42.0501 55.6164 42.3701 55.1803 42.7942 54.8005C43.0651 54.552 43.3767 54.3088 43.7289 54.0709C43.9274 53.9367 44.1392 53.8043 44.3638 53.6735C44.711 53.472 45.0399 53.2617 45.3509 53.0427C45.5393 52.9099 45.721 52.7741 45.896 52.6353C46.1374 52.4435 46.3659 52.2457 46.5816 52.0417C47.2215 51.4373 47.7192 50.7422 48.0737 49.9564C48.4366 49.1619 48.6182 48.2422 48.6182 47.1976C48.6182 45.5742 48.1991 44.223 47.3602 43.1436C46.5214 42.0555 45.3754 41.2439 43.9224 40.7084C42.4698 40.1644 40.8183 39.8926 38.9673 39.8926C37.2896 39.8926 35.7506 40.1731 34.3494 40.7343C32.9487 41.287 31.8245 42.159 30.9767 43.3509C30.1295 44.5338 29.697 46.0751 29.6797 47.9746H36.3214C36.3214 47.474 36.4379 47.0334 36.6714 46.6536C36.9133 46.2736 37.2293 45.9758 37.6184 45.7599C38.0164 45.5439 38.4484 45.4359 38.9154 45.4359C39.348 45.4359 39.7415 45.5266 40.096 45.7081C40.4505 45.8895 40.7314 46.1441 40.9393 46.4722C41.1466 46.8003 41.2503 47.1804 41.2503 47.612C41.2503 48.0956 41.121 48.5272 40.8612 48.9073C40.7342 49.0996 40.5831 49.2863 40.4075 49.4675C40.2359 49.6442 40.0413 49.8159 39.8234 49.9823L39.7303 50.0546L39.6121 50.1442L39.4343 50.2764C39.2672 50.3997 39.0921 50.5246 38.9093 50.6512C38.7287 50.7764 38.5403 50.9031 38.3447 51.0314C37.9874 51.2628 37.6608 51.5108 37.3654 51.7746L37.2349 51.8937L37.1463 51.9786C37.0961 52.0275 37.0471 52.077 36.9986 52.1269C36.9028 52.226 36.8113 52.3269 36.7233 52.4302C36.4134 52.788 36.157 53.2291 35.9535 53.7531C35.8677 53.9751 35.7913 54.2119 35.7244 54.4638C35.4998 55.31 35.3872 56.4453 35.3872 57.8698Z" fill="#59B202"/>
<path d="M35.9688 66.1461C36.6867 66.8454 37.5473 67.1953 38.5506 67.1953C39.1904 67.1953 39.7824 67.0357 40.3275 66.716C40.8721 66.3878 41.3135 65.9518 41.6507 65.4081C41.8552 65.0816 42.0007 64.7334 42.0871 64.3641C42.1468 64.1093 42.1785 63.8438 42.1825 63.5685C42.1736 62.5843 41.8018 61.7426 41.0666 61.0433C40.3403 60.3435 39.5014 59.9941 38.5506 59.9941C37.5473 59.9941 36.6867 60.3435 35.9688 61.0433C35.2598 61.7426 34.9098 62.5843 34.9181 63.5685C34.9098 64.5789 35.2598 65.4383 35.9688 66.1461Z" fill="#59B202"/>
<path fill-rule="evenodd" clip-rule="evenodd" d="M15.4143 92.9459C13.5114 94.0259 11.1492 92.653 11.1503 90.4674L11.1543 81.4951H2.85377C1.27751 81.4951 0 80.2191 0 78.6456V27.3553C0 25.7817 1.27751 24.5059 2.85377 24.5059H77.0519C78.6283 24.5059 79.9057 25.7817 79.9057 27.3553V78.6456C79.9057 80.2191 78.6283 81.4951 77.0519 81.4951H35.5908L15.4143 92.9459ZM16.8618 81.4973C16.8623 79.986 16.2615 78.5356 15.1908 77.4665C14.1206 76.3968 12.6686 75.7961 11.1543 75.7961H5.70755V30.2048H74.1981V75.7961H35.5908C34.602 75.7961 33.63 76.0526 32.7705 76.5404L16.8601 85.5704L16.8618 81.4973Z" fill="#59B202"/>
<path d="M62.2127 100.301H67.9203L70.2033 109.989L67.9203 114.548V138.484H62.2127V114.548L59.9297 109.989L62.2127 100.301Z" fill="#59B202"/>
<path d="M81.0912 101.433C81.0912 100.521 80.0833 99.9994 79.4092 100.615C76.5577 103.22 74.7695 106.966 74.7695 111.129C74.7695 116.972 78.2917 121.993 83.3309 124.191V138.484H94.7459V124.191C99.7851 121.993 103.307 116.972 103.307 111.129C103.307 106.681 101.266 102.709 98.0672 100.097C97.3788 99.5344 96.4148 100.065 96.4148 100.953V108.545C96.4148 108.714 96.3772 108.877 96.3081 109.026C96.2253 109.203 96.0969 109.359 95.9325 109.476L89.4122 114.083C89.0173 114.362 88.4888 114.362 88.0938 114.083L81.5735 109.476C81.412 109.361 81.2853 109.208 81.2025 109.035C81.1306 108.884 81.0912 108.717 81.0912 108.545V101.433Z" fill="#59B202"/>
<path fill-rule="evenodd" clip-rule="evenodd" d="M109.849 156.005C109.85 158.19 105.776 159.563 103.873 158.483L85.4089 147.032H43.9475C42.3713 147.032 41.0938 145.756 41.0938 144.183V92.8924C41.0938 91.319 42.3713 90.043 43.9475 90.043H118.146C119.722 90.043 120.999 91.319 120.999 92.8924V144.183C120.999 145.756 119.722 147.032 118.146 147.032H109.845L109.849 156.005ZM105.809 143.004C104.738 144.073 104.137 145.523 104.138 147.034L104.139 151.108L88.229 142.078C87.3694 141.59 86.3974 141.333 85.4089 141.333H46.8013V95.7419H115.292V141.333H109.845C108.331 141.333 106.879 141.934 105.809 143.004Z" fill="#59B202"/>
</g>
<defs>
<clipPath id="clip0_342_3651">
<rect width="121" height="159" fill="white"/>
</clipPath>
</defs>
</svg>
