<svg width="170" height="172" viewBox="0 0 170 172" fill="none" xmlns="http://www.w3.org/2000/svg">
<g clip-path="url(#clip0_342_3675)">
<path fill-rule="evenodd" clip-rule="evenodd" d="M20.975 149.848C19.0271 149.848 17.448 148.27 17.448 146.324L17.4473 69.6377L4.83286 69.6153C3.6928 69.6153 2.2517 69.2257 1.3982 68.1716C0.173405 66.6583 0.407619 64.439 1.92174 63.2145L78.6919 1.1364C79.5179 0.468305 80.5541 0.234422 81.5247 0.405489C82.1441 0.488785 82.7486 0.73747 83.2692 1.15876L160.039 63.2368C161.554 64.4613 161.788 66.6807 160.563 68.194C159.71 69.2481 158.269 69.6377 157.129 69.6377H144.514V136.401H148.746V132.876C148.746 130.93 150.325 129.352 152.273 129.352H166.381C168.329 129.352 169.908 130.93 169.908 132.876V168.122C169.908 170.068 168.329 171.647 166.381 171.647H152.273C150.325 171.647 148.746 170.068 148.746 168.122V163.289C146.856 163.307 144.959 163.494 143.456 164.245C142.677 164.634 141.87 165.238 140.986 165.902L140.985 165.902C139.183 167.254 137.053 168.85 134.156 169.375C133.746 169.478 133.317 169.532 132.875 169.532H132.857C132.41 169.559 131.946 169.56 131.464 169.532H106.07C103.148 169.532 100.779 167.165 100.779 164.245C100.779 161.325 103.148 158.958 106.07 158.958H101.132C98.2101 158.958 95.8414 156.591 95.8414 153.671C95.8414 152.168 96.4692 150.811 97.4779 149.848L20.975 149.848ZM108.711 127.237H101.132C98.2101 127.237 95.8414 129.604 95.8414 132.524C95.8414 135.443 98.2101 137.811 101.132 137.811H97.6049C94.8017 137.811 92.5077 139.989 92.3264 142.745H52.8124V135.696H63.3933C65.3413 135.696 66.9203 134.118 66.9203 132.171V116.311H77.5301C79.077 120.232 82.9024 123.007 87.3767 123.007C93.2202 123.007 97.9576 118.273 97.9576 112.434C97.9576 106.594 93.2202 101.86 87.3767 101.86C82.6392 101.86 78.6284 104.971 77.2804 109.261H66.9203V89.1712H94.4306C96.3789 89.1712 97.9576 87.5929 97.9576 85.6467V46.1712C97.9576 44.2247 96.3789 42.6466 94.4306 42.6466H88.8912C87.438 38.5398 83.5189 35.5975 78.9119 35.5975C73.0685 35.5975 68.3311 40.3315 68.3311 46.1712C68.3311 52.011 73.0685 56.745 78.9119 56.745C83.5189 56.745 87.438 53.8027 88.8912 49.6958H90.9036V82.1221H63.3933C61.4455 82.1221 59.8664 83.7004 59.8664 85.6467V128.647H37.2938V120.188H43.2896C45.2375 120.188 46.8166 118.609 46.8166 116.663V68.0237H50.593C52.0455 72.1306 55.9648 75.0729 60.5718 75.0729C66.4155 75.0729 71.1526 70.3389 71.1526 64.4991C71.1526 58.6594 66.4155 53.9253 60.5718 53.9253C55.9648 53.9253 52.0455 56.8677 50.593 60.9745H43.2896C41.3417 60.9745 39.7626 62.5525 39.7626 64.4991V113.138H33.7668C31.8189 113.138 30.2398 114.717 30.2398 116.663V128.647H24.5013V65.8865C24.5013 63.94 22.9224 62.3619 20.9743 62.3619H14.1904L80.9668 8.36458L147.771 62.3843H140.987C139.039 62.3843 137.46 63.9624 137.46 65.9089V132.856C136.869 132.383 136.291 131.903 135.74 131.445C134.953 130.792 134.221 130.185 133.58 129.704C132.111 128.603 130.911 127.89 129.669 127.527C129.126 127.339 128.543 127.237 127.937 127.237H124.59L122.589 126.237L125.468 124.079V117.246L120.249 114.908V76.2882L124.028 71.9726L120.249 59.5647H113.052L109.273 71.9726L113.052 76.2882V114.908L107.833 117.246V124.079L110.713 126.237L108.711 127.237ZM155.8 136.401V164.597H162.854V136.401H155.8ZM82.4389 46.1712C82.4389 48.1178 80.8602 49.6958 78.9119 49.6958C76.9643 49.6958 75.385 48.1178 75.385 46.1712C75.385 44.2247 76.9643 42.6466 78.9119 42.6466C80.8602 42.6466 82.4389 44.2247 82.4389 46.1712ZM87.3767 115.958C89.325 115.958 90.9036 114.38 90.9036 112.434C90.9036 110.487 89.325 108.909 87.3767 108.909C85.4291 108.909 83.8497 110.487 83.8497 112.434C83.8497 114.38 85.4291 115.958 87.3767 115.958ZM60.5718 68.0237C62.5197 68.0237 64.0987 66.4457 64.0987 64.4991C64.0987 62.5525 62.5197 60.9745 60.5718 60.9745C58.6239 60.9745 57.0448 62.5525 57.0448 64.4991C57.0448 66.4457 58.6239 68.0237 60.5718 68.0237ZM24.5967 142.745V135.696H45.7585V142.745H24.5967Z" fill="#59B202"/>
</g>
<defs>
<clipPath id="clip0_342_3675">
<rect width="170" height="172" fill="white"/>
</clipPath>
</defs>
</svg>
