<svg width="125" height="164" viewBox="0 0 125 164" fill="none" xmlns="http://www.w3.org/2000/svg">
<g clip-path="url(#clip0_342_3684)">
<path d="M36.5564 60.3304V59.6891C36.5564 58.2198 36.6725 57.0486 36.9048 56.1758C37.1371 55.303 37.481 54.6038 37.9366 54.0784C38.3922 53.544 38.9506 53.0631 39.6117 52.6356C40.1834 52.2615 40.6927 51.9008 41.1393 51.5534C41.595 51.2061 41.9523 50.8365 42.2114 50.4446C42.4794 50.0527 42.6134 49.6074 42.6134 49.1087C42.6134 48.6634 42.5062 48.2715 42.2918 47.9331C42.0774 47.5946 41.787 47.3319 41.4208 47.1448C41.0545 46.9578 40.648 46.8643 40.2013 46.8643C39.7189 46.8643 39.2722 46.9757 38.8613 47.1983C38.4593 47.4209 38.1332 47.7282 37.883 48.1201C37.6418 48.512 37.5212 48.9662 37.5212 49.4827H30.6602C30.678 47.5234 31.1247 45.9336 32.0002 44.7135C32.8757 43.4844 34.0371 42.5849 35.4843 42.0149C36.9316 41.4359 38.5218 41.1465 40.2549 41.1465C42.1668 41.1465 43.8731 41.427 45.3739 41.9881C46.8748 42.5403 48.0585 43.3775 48.9251 44.4997C49.7916 45.613 50.2249 47.0068 50.2249 48.6812C50.2249 49.7588 50.0373 50.7073 49.6621 51.5267C49.2958 52.3372 48.7822 53.0542 48.121 53.6776C47.4689 54.2921 46.705 54.8532 45.8296 55.3609C45.1863 55.735 44.6458 56.1224 44.2081 56.5232C43.7703 56.9151 43.4398 57.3648 43.2165 57.8724C42.9931 58.3712 42.8814 58.9766 42.8814 59.6891V60.3304H36.5564ZM39.8261 69.308C38.7898 69.308 37.9009 68.9471 37.1594 68.2259C36.4268 67.4958 36.0651 66.6094 36.074 65.5672C36.0651 64.552 36.4268 63.6838 37.1594 62.9626C37.9009 62.2408 38.7898 61.8804 39.8261 61.8804C40.8088 61.8804 41.6754 62.2408 42.4258 62.9626C43.1852 63.6838 43.5693 64.552 43.5783 65.5672C43.5693 66.262 43.3862 66.8945 43.0288 67.4647C42.6804 68.0254 42.2248 68.4751 41.662 68.8137C41.0991 69.1435 40.4872 69.308 39.8261 69.308Z" fill="#59B202"/>
<path d="M103.185 89.9355V51.3109C103.185 48.0645 105.824 44.8449 109.081 44.8449H112.015L62.4487 6.68321L41.8753 22.3369H32.2891L60.5477 0.655594C61.2376 0.098494 62.1037 -0.0978263 62.9151 0.0448218C63.4328 0.11428 63.9381 0.322656 64.3732 0.673963L122.057 45.3846C123.322 46.4056 123.518 48.2557 122.495 49.5176C121.781 50.3966 120.578 50.7231 119.625 50.7231H109.081V89.9355H103.185Z" fill="#59B202"/>
<path d="M21.1462 95.7656V111.73H39.5057V117.608H18.1981C16.5699 117.608 15.25 116.293 15.25 114.669V99.0574L21.1462 95.7656Z" fill="#59B202"/>
<path fill-rule="evenodd" clip-rule="evenodd" d="M11.5189 93.3113C11.5178 95.5656 13.9581 96.9816 15.9238 95.8677L36.7673 84.0568H79.5991C81.2276 84.0568 82.5472 82.7406 82.5472 81.1177V28.2145C82.5472 26.5914 81.2276 25.2754 79.5991 25.2754H2.94811C1.31974 25.2754 0 26.5914 0 28.2145V81.1177C0 82.7406 1.31974 84.0568 2.94811 84.0568H11.523L11.5189 93.3113ZM15.6932 79.9009C16.799 81.0042 17.4199 82.4996 17.4192 84.0591L17.4174 88.2602L33.8537 78.9463C34.7418 78.4431 35.7458 78.1786 36.7673 78.1786H76.6509V31.1535H5.89623V78.1786H11.523C13.0872 78.1786 14.5873 78.7982 15.6932 79.9009Z" fill="#59B202"/>
<path fill-rule="evenodd" clip-rule="evenodd" d="M113.481 160.911C113.483 163.165 109.273 164.581 107.307 163.467L88.2332 151.656H45.4012C43.7729 151.656 42.4531 150.34 42.4531 148.717V95.8141C42.4531 94.1911 43.7729 92.875 45.4012 92.875H122.052C123.681 92.875 125 94.1911 125 95.8141V148.717C125 150.34 123.681 151.656 122.052 151.656H113.477L113.481 160.911ZM109.307 147.501C108.201 148.604 107.58 150.099 107.581 151.659L107.583 155.86L91.1465 146.546C90.2586 146.043 89.2544 145.778 88.2332 145.778H48.3494V98.7531H119.104V145.778H113.477C111.913 145.778 110.413 146.398 109.307 147.501Z" fill="#59B202"/>
<path d="M89.9559 107.57L95.664 127.805H95.8757L101.584 107.57H108.489L99.8768 135.198H91.6634L83.0508 107.57H89.9559Z" fill="#59B202"/>
<path d="M62.5 135.198V107.57H80.2978V112.993H68.6692V118.659H79.388V124.096H68.6692V129.774H80.2978V135.198H62.5Z" fill="#59B202"/>
</g>
<defs>
<clipPath id="clip0_342_3684">
<rect width="125" height="164" fill="white"/>
</clipPath>
</defs>
</svg>
