<svg width="170" height="165" viewBox="0 0 170 165" fill="none" xmlns="http://www.w3.org/2000/svg">
<g clip-path="url(#clip0_342_3677)">
<path fill-rule="evenodd" clip-rule="evenodd" d="M123.25 51.0309C137.334 51.0309 148.75 39.6072 148.75 25.5155C148.75 11.4237 137.334 0 123.25 0C109.166 0 97.75 11.4237 97.75 25.5155C97.75 39.6072 109.166 51.0309 123.25 51.0309ZM123.25 42.5258C132.639 42.5258 140.25 34.91 140.25 25.5155C140.25 16.1209 132.639 8.50515 123.25 8.50515C113.861 8.50515 106.25 16.1209 106.25 25.5155C106.25 34.91 113.861 42.5258 123.25 42.5258Z" fill="#59B202"/>
<path fill-rule="evenodd" clip-rule="evenodd" d="M76.5558 132.68C77.2376 143.045 84.1055 151.719 93.5 155.042V164.999H102V156.494H142.8V164.999H151.3V155.577C162.082 152.6 170 142.714 170 130.979V76.5458C170 62.454 158.584 51.0303 144.5 51.0303H123.25H102C92.1528 51.0303 83.6089 56.6156 79.3603 64.7929C74.6859 58.9931 67.526 55.2829 59.5 55.2829H42.5C56.5832 55.2829 68 43.8592 68 29.7674C68 15.6757 56.5832 4.25195 42.5 4.25195C28.4168 4.25195 17 15.6757 17 29.7674C17 43.8592 28.4168 55.2829 42.5 55.2829H25.5C11.4168 55.2829 0 66.7066 0 80.7983V115.669C0 122.31 3.80361 128.063 9.35 130.864V164.999H17.85V132.68H68V164.999H76.5V132.68H76.5558ZM85.0842 132.68C85.6375 138.257 88.882 143.041 93.5 145.713V132.68H85.0842ZM102 147.989V132.68C106.695 132.68 110.5 128.872 110.5 124.175H114.75C117.097 124.175 119 122.27 119 119.922V102.912C119 100.563 117.097 98.6592 114.75 98.6592H110.5V81.6489C110.5 76.9516 106.695 73.1437 102 73.1437H85.34C86.9151 65.3794 93.7754 59.5355 102 59.5355H144.5C153.889 59.5355 161.5 67.1512 161.5 76.5458V130.979C161.5 137.954 157.304 143.949 151.3 146.574V89.3035C151.3 86.9552 149.397 85.0509 147.05 85.0509C144.703 85.0509 142.8 86.9552 142.8 89.3035V147.989H102ZM74.6856 73.1437C71.886 67.5939 66.1372 63.788 59.5 63.788H25.5C16.1112 63.788 8.5 71.4038 8.5 80.7983V115.669C8.5 120.367 12.3056 124.175 17 124.175H60.35V111.417H23.8C21.4528 111.417 19.55 109.513 19.55 107.164V89.3035C19.55 86.9552 21.4528 85.0509 23.8 85.0509C26.1472 85.0509 28.05 86.9552 28.05 89.3035V102.912H60.35V81.6489C60.35 76.9516 64.1555 73.1437 68.85 73.1437H74.6856ZM59.5 29.7674C59.5 39.162 51.8888 46.7777 42.5 46.7777C33.1112 46.7777 25.5 39.162 25.5 29.7674C25.5 20.3729 33.1112 12.7571 42.5 12.7571C51.8888 12.7571 59.5 20.3729 59.5 29.7674ZM68.85 81.6489H102V99.3855C97.0479 101.137 93.5 105.862 93.5 111.417C93.5 116.972 97.0479 121.697 102 123.448V124.175H68.85V81.6489ZM110.5 107.164H106.25C103.903 107.164 102 109.069 102 111.417C102 113.765 103.903 115.669 106.25 115.669H110.5V107.164Z" fill="#59B202"/>
</g>
<defs>
<clipPath id="clip0_342_3677">
<rect width="170" height="165" fill="white"/>
</clipPath>
</defs>
</svg>
