<svg width="198" height="166" viewBox="0 0 198 166" fill="none" xmlns="http://www.w3.org/2000/svg">
<g clip-path="url(#clip0_108_6906)">
<path d="M0 149.719C0 151.465 1.41682 152.881 3.16456 152.881H18.0381V146.557H6.32911V9.32411H40.5063V90.9051H46.8354V6.16206C46.8354 4.4157 45.4186 3 43.6709 3H3.16456C1.41682 3 0 4.4157 0 6.16206V149.719Z" fill="#59B202"/>
<path d="M26.583 101.015V68.7714C26.583 67.0253 25.1662 65.6094 23.4185 65.6094C21.6707 65.6094 20.2539 67.0253 20.2539 68.7714V100.983C21.9932 100.983 24.4664 101.003 26.583 101.015Z" fill="#59B202"/>
<path fill-rule="evenodd" clip-rule="evenodd" d="M32.9112 41.578C32.9112 46.817 28.6607 51.0641 23.4175 51.0641C18.1743 51.0641 13.9238 46.817 13.9238 41.578C13.9238 36.3389 18.1743 32.0918 23.4175 32.0918C28.6607 32.0918 32.9112 36.3389 32.9112 41.578ZM26.5821 41.578C26.5821 43.3243 25.1652 44.74 23.4175 44.74C21.6698 44.74 20.2529 43.3243 20.2529 41.578C20.2529 39.8316 21.6698 38.4159 23.4175 38.4159C25.1652 38.4159 26.5821 39.8316 26.5821 41.578Z" fill="#59B202"/>
<path d="M99.3673 23.2362H103.165C120.431 23.2362 134.467 37.0528 134.804 54.2244H131.646C129.898 54.2244 128.481 55.64 128.481 57.3864V82.6829C128.481 84.4289 129.898 85.8449 131.646 85.8449H137.975C139.722 85.8449 141.139 84.4289 141.139 82.6829V54.8568C141.139 33.9004 124.138 16.9121 103.165 16.9121H99.3673C78.3945 16.9121 61.3926 33.9004 61.3926 54.8568V82.6829C61.3926 84.4289 62.8095 85.8449 64.5571 85.8449H70.8862C72.6337 85.8449 74.0508 84.4289 74.0508 82.6829V57.3864C74.0508 55.64 72.6337 54.2244 70.8862 54.2244H67.728C68.0647 37.0528 82.1014 23.2362 99.3673 23.2362Z" fill="#59B202"/>
<path d="M52.5312 61.1816C52.5312 59.4352 53.9482 58.0195 55.6958 58.0195H58.8604V81.4187H55.6958C53.9482 81.4187 52.5312 80.0028 52.5312 78.2567V61.1816Z" fill="#59B202"/>
<path d="M146.836 58.0195C148.584 58.0195 150.001 59.4352 150.001 61.1816V78.2567C150.001 80.0028 148.584 81.4187 146.836 81.4187H143.672V58.0195H146.836Z" fill="#59B202"/>
<path d="M98.1016 53.5937C98.1016 51.8473 99.5187 50.4316 101.266 50.4316C103.014 50.4316 104.431 51.8473 104.431 53.5937V85.2142C104.431 86.9603 103.014 88.3763 101.266 88.3763C99.5187 88.3763 98.1016 86.9603 98.1016 85.2142V53.5937Z" fill="#59B202"/>
<path d="M91.772 59.918C90.0245 59.918 88.6074 61.3336 88.6074 63.08V75.7282C88.6074 77.4743 90.0245 78.8903 91.772 78.8903C93.5194 78.8903 94.9365 77.4743 94.9365 75.7282V63.08C94.9365 61.3336 93.5194 59.918 91.772 59.918Z" fill="#59B202"/>
<path d="M107.596 63.08C107.596 61.3336 109.013 59.918 110.76 59.918C112.508 59.918 113.925 61.3336 113.925 63.08V75.7282C113.925 77.4743 112.508 78.8903 110.76 78.8903C109.013 78.8903 107.596 77.4743 107.596 75.7282V63.08Z" fill="#59B202"/>
<path d="M120.252 64.9766C118.505 64.9766 117.088 66.3925 117.088 68.1386V71.3007C117.088 73.0468 118.505 74.4627 120.252 74.4627C122 74.4627 123.417 73.0468 123.417 71.3007V68.1386C123.417 66.3925 122 64.9766 120.252 64.9766Z" fill="#59B202"/>
<path d="M79.1133 68.1386C79.1133 66.3925 80.5304 64.9766 82.2778 64.9766C84.0253 64.9766 85.4424 66.3925 85.4424 68.1386V71.3007C85.4424 73.0468 84.0253 74.4627 82.2778 74.4627C80.5304 74.4627 79.1133 73.0468 79.1133 71.3007V68.1386Z" fill="#59B202"/>
<path d="M43.6714 109.244C41.9238 109.244 40.5068 110.66 40.5068 112.406V115.568H37.3423C35.5947 115.568 34.1777 116.984 34.1777 118.73C34.1777 120.476 35.5947 121.892 37.3423 121.892H40.5068V125.054C40.5068 126.801 41.9238 128.216 43.6714 128.216C45.419 128.216 46.836 126.801 46.836 125.054V121.892H50.0005C51.7481 121.892 53.1651 120.476 53.1651 118.73C53.1651 116.984 51.7481 115.568 50.0005 115.568H46.836V112.406C46.836 110.66 45.419 109.244 43.6714 109.244Z" fill="#59B202"/>
<path d="M92.7443 110.17C91.5082 108.936 89.5045 108.936 88.2684 110.17C87.0329 111.405 87.0329 113.407 88.2684 114.642C89.5045 115.877 91.5082 115.877 92.7443 114.642C93.9798 113.407 93.9798 111.405 92.7443 110.17Z" fill="#59B202"/>
<path d="M82.5731 120.967C83.8091 122.201 85.8129 122.201 87.049 120.967C88.2845 119.732 88.2845 117.729 87.049 116.494C85.8129 115.26 83.8091 115.26 82.5731 116.494C81.3376 117.729 81.3376 119.732 82.5731 120.967Z" fill="#59B202"/>
<path d="M99.0724 120.967C97.8364 122.201 95.8326 122.201 94.5965 120.967C93.3611 119.732 93.3611 117.729 94.5965 116.494C95.8326 115.26 97.8364 115.26 99.0724 116.494C100.308 117.729 100.308 119.732 99.0724 120.967Z" fill="#59B202"/>
<path d="M88.2684 127.291C89.5045 128.525 91.5082 128.525 92.7443 127.291C93.9798 126.056 93.9798 124.054 92.7443 122.818C91.5082 121.584 89.5045 121.584 88.2684 122.818C87.0329 124.054 87.0329 126.056 88.2684 127.291Z" fill="#59B202"/>
<path fill-rule="evenodd" clip-rule="evenodd" d="M105.472 161.917C112.07 159.608 115.546 152.392 113.235 145.799L108.453 132.151C111.298 128.428 112.988 123.776 112.988 118.73C112.988 109.172 106.925 101.029 98.431 97.9311V97.2285C98.431 95.4824 97.0139 94.0664 95.2665 94.0664H85.7728C84.0253 94.0664 82.6083 95.4824 82.6083 97.2285V98.1733C80.5247 99.0062 78.5975 100.147 76.8829 101.538C76.5842 101.781 76.2918 102.03 76.0064 102.288H70.5829C70.5829 100.542 69.1658 99.1257 67.4184 99.1257C65.6709 99.1257 64.2538 100.542 64.2538 102.288H58.8305C58.545 102.03 58.2527 101.781 57.9539 101.538C56.239 100.147 54.3119 99.0062 52.2285 98.1733V97.2285C52.2285 95.4824 50.8116 94.0664 49.0639 94.0664H39.5703C37.8227 94.0664 36.4057 95.4824 36.4057 97.2285V97.9311C27.9124 101.029 21.8488 109.172 21.8488 118.73C21.8488 123.776 23.5386 128.428 26.3836 132.151L21.6012 145.799C19.2912 152.392 22.7672 159.608 29.3655 161.917C35.9638 164.225 43.1854 160.751 45.4955 154.158L50.4917 139.899C55.772 138.285 60.2136 134.752 63.0024 130.114H71.8342C74.6234 134.752 79.0646 138.285 84.345 139.899L89.3412 154.158C91.6513 160.751 98.8728 164.225 105.472 161.917ZM42.7348 100.391H45.8994V102.453L49.8765 104.045C51.6189 104.742 53.2132 105.742 54.592 106.984L56.3983 108.612H78.4386L80.245 106.984C81.6234 105.742 83.2177 104.742 84.9601 104.045L88.9374 102.453V100.391H92.1019V102.355L96.2614 103.872C102.337 106.088 106.659 111.913 106.659 118.73C106.659 122.342 105.455 125.654 103.423 128.313L101.352 131.023L107.262 147.889C108.417 151.185 106.679 154.793 103.38 155.947C100.08 157.101 96.4696 155.365 95.3146 152.069L89.2601 134.789L86.1969 133.852C82.4374 132.702 79.257 130.178 77.2595 126.857L75.4152 123.79H59.4215L57.5773 126.857C55.5799 130.178 52.3996 132.702 48.6397 133.852L45.5767 134.789L39.5219 152.069C38.3669 155.365 34.7562 157.101 31.457 155.947C28.1579 154.793 26.4199 151.185 27.5748 147.888L33.4847 131.023L31.4139 128.313C29.3819 125.654 28.1779 122.342 28.1779 118.73C28.1779 111.913 32.4996 106.088 38.5757 103.872L42.7348 102.355V100.391Z" fill="#59B202"/>
</g>
<defs>
<clipPath id="clip0_108_6906">
<rect width="150" height="160" fill="white" transform="translate(0 3)"/>
</clipPath>
</defs>
</svg>
