<svg width="161" height="157" viewBox="0 0 161 157" fill="none" xmlns="http://www.w3.org/2000/svg">
<g clip-path="url(#clip0_176_42938)">
<path fill-rule="evenodd" clip-rule="evenodd" d="M0 0V104.435C0 106.371 1.56022 107.94 3.48485 107.94C5.40947 107.94 6.9697 106.371 6.9697 104.435V0H0ZM18.1212 104.435V0H25.0909V6.30804H135.909V0H142.879V104.435C142.879 106.371 141.318 107.94 139.394 107.94C137.47 107.94 135.909 106.371 135.909 104.435V97.4241H25.0909V104.435C25.0909 106.371 23.5307 107.94 21.6061 107.94C19.6814 107.94 18.1212 106.371 18.1212 104.435ZM135.909 90.4152V13.317H25.0909V90.4152H135.909ZM43.9091 100.929C47.7584 100.929 50.8788 103.366 50.8788 107.237H54.3636C58.2129 107.237 61.3333 110.375 61.3333 114.246V147.188C61.3333 147.574 61.0212 147.888 60.6364 147.888H27.8788C27.4939 147.888 27.1818 147.574 27.1818 147.188V114.246C27.1818 110.375 30.3022 107.237 34.1515 107.237H36.9394C36.9394 103.366 40.0598 100.929 43.9091 100.929ZM34.1515 114.246H43.9091H54.3636V140.879H34.1515V114.246ZM87.8182 107.237H90.6061C94.4554 107.237 97.5758 110.375 97.5758 114.246V147.188C97.5758 147.574 97.2635 147.888 96.8788 147.888H64.1212C63.7362 147.888 63.4242 147.574 63.4242 147.188V114.246C63.4242 110.375 66.5446 107.237 70.3939 107.237H73.8788C73.8788 103.366 76.9991 100.929 80.8485 100.929C84.6978 100.929 87.8182 103.366 87.8182 107.237ZM126.848 107.237H124.061C124.061 103.366 120.94 100.929 117.091 100.929C113.242 100.929 110.121 103.366 110.121 107.237H106.636C102.787 107.237 99.6667 110.375 99.6667 114.246V147.188C99.6667 147.574 99.9789 147.888 100.364 147.888H133.121C133.506 147.888 133.818 147.574 133.818 147.188V114.246C133.818 110.375 130.698 107.237 126.848 107.237ZM18.1212 149.29V125.46C18.1212 123.525 16.5608 121.955 14.6364 121.955C12.7119 121.955 11.1515 123.525 11.1515 125.46V149.29H18.1212ZM14.6364 114.946C8.86253 114.946 4.18182 119.654 4.18182 125.46V152.795C4.18182 154.73 5.74217 156.299 7.66667 156.299H25.0909V125.46C25.0909 119.654 20.4102 114.946 14.6364 114.946ZM149.848 125.46V149.991H142.879V125.46C142.879 123.525 144.439 121.955 146.364 121.955C148.288 121.955 149.848 123.525 149.848 125.46ZM135.909 125.46C135.909 119.654 140.59 114.946 146.364 114.946C152.137 114.946 156.818 119.654 156.818 125.46V153.496C156.818 155.431 155.258 157 153.333 157H135.909V125.46ZM80.8485 114.246H90.6061V140.879H70.3939V114.246H80.8485ZM126.848 114.246H117.091H106.636V140.879H126.848V114.246ZM30.6667 149.991C28.7422 149.991 27.1818 151.56 27.1818 153.496C27.1818 155.431 28.7422 157 30.6667 157H130.333C132.258 157 133.818 155.431 133.818 153.496C133.818 151.56 132.258 149.991 130.333 149.991H30.6667ZM78.7576 39.9509C78.7576 42.2437 77.6626 44.2793 75.9704 45.558H83.6357C81.9434 44.2793 80.8485 42.2437 80.8485 39.9509C80.8485 36.08 83.9688 32.942 87.8182 32.942C91.6675 32.942 94.7879 36.08 94.7879 39.9509C94.7879 42.2437 93.6929 44.2793 92.0007 45.558H94.0909C96.0152 45.558 97.5758 47.1271 97.5758 49.0625V50.9181L101.684 48.7212C104.019 47.4722 106.832 49.192 106.804 51.8518L106.713 60.684C106.685 63.3438 103.837 65.0042 101.528 63.7066L97.5758 61.4853V63.0804C97.5758 65.0158 96.0152 66.5848 94.0909 66.5848H66.2121C64.2875 66.5848 62.7273 65.0158 62.7273 63.0804V49.0625C62.7273 47.1271 64.2875 45.558 66.2121 45.558H67.6054C65.9129 44.2793 64.8182 42.2437 64.8182 39.9509C64.8182 36.08 67.9386 32.942 71.7879 32.942C75.6372 32.942 78.7576 36.08 78.7576 39.9509ZM90.6061 52.567H69.697V59.5759H90.6061V52.567ZM9.06061 104.435V0H16.0303V104.435C16.0303 106.371 14.4701 107.94 12.5455 107.94C10.6208 107.94 9.06061 106.371 9.06061 104.435ZM144.97 104.435V0H151.939V104.435C151.939 106.371 150.379 107.94 148.455 107.94C146.53 107.94 144.97 106.371 144.97 104.435ZM154.03 0V104.435C154.03 106.371 155.591 107.94 157.515 107.94C159.439 107.94 161 106.371 161 104.435V0H154.03Z" fill="#59B202"/>
</g>
<defs>
<clipPath id="clip0_176_42938">
<rect width="161" height="157" fill="white"/>
</clipPath>
</defs>
</svg>
