<svg width="198" height="166" viewBox="0 0 198 166" fill="none" xmlns="http://www.w3.org/2000/svg">
<g clip-path="url(#clip0_108_6840)">
<g clip-path="url(#clip1_108_6840)">
<path d="M9.22852 54.2515C9.22852 52.5335 10.6529 51.1406 12.4103 51.1406C14.1678 51.1406 15.5922 52.5335 15.5922 54.2515C15.5922 55.9695 14.1678 57.3623 12.4103 57.3623C10.6529 57.3623 9.22852 55.9695 9.22852 54.2515Z" fill="#59B202"/>
<path d="M124.364 119.098V98.2361L135.182 92.2346V104.358C131.668 104.358 128.819 107.211 128.819 110.73C128.819 114.249 131.668 117.101 135.182 117.101C138.811 117.101 141.763 113.935 141.532 110.318L141.546 110.311V86.827C141.546 84.3994 138.942 82.8638 136.821 84.0406L119.64 93.572C118.628 94.1334 118 95.2006 118 96.359V112.641C114.486 112.641 111.637 115.494 111.637 119.013C111.637 122.532 114.486 125.385 118 125.385C121.487 125.385 124.319 122.577 124.364 119.098Z" fill="#59B202"/>
<path fill-rule="evenodd" clip-rule="evenodd" d="M52.4545 68.3451V17.3717H128.818V57.5592L104.799 57.5186C103.042 57.5156 101.616 58.9396 101.612 60.699L101.46 151.138C101.457 152.898 102.879 154.327 104.636 154.33L149.528 154.406C151.286 154.408 152.712 152.984 152.716 151.225L152.868 60.7856C152.871 59.0261 151.449 57.5974 149.691 57.5943L135.182 57.5699V14.1858C135.182 12.4263 133.758 11 132 11H49.2727C47.5153 11 46.0909 12.4263 46.0909 14.1858V40.9469H2.18182C0.42436 40.9469 -1 42.3732 -1 44.1327V101.478C-1 103.237 0.42436 104.664 2.18182 104.664H84.9091C86.6667 104.664 88.0909 103.237 88.0909 101.478V74.7168H101.574L101.586 68.3451H52.4545ZM78.5423 74.7168H81.7273V77.558L78.5423 74.7168ZM60.5992 74.7168H49.2727C47.6818 74.7168 46.0909 73.0622 46.0909 71.531V57.3529C44.4559 57.2225 43.1713 55.8841 43.1713 54.2524C43.1713 52.6208 44.4559 51.2823 46.0909 51.152V47.3186H5.36364V76.6557L20.3182 61.7201L20.3406 61.6981C20.678 56.8436 24.8131 53.0081 29.8636 53.0081C35.1354 53.0081 39.4091 57.1866 39.4091 62.3407C39.4091 66.1609 37.0612 69.4451 33.6998 70.8893L48.4673 86.219L60.5992 74.7168ZM5.36364 85.5493V98.292H50.8245L45.9921 92.7238L22.5473 68.3876L5.36364 85.5493ZM81.7273 97.8046V85.9813L69.4308 75.0106L52.7168 90.8569L58.7467 97.8046H81.7273ZM146.357 148.028L107.829 147.963L107.97 63.8957L146.498 63.9607L146.357 148.028ZM29.8636 65.4516C31.6211 65.4516 33.0455 64.0587 33.0455 62.3407C33.0455 60.6227 31.6211 59.2299 29.8636 59.2299C28.1062 59.2299 26.6818 60.6227 26.6818 62.3407C26.6818 64.0587 28.1062 65.4516 29.8636 65.4516Z" fill="#59B202"/>
<path fill-rule="evenodd" clip-rule="evenodd" d="M84.2732 35.8499C85.8189 34.6874 86.818 32.8368 86.818 30.7525C86.818 27.2335 83.9684 24.3809 80.4544 24.3809C76.9397 24.3809 74.0907 27.2335 74.0907 30.7525C74.0907 32.8368 75.0898 34.6874 76.6356 35.8499H75.3635C73.6058 35.8499 72.1816 37.2762 72.1816 39.0357V51.7791C72.1816 53.5386 73.6058 54.9649 75.3635 54.9649H100.818C102.576 54.9649 104 53.5386 104 51.7791V50.329L107.609 52.3485C109.716 53.5281 112.317 52.0185 112.343 49.6007L112.426 41.5713C112.451 39.1535 109.882 37.59 107.751 38.7254L104 40.7226V39.0357C104 37.2762 102.576 35.8499 100.818 35.8499H98.9096C100.455 34.6874 101.454 32.8368 101.454 30.7525C101.454 27.2335 98.6047 24.3809 95.0907 24.3809C91.5767 24.3809 88.7271 27.2335 88.7271 30.7525C88.7271 32.8368 89.7262 34.6874 91.2719 35.8499H84.2732ZM78.5453 42.2216H97.6362V48.5933H78.5453V42.2216Z" fill="#59B202"/>
</g>
</g>
<defs>
<clipPath id="clip0_108_6840">
<rect width="198" height="166" fill="white"/>
</clipPath>
<clipPath id="clip1_108_6840">
<rect width="154" height="144" fill="white" transform="translate(-1 11)"/>
</clipPath>
</defs>
</svg>
