<svg width="118" height="53" viewBox="0 0 118 53" fill="none" xmlns="http://www.w3.org/2000/svg">
<rect x="0.5" y="0.5" width="117" height="52" rx="26" stroke="#438006"/>
<path d="M41.0586 35.6621V33.6113C40.3099 33.5983 39.5938 33.5332 38.9102 33.416C38.2331 33.2988 37.6797 33.1458 37.25 32.957V31.375C37.6992 31.5833 38.2754 31.7656 38.9785 31.9219C39.6816 32.0781 40.375 32.1628 41.0586 32.1758V27.8789C40.1992 27.638 39.4863 27.3646 38.9199 27.0586C38.36 26.7461 37.9401 26.3652 37.6602 25.916C37.3802 25.4668 37.2402 24.9232 37.2402 24.2852C37.2402 23.6211 37.3965 23.0547 37.709 22.5859C38.028 22.1107 38.474 21.7396 39.0469 21.4727C39.6198 21.2057 40.2904 21.0527 41.0586 21.0137V19.3242H42.25V20.9941C42.9466 21.0137 43.5814 21.0918 44.1543 21.2285C44.7272 21.3587 45.2578 21.528 45.7461 21.7363L45.2383 23.0938C44.7956 22.918 44.3171 22.7682 43.8027 22.6445C43.2884 22.5208 42.7708 22.4362 42.25 22.3906V26.6582C43.1224 26.9121 43.8516 27.1823 44.4375 27.4688C45.0299 27.7552 45.4759 28.11 45.7754 28.5332C46.0749 28.9564 46.2246 29.5033 46.2246 30.1738C46.2246 31.1243 45.8763 31.8926 45.1797 32.4785C44.4831 33.0579 43.5065 33.4095 42.25 33.5332V35.6621H41.0586ZM42.25 32.0879C43.0508 32.0098 43.6465 31.8177 44.0371 31.5117C44.4342 31.1992 44.6328 30.7891 44.6328 30.2812C44.6328 29.9167 44.5547 29.6172 44.3984 29.3828C44.2487 29.1484 44.0013 28.9466 43.6562 28.7773C43.3112 28.6016 42.8424 28.4355 42.25 28.2793V32.0879ZM41.0586 26.248V22.4297C40.5703 22.4622 40.1602 22.5534 39.8281 22.7031C39.4961 22.8529 39.2454 23.0482 39.0762 23.2891C38.9134 23.5299 38.832 23.8164 38.832 24.1484C38.832 24.5326 38.9036 24.8548 39.0469 25.1152C39.1966 25.3691 39.4342 25.5872 39.7598 25.7695C40.0918 25.9453 40.5247 26.1048 41.0586 26.248ZM52.9434 25.7695C53.9134 25.7695 54.7565 25.9355 55.4727 26.2676C56.1888 26.5931 56.7422 27.0684 57.1328 27.6934C57.5299 28.3184 57.7285 29.0768 57.7285 29.9688C57.7285 30.9453 57.5169 31.7884 57.0938 32.498C56.6706 33.2012 56.0618 33.7448 55.2676 34.1289C54.4733 34.5065 53.5228 34.6953 52.416 34.6953C51.6738 34.6953 50.9837 34.6302 50.3457 34.5C49.7077 34.3698 49.1706 34.1745 48.7344 33.9141V32.3711C49.2096 32.6576 49.7858 32.8854 50.4629 33.0547C51.14 33.224 51.7975 33.3086 52.4355 33.3086C53.1582 33.3086 53.7897 33.1947 54.3301 32.9668C54.877 32.7324 55.3001 32.3809 55.5996 31.9121C55.9056 31.4368 56.0586 30.8411 56.0586 30.125C56.0586 29.1745 55.7656 28.4421 55.1797 27.9277C54.6003 27.4069 53.6823 27.1465 52.4258 27.1465C52.0221 27.1465 51.5794 27.179 51.0977 27.2441C50.6159 27.3092 50.2188 27.3809 49.9062 27.459L49.0859 26.9219L49.6328 20.2227H56.7324V21.707H51.0195L50.6582 26.0137C50.9056 25.9616 51.2246 25.9095 51.6152 25.8574C52.0059 25.7988 52.4486 25.7695 52.9434 25.7695ZM69.3105 27.3418C69.3105 28.5007 69.2227 29.5358 69.0469 30.4473C68.8711 31.3587 68.5944 32.1302 68.2168 32.7617C67.8392 33.3932 67.3509 33.875 66.752 34.207C66.153 34.5326 65.4336 34.6953 64.5938 34.6953C63.5326 34.6953 62.6536 34.4056 61.957 33.8262C61.2669 33.2467 60.7493 32.4102 60.4043 31.3164C60.0658 30.2161 59.8965 28.8913 59.8965 27.3418C59.8965 25.8184 60.0495 24.5098 60.3555 23.416C60.668 22.3158 61.1693 21.4727 61.8594 20.8867C62.5495 20.2943 63.4609 19.998 64.5938 19.998C65.668 19.998 66.5534 20.291 67.25 20.877C67.9466 21.4564 68.4642 22.2962 68.8027 23.3965C69.1413 24.4902 69.3105 25.8053 69.3105 27.3418ZM61.5273 27.3418C61.5273 28.6699 61.6283 29.7767 61.8301 30.6621C62.0319 31.5475 62.3574 32.2116 62.8066 32.6543C63.2624 33.0905 63.8581 33.3086 64.5938 33.3086C65.3294 33.3086 65.9219 33.0905 66.3711 32.6543C66.8268 32.2181 67.1556 31.5573 67.3574 30.6719C67.5658 29.7865 67.6699 28.6764 67.6699 27.3418C67.6699 26.0332 67.569 24.9395 67.3672 24.0605C67.1654 23.1751 66.8398 22.5111 66.3906 22.0684C65.9414 21.6191 65.3424 21.3945 64.5938 21.3945C63.8451 21.3945 63.2461 21.6191 62.7969 22.0684C62.3477 22.5111 62.0221 23.1751 61.8203 24.0605C61.625 24.9395 61.5273 26.0332 61.5273 27.3418ZM80.7559 27.3418C80.7559 28.5007 80.668 29.5358 80.4922 30.4473C80.3164 31.3587 80.0397 32.1302 79.6621 32.7617C79.2845 33.3932 78.7962 33.875 78.1973 34.207C77.5983 34.5326 76.8789 34.6953 76.0391 34.6953C74.9779 34.6953 74.099 34.4056 73.4023 33.8262C72.7122 33.2467 72.1947 32.4102 71.8496 31.3164C71.5111 30.2161 71.3418 28.8913 71.3418 27.3418C71.3418 25.8184 71.4948 24.5098 71.8008 23.416C72.1133 22.3158 72.6146 21.4727 73.3047 20.8867C73.9948 20.2943 74.9062 19.998 76.0391 19.998C77.1133 19.998 77.9987 20.291 78.6953 20.877C79.3919 21.4564 79.9095 22.2962 80.248 23.3965C80.5866 24.4902 80.7559 25.8053 80.7559 27.3418ZM72.9727 27.3418C72.9727 28.6699 73.0736 29.7767 73.2754 30.6621C73.4772 31.5475 73.8027 32.2116 74.252 32.6543C74.7077 33.0905 75.3034 33.3086 76.0391 33.3086C76.7747 33.3086 77.3672 33.0905 77.8164 32.6543C78.2721 32.2181 78.6009 31.5573 78.8027 30.6719C79.0111 29.7865 79.1152 28.6764 79.1152 27.3418C79.1152 26.0332 79.0143 24.9395 78.8125 24.0605C78.6107 23.1751 78.2852 22.5111 77.8359 22.0684C77.3867 21.6191 76.7878 21.3945 76.0391 21.3945C75.2904 21.3945 74.6914 21.6191 74.2422 22.0684C73.793 22.5111 73.4674 23.1751 73.2656 24.0605C73.0703 24.9395 72.9727 26.0332 72.9727 27.3418Z" fill="#59B202"/>
</svg>
