<svg width="198" height="166" viewBox="0 0 198 166" fill="none" xmlns="http://www.w3.org/2000/svg">
<g clip-path="url(#clip0_108_6873)">
<path fill-rule="evenodd" clip-rule="evenodd" d="M65.1777 53.8732C65.1777 52.1137 66.6085 50.6875 68.3728 50.6875H87.5429C89.3072 50.6875 90.7379 52.1137 90.7379 53.8732V79.3584C90.7379 81.1175 89.3072 82.544 87.5429 82.544H68.3728C66.6085 82.544 65.1777 81.1175 65.1777 79.3584V53.8732ZM71.5678 60.2445V57.0588H84.3479V60.2445H71.5678ZM71.5678 66.6158V76.1727H84.3479V66.6158H71.5678Z" fill="#59B202"/>
<path fill-rule="evenodd" clip-rule="evenodd" d="M110.549 50.6875C108.784 50.6875 107.354 52.1137 107.354 53.8732V63.4301C107.354 65.1896 108.784 66.6158 110.549 66.6158H129.719C131.483 66.6158 132.914 65.1896 132.914 63.4301V53.8732C132.914 52.1137 131.483 50.6875 129.719 50.6875H110.549ZM113.744 57.0588V60.2445H126.524V57.0588H113.744Z" fill="#59B202"/>
<path fill-rule="evenodd" clip-rule="evenodd" d="M13.4196 99.1094C11.6552 99.1094 10.2246 100.536 10.2246 102.295V134.789C10.2246 136.548 11.6552 137.974 13.4196 137.974H46.6478C48.4123 137.974 49.8429 136.548 49.8429 134.789V102.295C49.8429 100.536 48.4123 99.1094 46.6478 99.1094H13.4196ZM16.6147 105.481V131.603H43.4528V105.481H16.6147Z" fill="#59B202"/>
<path d="M30.0329 85.7307C31.7973 85.7307 33.2279 84.3041 33.2279 82.545C33.2279 80.7859 31.7973 79.3594 30.0329 79.3594C28.2685 79.3594 26.8379 80.7859 26.8379 82.545C26.8379 84.3041 28.2685 85.7307 30.0329 85.7307Z" fill="#59B202"/>
<path d="M40.2575 85.7307C42.0219 85.7307 43.4525 84.3041 43.4525 82.545C43.4525 80.7859 42.0219 79.3594 40.2575 79.3594C38.4931 79.3594 37.0625 80.7859 37.0625 82.545C37.0625 84.3041 38.4931 85.7307 40.2575 85.7307Z" fill="#59B202"/>
<path d="M19.8083 85.7307C21.5727 85.7307 23.0033 84.3041 23.0033 82.545C23.0033 80.7859 21.5727 79.3594 19.8083 79.3594C18.0439 79.3594 16.6133 80.7859 16.6133 82.545C16.6133 84.3041 18.0439 85.7307 19.8083 85.7307Z" fill="#59B202"/>
<path fill-rule="evenodd" clip-rule="evenodd" d="M122.049 148.169C132.636 148.169 141.219 139.612 141.219 129.055C141.219 118.499 132.636 109.941 122.049 109.941C111.462 109.941 102.879 118.499 102.879 129.055C102.879 139.612 111.462 148.169 122.049 148.169ZM128.439 129.055C128.439 126.086 130.476 123.591 133.233 122.884C131.053 118.965 126.862 116.313 122.049 116.313C114.991 116.313 109.269 122.018 109.269 129.055C109.269 136.093 114.991 141.798 122.049 141.798C126.862 141.798 131.053 139.146 133.233 135.227C130.476 134.519 128.439 132.024 128.439 129.055Z" fill="#59B202"/>
<path d="M99.6855 94.0118C99.6855 92.2527 101.116 90.8262 102.881 90.8262H115.661C117.425 90.8262 118.856 92.2527 118.856 94.0118C118.856 95.7709 117.425 97.1975 115.661 97.1975H102.881C101.116 97.1975 99.6855 95.7709 99.6855 94.0118Z" fill="#59B202"/>
<path d="M144.415 94.0763C144.415 95.836 142.985 97.2619 141.22 97.2619C139.456 97.2619 138.025 95.836 138.025 94.0763C138.025 92.3172 139.456 90.8906 141.22 90.8906C142.985 90.8906 144.415 92.3172 144.415 94.0763Z" fill="#59B202"/>
<path d="M134.191 94.0118C134.191 95.7709 132.76 97.1975 130.996 97.1975C129.232 97.1975 127.801 95.7709 127.801 94.0118C127.801 92.2527 129.232 90.8262 130.996 90.8262C132.76 90.8262 134.191 92.2527 134.191 94.0118Z" fill="#59B202"/>
<path fill-rule="evenodd" clip-rule="evenodd" d="M144.415 11.1857C144.415 9.42624 142.964 8 141.175 8H56.9169C55.1272 8 53.6763 9.42624 53.6763 11.1857V71.7131H3.2128C1.43839 71.7131 0 73.1396 0 74.8987V144.983C0 146.742 1.43839 148.169 3.2128 148.169H90.0996V155.814C90.0996 157.573 91.5303 159 93.2946 159H150.805C152.569 159 154 157.573 154 155.814V85.73C154 83.9708 152.569 82.5443 150.805 82.5443H144.415V11.1857ZM90.0996 85.73V141.797H60.1578V14.3713H95.8053V82.5443H93.2946C91.5303 82.5443 90.0996 83.9708 90.0996 85.73ZM137.934 82.5443H102.286V14.3713H137.934V82.5443ZM6.42531 141.797V94.0127H53.6583V141.797H6.42531ZM53.6583 87.6413H6.42531V78.0844H53.6583V87.6413ZM96.4896 152.629V88.9156H147.61V152.629H96.4896Z" fill="#59B202"/>
<path fill-rule="evenodd" clip-rule="evenodd" d="M8.30664 44.3165C8.30664 42.5571 9.73724 41.1309 11.5017 41.1309H46.6469C48.4113 41.1309 49.8419 42.5571 49.8419 44.3165V63.4304C49.8419 65.1899 48.4113 66.6161 46.6469 66.6161H11.5017C9.73724 66.6161 8.30664 65.1899 8.30664 63.4304V44.3165ZM14.6967 60.2448V47.5022H37.0618V60.2448H14.6967ZM46.6469 47.5022C46.6469 49.2616 45.2163 50.6878 43.4519 50.6878C41.6875 50.6878 40.2568 49.2616 40.2568 47.5022C40.2568 45.7427 41.6875 44.3165 43.4519 44.3165C45.2163 44.3165 46.6469 45.7427 46.6469 47.5022ZM43.4519 60.2448C45.2163 60.2448 46.6469 58.8186 46.6469 57.0591C46.6469 55.2997 45.2163 53.8735 43.4519 53.8735C41.6875 53.8735 40.2568 55.2997 40.2568 57.0591C40.2568 58.8186 41.6875 60.2448 43.4519 60.2448Z" fill="#59B202"/>
</g>
<defs>
<clipPath id="clip0_108_6873">
<rect width="154" height="151" fill="white" transform="translate(0 8)"/>
</clipPath>
</defs>
</svg>
