<svg width="118" height="53" viewBox="0 0 118 53" fill="none" xmlns="http://www.w3.org/2000/svg">
<rect x="0.5" y="0.5" width="117" height="52" rx="26" stroke="#438006"/>
<path d="M9.55859 35.6621V33.6113C8.8099 33.5983 8.09375 33.5332 7.41016 33.416C6.73307 33.2988 6.17969 33.1458 5.75 32.957V31.375C6.19922 31.5833 6.77539 31.7656 7.47852 31.9219C8.18164 32.0781 8.875 32.1628 9.55859 32.1758V27.8789C8.69922 27.638 7.98633 27.3646 7.41992 27.0586C6.86003 26.7461 6.4401 26.3652 6.16016 25.916C5.88021 25.4668 5.74023 24.9232 5.74023 24.2852C5.74023 23.6211 5.89648 23.0547 6.20898 22.5859C6.52799 22.1107 6.97396 21.7396 7.54688 21.4727C8.11979 21.2057 8.79036 21.0527 9.55859 21.0137V19.3242H10.75V20.9941C11.4466 21.0137 12.0814 21.0918 12.6543 21.2285C13.2272 21.3587 13.7578 21.528 14.2461 21.7363L13.7383 23.0938C13.2956 22.918 12.8171 22.7682 12.3027 22.6445C11.7884 22.5208 11.2708 22.4362 10.75 22.3906V26.6582C11.6224 26.9121 12.3516 27.1823 12.9375 27.4688C13.5299 27.7552 13.9759 28.11 14.2754 28.5332C14.5749 28.9564 14.7246 29.5033 14.7246 30.1738C14.7246 31.1243 14.3763 31.8926 13.6797 32.4785C12.9831 33.0579 12.0065 33.4095 10.75 33.5332V35.6621H9.55859ZM10.75 32.0879C11.5508 32.0098 12.1465 31.8177 12.5371 31.5117C12.9342 31.1992 13.1328 30.7891 13.1328 30.2812C13.1328 29.9167 13.0547 29.6172 12.8984 29.3828C12.7487 29.1484 12.5013 28.9466 12.1562 28.7773C11.8112 28.6016 11.3424 28.4355 10.75 28.2793V32.0879ZM9.55859 26.248V22.4297C9.07031 22.4622 8.66016 22.5534 8.32812 22.7031C7.99609 22.8529 7.74544 23.0482 7.57617 23.2891C7.41341 23.5299 7.33203 23.8164 7.33203 24.1484C7.33203 24.5326 7.40365 24.8548 7.54688 25.1152C7.69661 25.3691 7.93424 25.5872 8.25977 25.7695C8.5918 25.9453 9.02474 26.1048 9.55859 26.248ZM22.9668 34.5H21.3848V24.3828C21.3848 23.9987 21.3848 23.6699 21.3848 23.3965C21.3913 23.1165 21.3978 22.8626 21.4043 22.6348C21.4173 22.4004 21.4336 22.1628 21.4531 21.9219C21.2513 22.1302 21.0625 22.3092 20.8867 22.459C20.7109 22.6022 20.4928 22.7812 20.2324 22.9961L18.6016 24.3047L17.752 23.2012L21.6191 20.2227H22.9668V34.5ZM37.2051 23.5527C37.2051 24.1908 37.0814 24.7441 36.834 25.2129C36.5866 25.6816 36.2415 26.0658 35.7988 26.3652C35.3561 26.6582 34.8353 26.8633 34.2363 26.9805V27.0586C35.3691 27.2018 36.2188 27.5664 36.7852 28.1523C37.3581 28.7383 37.6445 29.5065 37.6445 30.457C37.6445 31.2839 37.4492 32.0163 37.0586 32.6543C36.6745 33.2923 36.082 33.7936 35.2812 34.1582C34.487 34.5163 33.4681 34.6953 32.2246 34.6953C31.4694 34.6953 30.7695 34.6335 30.125 34.5098C29.487 34.3926 28.875 34.194 28.2891 33.9141V32.3906C28.8815 32.6836 29.526 32.9147 30.2227 33.084C30.9193 33.2467 31.5931 33.3281 32.2441 33.3281C33.5462 33.3281 34.487 33.071 35.0664 32.5566C35.6458 32.0358 35.9355 31.3262 35.9355 30.4277C35.9355 29.8092 35.7728 29.3112 35.4473 28.9336C35.1283 28.5495 34.666 28.2695 34.0605 28.0938C33.4616 27.9115 32.7389 27.8203 31.8926 27.8203H30.4668V26.4336H31.9023C32.6771 26.4336 33.3346 26.3197 33.875 26.0918C34.4154 25.8639 34.8255 25.5449 35.1055 25.1348C35.3919 24.7181 35.5352 24.2266 35.5352 23.6602C35.5352 22.9375 35.2943 22.3809 34.8125 21.9902C34.3307 21.5931 33.6764 21.3945 32.8496 21.3945C32.3418 21.3945 31.8796 21.4466 31.4629 21.5508C31.0462 21.6549 30.6556 21.7982 30.291 21.9805C29.9264 22.1628 29.5618 22.3743 29.1973 22.6152L28.377 21.502C28.8978 21.0983 29.5326 20.75 30.2812 20.457C31.0299 20.1641 31.8796 20.0176 32.8301 20.0176C34.2884 20.0176 35.3822 20.3496 36.1113 21.0137C36.8405 21.6777 37.2051 22.5241 37.2051 23.5527ZM49.2559 27.3418C49.2559 28.5007 49.168 29.5358 48.9922 30.4473C48.8164 31.3587 48.5397 32.1302 48.1621 32.7617C47.7845 33.3932 47.2962 33.875 46.6973 34.207C46.0983 34.5326 45.3789 34.6953 44.5391 34.6953C43.4779 34.6953 42.599 34.4056 41.9023 33.8262C41.2122 33.2467 40.6947 32.4102 40.3496 31.3164C40.0111 30.2161 39.8418 28.8913 39.8418 27.3418C39.8418 25.8184 39.9948 24.5098 40.3008 23.416C40.6133 22.3158 41.1146 21.4727 41.8047 20.8867C42.4948 20.2943 43.4062 19.998 44.5391 19.998C45.6133 19.998 46.4987 20.291 47.1953 20.877C47.8919 21.4564 48.4095 22.2962 48.748 23.3965C49.0866 24.4902 49.2559 25.8053 49.2559 27.3418ZM41.4727 27.3418C41.4727 28.6699 41.5736 29.7767 41.7754 30.6621C41.9772 31.5475 42.3027 32.2116 42.752 32.6543C43.2077 33.0905 43.8034 33.3086 44.5391 33.3086C45.2747 33.3086 45.8672 33.0905 46.3164 32.6543C46.7721 32.2181 47.1009 31.5573 47.3027 30.6719C47.5111 29.7865 47.6152 28.6764 47.6152 27.3418C47.6152 26.0332 47.5143 24.9395 47.3125 24.0605C47.1107 23.1751 46.7852 22.5111 46.3359 22.0684C45.8867 21.6191 45.2878 21.3945 44.5391 21.3945C43.7904 21.3945 43.1914 21.6191 42.7422 22.0684C42.293 22.5111 41.9674 23.1751 41.7656 24.0605C41.5703 24.9395 41.4727 26.0332 41.4727 27.3418ZM62.2148 23.6016C63.5495 23.6016 64.6139 24.0605 65.4082 24.9785C66.2025 25.8965 66.5996 27.2767 66.5996 29.1191C66.5996 30.3366 66.4173 31.3587 66.0527 32.1855C65.6882 33.0124 65.1738 33.6374 64.5098 34.0605C63.8522 34.4837 63.0742 34.6953 62.1758 34.6953C61.6094 34.6953 61.1113 34.6204 60.6816 34.4707C60.252 34.321 59.8841 34.1191 59.5781 33.8652C59.2721 33.6113 59.0182 33.3346 58.8164 33.0352H58.6992C58.7188 33.2891 58.7415 33.5951 58.7676 33.9531C58.8001 34.3112 58.8164 34.6237 58.8164 34.8906V39.2852H57.1855V23.7969H58.5234L58.7383 25.3789H58.8164C59.0247 25.0534 59.2786 24.7572 59.5781 24.4902C59.8776 24.2168 60.2422 24.002 60.6719 23.8457C61.1081 23.6829 61.6224 23.6016 62.2148 23.6016ZM61.9316 24.9688C61.1895 24.9688 60.5905 25.112 60.1348 25.3984C59.6855 25.6849 59.3568 26.1146 59.1484 26.6875C58.9401 27.2539 58.8294 27.9668 58.8164 28.8262V29.1387C58.8164 30.0436 58.9141 30.8086 59.1094 31.4336C59.3112 32.0586 59.64 32.5339 60.0957 32.8594C60.5579 33.1849 61.1764 33.3477 61.9512 33.3477C62.6152 33.3477 63.1686 33.1686 63.6113 32.8105C64.054 32.4525 64.3828 31.9544 64.5977 31.3164C64.819 30.6719 64.9297 29.9329 64.9297 29.0996C64.9297 27.8366 64.6823 26.834 64.1875 26.0918C63.6992 25.3431 62.9473 24.9688 61.9316 24.9688ZM73.5527 23.6016C74.4642 23.6016 75.2454 23.8034 75.8965 24.207C76.5475 24.6107 77.0456 25.1771 77.3906 25.9062C77.7357 26.6289 77.9082 27.4753 77.9082 28.4453V29.4512H70.5156C70.5352 30.7077 70.8477 31.6647 71.4531 32.3223C72.0586 32.9798 72.9115 33.3086 74.0117 33.3086C74.6888 33.3086 75.2878 33.2467 75.8086 33.123C76.3294 32.9993 76.8698 32.8171 77.4297 32.5762V34.002C76.8893 34.2428 76.3522 34.4186 75.8184 34.5293C75.291 34.64 74.666 34.6953 73.9434 34.6953C72.9147 34.6953 72.0163 34.487 71.248 34.0703C70.4863 33.6471 69.8939 33.0286 69.4707 32.2148C69.0475 31.401 68.8359 30.4049 68.8359 29.2266C68.8359 28.0742 69.028 27.0781 69.4121 26.2383C69.8027 25.3919 70.3496 24.7409 71.0527 24.2852C71.7624 23.8294 72.5957 23.6016 73.5527 23.6016ZM73.5332 24.9297C72.6673 24.9297 71.9772 25.2129 71.4629 25.7793C70.9486 26.3457 70.6426 27.1367 70.5449 28.1523H76.209C76.2025 27.5143 76.1016 26.9544 75.9062 26.4727C75.7174 25.9844 75.4277 25.6068 75.0371 25.3398C74.6465 25.0664 74.1452 24.9297 73.5332 24.9297ZM85.5254 23.6016C85.7402 23.6016 85.9648 23.6146 86.1992 23.6406C86.4336 23.6602 86.6419 23.6895 86.8242 23.7285L86.6191 25.2324C86.4434 25.1868 86.248 25.151 86.0332 25.125C85.8184 25.099 85.6165 25.0859 85.4277 25.0859C84.998 25.0859 84.5911 25.1738 84.207 25.3496C83.8294 25.5189 83.4974 25.7663 83.2109 26.0918C82.9245 26.4108 82.6999 26.7982 82.5371 27.2539C82.3743 27.7031 82.293 28.2044 82.293 28.7578V34.5H80.6621V23.7969H82.0098L82.1855 25.7695H82.2539C82.4753 25.3724 82.7422 25.0111 83.0547 24.6855C83.3672 24.3535 83.7285 24.0898 84.1387 23.8945C84.5553 23.6992 85.0176 23.6016 85.5254 23.6016ZM95.6621 19.3047V23.8457C95.6621 24.1061 95.6556 24.3698 95.6426 24.6367C95.6296 24.8971 95.6068 25.138 95.5742 25.3594H95.6816C95.903 24.9818 96.1829 24.666 96.5215 24.4121C96.8665 24.1517 97.2572 23.9564 97.6934 23.8262C98.1296 23.6895 98.5918 23.6211 99.0801 23.6211C99.9395 23.6211 100.656 23.7578 101.229 24.0312C101.808 24.3047 102.241 24.7279 102.527 25.3008C102.82 25.8737 102.967 26.6159 102.967 27.5273V34.5H101.365V27.6348C101.365 26.7428 101.16 26.0755 100.75 25.6328C100.346 25.1901 99.7246 24.9688 98.8848 24.9688C98.0905 24.9688 97.4557 25.1217 96.9805 25.4277C96.5117 25.7272 96.1732 26.1699 95.9648 26.7559C95.763 27.3418 95.6621 28.0579 95.6621 28.9043V34.5H94.041V19.3047H95.6621ZM111.17 23.6016C111.385 23.6016 111.609 23.6146 111.844 23.6406C112.078 23.6602 112.286 23.6895 112.469 23.7285L112.264 25.2324C112.088 25.1868 111.893 25.151 111.678 25.125C111.463 25.099 111.261 25.0859 111.072 25.0859C110.643 25.0859 110.236 25.1738 109.852 25.3496C109.474 25.5189 109.142 25.7663 108.855 26.0918C108.569 26.4108 108.344 26.7982 108.182 27.2539C108.019 27.7031 107.938 28.2044 107.938 28.7578V34.5H106.307V23.7969H107.654L107.83 25.7695H107.898C108.12 25.3724 108.387 25.0111 108.699 24.6855C109.012 24.3535 109.373 24.0898 109.783 23.8945C110.2 23.6992 110.662 23.6016 111.17 23.6016Z" fill="#59B202"/>
</svg>
