<svg width="163" height="179" viewBox="0 0 163 179" fill="none" xmlns="http://www.w3.org/2000/svg">
<g clip-path="url(#clip0_308_3973)">
<path d="M16.4434 92.4775C18.2016 92.4775 19.627 91.0513 19.627 89.2925C19.627 87.5331 18.2016 86.1074 16.4434 86.1074H3.70898C1.9507 86.1074 0.525391 87.5331 0.525391 89.2925C0.525391 91.0513 1.9507 92.4775 3.70898 92.4775H16.4434Z" fill="#59B202"/>
<path d="M21.6738 102.453C23.114 101.444 23.464 99.4577 22.4555 98.0167C21.4471 96.5758 19.4619 96.2255 18.0216 97.2345L7.59024 104.542C6.14999 105.551 5.79992 107.537 6.80848 108.978C7.81685 110.419 9.80214 110.768 11.2423 109.76L21.6738 102.453Z" fill="#59B202"/>
<path d="M7.59024 74.4255C6.14999 73.4165 5.79992 71.4303 6.80848 69.9894C7.81685 68.5485 9.80214 68.1981 11.2423 69.2071L21.6738 76.5143C23.114 77.5233 23.464 79.5095 22.4555 80.9504C21.4471 82.392 19.4619 82.7411 18.0216 81.7327L7.59024 74.4255Z" fill="#59B202"/>
<path fill-rule="evenodd" clip-rule="evenodd" d="M25.9941 24.3177V145.35L45.0957 164.46V24.3177H41.9121V21.1327C41.9121 19.3735 40.4868 17.9476 38.7285 17.9476V3.29638C38.7285 1.53714 37.3032 0.111328 35.5449 0.111328C33.7866 0.111328 32.3613 1.53714 32.3613 3.29638V17.9476C30.603 17.9476 29.1777 19.3735 29.1777 21.1327V24.3177H25.9941ZM30.4512 92.4781C30.4512 94.2369 31.8765 95.6632 33.6348 95.6632H36.8184C38.5766 95.6632 40.002 94.2369 40.002 92.4781V86.108C40.002 84.3486 38.5766 82.923 36.8184 82.923H33.6348C31.8765 82.923 30.4512 84.3486 30.4512 86.108V92.4781ZM33.6348 119.87C31.8765 119.87 30.4512 118.443 30.4512 116.685V110.314C30.4512 108.555 31.8765 107.129 33.6348 107.129H36.8184C38.5766 107.129 40.002 108.555 40.002 110.314V116.685C40.002 118.443 38.5766 119.87 36.8184 119.87H33.6348ZM30.4512 140.891C30.4512 142.65 31.8765 144.076 33.6348 144.076H36.8184C38.5766 144.076 40.002 142.65 40.002 140.891V134.521C40.002 132.761 38.5766 131.336 36.8184 131.336H33.6348C31.8765 131.336 30.4512 132.761 30.4512 134.521V140.891ZM33.6348 71.4568C31.8765 71.4568 30.4512 70.0305 30.4512 68.2717V61.9014C30.4512 60.1421 31.8765 58.7163 33.6348 58.7163H36.8184C38.5766 58.7163 40.002 60.1421 40.002 61.9014V68.2717C40.002 70.0305 38.5766 71.4568 36.8184 71.4568H33.6348ZM30.4512 44.0651C30.4512 45.8243 31.8765 47.2501 33.6348 47.2501H36.8184C38.5766 47.2501 40.002 45.8243 40.002 44.0651V37.695C40.002 35.9357 38.5766 34.5099 36.8184 34.5099H33.6348C31.8765 34.5099 30.4512 35.9357 30.4512 37.695V44.0651Z" fill="#59B202"/>
<path d="M48.916 145.35V164.46H68.0174V145.35H48.916Z" fill="#59B202"/>
<path fill-rule="evenodd" clip-rule="evenodd" d="M71.8379 164.46V33.2353L90.9395 14.125V164.46H71.8379ZM76.2949 86.1075C76.2949 84.348 77.7205 82.9224 79.4785 82.9224H82.6621C84.4207 82.9224 85.8457 84.348 85.8457 86.1075V92.4776C85.8457 94.2364 84.4207 95.6626 82.6621 95.6626H79.4785C77.7205 95.6626 76.2949 94.2364 76.2949 92.4776V86.1075ZM79.4785 58.7157C77.7205 58.7157 76.2949 60.1416 76.2949 61.9008V68.2712C76.2949 70.03 77.7205 71.4562 79.4785 71.4562H82.6621C84.4207 71.4562 85.8457 70.03 85.8457 68.2712V61.9008C85.8457 60.1416 84.4207 58.7157 82.6621 58.7157H79.4785ZM76.2949 37.6944C76.2949 35.9352 77.7205 34.5093 79.4785 34.5093H82.6621C84.4207 34.5093 85.8457 35.9352 85.8457 37.6944V44.0645C85.8457 45.8237 84.4207 47.2496 82.6621 47.2496H79.4785C77.7205 47.2496 76.2949 45.8237 76.2949 44.0645V37.6944ZM79.4785 107.129C77.7205 107.129 76.2949 108.554 76.2949 110.314V116.684C76.2949 118.443 77.7205 119.869 79.4785 119.869H82.6621C84.4207 119.869 85.8457 118.443 85.8457 116.684V110.314C85.8457 108.554 84.4207 107.129 82.6621 107.129H79.4785ZM76.2949 134.52C76.2949 132.761 77.7205 131.335 79.4785 131.335H82.6621C84.4207 131.335 85.8457 132.761 85.8457 134.52V140.89C85.8457 142.649 84.4207 144.075 82.6621 144.075H79.4785C77.7205 144.075 76.2949 142.649 76.2949 140.89V134.52Z" fill="#59B202"/>
<path d="M94.7598 14.125V33.2353H113.861V14.125H94.7598Z" fill="#59B202"/>
<path fill-rule="evenodd" clip-rule="evenodd" d="M136.783 33.2353V154.905H132.963V158.09C132.963 159.848 131.538 161.275 129.779 161.275V175.289C129.779 177.048 128.354 178.474 126.596 178.474C124.838 178.474 123.412 177.048 123.412 175.289V161.275C121.654 161.275 120.229 159.848 120.229 158.09V154.905H117.682V14.125L136.783 33.2353ZM129.143 82.9224C130.901 82.9224 132.326 84.348 132.326 86.1075V92.4776C132.326 94.2364 130.901 95.6626 129.143 95.6626H125.959C124.201 95.6626 122.775 94.2364 122.775 92.4776V86.1075C122.775 84.348 124.201 82.9224 125.959 82.9224H129.143ZM132.326 61.9008C132.326 60.1416 130.901 58.7157 129.143 58.7157H125.959C124.201 58.7157 122.775 60.1416 122.775 61.9008V68.2712C122.775 70.03 124.201 71.4562 125.959 71.4562H129.143C130.901 71.4562 132.326 70.03 132.326 68.2712V61.9008ZM129.143 34.5093C130.901 34.5093 132.326 35.9352 132.326 37.6944V44.0645C132.326 45.8237 130.901 47.2496 129.143 47.2496H125.959C124.201 47.2496 122.775 45.8237 122.775 44.0645V37.6944C122.775 35.9352 124.201 34.5093 125.959 34.5093H129.143ZM132.326 110.314C132.326 108.554 130.901 107.129 129.143 107.129H125.959C124.201 107.129 122.775 108.554 122.775 110.314V116.684C122.775 118.443 124.201 119.869 125.959 119.869H129.143C130.901 119.869 132.326 118.443 132.326 116.684V110.314ZM129.143 131.335C130.901 131.335 132.326 132.761 132.326 134.52V140.89C132.326 142.649 130.901 144.075 129.143 144.075H125.959C124.201 144.075 122.775 142.649 122.775 140.89V134.52C122.775 132.761 124.201 131.335 125.959 131.335H129.143Z" fill="#59B202"/>
<path d="M140.543 97.9933C139.534 99.4336 139.884 101.42 141.325 102.429L151.756 109.737C153.196 110.745 155.182 110.395 156.19 108.954C157.198 107.513 156.849 105.527 155.408 104.518L144.977 97.2111C143.537 96.202 141.551 96.5524 140.543 97.9933Z" fill="#59B202"/>
<path d="M143.371 89.269C143.371 91.0285 144.797 92.4541 146.555 92.4541H159.289C161.048 92.4541 162.473 91.0285 162.473 89.269C162.473 87.5103 161.048 86.084 159.289 86.084H146.555C144.797 86.084 143.371 87.5103 143.371 89.269Z" fill="#59B202"/>
<path d="M156.19 69.966C157.198 71.4062 156.849 73.3931 155.408 74.4021L144.977 81.7092C143.537 82.7176 141.551 82.3679 140.543 80.927C139.534 79.4861 139.884 77.4999 141.325 76.4909L151.756 69.1837C153.196 68.1747 155.182 68.525 156.19 69.966Z" fill="#59B202"/>
</g>
<defs>
<clipPath id="clip0_308_3973">
<rect width="163" height="179" fill="white"/>
</clipPath>
</defs>
</svg>
