<svg width="198" height="166" viewBox="0 0 198 166" fill="none" xmlns="http://www.w3.org/2000/svg">
<g clip-path="url(#clip0_108_6856)">
<path d="M104.067 40.5462V26.3284L104.723 27.4269C105.642 28.9111 107.587 29.3668 109.066 28.4448C110.545 27.5227 110.999 25.5721 110.08 24.0879L103.52 13.4945C102.601 12.0105 100.657 11.5547 99.1774 12.4768C98.2553 13.0516 97.7602 14.1645 97.7602 15.2364V34.2187C94.2768 34.2187 91.4531 37.0517 91.4531 40.5462C91.4531 44.0408 94.2768 46.8736 97.7602 46.8736C101.244 46.8736 104.067 44.0408 104.067 40.5462Z" fill="#59B202"/>
<path d="M9.46094 66.4157C9.46094 64.6683 10.873 63.252 12.6145 63.252H25.2286C26.9701 63.252 28.3821 64.6683 28.3821 66.4157C28.3821 68.163 26.9701 69.5794 25.2286 69.5794H12.6145C10.873 69.5794 9.46094 68.163 9.46094 66.4157Z" fill="#59B202"/>
<path fill-rule="evenodd" clip-rule="evenodd" d="M28.3821 88.5615C28.3821 93.8031 24.1464 98.0526 18.9215 98.0526C13.6966 98.0526 9.46094 93.8031 9.46094 88.5615C9.46094 83.3198 13.6966 79.0703 18.9215 79.0703C24.1464 79.0703 28.3821 83.3198 28.3821 88.5615ZM22.075 88.5615C22.075 90.3085 20.663 91.7252 18.9215 91.7252C17.18 91.7252 15.768 90.3085 15.768 88.5615C15.768 86.8138 17.18 85.3977 18.9215 85.3977C20.663 85.3977 22.075 86.8138 22.075 88.5615Z" fill="#59B202"/>
<path fill-rule="evenodd" clip-rule="evenodd" d="M28.3821 117.036C28.3821 122.278 24.1464 126.527 18.9215 126.527C13.6966 126.527 9.46094 122.278 9.46094 117.036C9.46094 111.794 13.6966 107.545 18.9215 107.545C24.1464 107.545 28.3821 111.794 28.3821 117.036ZM22.075 117.036C22.075 118.783 20.663 120.2 18.9215 120.2C17.18 120.2 15.768 118.783 15.768 117.036C15.768 115.288 17.18 113.872 18.9215 113.872C20.663 113.872 22.075 115.288 22.075 117.036Z" fill="#59B202"/>
<path fill-rule="evenodd" clip-rule="evenodd" d="M0 53.7614C0 52.0141 1.412 50.5977 3.15353 50.5977H34.6888C36.4303 50.5977 37.8423 52.0141 37.8423 53.7614V142.346C37.8423 144.093 36.4303 145.509 34.6888 145.509H3.15353C1.412 145.509 0 144.093 0 142.346V53.7614ZM6.30705 139.182V56.9251H31.5353V139.182H6.30705Z" fill="#59B202"/>
<path d="M3.1543 151.836C3.1543 150.088 4.5663 148.672 6.30782 148.672H31.536C33.2775 148.672 34.6896 150.088 34.6896 151.836C34.6896 153.583 33.2775 154.999 31.536 154.999H6.30782C4.5663 154.999 3.1543 153.583 3.1543 151.836Z" fill="#59B202"/>
<path d="M126.35 63.252C124.58 63.252 123.145 64.6683 123.145 66.4157C123.145 68.163 124.58 69.5794 126.35 69.5794H139.175C140.946 69.5794 142.381 68.163 142.381 66.4157C142.381 64.6683 140.946 63.252 139.175 63.252H126.35Z" fill="#59B202"/>
<path fill-rule="evenodd" clip-rule="evenodd" d="M132.763 98.0526C138.075 98.0526 142.381 93.8031 142.381 88.5615C142.381 83.3198 138.075 79.0703 132.763 79.0703C127.451 79.0703 123.145 83.3198 123.145 88.5615C123.145 93.8031 127.451 98.0526 132.763 98.0526ZM132.763 91.7252C134.534 91.7252 135.969 90.3085 135.969 88.5615C135.969 86.8138 134.534 85.3977 132.763 85.3977C130.992 85.3977 129.557 86.8138 129.557 88.5615C129.557 90.3085 130.992 91.7252 132.763 91.7252Z" fill="#59B202"/>
<path fill-rule="evenodd" clip-rule="evenodd" d="M132.763 126.527C138.075 126.527 142.381 122.278 142.381 117.036C142.381 111.794 138.075 107.545 132.763 107.545C127.451 107.545 123.145 111.794 123.145 117.036C123.145 122.278 127.451 126.527 132.763 126.527ZM132.763 120.2C134.534 120.2 135.969 118.783 135.969 117.036C135.969 115.288 134.534 113.872 132.763 113.872C130.992 113.872 129.557 115.288 129.557 117.036C129.557 118.783 130.992 120.2 132.763 120.2Z" fill="#59B202"/>
<path fill-rule="evenodd" clip-rule="evenodd" d="M116.733 50.5977C114.963 50.5977 113.527 52.0141 113.527 53.7614V142.346C113.527 144.093 114.963 145.509 116.733 145.509H148.795C150.565 145.509 152 144.093 152 142.346V53.7614C152 52.0141 150.565 50.5977 148.795 50.5977H116.733ZM145.588 56.9251H119.94V139.182H145.588V56.9251Z" fill="#59B202"/>
<path d="M119.939 148.672C118.168 148.672 116.732 150.088 116.732 151.836C116.732 153.583 118.168 154.999 119.939 154.999H145.587C147.358 154.999 148.794 153.583 148.794 151.836C148.794 150.088 147.358 148.672 145.587 148.672H119.939Z" fill="#59B202"/>
<path d="M63.0715 117.035C61.33 117.035 59.918 118.451 59.918 120.199C59.918 121.946 61.33 123.363 63.0715 123.363H88.2997C90.0411 123.363 91.4532 121.946 91.4532 120.199C91.4532 118.451 90.0411 117.035 88.2997 117.035H63.0715Z" fill="#59B202"/>
<path d="M63.0715 128.424C61.33 128.424 59.918 129.84 59.918 131.588C59.918 133.335 61.33 134.751 63.0715 134.751H88.2997C90.0411 134.751 91.4532 133.335 91.4532 131.588C91.4532 129.84 90.0411 128.424 88.2997 128.424H63.0715Z" fill="#59B202"/>
<path d="M63.0715 145.509C64.8129 145.509 66.225 144.092 66.225 142.345C66.225 140.598 64.8129 139.182 63.0715 139.182C61.33 139.182 59.918 140.598 59.918 142.345C59.918 144.092 61.33 145.509 63.0715 145.509Z" fill="#59B202"/>
<path d="M78.8383 142.345C78.8383 144.092 77.4262 145.509 75.6848 145.509C73.9434 145.509 72.5312 144.092 72.5312 142.345C72.5312 140.598 73.9434 139.182 75.6848 139.182C77.4262 139.182 78.8383 140.598 78.8383 142.345Z" fill="#59B202"/>
<path d="M91.4516 142.345C91.4516 144.092 90.0394 145.509 88.2981 145.509C86.5567 145.509 85.1445 144.092 85.1445 142.345C85.1445 140.598 86.5567 139.182 88.2981 139.182C90.0394 139.182 91.4516 140.598 91.4516 142.345Z" fill="#59B202"/>
<path fill-rule="evenodd" clip-rule="evenodd" d="M53.6106 104.381C51.8691 104.381 50.457 105.797 50.457 107.545V151.837C50.457 153.584 51.8691 155 53.6106 155H97.7599C99.5013 155 100.913 153.584 100.913 151.837V107.545C100.913 105.797 99.5013 104.381 97.7599 104.381H53.6106ZM56.7641 110.708V148.673H94.6064V110.708H56.7641Z" fill="#59B202"/>
<path d="M71.2704 67.6267V88.3431C71.2256 91.7991 68.4189 94.587 64.9633 94.587C61.48 94.587 58.6562 91.7542 58.6562 88.2595C58.6562 84.7649 61.48 81.9321 64.9633 81.9321V65.7627C64.9633 64.6124 65.5858 63.5528 66.5886 62.9953L83.6177 53.5298C85.7192 52.3615 88.2994 53.8865 88.2994 56.2971V79.6182L88.2862 79.6251C88.5145 83.2166 85.5886 86.3613 81.9923 86.3613C78.509 86.3613 75.6853 83.5285 75.6853 80.0339C75.6853 76.5392 78.509 73.7062 81.9923 73.7062V61.667L71.2704 67.6267Z" fill="#59B202"/>
<path d="M53.6098 29.7165C53.6098 27.9692 55.0218 26.5527 56.7633 26.5527C58.5048 26.5527 59.9168 27.9692 59.9168 29.7165V55.0262C59.9168 58.5208 57.0931 61.3536 53.6098 61.3536C50.1265 61.3536 47.3027 58.5208 47.3027 55.0262C47.3027 51.5316 50.1265 48.6988 53.6098 48.6988V29.7165Z" fill="#59B202"/>
</g>
<defs>
<clipPath id="clip0_108_6856">
<rect width="152" height="143" fill="white" transform="translate(0 12)"/>
</clipPath>
</defs>
</svg>
