<svg width="28" height="28" viewBox="0 0 28 28" fill="none" xmlns="http://www.w3.org/2000/svg">
<path d="M12.0259 8.42488C12.775 6.55742 13.1495 5.62368 13.758 5.49427C13.918 5.46024 14.0834 5.46024 14.2434 5.49427C14.8519 5.62368 15.2265 6.55742 15.9755 8.42488C16.4015 9.48688 16.6145 10.0179 17.0131 10.379C17.1249 10.4803 17.2462 10.5706 17.3754 10.6484C17.8361 10.9261 18.4111 10.9776 19.5612 11.0806C21.5081 11.2549 22.4815 11.3421 22.7788 11.8971C22.8404 12.0121 22.8822 12.1366 22.9026 12.2653C23.0012 12.8872 22.2855 13.5383 20.8543 14.8404L20.4568 15.202C19.7877 15.8108 19.4531 16.1152 19.2596 16.4951C19.1435 16.7229 19.0657 16.9683 19.0292 17.2215C18.9684 17.6434 19.0664 18.085 19.2623 18.9681L19.3324 19.2837C19.6838 20.8675 19.8595 21.6594 19.6401 22.0486C19.4431 22.3982 19.0802 22.6221 18.6794 22.6412C18.2331 22.6625 17.6043 22.1501 16.3466 21.1254C15.5181 20.4502 15.1038 20.1126 14.6439 19.9807C14.2236 19.8602 13.7779 19.8602 13.3576 19.9807C12.8977 20.1126 12.4834 20.4502 11.6548 21.1254C10.3972 22.1501 9.76835 22.6625 9.32207 22.6412C8.92121 22.6221 8.55832 22.3982 8.36131 22.0486C8.14198 21.6594 8.31768 20.8675 8.66908 19.2837L8.73909 18.9681C8.93503 18.085 9.033 17.6434 8.9722 17.2215C8.93573 16.9683 8.8579 16.7229 8.74181 16.4951C8.5483 16.1152 8.21373 15.8108 7.54459 15.202L7.14714 14.8404C5.71589 13.5383 5.00026 12.8872 5.09881 12.2653C5.11922 12.1366 5.16108 12.0121 5.22265 11.8971C5.51992 11.3421 6.49336 11.2549 8.44025 11.0806C9.59033 10.9776 10.1654 10.9261 10.626 10.6484C10.7552 10.5706 10.8766 10.4803 10.9884 10.379C11.3869 10.0179 11.5999 9.48688 12.0259 8.42488Z" fill="#59B202" stroke="#59B202" stroke-width="2"/>
</svg>
