<svg width="47" height="46" viewBox="0 0 47 46" fill="none" xmlns="http://www.w3.org/2000/svg">
<path d="M19.866 12.7043C21.4065 8.9457 22.1767 7.06641 23.5011 7.06641C24.8256 7.06641 25.5958 8.9457 27.1363 12.7043L27.208 12.8793C28.0783 15.0027 28.5134 16.0644 29.4002 16.7097C30.2871 17.3551 31.4512 17.4571 33.7795 17.6612L34.2004 17.6981C38.011 18.0321 39.9162 18.1991 40.3239 19.3855C40.7316 20.5719 39.3167 21.8318 36.4868 24.3516L35.5423 25.1926C34.1098 26.4681 33.3935 27.1059 33.0597 27.9418C32.9974 28.0978 32.9456 28.2575 32.9047 28.4201C32.6853 29.2915 32.895 30.2167 33.3145 32.0672L33.4451 32.6432C34.216 36.044 34.6015 37.7444 33.9285 38.4779C33.677 38.7519 33.3501 38.9493 32.987 39.0462C32.0153 39.3058 30.6357 38.2055 27.8765 36.005C26.0647 34.5601 25.1588 33.8376 24.1187 33.675C23.7096 33.6111 23.2927 33.6111 22.8836 33.675C21.8435 33.8376 20.9376 34.5601 19.1258 36.005C16.3666 38.2055 14.987 39.3058 14.0153 39.0462C13.6522 38.9493 13.3253 38.7519 13.0738 38.4779C12.4008 37.7444 12.7863 36.044 13.5572 32.6432L13.6878 32.0672C14.1073 30.2167 14.317 29.2915 14.0976 28.4201C14.0566 28.2575 14.0049 28.0978 13.9426 27.9418C13.6087 27.1059 12.8925 26.4681 11.46 25.1926L10.5155 24.3516C7.6856 21.8318 6.27067 20.5719 6.67835 19.3855C7.08603 18.1991 8.99131 18.0321 12.8019 17.6981L13.2228 17.6612C15.5511 17.4571 16.7152 17.3551 17.6021 16.7097C18.4889 16.0644 18.924 15.0027 19.7943 12.8793L19.866 12.7043Z" stroke="#59B202"/>
</svg>
