<svg width="353" height="40" viewBox="0 0 353 40" fill="none" xmlns="http://www.w3.org/2000/svg">
<g clip-path="url(#clip0_259_8933)">
<path d="M235.507 1.00879H227.766V38.8743H235.507V1.00879Z" fill="white"/>
<path d="M306.551 38.9908V1.00764H313.26C314.085 0.963351 314.91 1.09022 315.681 1.3799C316.452 1.66959 317.151 2.11551 317.733 2.68831L345.257 29.5791V1.00764H352.826V38.9908H347.493C346.603 39.0294 345.714 38.8848 344.884 38.5663C344.054 38.2478 343.302 37.7626 342.677 37.1421L314.12 9.24293V38.8228H306.379L306.551 38.9908Z" fill="white"/>
<path d="M31.4805 23.3624H0.515625V16.4717H44.2105L40.426 20.0011C39.2907 21.1839 37.8963 22.1006 36.3473 22.6826C34.7982 23.2647 33.1345 23.4971 31.4805 23.3624Z" fill="white"/>
<path d="M6.02096 38.9923H0V32.1016H17.8908L14.2782 35.631C13.2469 36.8044 11.9445 37.7212 10.4788 38.3057C9.0131 38.8902 7.42609 39.1256 5.84887 38.9923" fill="white"/>
<path d="M33.8893 7.89955H0V1.00879H45.9312L42.3187 4.5382C41.2873 5.71164 39.9851 6.62847 38.5194 7.21295C37.0536 7.79743 35.4665 8.03278 33.8893 7.89955Z" fill="white"/>
<path d="M271.116 40C257.182 40 245.828 31.0924 245.828 20C245.828 8.90756 257.182 0 271.116 0C285.05 0 296.404 8.90756 296.404 20C296.404 31.0924 285.05 40 271.116 40ZM271.116 6.89075C261.483 6.89075 253.569 12.7731 253.569 20C253.569 27.2269 261.483 33.1092 271.116 33.1092C280.75 33.1092 288.663 27.2269 288.663 20C288.663 12.7731 280.75 6.89075 271.116 6.89075Z" fill="white"/>
<path d="M77.067 39.8323C65.0251 39.8323 54.3594 31.597 54.3594 22.3533V1.00879H62.1006V22.6895C62.2726 28.4038 69.1537 33.1096 77.067 33.1096C84.9803 33.1096 91.8614 28.4038 92.0334 22.6895V1.00879H99.7746V22.3533C99.7746 31.597 89.1089 39.8323 77.067 39.8323Z" fill="white"/>
<path d="M159.3 38.992H150.526C149.775 39.0357 149.036 38.7949 148.462 38.3197L133.324 23.5298H119.905V38.992H112.164V16.471H144.505C148.462 16.471 151.042 14.7903 151.042 12.1012C151.042 9.41215 148.634 7.73148 144.505 7.73148H112.164V1.00879H144.505C153.451 1.00879 158.611 5.21047 158.611 12.2693C158.611 19.3281 153.107 23.3617 144.333 23.5298H143.129L159.3 38.992Z" fill="white"/>
<path d="M217.096 38.992H208.323C207.572 39.0357 206.833 38.7949 206.259 38.3197L191.12 23.5298H177.702V38.992H169.961V16.471H202.302C206.259 16.471 208.839 14.7903 208.839 12.1012C208.839 9.41215 206.431 7.73148 202.302 7.73148H169.961V1.00879H202.302C211.247 1.00879 216.408 5.21047 216.408 12.2693C216.408 19.3281 210.903 23.3617 202.13 23.5298H200.926L217.096 38.992Z" fill="white"/>
</g>
<defs>
<clipPath id="clip0_259_8933">
<rect width="353" height="40" fill="white"/>
</clipPath>
</defs>
</svg>
