<svg width="339" height="45" viewBox="0 0 339 45" fill="none" xmlns="http://www.w3.org/2000/svg">
<path d="M36.3 8.66H22.68V44H14.46V8.66H0.84V1.4H36.3V8.66ZM70.0284 44H61.9884V26.36C61.9884 23.92 61.5084 22.1 60.5484 20.9C59.6284 19.7 58.3484 19.1 56.7084 19.1C55.7484 19.1 54.7284 19.38 53.6484 19.94C52.5684 20.5 51.5884 21.28 50.7084 22.28C49.8684 23.24 49.2484 24.36 48.8484 25.64V44H40.8084V0.199999H48.8484V18.38C50.0084 16.38 51.5884 14.82 53.5884 13.7C55.5884 12.58 57.7684 12.02 60.1284 12.02C62.1684 12.02 63.8284 12.38 65.1084 13.1C66.3884 13.78 67.3884 14.72 68.1084 15.92C68.8284 17.08 69.3284 18.4 69.6084 19.88C69.8884 21.32 70.0284 22.82 70.0284 24.38V44ZM91.5994 44.6C89.0794 44.6 86.7994 44.18 84.7594 43.34C82.7194 42.46 80.9794 41.28 79.5394 39.8C78.0994 38.28 76.9794 36.56 76.1794 34.64C75.4194 32.68 75.0394 30.62 75.0394 28.46C75.0394 25.46 75.6994 22.72 77.0194 20.24C78.3794 17.76 80.2994 15.78 82.7794 14.3C85.2994 12.78 88.2594 12.02 91.6594 12.02C95.0994 12.02 98.0394 12.78 100.479 14.3C102.919 15.78 104.779 17.76 106.059 20.24C107.379 22.68 108.039 25.32 108.039 28.16C108.039 28.64 108.019 29.14 107.979 29.66C107.939 30.14 107.899 30.54 107.859 30.86H83.5594C83.7194 32.46 84.1794 33.86 84.9394 35.06C85.7394 36.26 86.7394 37.18 87.9394 37.82C89.1794 38.42 90.4994 38.72 91.8994 38.72C93.4994 38.72 94.9994 38.34 96.3994 37.58C97.8394 36.78 98.8194 35.74 99.3394 34.46L106.239 36.38C105.479 37.98 104.379 39.4 102.939 40.64C101.539 41.88 99.8794 42.86 97.9594 43.58C96.0394 44.26 93.9194 44.6 91.5994 44.6ZM83.3794 25.76H99.8194C99.6594 24.16 99.1994 22.78 98.4394 21.62C97.7194 20.42 96.7594 19.5 95.5594 18.86C94.3594 18.18 93.0194 17.84 91.5394 17.84C90.0994 17.84 88.7794 18.18 87.5794 18.86C86.4194 19.5 85.4594 20.42 84.6994 21.62C83.9794 22.78 83.5394 24.16 83.3794 25.76ZM158.234 8.66H144.614V44H136.394V8.66H122.774V1.4H158.234V8.66ZM171.404 44.6C168.884 44.6 166.604 44.18 164.564 43.34C162.524 42.46 160.784 41.28 159.344 39.8C157.904 38.28 156.784 36.56 155.984 34.64C155.224 32.68 154.844 30.62 154.844 28.46C154.844 25.46 155.504 22.72 156.824 20.24C158.184 17.76 160.104 15.78 162.584 14.3C165.104 12.78 168.064 12.02 171.464 12.02C174.904 12.02 177.844 12.78 180.284 14.3C182.724 15.78 184.584 17.76 185.864 20.24C187.184 22.68 187.844 25.32 187.844 28.16C187.844 28.64 187.824 29.14 187.784 29.66C187.744 30.14 187.704 30.54 187.664 30.86H163.364C163.524 32.46 163.984 33.86 164.744 35.06C165.544 36.26 166.544 37.18 167.744 37.82C168.984 38.42 170.304 38.72 171.704 38.72C173.304 38.72 174.804 38.34 176.204 37.58C177.644 36.78 178.624 35.74 179.144 34.46L186.044 36.38C185.284 37.98 184.184 39.4 182.744 40.64C181.344 41.88 179.684 42.86 177.764 43.58C175.844 44.26 173.724 44.6 171.404 44.6ZM163.184 25.76H179.624C179.464 24.16 179.004 22.78 178.244 21.62C177.524 20.42 176.564 19.5 175.364 18.86C174.164 18.18 172.824 17.84 171.344 17.84C169.904 17.84 168.584 18.18 167.384 18.86C166.224 19.5 165.264 20.42 164.504 21.62C163.784 22.78 163.344 24.16 163.184 25.76ZM211.462 19.52C209.022 19.52 206.842 20 204.922 20.96C203.002 21.88 201.622 23.22 200.782 24.98V44H192.742V12.56H200.122V19.28C201.242 17.12 202.662 15.42 204.382 14.18C206.102 12.94 207.922 12.26 209.842 12.14C210.282 12.14 210.622 12.14 210.862 12.14C211.102 12.14 211.302 12.16 211.462 12.2V19.52ZM234.665 19.52C232.225 19.52 230.045 20 228.125 20.96C226.205 21.88 224.825 23.22 223.985 24.98V44H215.945V12.56H223.325V19.28C224.445 17.12 225.865 15.42 227.585 14.18C229.305 12.94 231.125 12.26 233.045 12.14C233.485 12.14 233.825 12.14 234.065 12.14C234.305 12.14 234.505 12.16 234.665 12.2V19.52ZM236.813 34.7C236.813 32.66 237.373 30.88 238.493 29.36C239.653 27.8 241.253 26.6 243.293 25.76C245.333 24.92 247.673 24.5 250.312 24.5C251.633 24.5 252.973 24.6 254.333 24.8C255.693 25 256.873 25.32 257.873 25.76V24.08C257.873 22.08 257.273 20.54 256.073 19.46C254.913 18.38 253.173 17.84 250.853 17.84C249.133 17.84 247.493 18.14 245.933 18.74C244.373 19.34 242.733 20.22 241.013 21.38L238.433 16.1C240.513 14.74 242.633 13.72 244.793 13.04C246.993 12.36 249.293 12.02 251.693 12.02C256.173 12.02 259.653 13.14 262.133 15.38C264.653 17.62 265.913 20.82 265.913 24.98V35C265.913 35.84 266.053 36.44 266.333 36.8C266.653 37.16 267.153 37.38 267.833 37.46V44C267.113 44.12 266.453 44.22 265.853 44.3C265.293 44.38 264.813 44.42 264.413 44.42C262.813 44.42 261.593 44.06 260.753 43.34C259.953 42.62 259.453 41.74 259.253 40.7L259.073 39.08C257.713 40.84 256.013 42.2 253.973 43.16C251.933 44.12 249.853 44.6 247.733 44.6C245.653 44.6 243.773 44.18 242.093 43.34C240.453 42.46 239.153 41.28 238.193 39.8C237.273 38.28 236.813 36.58 236.813 34.7ZM256.373 36.32C256.813 35.84 257.173 35.36 257.453 34.88C257.733 34.4 257.873 33.96 257.873 33.56V30.38C256.913 29.98 255.873 29.68 254.753 29.48C253.633 29.24 252.573 29.12 251.573 29.12C249.493 29.12 247.773 29.58 246.413 30.5C245.093 31.38 244.433 32.56 244.433 34.04C244.433 34.84 244.653 35.6 245.093 36.32C245.533 37.04 246.173 37.62 247.013 38.06C247.853 38.5 248.853 38.72 250.013 38.72C251.213 38.72 252.393 38.5 253.553 38.06C254.713 37.58 255.653 37 256.373 36.32ZM288.066 44.6C285.506 44.6 283.206 44.18 281.166 43.34C279.126 42.46 277.386 41.26 275.946 39.74C274.506 38.18 273.386 36.42 272.586 34.46C271.826 32.5 271.446 30.44 271.446 28.28C271.446 25.32 272.106 22.62 273.426 20.18C274.786 17.7 276.706 15.72 279.186 14.24C281.666 12.76 284.606 12.02 288.006 12.02C291.406 12.02 294.326 12.76 296.766 14.24C299.206 15.72 301.026 17.66 302.226 20.06L294.366 22.46C293.686 21.3 292.786 20.42 291.666 19.82C290.546 19.18 289.306 18.86 287.946 18.86C286.426 18.86 285.026 19.26 283.746 20.06C282.506 20.82 281.526 21.92 280.806 23.36C280.086 24.76 279.726 26.4 279.726 28.28C279.726 30.12 280.086 31.76 280.806 33.2C281.566 34.6 282.566 35.72 283.806 36.56C285.046 37.36 286.426 37.76 287.946 37.76C288.906 37.76 289.806 37.6 290.646 37.28C291.526 36.96 292.306 36.52 292.986 35.96C293.666 35.4 294.166 34.76 294.486 34.04L302.346 36.44C301.626 38 300.566 39.4 299.166 40.64C297.806 41.88 296.186 42.86 294.306 43.58C292.466 44.26 290.386 44.6 288.066 44.6ZM321.58 44.6C319.06 44.6 316.78 44.18 314.74 43.34C312.7 42.46 310.96 41.28 309.52 39.8C308.08 38.28 306.96 36.56 306.16 34.64C305.4 32.68 305.02 30.62 305.02 28.46C305.02 25.46 305.68 22.72 307 20.24C308.36 17.76 310.28 15.78 312.76 14.3C315.28 12.78 318.24 12.02 321.64 12.02C325.08 12.02 328.02 12.78 330.46 14.3C332.9 15.78 334.76 17.76 336.04 20.24C337.36 22.68 338.02 25.32 338.02 28.16C338.02 28.64 338 29.14 337.96 29.66C337.92 30.14 337.88 30.54 337.84 30.86H313.54C313.7 32.46 314.16 33.86 314.92 35.06C315.72 36.26 316.72 37.18 317.92 37.82C319.16 38.42 320.48 38.72 321.88 38.72C323.48 38.72 324.98 38.34 326.38 37.58C327.82 36.78 328.8 35.74 329.32 34.46L336.22 36.38C335.46 37.98 334.36 39.4 332.92 40.64C331.52 41.88 329.86 42.86 327.94 43.58C326.02 44.26 323.9 44.6 321.58 44.6ZM313.36 25.76H329.8C329.64 24.16 329.18 22.78 328.42 21.62C327.7 20.42 326.74 19.5 325.54 18.86C324.34 18.18 323 17.84 321.52 17.84C320.08 17.84 318.76 18.18 317.56 18.86C316.4 19.5 315.44 20.42 314.68 21.62C313.96 22.78 313.52 24.16 313.36 25.76Z" fill="white"/>
</svg>
