<svg width="118" height="53" viewBox="0 0 118 53" fill="none" xmlns="http://www.w3.org/2000/svg">
<rect x="0.5" y="0.5" width="117" height="52" rx="26" stroke="#438006"/>
<path d="M46.5586 35.6621V33.6113C45.8099 33.5983 45.0938 33.5332 44.4102 33.416C43.7331 33.2988 43.1797 33.1458 42.75 32.957V31.375C43.1992 31.5833 43.7754 31.7656 44.4785 31.9219C45.1816 32.0781 45.875 32.1628 46.5586 32.1758V27.8789C45.6992 27.638 44.9863 27.3646 44.4199 27.0586C43.86 26.7461 43.4401 26.3652 43.1602 25.916C42.8802 25.4668 42.7402 24.9232 42.7402 24.2852C42.7402 23.6211 42.8965 23.0547 43.209 22.5859C43.528 22.1107 43.974 21.7396 44.5469 21.4727C45.1198 21.2057 45.7904 21.0527 46.5586 21.0137V19.3242H47.75V20.9941C48.4466 21.0137 49.0814 21.0918 49.6543 21.2285C50.2272 21.3587 50.7578 21.528 51.2461 21.7363L50.7383 23.0938C50.2956 22.918 49.8171 22.7682 49.3027 22.6445C48.7884 22.5208 48.2708 22.4362 47.75 22.3906V26.6582C48.6224 26.9121 49.3516 27.1823 49.9375 27.4688C50.5299 27.7552 50.9759 28.11 51.2754 28.5332C51.5749 28.9564 51.7246 29.5033 51.7246 30.1738C51.7246 31.1243 51.3763 31.8926 50.6797 32.4785C49.9831 33.0579 49.0065 33.4095 47.75 33.5332V35.6621H46.5586ZM47.75 32.0879C48.5508 32.0098 49.1465 31.8177 49.5371 31.5117C49.9342 31.1992 50.1328 30.7891 50.1328 30.2812C50.1328 29.9167 50.0547 29.6172 49.8984 29.3828C49.7487 29.1484 49.5013 28.9466 49.1562 28.7773C48.8112 28.6016 48.3424 28.4355 47.75 28.2793V32.0879ZM46.5586 26.248V22.4297C46.0703 22.4622 45.6602 22.5534 45.3281 22.7031C44.9961 22.8529 44.7454 23.0482 44.5762 23.2891C44.4134 23.5299 44.332 23.8164 44.332 24.1484C44.332 24.5326 44.4036 24.8548 44.5469 25.1152C44.6966 25.3691 44.9342 25.5872 45.2598 25.7695C45.5918 25.9453 46.0247 26.1048 46.5586 26.248ZM54.0781 28.3965C54.0781 27.5371 54.1367 26.6973 54.2539 25.877C54.3776 25.0566 54.5827 24.2949 54.8691 23.5918C55.1556 22.8822 55.5462 22.2604 56.041 21.7266C56.5358 21.1927 57.151 20.776 57.8867 20.4766C58.6289 20.1706 59.5176 20.0176 60.5527 20.0176C60.8457 20.0176 61.1615 20.0339 61.5 20.0664C61.8385 20.0924 62.1185 20.138 62.3398 20.2031V21.5996C62.099 21.515 61.8223 21.4531 61.5098 21.4141C61.2038 21.375 60.8945 21.3555 60.582 21.3555C59.3711 21.3555 58.4173 21.6191 57.7207 22.1465C57.0306 22.6738 56.5326 23.39 56.2266 24.2949C55.9206 25.1934 55.7448 26.2057 55.6992 27.332H55.8066C56.0085 27.0065 56.2656 26.7135 56.5781 26.4531C56.8906 26.1862 57.2682 25.9746 57.7109 25.8184C58.1602 25.6621 58.681 25.584 59.2734 25.584C60.1068 25.584 60.8327 25.7533 61.4512 26.0918C62.0762 26.4303 62.5579 26.9219 62.8965 27.5664C63.2415 28.2109 63.4141 28.9922 63.4141 29.9102C63.4141 30.8932 63.2318 31.7428 62.8672 32.459C62.5026 33.1751 61.9818 33.7285 61.3047 34.1191C60.6341 34.5033 59.8333 34.6953 58.9023 34.6953C58.2057 34.6953 57.5645 34.5618 56.9785 34.2949C56.3926 34.028 55.8815 33.6309 55.4453 33.1035C55.0156 32.5762 54.6803 31.9219 54.4395 31.1406C54.1986 30.3529 54.0781 29.4382 54.0781 28.3965ZM58.8828 33.3281C59.7682 33.3281 60.4779 33.0449 61.0117 32.4785C61.5456 31.9121 61.8125 31.056 61.8125 29.9102C61.8125 28.9727 61.5749 28.2305 61.0996 27.6836C60.6243 27.1367 59.9082 26.8633 58.9512 26.8633C58.3001 26.8633 57.7337 27 57.252 27.2734C56.7702 27.5404 56.3958 27.8789 56.1289 28.2891C55.862 28.6992 55.7285 29.1159 55.7285 29.5391C55.7285 29.9688 55.7904 30.4049 55.9141 30.8477C56.0443 31.2904 56.2396 31.7005 56.5 32.0781C56.7604 32.4557 57.0892 32.7585 57.4863 32.9863C57.8835 33.2142 58.349 33.3281 58.8828 33.3281ZM74.752 26.3066C74.752 27.1725 74.6901 28.0156 74.5664 28.8359C74.4492 29.6562 74.2441 30.4212 73.9512 31.1309C73.6647 31.8405 73.2741 32.4622 72.7793 32.9961C72.2845 33.5299 71.6628 33.9499 70.9141 34.2559C70.1719 34.5553 69.2832 34.7051 68.248 34.7051C67.9681 34.7051 67.6491 34.6855 67.291 34.6465C66.9329 34.6139 66.64 34.5651 66.4121 34.5V33.0938C66.653 33.1784 66.9362 33.2467 67.2617 33.2988C67.5872 33.3444 67.9062 33.3672 68.2188 33.3672C69.4362 33.3672 70.3932 33.1068 71.0898 32.5859C71.7865 32.0586 72.2878 31.3457 72.5938 30.4473C72.8997 29.5423 73.0723 28.5267 73.1113 27.4004H72.9941C72.7988 27.7129 72.5417 28.0026 72.2227 28.2695C71.9102 28.5299 71.5293 28.7415 71.0801 28.9043C70.6309 29.0605 70.1068 29.1387 69.5078 29.1387C68.681 29.1387 67.9583 28.9694 67.3398 28.6309C66.7279 28.2923 66.2493 27.8008 65.9043 27.1562C65.5658 26.5117 65.3965 25.7337 65.3965 24.8223C65.3965 23.8392 65.582 22.9896 65.9531 22.2734C66.3307 21.5508 66.8581 20.9941 67.5352 20.6035C68.2122 20.2129 69.0098 20.0176 69.9277 20.0176C70.6309 20.0176 71.2754 20.151 71.8613 20.418C72.4473 20.6849 72.9551 21.0853 73.3848 21.6191C73.821 22.1465 74.1562 22.8008 74.3906 23.582C74.6315 24.3633 74.752 25.2715 74.752 26.3066ZM69.9277 21.3945C69.0618 21.3945 68.3587 21.6777 67.8184 22.2441C67.2845 22.8105 67.0176 23.6634 67.0176 24.8027C67.0176 25.7467 67.2487 26.4922 67.7109 27.0391C68.1732 27.5859 68.8861 27.8594 69.8496 27.8594C70.5137 27.8594 71.0866 27.7259 71.5684 27.459C72.0566 27.1921 72.431 26.8535 72.6914 26.4434C72.9583 26.0332 73.0918 25.6133 73.0918 25.1836C73.0918 24.7539 73.0267 24.3177 72.8965 23.875C72.7728 23.4323 72.5807 23.0254 72.3203 22.6543C72.0599 22.2767 71.7311 21.974 71.334 21.7461C70.9368 21.5117 70.4681 21.3945 69.9277 21.3945Z" fill="#59B202"/>
</svg>
