<svg width="136" height="153" viewBox="0 0 136 153" fill="none" xmlns="http://www.w3.org/2000/svg">
<g clip-path="url(#clip0_342_3611)">
<path fill-rule="evenodd" clip-rule="evenodd" d="M46.7516 4.25C46.7516 1.90295 48.6541 0 51.0016 0C53.349 0 55.2516 1.90295 55.2516 4.25V14.45H80.7516V4.25C80.7516 1.90295 82.6541 0 85.0016 0C87.3493 0 89.2516 1.90295 89.2516 4.25V14.45H102.002C104.349 14.45 106.252 16.353 106.252 18.7V35.7C106.252 38.047 104.349 39.95 102.002 39.95H89.2516V49.3C89.2516 51.647 87.3493 53.55 85.0016 53.55C82.6541 53.55 80.7516 51.647 80.7516 49.3V39.95H55.2516V49.3C55.2516 51.647 53.349 53.55 51.0016 53.55C48.6541 53.55 46.7516 51.647 46.7516 49.3V39.95H34.8516C32.5041 39.95 30.6016 38.047 30.6016 35.7V18.7C30.6016 16.353 32.5041 14.45 34.8516 14.45H46.7516V4.25ZM72.2516 31.45H80.7516V22.95H72.2516V31.45ZM63.7516 22.95V31.45H55.2516V22.95H63.7516ZM97.7516 31.45H89.2516V22.95H97.7516V31.45ZM39.1016 22.95H46.7516V31.45H39.1016V22.95Z" fill="#59B202"/>
<path d="M112.417 100.627L113.245 91.2773H107.295L106.445 100.627H112.417Z" fill="#59B202"/>
<path d="M104.745 91.2773L103.895 100.627H97.9453L98.7945 91.2773H104.745Z" fill="#59B202"/>
<path d="M73.5559 115.232V121.027H96.3324V114.595H84.7412V114.421L87.523 112.102C89.7832 110.219 91.5274 108.596 92.7531 107.234C93.9796 105.873 94.8296 104.632 95.3031 103.511C95.7774 102.381 96.0137 101.246 96.0137 100.106C96.0137 98.2609 95.536 96.6527 94.5797 95.2817C93.632 93.9098 92.2847 92.8473 90.5371 92.0942C88.798 91.3309 86.741 90.9492 84.3644 90.9492C82.066 90.9492 80.0613 91.3547 78.3521 92.1664C76.6422 92.9773 75.3191 94.1367 74.3819 95.6438C73.4447 97.15 72.9766 98.9469 72.9766 101.034H80.6266C80.6266 100.202 80.7809 99.4977 81.0906 98.918C81.3994 98.3383 81.8343 97.8988 82.3938 97.5996C82.5333 97.5257 82.6785 97.4619 82.8287 97.4067C82.9035 97.3786 82.979 97.354 83.0554 97.331C83.1517 97.3021 83.2504 97.2766 83.3509 97.2545C83.6688 97.1848 84.0067 97.15 84.3644 97.15C85.1082 97.15 85.7652 97.3004 86.3347 97.5996C86.9051 97.8895 87.3496 98.3043 87.6684 98.8457C87.9965 99.3863 88.1605 100.038 88.1605 100.802C88.1605 101.146 88.1248 101.475 88.0543 101.788C87.982 102.108 87.8724 102.411 87.7262 102.7C87.4457 103.269 87.0402 103.825 86.509 104.366C85.9871 104.897 85.3598 105.467 84.625 106.075L73.5559 115.232Z" fill="#59B202"/>
<path d="M59.6559 121.434C57.3184 121.434 55.2416 121.032 53.4262 120.231C51.6199 119.419 50.1997 118.304 49.1662 116.884C48.1328 115.464 47.6115 113.831 47.6016 111.987H55.7156C55.7247 112.556 55.899 113.069 56.2369 113.523C56.5847 113.967 57.0578 114.315 57.6563 114.566C58.0224 114.719 58.4208 114.826 58.8517 114.885C59.1264 114.923 59.4136 114.942 59.7141 114.942C60.0527 114.942 60.3732 114.915 60.6761 114.861C61.038 114.797 61.3742 114.693 61.6847 114.551C61.8756 114.461 62.0524 114.359 62.2151 114.245C62.538 114.021 62.8061 113.75 63.0178 113.436C63.3365 112.963 63.491 112.421 63.4809 111.812C63.491 111.214 63.3074 110.683 62.9306 110.219C62.8949 110.174 62.8575 110.129 62.8185 110.086L62.7671 110.03C62.7422 110.003 62.7156 109.976 62.6882 109.949C62.3479 109.613 61.9113 109.341 61.3801 109.132C60.7135 108.871 59.9457 108.741 59.0766 108.741H56.0625V103.177H59.0766C59.8785 103.177 60.5832 103.047 61.1916 102.786C61.81 102.525 62.2881 102.163 62.626 101.7C62.7795 101.495 62.8983 101.277 62.9821 101.046C63.0303 100.913 63.0676 100.776 63.0925 100.635C63.1232 100.465 63.1365 100.288 63.1332 100.106C63.1431 99.5266 63.0028 99.0149 62.7131 98.5703C62.6127 98.4165 62.499 98.2745 62.3712 98.1436C62.1287 97.8971 61.8374 97.6914 61.4963 97.5274C60.984 97.2758 60.3906 97.15 59.7141 97.15C58.9803 97.15 58.3229 97.2809 57.7434 97.5418C57.174 97.8019 56.725 98.1649 56.3963 98.6281C56.0676 99.0922 55.899 99.6235 55.8891 100.222H48.1809C48.191 98.4063 48.6881 96.8023 49.6734 95.4117C50.6687 94.0211 52.0301 92.9297 53.759 92.1375C55.4881 91.3453 57.4729 90.9492 59.7141 90.9492C61.9063 90.9492 63.8437 91.3215 65.5238 92.0644C67.2146 92.809 68.5328 93.8324 69.4791 95.1363C70.4354 96.4309 70.9093 97.9133 70.8994 99.5844C70.9184 101.246 70.349 102.608 69.1894 103.67C68.0406 104.733 66.5813 105.361 64.8141 105.554V105.786C67.2097 106.046 69.0109 106.78 70.2187 107.987C71.4256 109.186 72.0199 110.692 72 112.509C72.01 114.247 71.4887 115.788 70.4354 117.13C69.3928 118.473 67.9385 119.525 66.075 120.289C64.2197 121.052 62.0806 121.434 59.6559 121.434Z" fill="#59B202"/>
<path d="M22.9492 103.834V110.789L40.258 119.424V112.122L31.0051 107.487V107.137L40.258 102.502V95.1992L22.9492 103.834Z" fill="#59B202"/>
<path fill-rule="evenodd" clip-rule="evenodd" d="M4.25 153C1.90254 153 0 151.098 0 148.75V68C0 65.6526 1.90254 63.75 4.25 63.75H131.75C134.098 63.75 136 65.6526 136 68V148.75C136 151.098 134.098 153 131.75 153H4.25ZM8.5 144.5V72.25H127.5V144.5H8.5Z" fill="#59B202"/>
</g>
<defs>
<clipPath id="clip0_342_3611">
<rect width="136" height="153" fill="white"/>
</clipPath>
</defs>
</svg>
