<svg width="144" height="157" viewBox="0 0 144 157" fill="none" xmlns="http://www.w3.org/2000/svg">
<g clip-path="url(#clip0_342_3619)">
<path fill-rule="evenodd" clip-rule="evenodd" d="M55.0599 0C52.7206 0 50.8246 1.89993 50.8246 4.24324V14.427H38.9658C36.6264 14.427 34.7305 16.327 34.7305 18.6703V35.6432C34.7305 37.9865 36.6264 39.8865 38.9658 39.8865H50.8246V49.2216C50.8246 51.5649 52.7206 53.4649 55.0599 53.4649C57.3992 53.4649 59.2952 51.5649 59.2952 49.2216V39.8865H84.7069V49.2216C84.7069 51.5649 86.6027 53.4649 88.9422 53.4649C91.2818 53.4649 93.1775 51.5649 93.1775 49.2216V39.8865H105.883C108.223 39.8865 110.119 37.9865 110.119 35.6432V18.6703C110.119 16.327 108.223 14.427 105.883 14.427H93.1775V4.24324C93.1775 1.89993 91.2818 0 88.9422 0C86.6027 0 84.7069 1.89993 84.7069 4.24324V14.427H59.2952V4.24324C59.2952 1.89993 57.3992 0 55.0599 0ZM67.7658 22.9135H59.2952V31.4H67.7658V22.9135ZM76.2364 31.4V22.9135H84.7069V31.4H76.2364ZM101.648 31.4H93.1775V22.9135H101.648V31.4ZM50.8246 22.9135H43.2011V31.4H50.8246V22.9135Z" fill="#59B202"/>
<path fill-rule="evenodd" clip-rule="evenodd" d="M60.2375 120.952C61.7868 121.491 63.423 121.762 65.1461 121.762C67.4755 121.762 69.5303 121.323 71.3112 120.445C73.0922 119.567 74.4827 118.334 75.4845 116.742C76.4945 115.151 76.995 113.294 76.9858 111.173C76.995 109.36 76.6244 107.749 75.8741 106.341C75.123 104.933 74.0741 103.824 72.7266 103.015C71.3881 102.204 69.8239 101.799 68.0339 101.799C66.908 101.799 65.8392 101.972 64.8284 102.32C63.8176 102.668 62.9325 103.163 62.1715 103.81C61.4112 104.456 60.8438 105.232 60.4682 106.138H60.2945C60.3144 103.747 60.7139 101.819 61.4931 100.352C62.2823 98.8868 63.5198 98.1535 65.2039 98.1535C66.051 98.1535 66.8022 98.3513 67.4564 98.7468C67.6831 98.8783 67.8817 99.0361 68.052 99.2203C68.2323 99.4155 68.3813 99.6395 68.4987 99.8924C68.5963 100.103 68.6725 100.334 68.727 100.584H76.6392C76.4755 98.8961 75.8981 97.3533 74.9062 95.9547C73.9244 94.5468 72.6058 93.4232 70.9506 92.5847C69.2945 91.7454 67.3795 91.3262 65.2039 91.3262C63.2692 91.3262 61.5121 91.6877 59.9339 92.4107C58.3555 93.1245 56.9981 94.1564 55.8623 95.5066C54.7356 96.8568 53.8646 98.4913 53.2492 100.41C52.6421 102.33 52.3343 104.49 52.3244 106.891C52.3153 109.581 52.647 111.872 53.3211 113.762C54.0045 115.652 54.9433 117.185 56.1362 118.362C57.3298 119.539 58.6972 120.402 60.2375 120.952ZM65.5969 115.66L65.4587 115.672C65.3884 115.678 65.3173 115.682 65.2454 115.683L65.0881 115.686C64.3089 115.686 63.6108 115.503 62.9945 115.136C62.3791 114.77 61.8927 114.269 61.5362 113.632C61.1804 112.996 60.9976 112.272 60.9877 111.462C60.9885 111.392 60.991 111.322 60.9951 111.253C60.9993 111.176 61.0051 111.1 61.0125 111.024C61.0323 110.812 61.0655 110.607 61.1118 110.407C61.1614 110.192 61.2259 109.985 61.3053 109.784C61.3385 109.704 61.3732 109.624 61.4095 109.547C61.4675 109.424 61.5303 109.305 61.5982 109.191C61.762 108.914 61.953 108.663 62.1715 108.438C62.4138 108.184 62.6827 107.969 62.9796 107.794C63.1318 107.704 63.2907 107.625 63.4569 107.557C63.9574 107.344 64.5009 107.238 65.0881 107.238C65.8873 107.238 66.5945 107.422 67.2108 107.788C67.4242 107.913 67.6211 108.054 67.8022 108.21C67.9825 108.366 68.1471 108.538 68.2944 108.724C68.4333 108.9 68.5583 109.089 68.6692 109.292C69.0257 109.919 69.1986 110.642 69.1886 111.462C69.196 112.057 69.1051 112.605 68.9148 113.106C68.8461 113.288 68.7643 113.463 68.6692 113.632C68.3225 114.269 67.8362 114.77 67.2108 115.136C67.0966 115.204 66.98 115.266 66.86 115.321C66.7798 115.358 66.6979 115.392 66.6152 115.423C66.4092 115.501 66.195 115.561 65.9716 115.604C65.8492 115.628 65.7243 115.647 65.5969 115.66Z" fill="#59B202"/>
<path fill-rule="evenodd" clip-rule="evenodd" d="M90.9468 121.762C89.2239 121.762 87.5873 121.491 86.0381 120.952C84.498 120.402 83.1306 119.539 81.9369 118.362C80.7441 117.185 79.8052 115.652 79.122 113.762C78.4478 111.872 78.1161 109.581 78.1252 106.891C78.1352 104.49 78.4428 102.33 79.05 100.41C79.6655 98.4913 80.5365 96.8568 81.6632 95.5066C82.7989 94.1564 84.1564 93.1245 85.7348 92.4107C87.3129 91.6877 89.0697 91.3262 91.0052 91.3262C93.1805 91.3262 95.0957 91.7454 96.7517 92.5847C98.4068 93.4232 99.7248 94.5468 100.707 95.9547C101.699 97.3533 102.276 98.8961 102.441 100.584H94.5281C94.4239 100.105 94.241 99.7006 93.9801 99.3697C93.7836 99.1202 93.543 98.9122 93.2575 98.7468C92.6028 98.3513 91.8523 98.1535 91.0052 98.1535C89.3204 98.1535 88.0829 98.8868 87.2943 100.352C86.515 101.819 86.1151 103.747 86.0957 106.138H86.2693C86.6446 105.232 87.2121 104.456 87.9719 103.81C88.7334 103.163 89.6186 102.668 90.6291 102.32C91.0518 102.174 91.4847 102.06 91.9268 101.976C92.3495 101.894 92.7823 101.842 93.2237 101.816L93.4066 101.808L93.5947 101.802L93.8344 101.799C95.6251 101.799 97.1887 102.204 98.5271 103.015C99.8748 103.824 100.923 104.933 101.675 106.341C102.425 107.749 102.795 109.36 102.787 111.173C102.795 113.294 102.296 115.151 101.285 116.742C100.284 118.334 98.893 119.567 97.1117 120.445C95.3312 121.323 93.2762 121.762 90.9468 121.762ZM90.8892 115.686C91.688 115.686 92.3952 115.503 93.0119 115.136C93.637 114.77 94.1232 114.269 94.4697 113.632C94.8263 112.996 94.9991 112.272 94.9898 111.462C94.9991 110.642 94.8263 109.919 94.4697 109.292C94.1232 108.656 93.637 108.154 93.0119 107.788C92.7476 107.631 92.4672 107.508 92.1699 107.418C91.9268 107.344 91.6736 107.294 91.4084 107.265C91.2399 107.248 91.0671 107.238 90.8892 107.238C90.7985 107.238 90.7104 107.241 90.6232 107.246L90.4614 107.258C90.2734 107.276 90.0896 107.305 89.9117 107.345C89.6864 107.397 89.4687 107.467 89.2577 107.557C88.7664 107.759 88.3387 108.053 87.9719 108.438C87.8016 108.614 87.6492 108.804 87.512 109.011C87.3552 109.248 87.2197 109.506 87.1062 109.784C87.0613 109.898 87.0207 110.013 86.9851 110.132C86.9605 110.216 86.9376 110.301 86.9165 110.387L86.8885 110.518C86.8665 110.626 86.8479 110.736 86.8335 110.848C86.8063 111.047 86.7919 111.252 86.7886 111.462C86.7987 112.272 86.9817 112.996 87.3366 113.632C87.6932 114.269 88.1803 114.77 88.7952 115.136C89.4119 115.503 90.1099 115.686 90.8892 115.686Z" fill="#59B202"/>
<path d="M110.117 100.989L110.964 91.6543H105.035L104.188 100.989H110.117Z" fill="#59B202"/>
<path d="M118.59 100.989C118.59 100.989 119.437 92.5997 119.437 91.6543H113.507L112.66 100.989H118.59Z" fill="#59B202"/>
<path d="M28.8008 110.614V103.67L46.0497 95.0488V102.34L36.8288 106.967V107.317L46.0497 111.945V119.235L28.8008 110.614Z" fill="#59B202"/>
<path fill-rule="evenodd" clip-rule="evenodd" d="M0 152.757C0 155.101 1.89595 157 4.23529 157H139.765C142.104 157 144 155.101 144 152.757V67.8917C144 65.548 142.104 63.6484 139.765 63.6484H4.23529C1.89595 63.6484 0 65.548 0 67.8917V152.757ZM8.47059 72.1349V148.513H135.529V72.1349H8.47059Z" fill="#59B202"/>
</g>
<defs>
<clipPath id="clip0_342_3619">
<rect width="144" height="157" fill="white"/>
</clipPath>
</defs>
</svg>
