<svg width="149" height="159" viewBox="0 0 149 159" fill="none" xmlns="http://www.w3.org/2000/svg">
<g clip-path="url(#clip0_342_3627)">
<path fill-rule="evenodd" clip-rule="evenodd" d="M57.5682 0C55.2304 0 53.3352 1.89327 53.3352 4.22872V14.3777H41.483C39.1452 14.3777 37.25 16.2709 37.25 18.6064V35.5213C37.25 37.8567 39.1452 39.75 41.483 39.75H53.3352V49.0532C53.3352 51.3886 55.2304 53.2819 57.5682 53.2819C59.906 53.2819 61.8011 51.3886 61.8011 49.0532V39.75H87.1989V49.0532C87.1989 51.3886 89.0944 53.2819 91.4318 53.2819C93.7693 53.2819 95.6648 51.3886 95.6648 49.0532V39.75H108.364C110.701 39.75 112.597 37.8567 112.597 35.5213V18.6064C112.597 16.2709 110.701 14.3777 108.364 14.3777H95.6648V4.22872C95.6648 1.89327 93.7693 0 91.4318 0C89.0944 0 87.1989 1.89327 87.1989 4.22872V14.3777H61.8011V4.22872C61.8011 1.89327 59.906 0 57.5682 0ZM70.267 22.8351H61.8011V31.2926H70.267V22.8351ZM78.733 31.2926V22.8351H87.1989V31.2926H78.733ZM104.131 31.2926H95.6648V22.8351H104.131V31.2926ZM53.3352 22.8351H45.7159V31.2926H53.3352V22.8351Z" fill="#59B202"/>
<path fill-rule="evenodd" clip-rule="evenodd" d="M90.307 121.749C87.6234 121.739 85.3045 121.119 83.3515 119.889C81.3986 118.659 79.893 116.886 78.8348 114.569C77.7766 112.253 77.2522 109.475 77.2618 106.237C77.2715 102.989 77.8006 100.23 78.8492 97.9623C79.9074 95.694 81.4082 93.9687 83.3515 92.7864C85.3045 91.6048 87.6234 91.0137 90.307 91.0137C92.9907 91.0137 95.3096 91.6091 97.2626 92.8007C99.2157 93.9831 100.721 95.7084 101.779 97.9767C102.837 100.245 103.361 102.998 103.352 106.237C103.352 109.495 102.823 112.282 101.765 114.598C100.707 116.915 99.2013 118.687 97.2483 119.918C95.3045 121.138 92.9907 121.749 90.307 121.749ZM90.307 115.232C91.6921 115.232 92.8274 114.512 93.7129 113.07C94.6077 111.619 95.0497 109.341 95.0403 106.237C95.0403 104.209 94.838 102.551 94.4342 101.263C94.0304 99.9752 93.4725 99.0237 92.7605 98.4089C92.0485 97.7839 91.2307 97.4718 90.307 97.4718C88.922 97.4718 87.791 98.1737 86.9156 99.5768C86.0402 100.98 85.5932 103.2 85.5738 106.237C85.5645 108.303 85.7617 110.004 86.1655 111.34C86.5694 112.666 87.1273 113.647 87.8392 114.281C88.5605 114.915 89.3834 115.232 90.307 115.232Z" fill="#59B202"/>
<path d="M110.903 100.643L111.749 91.3398H105.823L104.977 100.643H110.903Z" fill="#59B202"/>
<path d="M119.368 100.643L120.214 91.3398H114.288L113.441 100.643H119.368Z" fill="#59B202"/>
<path d="M68.2279 97.9919L56.6258 120.942H64.88L76.5399 97.8186V91.418H54.6055V97.8186H68.2279V97.9919Z" fill="#59B202"/>
<path d="M48.5639 110.234V103.315L31.3242 94.7227V101.988L40.5405 106.601V106.948L31.3242 111.561V118.826L48.5639 110.234Z" fill="#59B202"/>
<path fill-rule="evenodd" clip-rule="evenodd" d="M0 154.772C0 157.107 1.89532 159.001 4.23295 159.001H144.767C147.104 159.001 149 157.107 149 154.772V65.1233C149 62.7877 147.104 60.8945 144.767 60.8945H4.23295C1.89532 60.8945 0 62.7877 0 65.1233V154.772ZM8.46591 69.352V150.543H140.534V69.352H8.46591Z" fill="#59B202"/>
</g>
<defs>
<clipPath id="clip0_342_3627">
<rect width="149" height="159" fill="white"/>
</clipPath>
</defs>
</svg>
