<svg width="118" height="53" viewBox="0 0 118 53" fill="none" xmlns="http://www.w3.org/2000/svg">
<rect x="0.5" y="0.5" width="117" height="52" rx="26" stroke="#438006"/>
<path d="M41.0586 35.6621V33.6113C40.3099 33.5983 39.5938 33.5332 38.9102 33.416C38.2331 33.2988 37.6797 33.1458 37.25 32.957V31.375C37.6992 31.5833 38.2754 31.7656 38.9785 31.9219C39.6816 32.0781 40.375 32.1628 41.0586 32.1758V27.8789C40.1992 27.638 39.4863 27.3646 38.9199 27.0586C38.36 26.7461 37.9401 26.3652 37.6602 25.916C37.3802 25.4668 37.2402 24.9232 37.2402 24.2852C37.2402 23.6211 37.3965 23.0547 37.709 22.5859C38.028 22.1107 38.474 21.7396 39.0469 21.4727C39.6198 21.2057 40.2904 21.0527 41.0586 21.0137V19.3242H42.25V20.9941C42.9466 21.0137 43.5814 21.0918 44.1543 21.2285C44.7272 21.3587 45.2578 21.528 45.7461 21.7363L45.2383 23.0938C44.7956 22.918 44.3171 22.7682 43.8027 22.6445C43.2884 22.5208 42.7708 22.4362 42.25 22.3906V26.6582C43.1224 26.9121 43.8516 27.1823 44.4375 27.4688C45.0299 27.7552 45.4759 28.11 45.7754 28.5332C46.0749 28.9564 46.2246 29.5033 46.2246 30.1738C46.2246 31.1243 45.8763 31.8926 45.1797 32.4785C44.4831 33.0579 43.5065 33.4095 42.25 33.5332V35.6621H41.0586ZM42.25 32.0879C43.0508 32.0098 43.6465 31.8177 44.0371 31.5117C44.4342 31.1992 44.6328 30.7891 44.6328 30.2812C44.6328 29.9167 44.5547 29.6172 44.3984 29.3828C44.2487 29.1484 44.0013 28.9466 43.6562 28.7773C43.3112 28.6016 42.8424 28.4355 42.25 28.2793V32.0879ZM41.0586 26.248V22.4297C40.5703 22.4622 40.1602 22.5534 39.8281 22.7031C39.4961 22.8529 39.2454 23.0482 39.0762 23.2891C38.9134 23.5299 38.832 23.8164 38.832 24.1484C38.832 24.5326 38.9036 24.8548 39.0469 25.1152C39.1966 25.3691 39.4342 25.5872 39.7598 25.7695C40.0918 25.9453 40.5247 26.1048 41.0586 26.248ZM54.4668 34.5H52.8848V24.3828C52.8848 23.9987 52.8848 23.6699 52.8848 23.3965C52.8913 23.1165 52.8978 22.8626 52.9043 22.6348C52.9173 22.4004 52.9336 22.1628 52.9531 21.9219C52.7513 22.1302 52.5625 22.3092 52.3867 22.459C52.2109 22.6022 51.9928 22.7812 51.7324 22.9961L50.1016 24.3047L49.252 23.2012L53.1191 20.2227H54.4668V34.5ZM61.7227 34.5L67.582 21.707H59.7988V20.2227H69.3203V21.4727L63.5 34.5H61.7227ZM80.6973 26.3066C80.6973 27.1725 80.6354 28.0156 80.5117 28.8359C80.3945 29.6562 80.1895 30.4212 79.8965 31.1309C79.61 31.8405 79.2194 32.4622 78.7246 32.9961C78.2298 33.5299 77.6081 33.9499 76.8594 34.2559C76.1172 34.5553 75.2285 34.7051 74.1934 34.7051C73.9134 34.7051 73.5944 34.6855 73.2363 34.6465C72.8783 34.6139 72.5853 34.5651 72.3574 34.5V33.0938C72.5983 33.1784 72.8815 33.2467 73.207 33.2988C73.5326 33.3444 73.8516 33.3672 74.1641 33.3672C75.3815 33.3672 76.3385 33.1068 77.0352 32.5859C77.7318 32.0586 78.2331 31.3457 78.5391 30.4473C78.8451 29.5423 79.0176 28.5267 79.0566 27.4004H78.9395C78.7441 27.7129 78.487 28.0026 78.168 28.2695C77.8555 28.5299 77.4746 28.7415 77.0254 28.9043C76.5762 29.0605 76.0521 29.1387 75.4531 29.1387C74.6263 29.1387 73.9036 28.9694 73.2852 28.6309C72.6732 28.2923 72.1947 27.8008 71.8496 27.1562C71.5111 26.5117 71.3418 25.7337 71.3418 24.8223C71.3418 23.8392 71.5273 22.9896 71.8984 22.2734C72.276 21.5508 72.8034 20.9941 73.4805 20.6035C74.1576 20.2129 74.9551 20.0176 75.873 20.0176C76.5762 20.0176 77.2207 20.151 77.8066 20.418C78.3926 20.6849 78.9004 21.0853 79.3301 21.6191C79.7663 22.1465 80.1016 22.8008 80.3359 23.582C80.5768 24.3633 80.6973 25.2715 80.6973 26.3066ZM75.873 21.3945C75.0072 21.3945 74.304 21.6777 73.7637 22.2441C73.2298 22.8105 72.9629 23.6634 72.9629 24.8027C72.9629 25.7467 73.194 26.4922 73.6562 27.0391C74.1185 27.5859 74.8314 27.8594 75.7949 27.8594C76.459 27.8594 77.0319 27.7259 77.5137 27.459C78.002 27.1921 78.3763 26.8535 78.6367 26.4434C78.9036 26.0332 79.0371 25.6133 79.0371 25.1836C79.0371 24.7539 78.972 24.3177 78.8418 23.875C78.7181 23.4323 78.526 23.0254 78.2656 22.6543C78.0052 22.2767 77.6764 21.974 77.2793 21.7461C76.8822 21.5117 76.4134 21.3945 75.873 21.3945Z" fill="#59B202"/>
</svg>
