<svg width="198" height="166" viewBox="0 0 198 166" fill="none" xmlns="http://www.w3.org/2000/svg">
<g clip-path="url(#clip0_108_9732)">
<path fill-rule="evenodd" clip-rule="evenodd" d="M25.5652 24.3415V81.4146H121.435V24.3415H25.5652ZM19.1739 84.5854C19.1739 86.3362 20.6048 87.7561 22.3696 87.7561H124.63C126.395 87.7561 127.826 86.3362 127.826 84.5854V21.1707C127.826 19.4196 126.395 18 124.63 18H22.3696C20.6048 18 19.1739 19.4196 19.1739 21.1707V84.5854ZM0 27.535C0 25.7712 1.43087 24.3415 3.19565 24.3415H9.58696C11.3517 24.3415 12.7826 25.7712 12.7826 27.535V109.928C12.7826 111.692 11.3517 113.122 9.58696 113.122H3.19565C1.43087 113.122 0 111.692 0 109.928V27.535ZM9.58696 39.0318C9.58696 40.7955 8.15607 42.2253 6.3913 42.2253C4.62652 42.2253 3.19565 40.7955 3.19565 39.0318C3.19565 37.2679 4.62652 35.8382 6.3913 35.8382C8.15607 35.8382 9.58696 37.2679 9.58696 39.0318ZM6.3913 51.8059C8.15607 51.8059 9.58696 50.3762 9.58696 48.6124C9.58696 46.8487 8.15607 45.4188 6.3913 45.4188C4.62652 45.4188 3.19565 46.8487 3.19565 48.6124C3.19565 50.3762 4.62652 51.8059 6.3913 51.8059ZM137.413 24.3415C135.648 24.3415 134.217 25.7712 134.217 27.535V109.928C134.217 111.692 135.648 113.122 137.413 113.122H143.804C145.569 113.122 147 111.692 147 109.928V27.535C147 25.7712 145.569 24.3415 143.804 24.3415H137.413ZM140.609 42.2253C142.373 42.2253 143.804 40.7955 143.804 39.0318C143.804 37.2679 142.373 35.8382 140.609 35.8382C138.844 35.8382 137.413 37.2679 137.413 39.0318C137.413 40.7955 138.844 42.2253 140.609 42.2253ZM143.804 48.6124C143.804 50.3762 142.373 51.8059 140.609 51.8059C138.844 51.8059 137.413 50.3762 137.413 48.6124C137.413 46.8487 138.844 45.4188 140.609 45.4188C142.373 45.4188 143.804 46.8487 143.804 48.6124ZM33.2348 100.439C31.47 100.439 30.0391 99.0192 30.0391 97.2683C30.0391 95.5174 31.47 94.0976 33.2348 94.0976H116.322C118.086 94.0976 119.517 95.5174 119.517 97.2683C119.517 99.0192 118.086 100.439 116.322 100.439H33.2348ZM22.3696 106.78C20.6048 106.78 19.1739 108.2 19.1739 109.951V144.829C19.1739 146.58 20.6048 148 22.3696 148H43.4609C45.2256 148 46.6565 146.58 46.6565 144.829V109.951C46.6565 108.2 45.2256 106.78 43.4609 106.78H22.3696ZM35.7913 133.415C35.7913 135.166 34.3604 136.585 32.5956 136.585C30.8309 136.585 29.4 135.166 29.4 133.415C29.4 131.664 30.8309 130.244 32.5956 130.244C34.3604 130.244 35.7913 131.664 35.7913 133.415ZM42.1826 133.415C42.1826 138.668 37.8903 142.927 32.5956 142.927C27.301 142.927 23.0087 138.668 23.0087 133.415C23.0087 128.161 27.301 123.902 32.5956 123.902C37.8903 123.902 42.1826 128.161 42.1826 133.415ZM35.7913 117.561C35.7913 119.312 34.3604 120.732 32.5956 120.732C30.8309 120.732 29.4 119.312 29.4 117.561C29.4 115.81 30.8309 114.39 32.5956 114.39C34.3604 114.39 35.7913 115.81 35.7913 117.561ZM100.343 109.951C100.343 108.2 101.774 106.78 103.539 106.78H124.63C126.395 106.78 127.826 108.2 127.826 109.951V144.829C127.826 146.58 126.395 148 124.63 148H103.539C101.774 148 100.343 146.58 100.343 144.829V109.951ZM113.765 136.585C115.53 136.585 116.961 135.166 116.961 133.415C116.961 131.664 115.53 130.244 113.765 130.244C112.001 130.244 110.57 131.664 110.57 133.415C110.57 135.166 112.001 136.585 113.765 136.585ZM113.765 142.927C119.06 142.927 123.352 138.668 123.352 133.415C123.352 128.161 119.06 123.902 113.765 123.902C108.471 123.902 104.178 128.161 104.178 133.415C104.178 138.668 108.471 142.927 113.765 142.927ZM113.765 120.732C115.53 120.732 116.961 119.312 116.961 117.561C116.961 115.81 115.53 114.39 113.765 114.39C112.001 114.39 110.57 115.81 110.57 117.561C110.57 119.312 112.001 120.732 113.765 120.732ZM83.087 52.878C83.087 58.1314 78.7946 62.3902 73.5 62.3902C68.2054 62.3902 63.913 58.1314 63.913 52.878C63.913 47.6247 68.2054 43.3659 73.5 43.3659C78.7946 43.3659 83.087 47.6247 83.087 52.878ZM71.704 48.6329L78.2992 52.4109C78.7255 52.6551 78.7255 53.2653 78.2992 53.5094L71.704 57.2873C71.2777 57.5315 70.7453 57.2263 70.7453 56.7382V49.182C70.7453 48.694 71.2777 48.3889 71.704 48.6329Z" fill="#59B202"/>
</g>
<defs>
<clipPath id="clip0_108_9732">
<rect width="147" height="130" fill="white" transform="translate(0 18)"/>
</clipPath>
</defs>
</svg>
