<svg width="198" height="166" viewBox="0 0 198 166" fill="none" xmlns="http://www.w3.org/2000/svg">
<g clip-path="url(#clip0_108_9748)">
<path fill-rule="evenodd" clip-rule="evenodd" d="M50.2426 71.7228V128.519H145.64V71.7228H50.2426ZM43.8828 131.674C43.8828 133.417 45.3067 134.829 47.0627 134.829H148.82C150.576 134.829 152 133.417 152 131.674V68.5674C152 66.8248 150.576 65.4121 148.82 65.4121H47.0627C45.3067 65.4121 43.8828 66.8248 43.8828 68.5674V131.674ZM57.8744 147.451C56.1184 147.451 54.6945 146.038 54.6945 144.295C54.6945 142.553 56.1184 141.14 57.8744 141.14H140.552C142.308 141.14 143.732 142.553 143.732 144.295C143.732 146.038 142.308 147.451 140.552 147.451H57.8744ZM107.481 100.121C107.481 105.349 103.21 109.587 97.9414 109.587C92.6729 109.587 88.4016 105.349 88.4016 100.121C88.4016 94.8928 92.6729 90.6546 97.9414 90.6546C103.21 90.6546 107.481 94.8928 107.481 100.121ZM96.1543 95.8962L102.717 99.6561C103.141 99.8991 103.141 100.506 102.717 100.749L96.1543 104.509C95.7301 104.752 95.2003 104.448 95.2003 103.963V96.4427C95.2003 95.9568 95.7301 95.6533 96.1543 95.8962Z" fill="#59B202"/>
<path d="M3.17992 18C1.4237 18 0 19.4127 0 21.1553V113.922C0 115.665 1.42369 117.078 3.17991 117.078H43.8828V110.767H6.35983V24.3107H131.013V65.4118H137.372V21.1553C137.372 19.4127 135.948 18 134.192 18H3.17992Z" fill="#59B202"/>
<path fill-rule="evenodd" clip-rule="evenodd" d="M122.746 65.4126V36.3018C122.746 34.5591 121.322 33.1465 119.566 33.1465H17.8088C16.0527 33.1465 14.6289 34.5591 14.6289 36.3018V99.4086C14.6289 101.151 16.0527 102.564 17.8088 102.564H43.8841V96.2533H20.9887V92.8007L47.0196 66.4155L48.3861 67.8552H58.8223C61.6779 66.2196 63.5996 63.1581 63.5996 59.6513C63.5996 54.4234 59.3285 50.1853 54.0599 50.1853C48.7912 50.1853 44.5201 54.4234 44.5201 59.6513C44.5201 59.7425 44.5214 59.8334 44.524 59.924L20.9887 83.7796V39.4572H116.386V65.4126H122.746ZM57.2398 59.6513C57.2398 61.394 55.8161 62.8067 54.0599 62.8067C52.3037 62.8067 50.88 61.394 50.88 59.6513C50.88 57.9087 52.3037 56.496 54.0599 56.496C55.8161 56.496 57.2398 57.9087 57.2398 59.6513Z" fill="#59B202"/>
<path d="M36.8869 48.9219C35.1307 48.9219 33.707 50.3346 33.707 52.0772C33.707 53.8198 35.1307 55.2326 36.8869 55.2326C38.6432 55.2326 40.0669 53.8198 40.0669 52.0772C40.0669 50.3346 38.6432 48.9219 36.8869 48.9219Z" fill="#59B202"/>
<path d="M66.7773 52.0772C66.7773 50.3346 68.2013 48.9219 69.9573 48.9219H76.3171C78.073 48.9219 79.497 50.3346 79.497 52.0772C79.497 53.8198 78.073 55.2326 76.3171 55.2326H69.9573C68.2013 55.2326 66.7773 53.8198 66.7773 52.0772Z" fill="#59B202"/>
<path d="M92.219 48.9219C90.463 48.9219 89.0391 50.3346 89.0391 52.0772C89.0391 53.8198 90.463 55.2326 92.219 55.2326H98.5788C100.335 55.2326 101.759 53.8198 101.759 52.0772C101.759 50.3346 100.335 48.9219 98.5788 48.9219H92.219Z" fill="#59B202"/>
</g>
<defs>
<clipPath id="clip0_108_9748">
<rect width="152" height="130" fill="white" transform="translate(0 18)"/>
</clipPath>
</defs>
</svg>
