<svg width="118" height="53" viewBox="0 0 118 53" fill="none" xmlns="http://www.w3.org/2000/svg">
<rect x="0.5" y="0.5" width="117" height="52" rx="26" stroke="#438006"/>
<path d="M41.0586 35.6621V33.6113C40.3099 33.5983 39.5938 33.5332 38.9102 33.416C38.2331 33.2988 37.6797 33.1458 37.25 32.957V31.375C37.6992 31.5833 38.2754 31.7656 38.9785 31.9219C39.6816 32.0781 40.375 32.1628 41.0586 32.1758V27.8789C40.1992 27.638 39.4863 27.3646 38.9199 27.0586C38.36 26.7461 37.9401 26.3652 37.6602 25.916C37.3802 25.4668 37.2402 24.9232 37.2402 24.2852C37.2402 23.6211 37.3965 23.0547 37.709 22.5859C38.028 22.1107 38.474 21.7396 39.0469 21.4727C39.6198 21.2057 40.2904 21.0527 41.0586 21.0137V19.3242H42.25V20.9941C42.9466 21.0137 43.5814 21.0918 44.1543 21.2285C44.7272 21.3587 45.2578 21.528 45.7461 21.7363L45.2383 23.0938C44.7956 22.918 44.3171 22.7682 43.8027 22.6445C43.2884 22.5208 42.7708 22.4362 42.25 22.3906V26.6582C43.1224 26.9121 43.8516 27.1823 44.4375 27.4688C45.0299 27.7552 45.4759 28.11 45.7754 28.5332C46.0749 28.9564 46.2246 29.5033 46.2246 30.1738C46.2246 31.1243 45.8763 31.8926 45.1797 32.4785C44.4831 33.0579 43.5065 33.4095 42.25 33.5332V35.6621H41.0586ZM42.25 32.0879C43.0508 32.0098 43.6465 31.8177 44.0371 31.5117C44.4342 31.1992 44.6328 30.7891 44.6328 30.2812C44.6328 29.9167 44.5547 29.6172 44.3984 29.3828C44.2487 29.1484 44.0013 28.9466 43.6562 28.7773C43.3112 28.6016 42.8424 28.4355 42.25 28.2793V32.0879ZM41.0586 26.248V22.4297C40.5703 22.4622 40.1602 22.5534 39.8281 22.7031C39.4961 22.8529 39.2454 23.0482 39.0762 23.2891C38.9134 23.5299 38.832 23.8164 38.832 24.1484C38.832 24.5326 38.9036 24.8548 39.0469 25.1152C39.1966 25.3691 39.4342 25.5872 39.7598 25.7695C40.0918 25.9453 40.5247 26.1048 41.0586 26.248ZM54.4668 34.5H52.8848V24.3828C52.8848 23.9987 52.8848 23.6699 52.8848 23.3965C52.8913 23.1165 52.8978 22.8626 52.9043 22.6348C52.9173 22.4004 52.9336 22.1628 52.9531 21.9219C52.7513 22.1302 52.5625 22.3092 52.3867 22.459C52.2109 22.6022 51.9928 22.7812 51.7324 22.9961L50.1016 24.3047L49.252 23.2012L53.1191 20.2227H54.4668V34.5ZM68.7051 23.5527C68.7051 24.1908 68.5814 24.7441 68.334 25.2129C68.0866 25.6816 67.7415 26.0658 67.2988 26.3652C66.8561 26.6582 66.3353 26.8633 65.7363 26.9805V27.0586C66.8691 27.2018 67.7188 27.5664 68.2852 28.1523C68.8581 28.7383 69.1445 29.5065 69.1445 30.457C69.1445 31.2839 68.9492 32.0163 68.5586 32.6543C68.1745 33.2923 67.582 33.7936 66.7812 34.1582C65.987 34.5163 64.9681 34.6953 63.7246 34.6953C62.9694 34.6953 62.2695 34.6335 61.625 34.5098C60.987 34.3926 60.375 34.194 59.7891 33.9141V32.3906C60.3815 32.6836 61.026 32.9147 61.7227 33.084C62.4193 33.2467 63.0931 33.3281 63.7441 33.3281C65.0462 33.3281 65.987 33.071 66.5664 32.5566C67.1458 32.0358 67.4355 31.3262 67.4355 30.4277C67.4355 29.8092 67.2728 29.3112 66.9473 28.9336C66.6283 28.5495 66.166 28.2695 65.5605 28.0938C64.9616 27.9115 64.2389 27.8203 63.3926 27.8203H61.9668V26.4336H63.4023C64.1771 26.4336 64.8346 26.3197 65.375 26.0918C65.9154 25.8639 66.3255 25.5449 66.6055 25.1348C66.8919 24.7181 67.0352 24.2266 67.0352 23.6602C67.0352 22.9375 66.7943 22.3809 66.3125 21.9902C65.8307 21.5931 65.1764 21.3945 64.3496 21.3945C63.8418 21.3945 63.3796 21.4466 62.9629 21.5508C62.5462 21.6549 62.1556 21.7982 61.791 21.9805C61.4264 22.1628 61.0618 22.3743 60.6973 22.6152L59.877 21.502C60.3978 21.0983 61.0326 20.75 61.7812 20.457C62.5299 20.1641 63.3796 20.0176 64.3301 20.0176C65.7884 20.0176 66.8822 20.3496 67.6113 21.0137C68.3405 21.6777 68.7051 22.5241 68.7051 23.5527ZM75.834 25.7695C76.804 25.7695 77.6471 25.9355 78.3633 26.2676C79.0794 26.5931 79.6328 27.0684 80.0234 27.6934C80.4206 28.3184 80.6191 29.0768 80.6191 29.9688C80.6191 30.9453 80.4076 31.7884 79.9844 32.498C79.5612 33.2012 78.9525 33.7448 78.1582 34.1289C77.3639 34.5065 76.4134 34.6953 75.3066 34.6953C74.5645 34.6953 73.8743 34.6302 73.2363 34.5C72.5983 34.3698 72.0612 34.1745 71.625 33.9141V32.3711C72.1003 32.6576 72.6764 32.8854 73.3535 33.0547C74.0306 33.224 74.6882 33.3086 75.3262 33.3086C76.0488 33.3086 76.6803 33.1947 77.2207 32.9668C77.7676 32.7324 78.1908 32.3809 78.4902 31.9121C78.7962 31.4368 78.9492 30.8411 78.9492 30.125C78.9492 29.1745 78.6562 28.4421 78.0703 27.9277C77.4909 27.4069 76.5729 27.1465 75.3164 27.1465C74.9128 27.1465 74.4701 27.179 73.9883 27.2441C73.5065 27.3092 73.1094 27.3809 72.7969 27.459L71.9766 26.9219L72.5234 20.2227H79.623V21.707H73.9102L73.5488 26.0137C73.7962 25.9616 74.1152 25.9095 74.5059 25.8574C74.8965 25.7988 75.3392 25.7695 75.834 25.7695Z" fill="#59B202"/>
</svg>
