<svg width="148" height="150" viewBox="0 0 148 150" fill="none" xmlns="http://www.w3.org/2000/svg">
<g clip-path="url(#clip0_342_3660)">
<path d="M119.723 2.78408C119.717 1.24086 118.459 -0.00568031 116.911 1.94689e-05C115.365 0.00571925 114.116 1.26138 114.121 2.80488L114.14 7.92782C114.146 9.47136 115.405 10.7176 116.951 10.7122C118.498 10.7065 119.747 9.45053 119.742 7.90734L119.723 2.78408Z" fill="#59B202"/>
<path d="M94.0205 10.1382C95.1103 9.04298 96.8834 9.03644 97.9808 10.1237L101.625 13.7331C102.723 14.8203 102.73 16.5898 101.64 17.685C100.55 18.7802 98.7769 18.7867 97.6789 17.6996L94.0345 14.0902C92.9371 13.0029 92.9301 11.2337 94.0205 10.1382Z" fill="#59B202"/>
<path d="M139.558 10.1384C138.468 9.04292 136.695 9.03638 135.597 10.1239L131.953 13.733C130.855 14.8202 130.848 16.5897 131.938 17.6849C133.028 18.7801 134.801 18.7867 135.899 17.6994L139.543 14.0901C140.641 13.0029 140.647 11.2336 139.558 10.1384Z" fill="#59B202"/>
<path d="M100.473 24.513C102.882 17.7123 109.382 12.8398 117.024 12.8398C126.715 12.8398 134.573 20.6794 134.573 30.3496C134.573 37.9106 129.77 44.3525 123.041 46.8029V40.3624C126.445 38.3213 128.723 34.6008 128.723 30.3496C128.723 23.9025 123.485 18.6764 117.024 18.6764C112.693 18.6764 108.912 21.0239 106.889 24.513H100.473Z" fill="#59B202"/>
<path d="M130.833 48.4585C129.743 47.3631 129.75 45.5938 130.847 44.5066C131.945 43.4193 133.718 43.4256 134.808 44.5211L138.426 48.157C139.515 49.2522 139.508 51.0217 138.411 52.1089C137.313 53.1962 135.54 53.1897 134.45 52.0944L130.833 48.4585Z" fill="#59B202"/>
<path d="M147.56 30.4757C147.566 28.9325 146.317 27.6768 144.77 27.6712L139.635 27.6524C138.088 27.6466 136.83 28.8932 136.824 30.4364C136.818 31.9796 138.068 33.2353 139.615 33.2409L144.75 33.2601C146.296 33.2655 147.555 32.0192 147.56 30.4757Z" fill="#59B202"/>
<path fill-rule="evenodd" clip-rule="evenodd" d="M70.3958 68.2871C75.2418 68.2871 79.1705 64.3672 79.1705 59.5322C79.1705 54.6971 75.2418 50.7773 70.3958 50.7773C65.5492 50.7773 61.6211 54.6971 61.6211 59.5322C61.6211 64.3672 65.5492 68.2871 70.3958 68.2871ZM74.7878 59.1026L68.752 55.625C68.5332 55.4991 68.284 55.5321 68.1068 55.6647C67.9681 55.7684 67.8745 55.9331 67.8745 56.1306V63.0849C67.8745 63.5343 68.3618 63.8151 68.752 63.5904L74.7878 60.1135C74.9973 59.9927 75.0944 59.7756 75.0792 59.5649C75.0663 59.3834 74.9686 59.2065 74.7878 59.1026Z" fill="#59B202"/>
<path fill-rule="evenodd" clip-rule="evenodd" d="M23.5968 91.634C21.9815 91.634 20.6719 90.3278 20.6719 88.7157V30.3499C20.6719 28.738 21.9815 27.4316 23.5968 27.4316H117.194C118.809 27.4316 120.119 28.738 120.119 30.3499V88.7157C120.119 90.3278 118.809 91.634 117.194 91.634H23.5968ZM26.5217 85.7974V33.2682H114.269V85.7974H26.5217Z" fill="#59B202"/>
<path d="M30.6172 100.389C30.6172 102.001 31.9268 103.307 33.5421 103.307H109.59C111.205 103.307 112.515 102.001 112.515 100.389C112.515 98.7769 111.205 97.4707 109.59 97.4707H33.5421C31.9268 97.4707 30.6172 98.7769 30.6172 100.389Z" fill="#59B202"/>
<path d="M5.73795 97.2519C5.29436 95.7023 3.67538 94.8053 2.1221 95.2477C0.568814 95.6907 -0.330365 97.3056 0.113226 98.8558L10.3658 126.779L0.577097 145.353C-0.219253 146.755 0.274324 148.536 1.67993 149.331C3.08526 150.125 4.87019 149.633 5.66654 148.23L15.2193 130.072H30.1129L40.3686 148.293C41.1995 149.675 42.9962 150.123 44.3815 149.294C45.7665 148.465 46.2158 146.673 45.3846 145.29L33.4248 124.235H15.7212L5.73795 97.2519Z" fill="#59B202"/>
<path d="M139.293 98.2718C139.737 96.7217 138.838 95.1067 137.285 94.6637C135.732 94.2213 134.112 95.1184 133.669 96.668L123.101 124.235H106.063L94.8297 145.353C94.0336 146.755 94.5273 148.536 95.9324 149.331C97.3381 150.125 99.1229 149.633 99.9191 148.23L109.472 130.071H123.697L134.658 148.353C135.523 149.715 137.329 150.119 138.694 149.257C140.059 148.395 140.465 146.592 139.6 145.23L128.48 126.697L139.293 98.2718Z" fill="#59B202"/>
<path d="M17.7476 28.0153V46.1086C9.0243 46.1086 1.95312 39.8372 1.95312 32.1009C1.95312 24.3646 9.0243 18.0931 17.7476 18.0931C18.0087 18.0931 18.268 18.0985 18.526 18.1097L18.6962 18.1179C18.781 18.1224 18.8658 18.1273 18.9501 18.133C21.0678 13.2893 25.7574 9.92188 31.2021 9.92188C36.4809 9.92188 38.7115 12.1163 39.4244 12.8179C39.5015 12.8937 39.561 12.9522 39.6044 12.9884C42.0243 15.1748 43.8775 18.0703 44.4544 21.495C44.5342 21.4736 44.6375 21.4429 44.763 21.4055C46.1657 20.9869 50.33 19.744 54.8938 21.8869C56.2843 22.6338 57.4009 23.5273 58.2883 24.5133H21.2575C19.3191 24.5133 17.7476 26.0814 17.7476 28.0153Z" fill="#59B202"/>
<path d="M39.6016 12.9886L39.6639 12.8105L39.6667 12.8154L39.6016 12.9886Z" fill="#59B202"/>
<path d="M54.6016 125.487C54.6016 123.875 55.9112 122.568 57.5265 122.568H83.2658C84.881 122.568 86.1907 123.875 86.1907 125.487C86.1907 127.098 84.881 128.405 83.2658 128.405H73.3212V146.498C73.3212 148.11 72.0114 149.417 70.3963 149.417C68.7805 149.417 67.4714 148.11 67.4714 146.498V128.405H57.5265C55.9112 128.405 54.6016 127.098 54.6016 125.487Z" fill="#59B202"/>
</g>
<defs>
<clipPath id="clip0_342_3660">
<rect width="148" height="150" fill="white"/>
</clipPath>
</defs>
</svg>
