<svg width="53" height="53" viewBox="0 0 53 53" fill="none" xmlns="http://www.w3.org/2000/svg">
<rect x="0.5" y="0.5" width="52" height="52" rx="26" stroke="#438006"/>
<path d="M20.3145 23.5527C20.3145 24.1908 20.1908 24.7441 19.9434 25.2129C19.696 25.6816 19.3509 26.0658 18.9082 26.3652C18.4655 26.6582 17.9447 26.8633 17.3457 26.9805V27.0586C18.4785 27.2018 19.3281 27.5664 19.8945 28.1523C20.4674 28.7383 20.7539 29.5065 20.7539 30.457C20.7539 31.2839 20.5586 32.0163 20.168 32.6543C19.7839 33.2923 19.1914 33.7936 18.3906 34.1582C17.5964 34.5163 16.5775 34.6953 15.334 34.6953C14.5788 34.6953 13.8789 34.6335 13.2344 34.5098C12.5964 34.3926 11.9844 34.194 11.3984 33.9141V32.3906C11.9909 32.6836 12.6354 32.9147 13.332 33.084C14.0286 33.2467 14.7025 33.3281 15.3535 33.3281C16.6556 33.3281 17.5964 33.071 18.1758 32.5566C18.7552 32.0358 19.0449 31.3262 19.0449 30.4277C19.0449 29.8092 18.8822 29.3112 18.5566 28.9336C18.2376 28.5495 17.7754 28.2695 17.1699 28.0938C16.571 27.9115 15.8483 27.8203 15.002 27.8203H13.5762V26.4336H15.0117C15.7865 26.4336 16.444 26.3197 16.9844 26.0918C17.5247 25.8639 17.9349 25.5449 18.2148 25.1348C18.5013 24.7181 18.6445 24.2266 18.6445 23.6602C18.6445 22.9375 18.4036 22.3809 17.9219 21.9902C17.4401 21.5931 16.7858 21.3945 15.959 21.3945C15.4512 21.3945 14.9889 21.4466 14.5723 21.5508C14.1556 21.6549 13.765 21.7982 13.4004 21.9805C13.0358 22.1628 12.6712 22.3743 12.3066 22.6152L11.4863 21.502C12.0072 21.0983 12.6419 20.75 13.3906 20.457C14.1393 20.1641 14.9889 20.0176 15.9395 20.0176C17.3978 20.0176 18.4915 20.3496 19.2207 21.0137C19.9499 21.6777 20.3145 22.5241 20.3145 23.5527ZM25.2754 19.3047V23.8457C25.2754 24.1061 25.2689 24.3698 25.2559 24.6367C25.2428 24.8971 25.2201 25.138 25.1875 25.3594H25.2949C25.5163 24.9818 25.7962 24.666 26.1348 24.4121C26.4798 24.1517 26.8704 23.9564 27.3066 23.8262C27.7428 23.6895 28.2051 23.6211 28.6934 23.6211C29.5527 23.6211 30.2689 23.7578 30.8418 24.0312C31.4212 24.3047 31.8542 24.7279 32.1406 25.3008C32.4336 25.8737 32.5801 26.6159 32.5801 27.5273V34.5H30.9785V27.6348C30.9785 26.7428 30.7734 26.0755 30.3633 25.6328C29.9596 25.1901 29.3379 24.9688 28.498 24.9688C27.7038 24.9688 27.069 25.1217 26.5938 25.4277C26.125 25.7272 25.7865 26.1699 25.5781 26.7559C25.3763 27.3418 25.2754 28.0579 25.2754 28.9043V34.5H23.6543V19.3047H25.2754ZM40.7832 23.6016C40.998 23.6016 41.2227 23.6146 41.457 23.6406C41.6914 23.6602 41.8997 23.6895 42.082 23.7285L41.877 25.2324C41.7012 25.1868 41.5059 25.151 41.291 25.125C41.0762 25.099 40.8743 25.0859 40.6855 25.0859C40.2559 25.0859 39.849 25.1738 39.4648 25.3496C39.0872 25.5189 38.7552 25.7663 38.4688 26.0918C38.1823 26.4108 37.9577 26.7982 37.7949 27.2539C37.6322 27.7031 37.5508 28.2044 37.5508 28.7578V34.5H35.9199V23.7969H37.2676L37.4434 25.7695H37.5117C37.7331 25.3724 38 25.0111 38.3125 24.6855C38.625 24.3535 38.9863 24.0898 39.3965 23.8945C39.8132 23.6992 40.2754 23.6016 40.7832 23.6016Z" fill="#59B202"/>
</svg>
