<svg width="118" height="53" viewBox="0 0 118 53" fill="none" xmlns="http://www.w3.org/2000/svg">
<rect x="0.5" y="0.5" width="117" height="52" rx="26" stroke="#438006"/>
<path d="M41.0586 35.6621V33.6113C40.3099 33.5983 39.5938 33.5332 38.9102 33.416C38.2331 33.2988 37.6797 33.1458 37.25 32.957V31.375C37.6992 31.5833 38.2754 31.7656 38.9785 31.9219C39.6816 32.0781 40.375 32.1628 41.0586 32.1758V27.8789C40.1992 27.638 39.4863 27.3646 38.9199 27.0586C38.36 26.7461 37.9401 26.3652 37.6602 25.916C37.3802 25.4668 37.2402 24.9232 37.2402 24.2852C37.2402 23.6211 37.3965 23.0547 37.709 22.5859C38.028 22.1107 38.474 21.7396 39.0469 21.4727C39.6198 21.2057 40.2904 21.0527 41.0586 21.0137V19.3242H42.25V20.9941C42.9466 21.0137 43.5814 21.0918 44.1543 21.2285C44.7272 21.3587 45.2578 21.528 45.7461 21.7363L45.2383 23.0938C44.7956 22.918 44.3171 22.7682 43.8027 22.6445C43.2884 22.5208 42.7708 22.4362 42.25 22.3906V26.6582C43.1224 26.9121 43.8516 27.1823 44.4375 27.4688C45.0299 27.7552 45.4759 28.11 45.7754 28.5332C46.0749 28.9564 46.2246 29.5033 46.2246 30.1738C46.2246 31.1243 45.8763 31.8926 45.1797 32.4785C44.4831 33.0579 43.5065 33.4095 42.25 33.5332V35.6621H41.0586ZM42.25 32.0879C43.0508 32.0098 43.6465 31.8177 44.0371 31.5117C44.4342 31.1992 44.6328 30.7891 44.6328 30.2812C44.6328 29.9167 44.5547 29.6172 44.3984 29.3828C44.2487 29.1484 44.0013 28.9466 43.6562 28.7773C43.3112 28.6016 42.8424 28.4355 42.25 28.2793V32.0879ZM41.0586 26.248V22.4297C40.5703 22.4622 40.1602 22.5534 39.8281 22.7031C39.4961 22.8529 39.2454 23.0482 39.0762 23.2891C38.9134 23.5299 38.832 23.8164 38.832 24.1484C38.832 24.5326 38.9036 24.8548 39.0469 25.1152C39.1966 25.3691 39.4342 25.5872 39.7598 25.7695C40.0918 25.9453 40.5247 26.1048 41.0586 26.248ZM57.7871 34.5H48.4316V33.1426L52.25 29.2656C52.9596 28.5495 53.5553 27.9115 54.0371 27.3516C54.5254 26.7917 54.8965 26.2415 55.1504 25.7012C55.4043 25.1543 55.5312 24.5553 55.5312 23.9043C55.5312 23.097 55.2904 22.4818 54.8086 22.0586C54.3333 21.6289 53.7051 21.4141 52.9238 21.4141C52.2402 21.4141 51.6348 21.5312 51.1074 21.7656C50.5801 22 50.0397 22.332 49.4863 22.7617L48.6172 21.668C48.9948 21.349 49.4049 21.0658 49.8477 20.8184C50.2969 20.571 50.7754 20.3757 51.2832 20.2324C51.7975 20.0892 52.3444 20.0176 52.9238 20.0176C53.8027 20.0176 54.5612 20.1706 55.1992 20.4766C55.8372 20.7826 56.3288 21.2188 56.6738 21.7852C57.0254 22.3516 57.2012 23.0254 57.2012 23.8066C57.2012 24.5618 57.0514 25.265 56.752 25.916C56.4525 26.5605 56.0326 27.2018 55.4922 27.8398C54.9518 28.4714 54.3203 29.1419 53.5977 29.8516L50.4922 32.9473V33.0156H57.7871V34.5ZM69.252 26.3066C69.252 27.1725 69.1901 28.0156 69.0664 28.8359C68.9492 29.6562 68.7441 30.4212 68.4512 31.1309C68.1647 31.8405 67.7741 32.4622 67.2793 32.9961C66.7845 33.5299 66.1628 33.9499 65.4141 34.2559C64.6719 34.5553 63.7832 34.7051 62.748 34.7051C62.4681 34.7051 62.1491 34.6855 61.791 34.6465C61.4329 34.6139 61.14 34.5651 60.9121 34.5V33.0938C61.153 33.1784 61.4362 33.2467 61.7617 33.2988C62.0872 33.3444 62.4062 33.3672 62.7188 33.3672C63.9362 33.3672 64.8932 33.1068 65.5898 32.5859C66.2865 32.0586 66.7878 31.3457 67.0938 30.4473C67.3997 29.5423 67.5723 28.5267 67.6113 27.4004H67.4941C67.2988 27.7129 67.0417 28.0026 66.7227 28.2695C66.4102 28.5299 66.0293 28.7415 65.5801 28.9043C65.1309 29.0605 64.6068 29.1387 64.0078 29.1387C63.181 29.1387 62.4583 28.9694 61.8398 28.6309C61.2279 28.2923 60.7493 27.8008 60.4043 27.1562C60.0658 26.5117 59.8965 25.7337 59.8965 24.8223C59.8965 23.8392 60.082 22.9896 60.4531 22.2734C60.8307 21.5508 61.3581 20.9941 62.0352 20.6035C62.7122 20.2129 63.5098 20.0176 64.4277 20.0176C65.1309 20.0176 65.7754 20.151 66.3613 20.418C66.9473 20.6849 67.4551 21.0853 67.8848 21.6191C68.321 22.1465 68.6562 22.8008 68.8906 23.582C69.1315 24.3633 69.252 25.2715 69.252 26.3066ZM64.4277 21.3945C63.5618 21.3945 62.8587 21.6777 62.3184 22.2441C61.7845 22.8105 61.5176 23.6634 61.5176 24.8027C61.5176 25.7467 61.7487 26.4922 62.2109 27.0391C62.6732 27.5859 63.3861 27.8594 64.3496 27.8594C65.0137 27.8594 65.5866 27.7259 66.0684 27.459C66.5566 27.1921 66.931 26.8535 67.1914 26.4434C67.4583 26.0332 67.5918 25.6133 67.5918 25.1836C67.5918 24.7539 67.5267 24.3177 67.3965 23.875C67.2728 23.4323 67.0807 23.0254 66.8203 22.6543C66.5599 22.2767 66.2311 21.974 65.834 21.7461C65.4368 21.5117 64.9681 21.3945 64.4277 21.3945ZM80.6973 26.3066C80.6973 27.1725 80.6354 28.0156 80.5117 28.8359C80.3945 29.6562 80.1895 30.4212 79.8965 31.1309C79.61 31.8405 79.2194 32.4622 78.7246 32.9961C78.2298 33.5299 77.6081 33.9499 76.8594 34.2559C76.1172 34.5553 75.2285 34.7051 74.1934 34.7051C73.9134 34.7051 73.5944 34.6855 73.2363 34.6465C72.8783 34.6139 72.5853 34.5651 72.3574 34.5V33.0938C72.5983 33.1784 72.8815 33.2467 73.207 33.2988C73.5326 33.3444 73.8516 33.3672 74.1641 33.3672C75.3815 33.3672 76.3385 33.1068 77.0352 32.5859C77.7318 32.0586 78.2331 31.3457 78.5391 30.4473C78.8451 29.5423 79.0176 28.5267 79.0566 27.4004H78.9395C78.7441 27.7129 78.487 28.0026 78.168 28.2695C77.8555 28.5299 77.4746 28.7415 77.0254 28.9043C76.5762 29.0605 76.0521 29.1387 75.4531 29.1387C74.6263 29.1387 73.9036 28.9694 73.2852 28.6309C72.6732 28.2923 72.1947 27.8008 71.8496 27.1562C71.5111 26.5117 71.3418 25.7337 71.3418 24.8223C71.3418 23.8392 71.5273 22.9896 71.8984 22.2734C72.276 21.5508 72.8034 20.9941 73.4805 20.6035C74.1576 20.2129 74.9551 20.0176 75.873 20.0176C76.5762 20.0176 77.2207 20.151 77.8066 20.418C78.3926 20.6849 78.9004 21.0853 79.3301 21.6191C79.7663 22.1465 80.1016 22.8008 80.3359 23.582C80.5768 24.3633 80.6973 25.2715 80.6973 26.3066ZM75.873 21.3945C75.0072 21.3945 74.304 21.6777 73.7637 22.2441C73.2298 22.8105 72.9629 23.6634 72.9629 24.8027C72.9629 25.7467 73.194 26.4922 73.6562 27.0391C74.1185 27.5859 74.8314 27.8594 75.7949 27.8594C76.459 27.8594 77.0319 27.7259 77.5137 27.459C78.002 27.1921 78.3763 26.8535 78.6367 26.4434C78.9036 26.0332 79.0371 25.6133 79.0371 25.1836C79.0371 24.7539 78.972 24.3177 78.8418 23.875C78.7181 23.4323 78.526 23.0254 78.2656 22.6543C78.0052 22.2767 77.6764 21.974 77.2793 21.7461C76.8822 21.5117 76.4134 21.3945 75.873 21.3945Z" fill="#59B202"/>
</svg>
