<svg width="49" height="32" viewBox="0 0 49 32" fill="none" xmlns="http://www.w3.org/2000/svg">
<path d="M48.8113 9.4C48.8113 11.8667 48.2113 14.2667 47.0113 16.6C45.8113 19 44.3113 21.1667 42.5113 23.1C40.6447 25.1 38.578 26.8333 36.3113 28.3C33.978 29.8333 31.7113 31.0333 29.5113 31.9L26.6113 27.7C29.078 25.8333 30.9447 24.1667 32.2113 22.7C33.4113 21.2333 34.0113 19.7667 34.0113 18.3C34.0113 15.9667 32.1447 13.4333 28.4113 10.7C28.4113 9.1 28.7113 7.66667 29.3113 6.4C29.9113 5.13333 30.7447 4.06667 31.8113 3.2C32.8113 2.33333 33.978 1.66667 35.3113 1.2C36.578 0.733335 37.9113 0.500001 39.3113 0.500001C42.0447 0.500002 44.3113 1.23333 46.1113 2.7C47.9113 4.16667 48.8113 6.4 48.8113 9.4ZM22.3113 9.4C22.3113 11.8667 21.7113 14.2667 20.5113 16.6C19.3113 19 17.8113 21.1667 16.0113 23.1C14.1447 25.1 12.078 26.8333 9.81133 28.3C7.47799 29.8333 5.21133 31.0333 3.01133 31.9L0.211328 27.7C2.61133 25.8333 4.44466 24.1667 5.71133 22.7C6.91133 21.2333 7.51133 19.7667 7.51133 18.3C7.51133 15.9667 5.64466 13.4333 1.91133 10.7C1.91133 9.1 2.21133 7.66666 2.81133 6.4C3.41133 5.13333 4.24466 4.06666 5.31133 3.2C6.31133 2.33333 7.478 1.66667 8.81133 1.2C10.1447 0.733332 11.5113 0.499999 12.9113 0.499999C15.578 0.499999 17.8113 1.23333 19.6113 2.7C21.4113 4.16667 22.3113 6.4 22.3113 9.4Z" fill="#59B202"/>
</svg>
