<svg width="524" height="520" viewBox="0 0 524 520" fill="none" xmlns="http://www.w3.org/2000/svg">
<g filter="url(#filter0_dd_139_39172)">
<circle cx="256" cy="252" r="231" stroke="#59B202" stroke-width="2" shape-rendering="crispEdges"/>
</g>
<path d="M163.974 306.072C157.403 306.072 151.472 304.664 146.182 301.848C140.891 299.032 136.88 295.192 134.15 290.328L144.006 280.088C146.395 283.416 149.382 286.061 152.966 288.024C156.55 289.987 160.262 290.968 164.102 290.968C167.174 290.968 169.862 290.328 172.166 289.048C174.555 287.768 176.432 285.976 177.798 283.672C179.163 281.368 179.846 278.723 179.846 275.736C179.846 272.749 179.206 270.147 177.926 267.928C176.646 265.709 174.896 264.003 172.678 262.808C170.459 261.528 167.942 260.888 165.126 260.888C162.31 260.888 159.664 261.528 157.19 262.808C154.8 264.003 152.88 265.752 151.43 268.056H136.454L146.95 213.912H191.75V229.528H159.366L155.654 249.88C156.763 248.856 158.299 248.003 160.262 247.32C162.224 246.552 164.656 246.168 167.558 246.168C173.275 246.168 178.395 247.405 182.918 249.88C187.44 252.355 190.982 255.811 193.542 260.248C196.102 264.6 197.382 269.635 197.382 275.352C197.382 281.411 195.931 286.744 193.03 291.352C190.128 296.045 186.16 299.672 181.126 302.232C176.091 304.792 170.374 306.072 163.974 306.072ZM273.632 249.496C273.632 257.005 272.182 263.704 269.281 269.592C266.465 275.395 262.539 279.96 257.505 283.288C252.555 286.616 246.923 288.28 240.609 288.28C234.294 288.28 228.619 286.616 223.585 283.288C218.635 279.96 214.71 275.395 211.809 269.592C208.993 263.704 207.585 257.005 207.585 249.496C207.585 241.987 208.993 235.331 211.809 229.528C214.71 223.64 218.635 219.032 223.585 215.704C228.619 212.291 234.294 210.584 240.609 210.584C246.923 210.584 252.555 212.291 257.505 215.704C262.539 219.032 266.465 223.64 269.281 229.528C272.182 235.331 273.632 241.987 273.632 249.496ZM256.353 249.496C256.353 244.888 255.67 240.877 254.305 237.464C253.025 233.965 251.19 231.235 248.801 229.272C246.411 227.309 243.681 226.328 240.609 226.328C237.451 226.328 234.678 227.309 232.289 229.272C229.899 231.235 228.022 233.965 226.657 237.464C225.377 240.877 224.737 244.888 224.737 249.496C224.737 254.104 225.377 258.115 226.657 261.528C228.022 264.941 229.899 267.629 232.289 269.592C234.678 271.555 237.451 272.536 240.609 272.536C243.681 272.536 246.369 271.555 248.673 269.592C251.062 267.629 252.939 264.941 254.305 261.528C255.67 258.029 256.353 254.019 256.353 249.496ZM305.538 233.624C301.612 233.624 298.071 232.771 294.914 231.064C291.756 229.272 289.196 226.925 287.234 224.024C285.356 221.037 284.418 217.752 284.418 214.168C284.418 210.584 285.356 207.341 287.234 204.44C289.196 201.453 291.756 199.107 294.914 197.4C298.071 195.693 301.612 194.84 305.538 194.84C309.463 194.84 313.004 195.693 316.162 197.4C319.404 199.107 321.964 201.453 323.842 204.44C325.719 207.341 326.658 210.584 326.658 214.168C326.658 217.752 325.719 221.037 323.842 224.024C321.964 226.925 319.404 229.272 316.162 231.064C313.004 232.771 309.463 233.624 305.538 233.624ZM305.538 225.048C307.244 225.048 308.78 224.536 310.146 223.512C311.511 222.488 312.578 221.165 313.346 219.544C314.199 217.923 314.626 216.173 314.626 214.296C314.626 212.248 314.199 210.413 313.346 208.792C312.492 207.171 311.383 205.891 310.018 204.952C308.652 203.928 307.159 203.416 305.538 203.416C303.831 203.416 302.295 203.928 300.93 204.952C299.564 205.891 298.455 207.171 297.602 208.792C296.834 210.413 296.45 212.205 296.45 214.168C296.45 216.131 296.876 217.965 297.73 219.672C298.583 221.293 299.692 222.616 301.058 223.64C302.423 224.579 303.916 225.048 305.538 225.048ZM354.946 288.28C351.02 288.28 347.479 287.427 344.322 285.72C341.164 284.013 338.604 281.709 336.642 278.808C334.764 275.821 333.826 272.536 333.826 268.952C333.826 265.283 334.764 261.997 336.642 259.096C338.604 256.195 341.164 253.891 344.322 252.184C347.479 250.392 351.02 249.496 354.946 249.496C358.871 249.496 362.412 250.392 365.57 252.184C368.812 253.891 371.372 256.195 373.25 259.096C375.127 261.997 376.066 265.24 376.066 268.824C376.066 272.408 375.127 275.693 373.25 278.68C371.372 281.581 368.812 283.928 365.57 285.72C362.412 287.427 358.871 288.28 354.946 288.28ZM354.946 279.704C356.652 279.704 358.188 279.192 359.554 278.168C360.919 277.144 361.986 275.821 362.754 274.2C363.607 272.579 364.034 270.829 364.034 268.952C364.034 266.904 363.607 265.069 362.754 263.448C361.986 261.827 360.876 260.547 359.426 259.608C358.06 258.584 356.567 258.072 354.946 258.072C353.324 258.072 351.788 258.584 350.338 259.608C348.972 260.547 347.863 261.869 347.01 263.576C346.242 265.197 345.858 266.947 345.858 268.824C345.858 270.872 346.284 272.707 347.138 274.328C347.991 275.949 349.1 277.272 350.465 278.296C351.831 279.235 353.324 279.704 354.946 279.704ZM291.714 280.984L327.682 238.872L360.962 195.096L368.77 202.008L333.698 243.48L299.394 287.896L291.714 280.984Z" fill="#59B202"/>
<path d="M161.728 381.32C160.384 381.32 159.168 381.096 158.08 380.648C156.992 380.179 156.064 379.549 155.296 378.76C154.528 377.949 153.931 377.032 153.504 376.008C153.099 374.963 152.896 373.864 152.896 372.712C152.896 371.112 153.248 369.651 153.952 368.328C154.677 367.005 155.701 365.949 157.024 365.16C158.368 364.349 159.947 363.944 161.76 363.944C163.595 363.944 165.163 364.349 166.464 365.16C167.765 365.949 168.757 367.005 169.44 368.328C170.144 369.629 170.496 371.037 170.496 372.552C170.496 372.808 170.485 373.075 170.464 373.352C170.443 373.608 170.421 373.821 170.4 373.992H157.44C157.525 374.845 157.771 375.592 158.176 376.232C158.603 376.872 159.136 377.363 159.776 377.704C160.437 378.024 161.141 378.184 161.888 378.184C162.741 378.184 163.541 377.981 164.288 377.576C165.056 377.149 165.579 376.595 165.856 375.912L169.536 376.936C169.131 377.789 168.544 378.547 167.776 379.208C167.029 379.869 166.144 380.392 165.12 380.776C164.096 381.139 162.965 381.32 161.728 381.32ZM157.344 371.272H166.112C166.027 370.419 165.781 369.683 165.376 369.064C164.992 368.424 164.48 367.933 163.84 367.592C163.2 367.229 162.485 367.048 161.696 367.048C160.928 367.048 160.224 367.229 159.584 367.592C158.965 367.933 158.453 368.424 158.048 369.064C157.664 369.683 157.429 370.419 157.344 371.272ZM188.692 381H184.404V371.592C184.404 370.248 184.17 369.267 183.7 368.648C183.231 368.029 182.58 367.72 181.748 367.72C181.172 367.72 180.586 367.869 179.988 368.168C179.412 368.467 178.89 368.883 178.42 369.416C177.951 369.928 177.61 370.525 177.396 371.208V381H173.108V364.232H176.98V367.336C177.407 366.611 177.951 366.003 178.612 365.512C179.274 365 180.031 364.616 180.884 364.36C181.759 364.083 182.676 363.944 183.636 363.944C184.682 363.944 185.535 364.136 186.196 364.52C186.879 364.883 187.391 365.384 187.732 366.024C188.095 366.643 188.34 367.347 188.468 368.136C188.618 368.925 188.692 369.725 188.692 370.536V381ZM200.197 381.32C198.853 381.32 197.637 381.096 196.549 380.648C195.461 380.179 194.533 379.549 193.765 378.76C192.997 377.949 192.399 377.032 191.973 376.008C191.567 374.963 191.365 373.864 191.365 372.712C191.365 371.112 191.717 369.651 192.421 368.328C193.146 367.005 194.17 365.949 195.493 365.16C196.837 364.349 198.415 363.944 200.229 363.944C202.063 363.944 203.631 364.349 204.933 365.16C206.234 365.949 207.226 367.005 207.909 368.328C208.613 369.629 208.965 371.037 208.965 372.552C208.965 372.808 208.954 373.075 208.933 373.352C208.911 373.608 208.89 373.821 208.869 373.992H195.909C195.994 374.845 196.239 375.592 196.645 376.232C197.071 376.872 197.605 377.363 198.245 377.704C198.906 378.024 199.61 378.184 200.357 378.184C201.21 378.184 202.01 377.981 202.757 377.576C203.525 377.149 204.047 376.595 204.325 375.912L208.005 376.936C207.599 377.789 207.013 378.547 206.245 379.208C205.498 379.869 204.613 380.392 203.589 380.776C202.565 381.139 201.434 381.32 200.197 381.32ZM195.813 371.272H204.581C204.495 370.419 204.25 369.683 203.845 369.064C203.461 368.424 202.949 367.933 202.309 367.592C201.669 367.229 200.954 367.048 200.165 367.048C199.397 367.048 198.693 367.229 198.053 367.592C197.434 367.933 196.922 368.424 196.517 369.064C196.133 369.683 195.898 370.419 195.813 371.272ZM221.561 367.944C220.26 367.944 219.097 368.2 218.073 368.712C217.049 369.203 216.313 369.917 215.865 370.856V381H211.577V364.232H215.513V367.816C216.11 366.664 216.868 365.757 217.785 365.096C218.702 364.435 219.673 364.072 220.697 364.008C220.932 364.008 221.113 364.008 221.241 364.008C221.369 364.008 221.476 364.019 221.561 364.04V367.944ZM230.356 381.096C229.246 381.096 228.222 380.883 227.284 380.456C226.366 380.008 225.566 379.389 224.884 378.6C224.222 377.811 223.71 376.904 223.348 375.88C222.985 374.856 222.804 373.768 222.804 372.616C222.804 371.4 222.996 370.269 223.38 369.224C223.764 368.179 224.297 367.261 224.98 366.472C225.684 365.661 226.505 365.043 227.444 364.616C228.404 364.168 229.46 363.944 230.612 363.944C231.913 363.944 233.054 364.243 234.036 364.84C235.017 365.416 235.828 366.195 236.468 367.176V364.232H240.212V380.2C240.212 381.864 239.806 383.283 238.996 384.456C238.206 385.651 237.108 386.557 235.7 387.176C234.292 387.816 232.692 388.136 230.9 388.136C229.086 388.136 227.55 387.827 226.292 387.208C225.033 386.611 223.956 385.757 223.06 384.648L225.396 382.376C226.036 383.165 226.836 383.784 227.796 384.232C228.777 384.68 229.812 384.904 230.9 384.904C231.817 384.904 232.649 384.733 233.396 384.392C234.164 384.072 234.772 383.56 235.22 382.856C235.689 382.173 235.924 381.288 235.924 380.2V378.088C235.369 379.048 234.58 379.795 233.556 380.328C232.553 380.84 231.486 381.096 230.356 381.096ZM231.796 377.672C232.265 377.672 232.713 377.597 233.14 377.448C233.566 377.299 233.961 377.096 234.324 376.84C234.686 376.584 235.006 376.285 235.284 375.944C235.561 375.581 235.774 375.219 235.924 374.856V370.856C235.668 370.195 235.305 369.619 234.836 369.128C234.388 368.637 233.876 368.264 233.3 368.008C232.745 367.731 232.158 367.592 231.54 367.592C230.878 367.592 230.281 367.731 229.748 368.008C229.214 368.285 228.756 368.68 228.372 369.192C227.988 369.683 227.689 370.237 227.476 370.856C227.284 371.453 227.188 372.083 227.188 372.744C227.188 373.427 227.305 374.067 227.54 374.664C227.774 375.261 228.094 375.784 228.5 376.232C228.926 376.68 229.417 377.032 229.972 377.288C230.548 377.544 231.156 377.672 231.796 377.672ZM244.429 384.264C244.813 384.349 245.165 384.424 245.485 384.488C245.826 384.552 246.114 384.584 246.349 384.584C246.754 384.584 247.085 384.477 247.341 384.264C247.618 384.072 247.885 383.709 248.141 383.176C248.397 382.664 248.664 381.939 248.941 381L242.317 364.232H246.765L251.277 376.616L255.245 364.232H259.341L252.301 384.328C252.045 385.075 251.65 385.747 251.117 386.344C250.605 386.963 249.954 387.443 249.165 387.784C248.397 388.147 247.533 388.328 246.573 388.328C246.232 388.328 245.89 388.296 245.549 388.232C245.208 388.189 244.834 388.104 244.429 387.976V384.264ZM268.386 374.728V364.232H272.674V373.8C272.674 375.08 272.908 376.051 273.378 376.712C273.847 377.352 274.54 377.672 275.458 377.672C276.012 377.672 276.556 377.565 277.09 377.352C277.644 377.117 278.146 376.776 278.594 376.328C279.063 375.88 279.458 375.315 279.778 374.632V364.232H284.066V376.2C284.066 376.648 284.14 376.968 284.29 377.16C284.46 377.352 284.727 377.469 285.09 377.512V381C284.663 381.064 284.3 381.107 284.002 381.128C283.724 381.171 283.468 381.192 283.234 381.192C282.466 381.192 281.836 381.021 281.346 380.68C280.876 380.317 280.599 379.827 280.514 379.208L280.418 377.864C279.671 378.995 278.711 379.859 277.538 380.456C276.364 381.032 275.074 381.32 273.666 381.32C271.938 381.32 270.626 380.765 269.73 379.656C268.834 378.525 268.386 376.883 268.386 374.728ZM294.503 381.32C293.074 381.32 291.708 381.085 290.407 380.616C289.106 380.147 287.986 379.453 287.047 378.536L288.583 375.752C289.586 376.563 290.567 377.16 291.527 377.544C292.508 377.928 293.447 378.12 294.343 378.12C295.175 378.12 295.836 377.971 296.327 377.672C296.839 377.373 297.095 376.925 297.095 376.328C297.095 375.923 296.956 375.613 296.679 375.4C296.402 375.165 295.996 374.963 295.463 374.792C294.951 374.621 294.322 374.429 293.575 374.216C292.338 373.811 291.303 373.416 290.471 373.032C289.639 372.648 289.01 372.168 288.583 371.592C288.178 370.995 287.975 370.237 287.975 369.32C287.975 368.211 288.252 367.261 288.807 366.472C289.383 365.661 290.172 365.032 291.175 364.584C292.199 364.136 293.394 363.912 294.759 363.912C295.954 363.912 297.084 364.104 298.151 364.488C299.218 364.851 300.188 365.448 301.063 366.28L299.335 369C298.482 368.339 297.671 367.859 296.903 367.56C296.135 367.24 295.356 367.08 294.567 367.08C294.119 367.08 293.692 367.133 293.287 367.24C292.903 367.347 292.583 367.528 292.327 367.784C292.092 368.019 291.975 368.36 291.975 368.808C291.975 369.213 292.082 369.533 292.295 369.768C292.53 369.981 292.871 370.173 293.319 370.344C293.788 370.515 294.354 370.707 295.015 370.92C296.359 371.304 297.49 371.699 298.407 372.104C299.346 372.509 300.05 373.011 300.519 373.608C300.988 374.184 301.223 374.984 301.223 376.008C301.223 377.672 300.615 378.973 299.399 379.912C298.183 380.851 296.551 381.32 294.503 381.32ZM302.988 376.04C302.988 374.952 303.286 374.003 303.884 373.192C304.502 372.36 305.356 371.72 306.444 371.272C307.532 370.824 308.78 370.6 310.188 370.6C310.892 370.6 311.606 370.653 312.332 370.76C313.057 370.867 313.686 371.037 314.22 371.272V370.376C314.22 369.309 313.9 368.488 313.26 367.912C312.641 367.336 311.713 367.048 310.476 367.048C309.558 367.048 308.684 367.208 307.852 367.528C307.02 367.848 306.145 368.317 305.228 368.936L303.852 366.12C304.961 365.395 306.092 364.851 307.244 364.488C308.417 364.125 309.644 363.944 310.924 363.944C313.313 363.944 315.169 364.541 316.492 365.736C317.836 366.931 318.508 368.637 318.508 370.856V376.2C318.508 376.648 318.582 376.968 318.732 377.16C318.902 377.352 319.169 377.469 319.532 377.512V381C319.148 381.064 318.796 381.117 318.476 381.16C318.177 381.203 317.921 381.224 317.708 381.224C316.854 381.224 316.204 381.032 315.756 380.648C315.329 380.264 315.062 379.795 314.956 379.24L314.86 378.376C314.134 379.315 313.228 380.04 312.14 380.552C311.052 381.064 309.942 381.32 308.812 381.32C307.702 381.32 306.7 381.096 305.804 380.648C304.929 380.179 304.236 379.549 303.724 378.76C303.233 377.949 302.988 377.043 302.988 376.04ZM313.42 376.904C313.654 376.648 313.846 376.392 313.996 376.136C314.145 375.88 314.22 375.645 314.22 375.432V373.736C313.708 373.523 313.153 373.363 312.556 373.256C311.958 373.128 311.393 373.064 310.86 373.064C309.75 373.064 308.833 373.309 308.108 373.8C307.404 374.269 307.052 374.899 307.052 375.688C307.052 376.115 307.169 376.52 307.404 376.904C307.638 377.288 307.98 377.597 308.428 377.832C308.876 378.067 309.409 378.184 310.028 378.184C310.668 378.184 311.297 378.067 311.916 377.832C312.534 377.576 313.036 377.267 313.42 376.904ZM329.075 381.096C327.965 381.096 326.941 380.883 326.003 380.456C325.085 380.008 324.285 379.389 323.603 378.6C322.941 377.811 322.429 376.904 322.067 375.88C321.704 374.856 321.523 373.768 321.523 372.616C321.523 371.4 321.715 370.269 322.099 369.224C322.482 368.179 323.016 367.261 323.699 366.472C324.403 365.661 325.224 365.043 326.163 364.616C327.123 364.168 328.179 363.944 329.331 363.944C330.632 363.944 331.773 364.243 332.755 364.84C333.736 365.416 334.547 366.195 335.187 367.176V364.232H338.931V380.2C338.931 381.864 338.525 383.283 337.715 384.456C336.925 385.651 335.827 386.557 334.419 387.176C333.011 387.816 331.411 388.136 329.619 388.136C327.805 388.136 326.269 387.827 325.011 387.208C323.752 386.611 322.675 385.757 321.779 384.648L324.115 382.376C324.755 383.165 325.555 383.784 326.515 384.232C327.496 384.68 328.531 384.904 329.619 384.904C330.536 384.904 331.368 384.733 332.115 384.392C332.883 384.072 333.491 383.56 333.939 382.856C334.408 382.173 334.643 381.288 334.643 380.2V378.088C334.088 379.048 333.299 379.795 332.275 380.328C331.272 380.84 330.205 381.096 329.075 381.096ZM330.515 377.672C330.984 377.672 331.432 377.597 331.859 377.448C332.285 377.299 332.68 377.096 333.043 376.84C333.405 376.584 333.725 376.285 334.003 375.944C334.28 375.581 334.493 375.219 334.643 374.856V370.856C334.387 370.195 334.024 369.619 333.555 369.128C333.107 368.637 332.595 368.264 332.019 368.008C331.464 367.731 330.877 367.592 330.259 367.592C329.597 367.592 329 367.731 328.467 368.008C327.933 368.285 327.475 368.68 327.091 369.192C326.707 369.683 326.408 370.237 326.195 370.856C326.003 371.453 325.907 372.083 325.907 372.744C325.907 373.427 326.024 374.067 326.259 374.664C326.493 375.261 326.813 375.784 327.219 376.232C327.645 376.68 328.136 377.032 328.691 377.288C329.267 377.544 329.875 377.672 330.515 377.672ZM350.572 381.32C349.228 381.32 348.012 381.096 346.924 380.648C345.836 380.179 344.908 379.549 344.14 378.76C343.372 377.949 342.774 377.032 342.348 376.008C341.942 374.963 341.74 373.864 341.74 372.712C341.74 371.112 342.092 369.651 342.796 368.328C343.521 367.005 344.545 365.949 345.868 365.16C347.212 364.349 348.79 363.944 350.604 363.944C352.438 363.944 354.006 364.349 355.308 365.16C356.609 365.949 357.601 367.005 358.284 368.328C358.988 369.629 359.34 371.037 359.34 372.552C359.34 372.808 359.329 373.075 359.308 373.352C359.286 373.608 359.265 373.821 359.244 373.992H346.284C346.369 374.845 346.614 375.592 347.02 376.232C347.446 376.872 347.98 377.363 348.62 377.704C349.281 378.024 349.985 378.184 350.732 378.184C351.585 378.184 352.385 377.981 353.132 377.576C353.9 377.149 354.422 376.595 354.7 375.912L358.38 376.936C357.974 377.789 357.388 378.547 356.62 379.208C355.873 379.869 354.988 380.392 353.964 380.776C352.94 381.139 351.809 381.32 350.572 381.32ZM346.188 371.272H354.956C354.87 370.419 354.625 369.683 354.22 369.064C353.836 368.424 353.324 367.933 352.684 367.592C352.044 367.229 351.329 367.048 350.54 367.048C349.772 367.048 349.068 367.229 348.428 367.592C347.809 367.933 347.297 368.424 346.892 369.064C346.508 369.683 346.273 370.419 346.188 371.272Z" fill="#59B202"/>
<path d="M192.527 152.32C191.471 152.336 190.535 152.608 189.719 153.136C188.919 153.648 188.351 154.36 188.015 155.272V163H185.903V150.472H187.871V153.376C188.303 152.512 188.871 151.816 189.575 151.288C190.295 150.744 191.047 150.44 191.831 150.376C191.991 150.376 192.127 150.376 192.239 150.376C192.351 150.376 192.447 150.384 192.527 150.4V152.32ZM199.861 163.24C198.917 163.24 198.053 163.072 197.269 162.736C196.501 162.384 195.829 161.912 195.253 161.32C194.693 160.712 194.253 160.016 193.933 159.232C193.629 158.448 193.477 157.616 193.477 156.736C193.477 155.552 193.749 154.472 194.293 153.496C194.837 152.52 195.589 151.736 196.549 151.144C197.525 150.552 198.637 150.256 199.885 150.256C201.149 150.256 202.245 150.56 203.173 151.168C204.117 151.76 204.845 152.544 205.357 153.52C205.885 154.48 206.149 155.52 206.149 156.64C206.149 156.8 206.141 156.96 206.125 157.12C206.125 157.264 206.117 157.376 206.101 157.456H195.709C195.773 158.272 195.997 159 196.381 159.64C196.781 160.264 197.293 160.76 197.917 161.128C198.541 161.48 199.213 161.656 199.933 161.656C200.701 161.656 201.421 161.464 202.093 161.08C202.781 160.696 203.253 160.192 203.509 159.568L205.333 160.072C205.061 160.68 204.653 161.224 204.109 161.704C203.581 162.184 202.949 162.56 202.213 162.832C201.493 163.104 200.709 163.24 199.861 163.24ZM195.637 155.992H204.181C204.117 155.176 203.885 154.456 203.485 153.832C203.085 153.208 202.573 152.72 201.949 152.368C201.325 152.016 200.637 151.84 199.885 151.84C199.149 151.84 198.469 152.016 197.845 152.368C197.221 152.72 196.709 153.208 196.309 153.832C195.925 154.456 195.701 155.176 195.637 155.992ZM207.681 156.76C207.681 155.576 207.921 154.496 208.401 153.52C208.897 152.528 209.569 151.736 210.417 151.144C211.281 150.552 212.265 150.256 213.369 150.256C214.377 150.256 215.281 150.52 216.081 151.048C216.881 151.576 217.505 152.216 217.953 152.968V145.48H220.065V160.6C220.065 160.856 220.113 161.048 220.209 161.176C220.321 161.288 220.497 161.352 220.737 161.368V163C220.337 163.064 220.025 163.096 219.801 163.096C219.385 163.096 219.017 162.952 218.697 162.664C218.393 162.376 218.241 162.056 218.241 161.704V160.648C217.745 161.448 217.081 162.08 216.249 162.544C215.417 163.008 214.553 163.24 213.657 163.24C212.793 163.24 211.993 163.072 211.257 162.736C210.537 162.384 209.905 161.904 209.361 161.296C208.833 160.688 208.417 160 208.113 159.232C207.825 158.448 207.681 157.624 207.681 156.76ZM217.953 158.608V155.008C217.761 154.464 217.449 153.976 217.017 153.544C216.585 153.096 216.097 152.744 215.553 152.488C215.025 152.216 214.497 152.08 213.969 152.08C213.345 152.08 212.777 152.216 212.265 152.488C211.769 152.744 211.337 153.096 210.969 153.544C210.617 153.976 210.345 154.472 210.153 155.032C209.961 155.592 209.865 156.176 209.865 156.784C209.865 157.408 209.969 158 210.177 158.56C210.401 159.12 210.705 159.616 211.089 160.048C211.489 160.48 211.945 160.816 212.457 161.056C212.985 161.296 213.553 161.416 214.161 161.416C214.545 161.416 214.937 161.344 215.337 161.2C215.753 161.056 216.145 160.856 216.513 160.6C216.881 160.344 217.193 160.048 217.449 159.712C217.705 159.36 217.873 158.992 217.953 158.608ZM223.471 157.984V150.472H225.583V157.576C225.583 158.856 225.807 159.816 226.255 160.456C226.703 161.096 227.367 161.416 228.247 161.416C228.823 161.416 229.375 161.296 229.903 161.056C230.447 160.8 230.935 160.44 231.367 159.976C231.799 159.512 232.135 158.96 232.375 158.32V150.472H234.487V160.6C234.487 160.856 234.535 161.048 234.631 161.176C234.743 161.288 234.919 161.352 235.159 161.368V163C234.919 163.032 234.727 163.048 234.583 163.048C234.455 163.064 234.327 163.072 234.199 163.072C233.799 163.072 233.455 162.952 233.167 162.712C232.879 162.456 232.727 162.144 232.711 161.776L232.663 160.312C232.119 161.24 231.383 161.96 230.455 162.472C229.543 162.984 228.543 163.24 227.455 163.24C226.143 163.24 225.151 162.8 224.479 161.92C223.807 161.024 223.471 159.712 223.471 157.984ZM243.549 163.24C242.605 163.24 241.741 163.072 240.957 162.736C240.189 162.384 239.517 161.904 238.941 161.296C238.381 160.688 237.941 159.992 237.621 159.208C237.317 158.424 237.165 157.592 237.165 156.712C237.165 155.528 237.429 154.448 237.957 153.472C238.485 152.496 239.229 151.72 240.189 151.144C241.149 150.552 242.261 150.256 243.525 150.256C244.757 150.256 245.829 150.536 246.741 151.096C247.669 151.64 248.357 152.376 248.805 153.304L246.741 153.952C246.421 153.36 245.973 152.904 245.397 152.584C244.821 152.248 244.181 152.08 243.477 152.08C242.709 152.08 242.005 152.28 241.365 152.68C240.741 153.08 240.245 153.632 239.877 154.336C239.509 155.024 239.325 155.816 239.325 156.712C239.325 157.592 239.509 158.392 239.877 159.112C240.261 159.816 240.765 160.376 241.389 160.792C242.029 161.208 242.733 161.416 243.501 161.416C243.997 161.416 244.469 161.328 244.917 161.152C245.381 160.976 245.781 160.744 246.117 160.456C246.469 160.152 246.709 159.824 246.837 159.472L248.901 160.096C248.645 160.704 248.253 161.248 247.725 161.728C247.213 162.192 246.597 162.56 245.877 162.832C245.173 163.104 244.397 163.24 243.549 163.24ZM256.721 163.24C255.777 163.24 254.913 163.072 254.129 162.736C253.361 162.384 252.689 161.912 252.113 161.32C251.553 160.712 251.113 160.016 250.793 159.232C250.489 158.448 250.337 157.616 250.337 156.736C250.337 155.552 250.609 154.472 251.153 153.496C251.697 152.52 252.449 151.736 253.409 151.144C254.385 150.552 255.497 150.256 256.745 150.256C258.009 150.256 259.105 150.56 260.033 151.168C260.977 151.76 261.705 152.544 262.217 153.52C262.745 154.48 263.009 155.52 263.009 156.64C263.009 156.8 263.001 156.96 262.985 157.12C262.985 157.264 262.977 157.376 262.961 157.456H252.569C252.633 158.272 252.857 159 253.241 159.64C253.641 160.264 254.153 160.76 254.777 161.128C255.401 161.48 256.073 161.656 256.793 161.656C257.561 161.656 258.281 161.464 258.953 161.08C259.641 160.696 260.113 160.192 260.369 159.568L262.193 160.072C261.921 160.68 261.513 161.224 260.969 161.704C260.441 162.184 259.809 162.56 259.073 162.832C258.353 163.104 257.569 163.24 256.721 163.24ZM252.497 155.992H261.041C260.977 155.176 260.745 154.456 260.345 153.832C259.945 153.208 259.433 152.72 258.809 152.368C258.185 152.016 257.497 151.84 256.745 151.84C256.009 151.84 255.329 152.016 254.705 152.368C254.081 152.72 253.569 153.208 253.169 153.832C252.785 154.456 252.561 155.176 252.497 155.992ZM271.307 157.984V150.472H273.419V157.576C273.419 158.856 273.643 159.816 274.091 160.456C274.539 161.096 275.203 161.416 276.083 161.416C276.659 161.416 277.211 161.296 277.739 161.056C278.283 160.8 278.771 160.44 279.203 159.976C279.635 159.512 279.971 158.96 280.211 158.32V150.472H282.323V160.6C282.323 160.856 282.371 161.048 282.467 161.176C282.579 161.288 282.755 161.352 282.995 161.368V163C282.755 163.032 282.563 163.048 282.419 163.048C282.291 163.064 282.163 163.072 282.035 163.072C281.635 163.072 281.291 162.952 281.003 162.712C280.715 162.456 280.563 162.144 280.547 161.776L280.499 160.312C279.955 161.24 279.219 161.96 278.291 162.472C277.379 162.984 276.379 163.24 275.291 163.24C273.979 163.24 272.987 162.8 272.315 161.92C271.643 161.024 271.307 159.712 271.307 157.984ZM292.585 163.24C291.561 163.24 290.649 162.984 289.849 162.472C289.049 161.96 288.417 161.312 287.953 160.528V168.112H285.841V150.472H287.713V152.824C288.209 152.056 288.857 151.44 289.657 150.976C290.457 150.496 291.329 150.256 292.273 150.256C293.137 150.256 293.929 150.432 294.649 150.784C295.369 151.136 295.993 151.616 296.521 152.224C297.049 152.832 297.457 153.528 297.745 154.312C298.049 155.08 298.201 155.888 298.201 156.736C298.201 157.92 297.961 159.008 297.481 160C297.017 160.992 296.361 161.784 295.513 162.376C294.665 162.952 293.689 163.24 292.585 163.24ZM291.937 161.416C292.561 161.416 293.121 161.288 293.617 161.032C294.129 160.76 294.561 160.408 294.913 159.976C295.281 159.528 295.561 159.024 295.753 158.464C295.945 157.904 296.041 157.328 296.041 156.736C296.041 156.112 295.929 155.52 295.705 154.96C295.497 154.4 295.193 153.904 294.793 153.472C294.409 153.04 293.953 152.704 293.425 152.464C292.913 152.208 292.353 152.08 291.745 152.08C291.361 152.08 290.961 152.152 290.545 152.296C290.145 152.44 289.761 152.648 289.393 152.92C289.025 153.176 288.713 153.472 288.457 153.808C288.201 154.144 288.033 154.504 287.953 154.888V158.464C288.193 159.008 288.513 159.504 288.913 159.952C289.313 160.4 289.777 160.76 290.305 161.032C290.833 161.288 291.377 161.416 291.937 161.416ZM313.344 162.376C313.168 162.456 312.928 162.56 312.624 162.688C312.32 162.816 311.968 162.928 311.568 163.024C311.168 163.12 310.744 163.168 310.296 163.168C309.784 163.168 309.312 163.08 308.88 162.904C308.448 162.712 308.104 162.424 307.848 162.04C307.592 161.64 307.464 161.144 307.464 160.552V152.128H305.76V150.472H307.464V146.296H309.576V150.472H312.384V152.128H309.576V159.904C309.608 160.352 309.76 160.688 310.032 160.912C310.304 161.12 310.624 161.224 310.992 161.224C311.408 161.224 311.792 161.152 312.144 161.008C312.496 160.864 312.728 160.76 312.84 160.696L313.344 162.376ZM320.61 163.24C319.666 163.24 318.81 163.072 318.042 162.736C317.274 162.384 316.61 161.912 316.05 161.32C315.49 160.712 315.058 160.016 314.754 159.232C314.45 158.448 314.298 157.624 314.298 156.76C314.298 155.88 314.45 155.048 314.754 154.264C315.058 153.48 315.49 152.792 316.05 152.2C316.61 151.592 317.274 151.12 318.042 150.784C318.826 150.432 319.682 150.256 320.61 150.256C321.554 150.256 322.41 150.432 323.178 150.784C323.946 151.12 324.61 151.592 325.17 152.2C325.746 152.792 326.186 153.48 326.49 154.264C326.794 155.048 326.946 155.88 326.946 156.76C326.946 157.624 326.794 158.448 326.49 159.232C326.186 160.016 325.754 160.712 325.194 161.32C324.634 161.912 323.962 162.384 323.178 162.736C322.41 163.072 321.554 163.24 320.61 163.24ZM316.458 156.784C316.458 157.648 316.642 158.432 317.01 159.136C317.394 159.84 317.898 160.4 318.522 160.816C319.146 161.216 319.842 161.416 320.61 161.416C321.378 161.416 322.074 161.208 322.698 160.792C323.338 160.376 323.842 159.816 324.21 159.112C324.594 158.392 324.786 157.6 324.786 156.736C324.786 155.872 324.594 155.088 324.21 154.384C323.842 153.68 323.338 153.12 322.698 152.704C322.074 152.288 321.378 152.08 320.61 152.08C319.842 152.08 319.146 152.296 318.522 152.728C317.898 153.144 317.394 153.704 317.01 154.408C316.642 155.112 316.458 155.904 316.458 156.784Z" fill="#59B202"/>
<path d="M256.5 87.5L277 56.5H258L235 97H256L241.5 136L276.5 87.5H256.5Z" fill="#59B202"/>
<defs>
<filter id="filter0_dd_139_39172" x="0" y="0" width="524" height="520" filterUnits="userSpaceOnUse" color-interpolation-filters="sRGB">
<feFlood flood-opacity="0" result="BackgroundImageFix"/>
<feColorMatrix in="SourceAlpha" type="matrix" values="0 0 0 0 0 0 0 0 0 0 0 0 0 0 0 0 0 0 127 0" result="hardAlpha"/>
<feOffset dx="12" dy="4"/>
<feGaussianBlur stdDeviation="12"/>
<feComposite in2="hardAlpha" operator="out"/>
<feColorMatrix type="matrix" values="0 0 0 0 0 0 0 0 0 0 0 0 0 0 0 0 0 0 0.25 0"/>
<feBlend mode="normal" in2="BackgroundImageFix" result="effect1_dropShadow_139_39172"/>
<feColorMatrix in="SourceAlpha" type="matrix" values="0 0 0 0 0 0 0 0 0 0 0 0 0 0 0 0 0 0 127 0" result="hardAlpha"/>
<feOffset dy="12"/>
<feGaussianBlur stdDeviation="12"/>
<feComposite in2="hardAlpha" operator="out"/>
<feColorMatrix type="matrix" values="0 0 0 0 0 0 0 0 0 0 0 0 0 0 0 0 0 0 0.25 0"/>
<feBlend mode="normal" in2="effect1_dropShadow_139_39172" result="effect2_dropShadow_139_39172"/>
<feBlend mode="normal" in="SourceGraphic" in2="effect2_dropShadow_139_39172" result="shape"/>
</filter>
</defs>
</svg>
