<svg width="156" height="149" viewBox="0 0 156 149" fill="none" xmlns="http://www.w3.org/2000/svg">
<g clip-path="url(#clip0_342_3646)">
<path fill-rule="evenodd" clip-rule="evenodd" d="M52.4565 5.34584L40.0586 26.8099L65.7848 41.1968L77.9839 20.077L93.0293 46.1235L84.6399 50.9649L126.713 75.2457V26.6842L118.555 31.3928L103.51 5.34584C98.9011 -1.78218 55.1632 -1.78171 52.4565 5.34584ZM62.0235 6.93273C60.4434 7.24189 58.7585 7.58334 57.317 8.33568L47.8906 24.6556L63.6584 33.4734L77.9839 8.67243L100.822 48.2107L96.0494 50.9649L121.009 65.3687V36.5611L116.467 39.1824L98.8782 8.73258C97.208 7.73525 95.1037 7.34584 93.2047 6.99441C93.1111 6.97708 93.0182 6.95983 92.9253 6.94257C88.5732 6.13316 82.9551 5.70238 77.2698 5.70241C71.5761 5.70244 66.1019 6.1346 62.0235 6.93273Z" fill="#59B202"/>
<path fill-rule="evenodd" clip-rule="evenodd" d="M129.861 109.891L115.422 84.8926L139.747 68.082L155.387 95.1597C159.279 101.337 138.361 139.353 129.86 139.353H99.1402V148.427L57.0664 124.147L99.1402 99.866V109.891H129.861ZM122.992 86.5939L137.901 76.2908L150.156 97.5077C150.068 99.2991 149.442 101.095 148.856 102.772L148.849 102.793C147.445 106.817 145.092 111.832 142.304 116.769C139.512 121.709 136.419 126.331 133.626 129.636C133.572 129.699 133.518 129.762 133.464 129.826C132.293 131.214 130.991 132.756 129.392 133.651H93.4355V138.551L68.4763 124.147L93.4355 109.742V115.593H139.743L122.992 86.5939Z" fill="#59B202"/>
<path fill-rule="evenodd" clip-rule="evenodd" d="M26.1088 109.89H55.3588L55.1945 139.353H26.1079C17.608 139.353 -3.7856 102.287 0.581332 95.1591L17.1957 66.3946L8.57515 61.4194L50.6493 37.1387V85.7001L42.7232 81.1261L26.1088 109.89ZM26.5367 133.65H49.5212L49.6219 115.592H16.2275L40.635 73.3365L44.9442 75.8231V47.0156L19.9847 61.4196L24.9888 64.3075L5.70608 97.6914C5.65191 99.4787 6.28819 101.344 6.86057 103.021C6.88486 103.093 6.90904 103.164 6.93304 103.234C8.30308 107.258 10.6515 112.213 13.4606 117.078C16.2693 121.942 19.3962 126.47 22.2168 129.699C22.2753 129.766 22.3343 129.834 22.3936 129.902C23.5859 131.269 24.9185 132.797 26.5367 133.65Z" fill="#59B202"/>
<path d="M63.7852 63.0645V97.7156H90.1318V90.7854H70.7185V83.8551H88.7452V76.9249H70.7185V69.9947H90.1318V63.0645H63.7852Z" fill="#59B202"/>
</g>
<defs>
<clipPath id="clip0_342_3646">
<rect width="156" height="149" fill="white"/>
</clipPath>
</defs>
</svg>
