<svg width="118" height="53" viewBox="0 0 118 53" fill="none" xmlns="http://www.w3.org/2000/svg">
<rect x="0.5" y="0.5" width="117" height="52" rx="26" stroke="#438006"/>
<path d="M22.9746 25.0664H20.3086V34.5H18.6875V25.0664H16.793V24.2852L18.6875 23.748V23.0352C18.6875 22.1367 18.821 21.4076 19.0879 20.8477C19.3548 20.2812 19.7422 19.8646 20.25 19.5977C20.7578 19.3307 21.3763 19.1973 22.1055 19.1973C22.5156 19.1973 22.89 19.2331 23.2285 19.3047C23.5736 19.3763 23.8763 19.4577 24.1367 19.5488L23.7168 20.8281C23.4954 20.7565 23.2448 20.6914 22.9648 20.6328C22.6914 20.5677 22.4115 20.5352 22.125 20.5352C21.5065 20.5352 21.0475 20.737 20.748 21.1406C20.4551 21.5378 20.3086 22.1628 20.3086 23.0156V23.7969H22.9746V25.0664ZM29.8105 23.6016C30.0254 23.6016 30.25 23.6146 30.4844 23.6406C30.7188 23.6602 30.9271 23.6895 31.1094 23.7285L30.9043 25.2324C30.7285 25.1868 30.5332 25.151 30.3184 25.125C30.1035 25.099 29.9017 25.0859 29.7129 25.0859C29.2832 25.0859 28.8763 25.1738 28.4922 25.3496C28.1146 25.5189 27.7826 25.7663 27.4961 26.0918C27.2096 26.4108 26.985 26.7982 26.8223 27.2539C26.6595 27.7031 26.5781 28.2044 26.5781 28.7578V34.5H24.9473V23.7969H26.2949L26.4707 25.7695H26.5391C26.7604 25.3724 27.0273 25.0111 27.3398 24.6855C27.6523 24.3535 28.0137 24.0898 28.4238 23.8945C28.8405 23.6992 29.3027 23.6016 29.8105 23.6016ZM42.3594 29.1289C42.3594 30.0078 42.2454 30.7923 42.0176 31.4824C41.7897 32.1725 41.4609 32.7552 41.0312 33.2305C40.6016 33.7057 40.0807 34.0703 39.4688 34.3242C38.8633 34.5716 38.1764 34.6953 37.4082 34.6953C36.6921 34.6953 36.0345 34.5716 35.4355 34.3242C34.8431 34.0703 34.3288 33.7057 33.8926 33.2305C33.4629 32.7552 33.1276 32.1725 32.8867 31.4824C32.6523 30.7923 32.5352 30.0078 32.5352 29.1289C32.5352 27.957 32.7337 26.9609 33.1309 26.1406C33.528 25.3138 34.0944 24.6855 34.8301 24.2559C35.5723 23.8197 36.4544 23.6016 37.4766 23.6016C38.4531 23.6016 39.306 23.8197 40.0352 24.2559C40.7708 24.6921 41.3405 25.3236 41.7441 26.1504C42.1543 26.9707 42.3594 27.9635 42.3594 29.1289ZM34.2148 29.1289C34.2148 29.9883 34.3288 30.7337 34.5566 31.3652C34.7845 31.9967 35.1361 32.485 35.6113 32.8301C36.0866 33.1751 36.6986 33.3477 37.4473 33.3477C38.1895 33.3477 38.7982 33.1751 39.2734 32.8301C39.7552 32.485 40.11 31.9967 40.3379 31.3652C40.5658 30.7337 40.6797 29.9883 40.6797 29.1289C40.6797 28.276 40.5658 27.5404 40.3379 26.9219C40.11 26.2969 39.7585 25.8151 39.2832 25.4766C38.8079 25.138 38.1927 24.9688 37.4375 24.9688C36.3242 24.9688 35.5072 25.3366 34.9863 26.0723C34.472 26.8079 34.2148 27.8268 34.2148 29.1289ZM56.7832 23.6016C57.9616 23.6016 58.8503 23.9108 59.4492 24.5293C60.0482 25.1413 60.3477 26.1276 60.3477 27.4883V34.5H58.7461V27.5664C58.7461 26.7005 58.5573 26.0527 58.1797 25.623C57.8086 25.1868 57.2552 24.9688 56.5195 24.9688C55.4844 24.9688 54.7324 25.2682 54.2637 25.8672C53.7949 26.4661 53.5605 27.3483 53.5605 28.5137V34.5H51.9492V27.5664C51.9492 26.987 51.8646 26.5052 51.6953 26.1211C51.5326 25.737 51.2852 25.4505 50.9531 25.2617C50.6276 25.0664 50.2142 24.9688 49.7129 24.9688C49.0033 24.9688 48.4336 25.1152 48.0039 25.4082C47.5742 25.7012 47.2617 26.1374 47.0664 26.7168C46.8776 27.2897 46.7832 27.9961 46.7832 28.8359V34.5H45.1621V23.7969H46.4707L46.7148 25.3105H46.8027C47.0176 24.9395 47.2878 24.627 47.6133 24.373C47.9388 24.1191 48.3034 23.9271 48.707 23.7969C49.1107 23.6667 49.5404 23.6016 49.9961 23.6016C50.8099 23.6016 51.4902 23.7546 52.0371 24.0605C52.5905 24.36 52.9909 24.819 53.2383 25.4375H53.3262C53.6777 24.819 54.1595 24.36 54.7715 24.0605C55.3835 23.7546 56.054 23.6016 56.7832 23.6016ZM72.2227 35.6621V33.6113C71.474 33.5983 70.7578 33.5332 70.0742 33.416C69.3971 33.2988 68.8438 33.1458 68.4141 32.957V31.375C68.8633 31.5833 69.4395 31.7656 70.1426 31.9219C70.8457 32.0781 71.5391 32.1628 72.2227 32.1758V27.8789C71.3633 27.638 70.6504 27.3646 70.084 27.0586C69.5241 26.7461 69.1042 26.3652 68.8242 25.916C68.5443 25.4668 68.4043 24.9232 68.4043 24.2852C68.4043 23.6211 68.5605 23.0547 68.873 22.5859C69.1921 22.1107 69.638 21.7396 70.2109 21.4727C70.7839 21.2057 71.4544 21.0527 72.2227 21.0137V19.3242H73.4141V20.9941C74.1107 21.0137 74.7454 21.0918 75.3184 21.2285C75.8913 21.3587 76.4219 21.528 76.9102 21.7363L76.4023 23.0938C75.9596 22.918 75.4811 22.7682 74.9668 22.6445C74.4525 22.5208 73.9349 22.4362 73.4141 22.3906V26.6582C74.2865 26.9121 75.0156 27.1823 75.6016 27.4688C76.194 27.7552 76.64 28.11 76.9395 28.5332C77.2389 28.9564 77.3887 29.5033 77.3887 30.1738C77.3887 31.1243 77.0404 31.8926 76.3438 32.4785C75.6471 33.0579 74.6706 33.4095 73.4141 33.5332V35.6621H72.2227ZM73.4141 32.0879C74.2148 32.0098 74.8105 31.8177 75.2012 31.5117C75.5983 31.1992 75.7969 30.7891 75.7969 30.2812C75.7969 29.9167 75.7188 29.6172 75.5625 29.3828C75.4128 29.1484 75.1654 28.9466 74.8203 28.7773C74.4753 28.6016 74.0065 28.4355 73.4141 28.2793V32.0879ZM72.2227 26.248V22.4297C71.7344 22.4622 71.3242 22.5534 70.9922 22.7031C70.6602 22.8529 70.4095 23.0482 70.2402 23.2891C70.0775 23.5299 69.9961 23.8164 69.9961 24.1484C69.9961 24.5326 70.0677 24.8548 70.2109 25.1152C70.3607 25.3691 70.5983 25.5872 70.9238 25.7695C71.2559 25.9453 71.6888 26.1048 72.2227 26.248ZM88.9707 26.3066C88.9707 27.1725 88.9089 28.0156 88.7852 28.8359C88.668 29.6562 88.4629 30.4212 88.1699 31.1309C87.8835 31.8405 87.4928 32.4622 86.998 32.9961C86.5033 33.5299 85.8815 33.9499 85.1328 34.2559C84.3906 34.5553 83.502 34.7051 82.4668 34.7051C82.1868 34.7051 81.8678 34.6855 81.5098 34.6465C81.1517 34.6139 80.8587 34.5651 80.6309 34.5V33.0938C80.8717 33.1784 81.1549 33.2467 81.4805 33.2988C81.806 33.3444 82.125 33.3672 82.4375 33.3672C83.6549 33.3672 84.612 33.1068 85.3086 32.5859C86.0052 32.0586 86.5065 31.3457 86.8125 30.4473C87.1185 29.5423 87.291 28.5267 87.3301 27.4004H87.2129C87.0176 27.7129 86.7604 28.0026 86.4414 28.2695C86.1289 28.5299 85.748 28.7415 85.2988 28.9043C84.8496 29.0605 84.3255 29.1387 83.7266 29.1387C82.8997 29.1387 82.1771 28.9694 81.5586 28.6309C80.9466 28.2923 80.4681 27.8008 80.123 27.1562C79.7845 26.5117 79.6152 25.7337 79.6152 24.8223C79.6152 23.8392 79.8008 22.9896 80.1719 22.2734C80.5495 21.5508 81.0768 20.9941 81.7539 20.6035C82.431 20.2129 83.2285 20.0176 84.1465 20.0176C84.8496 20.0176 85.4941 20.151 86.0801 20.418C86.666 20.6849 87.1738 21.0853 87.6035 21.6191C88.0397 22.1465 88.375 22.8008 88.6094 23.582C88.8503 24.3633 88.9707 25.2715 88.9707 26.3066ZM84.1465 21.3945C83.2806 21.3945 82.5775 21.6777 82.0371 22.2441C81.5033 22.8105 81.2363 23.6634 81.2363 24.8027C81.2363 25.7467 81.4674 26.4922 81.9297 27.0391C82.3919 27.5859 83.1048 27.8594 84.0684 27.8594C84.7324 27.8594 85.3053 27.7259 85.7871 27.459C86.2754 27.1921 86.6497 26.8535 86.9102 26.4434C87.1771 26.0332 87.3105 25.6133 87.3105 25.1836C87.3105 24.7539 87.2454 24.3177 87.1152 23.875C86.9915 23.4323 86.7995 23.0254 86.5391 22.6543C86.2786 22.2767 85.9499 21.974 85.5527 21.7461C85.1556 21.5117 84.6868 21.3945 84.1465 21.3945ZM95.5527 25.7695C96.5228 25.7695 97.3659 25.9355 98.082 26.2676C98.7982 26.5931 99.3516 27.0684 99.7422 27.6934C100.139 28.3184 100.338 29.0768 100.338 29.9688C100.338 30.9453 100.126 31.7884 99.7031 32.498C99.2799 33.2012 98.6712 33.7448 97.877 34.1289C97.0827 34.5065 96.1322 34.6953 95.0254 34.6953C94.2832 34.6953 93.5931 34.6302 92.9551 34.5C92.3171 34.3698 91.7799 34.1745 91.3438 33.9141V32.3711C91.819 32.6576 92.3952 32.8854 93.0723 33.0547C93.7493 33.224 94.4069 33.3086 95.0449 33.3086C95.7676 33.3086 96.3991 33.1947 96.9395 32.9668C97.4863 32.7324 97.9095 32.3809 98.209 31.9121C98.515 31.4368 98.668 30.8411 98.668 30.125C98.668 29.1745 98.375 28.4421 97.7891 27.9277C97.2096 27.4069 96.2917 27.1465 95.0352 27.1465C94.6315 27.1465 94.1888 27.179 93.707 27.2441C93.2253 27.3092 92.8281 27.3809 92.5156 27.459L91.6953 26.9219L92.2422 20.2227H99.3418V21.707H93.6289L93.2676 26.0137C93.515 25.9616 93.834 25.9095 94.2246 25.8574C94.6152 25.7988 95.0579 25.7695 95.5527 25.7695Z" fill="#59B202"/>
</svg>
