<svg width="171" height="160" viewBox="0 0 171 160" fill="none" xmlns="http://www.w3.org/2000/svg">
<g clip-path="url(#clip0_342_3680)">
<path fill-rule="evenodd" clip-rule="evenodd" d="M17.9101 66.322C22.0471 66.3292 25.397 69.6902 25.397 73.8337V151.794H145.499V73.8337C145.499 69.685 148.858 66.322 152.999 66.322H156.731L85.434 8.54054L14.1444 66.3153L17.9101 66.322ZM170.062 72.2932C169.155 73.4165 167.624 73.8337 166.411 73.8337H152.999V155.581C152.999 157.655 151.406 159.306 149.335 159.306H21.647C19.576 159.306 17.897 157.625 17.897 155.55V73.8337L4.48495 73.8102C3.27279 73.8102 1.74202 73.393 0.834555 72.2697C-0.467692 70.6571 -0.218668 68.2929 1.3912 66.988L83.0152 0.837792C83.8935 0.125867 84.9953 -0.125013 86.0273 0.0572783C86.6858 0.14604 87.3278 0.412325 87.8813 0.861266L169.505 67.0115C171.116 68.3163 171.365 70.6806 170.062 72.2932Z" fill="#59B202"/>
<path d="M72.0154 86.514C71.3192 85.8162 70.1526 86.1873 70.109 87.1721C69.9241 91.3403 71.4205 95.5687 74.5981 98.7514C79.0573 103.218 85.574 104.368 91.0925 102.202L136.366 147.545L145.065 138.833L99.7925 93.4887C101.955 87.9615 100.807 81.4346 96.347 76.9681C92.9518 73.568 88.364 72.09 83.933 72.5339C82.979 72.6295 82.649 73.7712 83.327 74.45L89.1215 80.2538C89.2505 80.383 89.3465 80.5362 89.4073 80.703C89.48 80.902 89.501 81.1184 89.4643 81.3332L88.0115 89.832C87.9238 90.3473 87.521 90.7507 87.0065 90.8385L78.521 92.2936C78.3103 92.3296 78.098 92.3093 77.9023 92.2402C77.732 92.1794 77.5745 92.0817 77.4433 91.9503L72.0154 86.514Z" fill="#59B202"/>
<path d="M95.7653 42.8164H75.9825V53.9588C73.3923 54.7067 70.9238 55.7406 68.6126 57.0247L60.7527 49.1527L46.764 63.1633L54.6413 71.0531C53.4292 73.2551 52.4426 75.5991 51.7125 78.054H40.5V97.8677H51.4896V97.8549C52.2746 100.528 53.3654 103.16 54.6626 105.509L46.7935 113.39L60.7812 127.402L68.6502 119.521C70.9505 120.796 73.4068 121.823 75.9825 122.566V133.708H95.7653V122.566C95.8073 122.554 95.8485 122.542 95.8905 122.529L85.0568 111.679C72.5149 111.248 62.48 100.929 62.48 88.2624C62.48 75.3219 72.9539 64.8318 85.8743 64.8318C98.5643 64.8318 108.894 74.9518 109.258 87.5736L120.139 98.4716H131.248V78.6579H120.259C119.513 76.022 118.383 73.3644 117.086 71.0149L124.955 63.1347L110.967 49.1234L103.098 57.0037C100.798 55.7292 98.3415 54.7027 95.7653 53.9588V42.8164Z" fill="#59B202"/>
</g>
<defs>
<clipPath id="clip0_342_3680">
<rect width="171" height="160" fill="white"/>
</clipPath>
</defs>
</svg>
