<svg width="123" height="164" viewBox="0 0 123 164" fill="none" xmlns="http://www.w3.org/2000/svg">
<g clip-path="url(#clip0_342_3698)">
<path d="M70.6758 74.7127V77.2554H102.615C104.492 77.2554 106.013 75.738 106.013 73.8669C106.013 71.9959 104.492 70.4785 102.615 70.4785H83.1076C81.9225 72.3096 79.9504 73.6203 77.5923 73.8785L71.7461 74.5168C71.3818 74.5568 71.0251 74.6226 70.6758 74.7127Z" fill="#59B202"/>
<path d="M83.1055 56.9253H102.614C104.491 56.9253 106.012 55.4081 106.012 53.5369C106.012 51.6656 104.491 50.1484 102.614 50.1484H87.999L85.5016 52.4105C84.1812 53.607 83.3481 55.2116 83.1055 56.9253Z" fill="#59B202"/>
<path d="M83.4566 28.4624H116.205V157.223H27.862V140.34L21.0664 144.973V160.611C21.0664 162.482 22.5875 164 24.4642 164H119.602C121.479 164 123 162.482 123 160.611V25.074C123 23.2028 121.479 21.6855 119.602 21.6855H84.5962L83.6 26.4628C83.4607 27.1285 83.4145 27.8006 83.4566 28.4624Z" fill="#59B202"/>
<path d="M70.6758 117.917V111.141H102.615C104.492 111.141 106.013 112.658 106.013 114.529C106.013 116.4 104.492 117.917 102.615 117.917H70.6758Z" fill="#59B202"/>
<path d="M57.9315 138.248L48.5876 131.471H40.8735L36.7438 134.286C36.7119 134.472 36.6953 134.663 36.6953 134.859C36.6953 136.73 38.2164 138.248 40.0931 138.248H57.9315Z" fill="#59B202"/>
<path d="M102.615 97.5874H70.6758V90.8105H102.615C104.492 90.8105 106.013 92.3279 106.013 94.199C106.013 96.0701 104.492 97.5874 102.615 97.5874Z" fill="#59B202"/>
<path d="M80.1875 134.859C80.1875 132.988 81.7084 131.471 83.5853 131.471H102.613C104.49 131.471 106.011 132.988 106.011 134.859C106.011 136.73 104.49 138.248 102.613 138.248H83.5853C81.7084 138.248 80.1875 136.73 80.1875 134.859Z" fill="#59B202"/>
<path fill-rule="evenodd" clip-rule="evenodd" d="M64.5586 42.2505C64.5586 53.4788 55.4312 62.5811 44.1719 62.5811C32.9126 62.5811 23.7852 53.4788 23.7852 42.2505C23.7852 31.0223 32.9126 21.9199 44.1719 21.9199C55.4312 21.9199 64.5586 31.0223 64.5586 42.2505ZM49.6813 32.5811C50.7786 31.0629 52.9022 30.7194 54.4246 31.8137C55.9466 32.908 56.2913 35.0258 55.1941 36.5439L45 50.6463C44.7654 51.0639 44.4383 51.4381 44.0231 51.7363C42.5011 52.8309 40.3775 52.4871 39.2802 50.9692L33.2614 42.6431C32.1641 41.1249 32.5088 39.0072 34.0309 37.9128C35.5533 36.8186 37.6769 37.162 38.7742 38.6802L42.0233 43.1752L49.6813 32.5811Z" fill="#59B202"/>
<path fill-rule="evenodd" clip-rule="evenodd" d="M35.9947 0.919308C32.5662 -1.09504 28.143 0.326437 26.539 3.95812L24.2691 9.09739C23.2998 11.2921 21.2172 12.7934 18.8235 13.0231L13.2181 13.5609C9.25714 13.9409 6.51657 17.6837 7.35947 21.5619L8.55224 27.0502C9.06156 29.394 8.26166 31.8294 6.46043 33.4183L2.24259 37.139C-0.737934 39.7683 -0.749113 44.4027 2.2187 47.0462L6.41853 50.7871C8.21205 52.3847 9.00027 54.8238 8.47959 57.1651L7.26033 62.6477C6.39877 66.5219 9.12123 70.2774 13.0804 70.6766L18.6831 71.2411C21.0757 71.4823 23.151 72.9936 24.1097 75.1933L26.3548 80.3431C27.9412 83.9829 32.3575 85.425 35.7956 83.4272L40.6612 80.5999C42.739 79.3929 45.3087 79.399 47.3807 80.6162L52.2325 83.4665C55.661 85.4813 60.0841 84.0595 61.6882 80.4278L63.958 75.2889C64.9274 73.0939 67.01 71.5928 69.4039 71.363L75.0089 70.825C78.9701 70.4455 81.7107 66.7025 80.8674 62.8242L79.6748 57.3359C79.1658 54.9921 79.9656 52.5569 81.7665 50.9679L85.9845 47.2471C88.965 44.6178 88.9766 39.9835 86.0083 37.34L81.8086 33.599C80.0152 32.0015 79.2269 29.5624 79.7475 27.2211L80.9666 21.7385C81.8283 17.8643 79.106 14.1085 75.1469 13.7095L69.5439 13.1447C67.1515 12.9036 65.0762 11.3923 64.1174 9.19301L61.8724 4.04288C60.2859 0.403543 55.8697 -1.03914 52.4315 0.958743L47.566 3.78599C45.4882 4.99335 42.9184 4.98719 40.8465 3.76987L35.9947 0.919308ZM71.3529 42.2503C71.3529 57.2214 59.1833 69.3578 44.1709 69.3578C29.1585 69.3578 16.9886 57.2214 16.9886 42.2503C16.9886 27.2794 29.1585 15.1429 44.1709 15.1429C59.1833 15.1429 71.3529 27.2794 71.3529 42.2503Z" fill="#59B202"/>
<path d="M21.0664 141.538V80.6594C22.9904 81.6516 24.2123 83.6155 25.4084 85.5381C25.7216 86.0416 26.033 86.5424 26.3549 87.0222C28.2018 90.1321 32.3576 91.4265 35.7958 89.4287L40.6613 86.6014C42.7391 85.3938 45.3088 85.3999 47.3808 86.617L52.2326 89.468C55.6611 91.4821 60.0843 90.7387 61.6883 87.1069C62.087 86.5607 62.4703 85.965 62.8602 85.3585C64.0572 83.4969 65.3164 81.5384 67.2764 80.6445V141.538L44.8509 125.274L21.0664 141.538Z" fill="#59B202"/>
</g>
<defs>
<clipPath id="clip0_342_3698">
<rect width="123" height="164" fill="white"/>
</clipPath>
</defs>
</svg>
