<svg width="74" height="72" viewBox="0 0 74 72" fill="none" xmlns="http://www.w3.org/2000/svg">
<path opacity="0.25" d="M73 35.6776C73 54.7955 56.9169 70.3551 37 70.3551C17.0831 70.3551 1 54.7955 1 35.6776C1 16.5597 17.0831 1 37 1C56.9169 1 73 16.5597 73 35.6776Z" stroke="white" stroke-width="2"/>
<path d="M34.039 46.6077L34.0053 36.6228H29.6006V32.3436H34.0053V29.4908C34.0053 25.6406 36.4595 23.7852 39.9949 23.7852C41.6884 23.7852 43.1438 23.9076 43.568 23.9624V27.986L41.116 27.9871C39.1933 27.9871 38.821 28.8747 38.821 30.1772V32.3436H44.2831L42.8149 36.6228H38.821V46.6077H34.039Z" fill="white"/>
</svg>
