<svg width="74" height="72" viewBox="0 0 74 72" fill="none" xmlns="http://www.w3.org/2000/svg">
<path opacity="0.25" d="M73 36.033C73 55.1509 56.9169 70.7106 37 70.7106C17.0831 70.7106 1 55.1509 1 36.033C1 16.9151 17.0831 1.35547 37 1.35547C56.9169 1.35547 73 16.9151 73 36.033Z" stroke="white" stroke-width="2"/>
<path d="M42.5385 31.9776C43.2469 31.9776 43.8212 31.4238 43.8212 30.7407C43.8212 30.0577 43.2469 29.5039 42.5385 29.5039C41.8301 29.5039 41.2559 30.0577 41.2559 30.7407C41.2559 31.4238 41.8301 31.9776 42.5385 31.9776Z" fill="white"/>
<path fill-rule="evenodd" clip-rule="evenodd" d="M31.6562 36.0343C31.6562 38.8764 34.0532 41.1877 37.0007 41.1877C39.9482 41.1877 42.3451 38.8764 42.3451 36.0343C42.3451 33.1922 39.9482 30.8809 37.0007 30.8809C34.0532 30.8809 31.6562 33.1922 31.6562 36.0343ZM34.3285 36.0335C34.3285 34.6125 35.527 33.4568 37.0008 33.4568C38.4745 33.4568 39.673 34.6125 39.673 36.0335C39.673 37.4546 38.4745 38.6102 37.0008 38.6102C35.527 38.6102 34.3285 37.4546 34.3285 36.0335Z" fill="white"/>
<path fill-rule="evenodd" clip-rule="evenodd" d="M31.656 46.3403H42.3449C45.0919 46.3403 47.6893 43.8357 47.6893 41.1868V30.88C47.6893 28.2311 45.0919 25.7266 42.3449 25.7266H31.656C28.9089 25.7266 26.3115 28.2311 26.3115 30.88V41.1868C26.3115 43.8357 28.9089 46.3403 31.656 46.3403ZM28.9837 30.8792C28.9837 29.6746 30.4067 28.3025 31.6559 28.3025H42.3448C43.5941 28.3025 45.0171 29.6746 45.0171 30.8792V41.1861C45.0171 42.3907 43.5941 43.7628 42.3448 43.7628H31.6559C30.3826 43.7628 28.9837 42.4139 28.9837 41.1861V30.8792Z" fill="white"/>
</svg>
