<svg width="617" height="173" viewBox="0 0 617 173" fill="none" xmlns="http://www.w3.org/2000/svg">
<rect x="1" y="1" width="197" height="123" stroke="#59B202" stroke-width="2"/>
<rect x="71.5" y="123.5" width="56" height="7" stroke="#59B202"/>
<line x1="45" y1="130" x2="154" y2="130" stroke="#59B202" stroke-width="2"/>
<path fill-rule="evenodd" clip-rule="evenodd" d="M7.75299 7.03095C7.21785 7.1675 6.89474 7.71201 7.03129 8.24715L9.25654 16.9677C9.39309 17.5029 9.9376 17.826 10.4727 17.6894C11.0079 17.5529 11.331 17.0084 11.1944 16.4732L9.56611 10.0919L56.1647 37.7438L57.1648 36.0117L10.5867 8.37194L16.9681 6.74361C17.5032 6.60705 17.8263 6.06254 17.6898 5.5274C17.5532 4.99227 17.0087 4.66915 16.4736 4.8057L7.75299 7.03095ZM143.169 87.0474L142.169 88.7795L187.414 115.628L181.032 117.256C180.497 117.393 180.174 117.937 180.311 118.472C180.447 119.008 180.992 119.331 181.527 119.194L190.247 116.969C190.783 116.832 191.106 116.288 190.969 115.753L188.744 107.032C188.607 106.497 188.063 106.174 187.528 106.31C186.993 106.447 186.669 106.991 186.806 107.527L188.434 113.908L143.169 87.0474Z" fill="#59B202"/>
<path d="M61.625 69.4688C61.625 66.7188 61.8125 64.0312 62.1875 61.4062C62.5833 58.7812 63.2396 56.3438 64.1562 54.0938C65.0729 51.8229 66.3229 49.8333 67.9062 48.125C69.4896 46.4167 71.4583 45.0833 73.8125 44.125C76.1875 43.1458 79.0312 42.6562 82.3438 42.6562C83.2812 42.6562 84.2917 42.7083 85.375 42.8125C86.4583 42.8958 87.3542 43.0417 88.0625 43.25V47.7188C87.2917 47.4479 86.4062 47.25 85.4062 47.125C84.4271 47 83.4375 46.9375 82.4375 46.9375C78.5625 46.9375 75.5104 47.7812 73.2812 49.4688C71.0729 51.1562 69.4792 53.4479 68.5 56.3438C67.5208 59.2188 66.9583 62.4583 66.8125 66.0625H67.1562C67.8021 65.0208 68.625 64.0833 69.625 63.25C70.625 62.3958 71.8333 61.7188 73.25 61.2188C74.6875 60.7188 76.3542 60.4688 78.25 60.4688C80.9167 60.4688 83.2396 61.0104 85.2188 62.0938C87.2188 63.1771 88.7604 64.75 89.8438 66.8125C90.9479 68.875 91.5 71.375 91.5 74.3125C91.5 77.4583 90.9167 80.1771 89.75 82.4688C88.5833 84.7604 86.9167 86.5312 84.75 87.7812C82.6042 89.0104 80.0417 89.625 77.0625 89.625C74.8333 89.625 72.7812 89.1979 70.9062 88.3438C69.0312 87.4896 67.3958 86.2188 66 84.5312C64.625 82.8438 63.5521 80.75 62.7812 78.25C62.0104 75.7292 61.625 72.8021 61.625 69.4688ZM77 85.25C79.8333 85.25 82.1042 84.3438 83.8125 82.5312C85.5208 80.7188 86.375 77.9792 86.375 74.3125C86.375 71.3125 85.6146 68.9375 84.0938 67.1875C82.5729 65.4375 80.2812 64.5625 77.2188 64.5625C75.1354 64.5625 73.3229 65 71.7812 65.875C70.2396 66.7292 69.0417 67.8125 68.1875 69.125C67.3333 70.4375 66.9062 71.7708 66.9062 73.125C66.9062 74.5 67.1042 75.8958 67.5 77.3125C67.9167 78.7292 68.5417 80.0417 69.375 81.25C70.2083 82.4583 71.2604 83.4271 72.5312 84.1562C73.8021 84.8854 75.2917 85.25 77 85.25ZM112.219 61.0625C115.323 61.0625 118.021 61.5938 120.312 62.6562C122.604 63.6979 124.375 65.2188 125.625 67.2188C126.896 69.2188 127.531 71.6458 127.531 74.5C127.531 77.625 126.854 80.3229 125.5 82.5938C124.146 84.8438 122.198 86.5833 119.656 87.8125C117.115 89.0208 114.073 89.625 110.531 89.625C108.156 89.625 105.948 89.4167 103.906 89C101.865 88.5833 100.146 87.9583 98.75 87.125V82.1875C100.271 83.1042 102.115 83.8333 104.281 84.375C106.448 84.9167 108.552 85.1875 110.594 85.1875C112.906 85.1875 114.927 84.8229 116.656 84.0938C118.406 83.3438 119.76 82.2188 120.719 80.7188C121.698 79.1979 122.188 77.2917 122.188 75C122.188 71.9583 121.25 69.6146 119.375 67.9688C117.521 66.3021 114.583 65.4688 110.562 65.4688C109.271 65.4688 107.854 65.5729 106.312 65.7812C104.771 65.9896 103.5 66.2188 102.5 66.4688L99.875 64.75L101.625 43.3125H124.344V48.0625H106.062L104.906 61.8438C105.698 61.6771 106.719 61.5104 107.969 61.3438C109.219 61.1562 110.635 61.0625 112.219 61.0625ZM140.812 43.3125L141.281 44C140.906 45.5208 140.427 47.1562 139.844 48.9062C139.26 50.6354 138.625 52.3646 137.938 54.0938C137.25 55.8229 136.562 57.4479 135.875 58.9688H132.062C132.375 57.7812 132.688 56.5104 133 55.1562C133.333 53.8021 133.646 52.4271 133.938 51.0312C134.229 49.6354 134.49 48.2812 134.719 46.9688C134.969 45.6562 135.177 44.4375 135.344 43.3125H140.812ZM151.688 43.3125L152.156 44C151.781 45.5208 151.302 47.1562 150.719 48.9062C150.135 50.6354 149.5 52.3646 148.812 54.0938C148.125 55.8229 147.438 57.4479 146.75 58.9688H142.938C143.25 57.7812 143.562 56.5104 143.875 55.1562C144.208 53.8021 144.521 52.4271 144.812 51.0312C145.104 49.6354 145.365 48.2812 145.594 46.9688C145.844 45.6562 146.052 44.4375 146.219 43.3125H151.688Z" fill="#59B202"/>
<rect x="210" y="1" width="197" height="123" stroke="#59B202" stroke-width="2"/>
<rect x="280.5" y="123.5" width="56" height="7" stroke="#59B202"/>
<line x1="254" y1="130" x2="363" y2="130" stroke="#59B202" stroke-width="2"/>
<path fill-rule="evenodd" clip-rule="evenodd" d="M216.753 7.03095C216.218 7.1675 215.895 7.71201 216.031 8.24715L218.257 16.9677C218.393 17.5029 218.938 17.826 219.473 17.6894C220.008 17.5529 220.331 17.0084 220.194 16.4732L218.566 10.0919L264.427 37.3058L265.427 35.5736L219.587 8.37194L225.968 6.74361C226.503 6.60705 226.826 6.06254 226.69 5.5274C226.553 4.99227 226.009 4.66915 225.474 4.8057L216.753 7.03095ZM351.431 86.6093L350.431 88.3415L396.414 115.628L390.032 117.256C389.497 117.393 389.174 117.937 389.311 118.472C389.447 119.008 389.992 119.331 390.527 119.194L399.247 116.969C399.783 116.832 400.106 116.288 399.969 115.753L397.744 107.032C397.607 106.497 397.063 106.174 396.528 106.31C395.993 106.447 395.669 106.991 395.806 107.527L397.434 113.908L351.431 86.6093Z" fill="#59B202"/>
<path d="M276.062 89L294.812 48.0625H269.906V43.3125H300.375V47.3125L281.75 89H276.062ZM321.219 61.0625C324.323 61.0625 327.021 61.5938 329.312 62.6562C331.604 63.6979 333.375 65.2188 334.625 67.2188C335.896 69.2188 336.531 71.6458 336.531 74.5C336.531 77.625 335.854 80.3229 334.5 82.5938C333.146 84.8438 331.198 86.5833 328.656 87.8125C326.115 89.0208 323.073 89.625 319.531 89.625C317.156 89.625 314.948 89.4167 312.906 89C310.865 88.5833 309.146 87.9583 307.75 87.125V82.1875C309.271 83.1042 311.115 83.8333 313.281 84.375C315.448 84.9167 317.552 85.1875 319.594 85.1875C321.906 85.1875 323.927 84.8229 325.656 84.0938C327.406 83.3438 328.76 82.2188 329.719 80.7188C330.698 79.1979 331.188 77.2917 331.188 75C331.188 71.9583 330.25 69.6146 328.375 67.9688C326.521 66.3021 323.583 65.4688 319.562 65.4688C318.271 65.4688 316.854 65.5729 315.312 65.7812C313.771 65.9896 312.5 66.2188 311.5 66.4688L308.875 64.75L310.625 43.3125H333.344V48.0625H315.062L313.906 61.8438C314.698 61.6771 315.719 61.5104 316.969 61.3438C318.219 61.1562 319.635 61.0625 321.219 61.0625ZM349.812 43.3125L350.281 44C349.906 45.5208 349.427 47.1562 348.844 48.9062C348.26 50.6354 347.625 52.3646 346.938 54.0938C346.25 55.8229 345.562 57.4479 344.875 58.9688H341.062C341.375 57.7812 341.688 56.5104 342 55.1562C342.333 53.8021 342.646 52.4271 342.938 51.0312C343.229 49.6354 343.49 48.2812 343.719 46.9688C343.969 45.6562 344.177 44.4375 344.344 43.3125H349.812ZM360.688 43.3125L361.156 44C360.781 45.5208 360.302 47.1562 359.719 48.9062C359.135 50.6354 358.5 52.3646 357.812 54.0938C357.125 55.8229 356.438 57.4479 355.75 58.9688H351.938C352.25 57.7812 352.562 56.5104 352.875 55.1562C353.208 53.8021 353.521 52.4271 353.812 51.0312C354.104 49.6354 354.365 48.2812 354.594 46.9688C354.844 45.6562 355.052 44.4375 355.219 43.3125H360.688Z" fill="#59B202"/>
<rect x="419" y="1" width="197" height="123" stroke="#59B202" stroke-width="2"/>
<rect x="489.5" y="123.5" width="56" height="7" stroke="#59B202"/>
<line x1="463" y1="130" x2="572" y2="130" stroke="#59B202" stroke-width="2"/>
<path fill-rule="evenodd" clip-rule="evenodd" d="M425.753 7.03095C425.218 7.1675 424.895 7.71201 425.031 8.24715L427.257 16.9677C427.393 17.5029 427.938 17.826 428.473 17.6894C429.008 17.5529 429.331 17.0084 429.194 16.4732L427.566 10.0919L474.129 37.7223L475.129 35.9902L428.587 8.37194L434.968 6.74361C435.503 6.60705 435.826 6.06254 435.69 5.5274C435.553 4.99227 435.009 4.66915 434.474 4.8057L425.753 7.03095ZM561.133 87.0259L560.133 88.758L605.414 115.628L599.032 117.256C598.497 117.393 598.174 117.937 598.311 118.472C598.447 119.008 598.992 119.331 599.527 119.194L608.247 116.969C608.783 116.832 609.106 116.288 608.969 115.753L606.744 107.032C606.607 106.497 606.063 106.174 605.528 106.31C604.993 106.447 604.669 106.991 604.806 107.527L606.434 113.908L561.133 87.0259Z" fill="#59B202"/>
<path d="M494.25 42.6562C496.896 42.6562 499.24 43.0729 501.281 43.9062C503.323 44.7396 504.917 45.9688 506.062 47.5938C507.229 49.1979 507.812 51.1771 507.812 53.5312C507.812 55.3854 507.406 57.0104 506.594 58.4062C505.802 59.7812 504.729 60.9896 503.375 62.0312C502.021 63.0521 500.521 63.9688 498.875 64.7812C500.833 65.6771 502.594 66.6875 504.156 67.8125C505.74 68.9375 506.99 70.2604 507.906 71.7812C508.823 73.3021 509.281 75.1042 509.281 77.1875C509.281 79.75 508.656 81.9688 507.406 83.8438C506.177 85.6979 504.448 87.125 502.219 88.125C499.99 89.125 497.375 89.625 494.375 89.625C491.146 89.625 488.396 89.1458 486.125 88.1875C483.875 87.2083 482.156 85.8125 480.969 84C479.802 82.1667 479.219 79.9688 479.219 77.4062C479.219 75.3021 479.667 73.4792 480.562 71.9375C481.458 70.375 482.646 69.0312 484.125 67.9062C485.604 66.7812 487.219 65.8333 488.969 65.0625C487.448 64.2292 486.052 63.2812 484.781 62.2188C483.531 61.1562 482.531 59.9167 481.781 58.5C481.052 57.0625 480.688 55.3958 480.688 53.5C480.688 51.1875 481.271 49.2292 482.438 47.625C483.625 46 485.24 44.7708 487.281 43.9375C489.344 43.0833 491.667 42.6562 494.25 42.6562ZM484.312 77.4375C484.312 79.7708 485.135 81.6979 486.781 83.2188C488.427 84.7188 490.917 85.4688 494.25 85.4688C497.417 85.4688 499.865 84.7188 501.594 83.2188C503.323 81.6979 504.188 79.7083 504.188 77.25C504.188 75.7292 503.792 74.3958 503 73.25C502.208 72.0833 501.083 71.0417 499.625 70.125C498.167 69.2083 496.448 68.375 494.469 67.625L493.344 67.2188C491.427 68.0104 489.792 68.8958 488.438 69.875C487.104 70.8333 486.083 71.9271 485.375 73.1562C484.667 74.3854 484.312 75.8125 484.312 77.4375ZM494.188 46.9062C491.729 46.9062 489.719 47.5 488.156 48.6875C486.594 49.8542 485.812 51.5417 485.812 53.75C485.812 55.3333 486.188 56.6771 486.938 57.7812C487.708 58.8646 488.75 59.8021 490.062 60.5938C491.375 61.3646 492.844 62.0833 494.469 62.75C496.052 62.0833 497.458 61.3542 498.688 60.5625C499.917 59.75 500.885 58.7917 501.594 57.6875C502.302 56.5833 502.656 55.2604 502.656 53.7188C502.656 51.5104 501.875 49.8229 500.312 48.6562C498.771 47.4896 496.729 46.9062 494.188 46.9062ZM530.219 61.0625C533.323 61.0625 536.021 61.5938 538.312 62.6562C540.604 63.6979 542.375 65.2188 543.625 67.2188C544.896 69.2188 545.531 71.6458 545.531 74.5C545.531 77.625 544.854 80.3229 543.5 82.5938C542.146 84.8438 540.198 86.5833 537.656 87.8125C535.115 89.0208 532.073 89.625 528.531 89.625C526.156 89.625 523.948 89.4167 521.906 89C519.865 88.5833 518.146 87.9583 516.75 87.125V82.1875C518.271 83.1042 520.115 83.8333 522.281 84.375C524.448 84.9167 526.552 85.1875 528.594 85.1875C530.906 85.1875 532.927 84.8229 534.656 84.0938C536.406 83.3438 537.76 82.2188 538.719 80.7188C539.698 79.1979 540.188 77.2917 540.188 75C540.188 71.9583 539.25 69.6146 537.375 67.9688C535.521 66.3021 532.583 65.4688 528.562 65.4688C527.271 65.4688 525.854 65.5729 524.312 65.7812C522.771 65.9896 521.5 66.2188 520.5 66.4688L517.875 64.75L519.625 43.3125H542.344V48.0625H524.062L522.906 61.8438C523.698 61.6771 524.719 61.5104 525.969 61.3438C527.219 61.1562 528.635 61.0625 530.219 61.0625ZM558.812 43.3125L559.281 44C558.906 45.5208 558.427 47.1562 557.844 48.9062C557.26 50.6354 556.625 52.3646 555.938 54.0938C555.25 55.8229 554.562 57.4479 553.875 58.9688H550.062C550.375 57.7812 550.688 56.5104 551 55.1562C551.333 53.8021 551.646 52.4271 551.938 51.0312C552.229 49.6354 552.49 48.2812 552.719 46.9688C552.969 45.6562 553.177 44.4375 553.344 43.3125H558.812ZM569.688 43.3125L570.156 44C569.781 45.5208 569.302 47.1562 568.719 48.9062C568.135 50.6354 567.5 52.3646 566.812 54.0938C566.125 55.8229 565.438 57.4479 564.75 58.9688H560.938C561.25 57.7812 561.562 56.5104 561.875 55.1562C562.208 53.8021 562.521 52.4271 562.812 51.0312C563.104 49.6354 563.365 48.2812 563.594 46.9688C563.844 45.6562 564.052 44.4375 564.219 43.3125H569.688Z" fill="#59B202"/>
<path d="M54.5508 159.896C54.5508 159.037 54.6094 158.197 54.7266 157.377C54.8503 156.557 55.0553 155.795 55.3418 155.092C55.6283 154.382 56.0189 153.76 56.5137 153.227C57.0085 152.693 57.6237 152.276 58.3594 151.977C59.1016 151.671 59.9902 151.518 61.0254 151.518C61.3184 151.518 61.6341 151.534 61.9727 151.566C62.3112 151.592 62.5911 151.638 62.8125 151.703V153.1C62.5716 153.015 62.2949 152.953 61.9824 152.914C61.6764 152.875 61.3672 152.855 61.0547 152.855C59.8438 152.855 58.89 153.119 58.1934 153.646C57.5033 154.174 57.0052 154.89 56.6992 155.795C56.3932 156.693 56.2174 157.706 56.1719 158.832H56.2793C56.4811 158.507 56.7383 158.214 57.0508 157.953C57.3633 157.686 57.7409 157.475 58.1836 157.318C58.6328 157.162 59.1536 157.084 59.7461 157.084C60.5794 157.084 61.3053 157.253 61.9238 157.592C62.5488 157.93 63.0306 158.422 63.3691 159.066C63.7142 159.711 63.8867 160.492 63.8867 161.41C63.8867 162.393 63.7044 163.243 63.3398 163.959C62.9753 164.675 62.4544 165.229 61.7773 165.619C61.1068 166.003 60.306 166.195 59.375 166.195C58.6784 166.195 58.0371 166.062 57.4512 165.795C56.8652 165.528 56.3542 165.131 55.918 164.604C55.4883 164.076 55.153 163.422 54.9121 162.641C54.6712 161.853 54.5508 160.938 54.5508 159.896ZM59.3555 164.828C60.2409 164.828 60.9505 164.545 61.4844 163.979C62.0182 163.412 62.2852 162.556 62.2852 161.41C62.2852 160.473 62.0475 159.73 61.5723 159.184C61.097 158.637 60.3809 158.363 59.4238 158.363C58.7728 158.363 58.2064 158.5 57.7246 158.773C57.2428 159.04 56.8685 159.379 56.6016 159.789C56.3346 160.199 56.2012 160.616 56.2012 161.039C56.2012 161.469 56.263 161.905 56.3867 162.348C56.5169 162.79 56.7122 163.201 56.9727 163.578C57.2331 163.956 57.5618 164.258 57.959 164.486C58.3561 164.714 58.8216 164.828 59.3555 164.828ZM70.3613 157.27C71.3314 157.27 72.1745 157.436 72.8906 157.768C73.6068 158.093 74.1602 158.568 74.5508 159.193C74.9479 159.818 75.1465 160.577 75.1465 161.469C75.1465 162.445 74.9349 163.288 74.5117 163.998C74.0885 164.701 73.4798 165.245 72.6855 165.629C71.8913 166.007 70.9408 166.195 69.834 166.195C69.0918 166.195 68.4017 166.13 67.7637 166C67.1257 165.87 66.5885 165.674 66.1523 165.414V163.871C66.6276 164.158 67.2038 164.385 67.8809 164.555C68.5579 164.724 69.2155 164.809 69.8535 164.809C70.5762 164.809 71.2077 164.695 71.748 164.467C72.2949 164.232 72.7181 163.881 73.0176 163.412C73.3236 162.937 73.4766 162.341 73.4766 161.625C73.4766 160.674 73.1836 159.942 72.5977 159.428C72.0182 158.907 71.1003 158.646 69.8438 158.646C69.4401 158.646 68.9974 158.679 68.5156 158.744C68.0339 158.809 67.6367 158.881 67.3242 158.959L66.5039 158.422L67.0508 151.723H74.1504V153.207H68.4375L68.0762 157.514C68.3236 157.462 68.6426 157.41 69.0332 157.357C69.4238 157.299 69.8665 157.27 70.3613 157.27ZM83.457 166V151.723H85.1172V166H83.457ZM100.205 166H98.291L90.5078 154.008H90.4297C90.4492 154.327 90.472 154.691 90.498 155.102C90.5241 155.505 90.5436 155.938 90.5566 156.4C90.5762 156.856 90.5859 157.322 90.5859 157.797V166H89.043V151.723H90.9473L98.7012 163.676H98.7695C98.7565 163.448 98.7402 163.126 98.7207 162.709C98.7012 162.286 98.6816 161.833 98.6621 161.352C98.6491 160.863 98.6426 160.411 98.6426 159.994V151.723H100.205V166ZM110.205 152.982C109.417 152.982 108.708 153.119 108.076 153.393C107.451 153.66 106.917 154.05 106.475 154.564C106.038 155.072 105.703 155.688 105.469 156.41C105.234 157.133 105.117 157.947 105.117 158.852C105.117 160.049 105.303 161.091 105.674 161.977C106.051 162.855 106.611 163.536 107.354 164.018C108.102 164.499 109.036 164.74 110.156 164.74C110.794 164.74 111.393 164.688 111.953 164.584C112.52 164.473 113.07 164.337 113.604 164.174V165.619C113.083 165.814 112.536 165.958 111.963 166.049C111.39 166.146 110.71 166.195 109.922 166.195C108.47 166.195 107.256 165.896 106.279 165.297C105.309 164.691 104.58 163.839 104.092 162.738C103.61 161.638 103.369 160.339 103.369 158.842C103.369 157.761 103.519 156.775 103.818 155.883C104.124 154.984 104.567 154.21 105.146 153.559C105.732 152.908 106.449 152.406 107.295 152.055C108.148 151.697 109.124 151.518 110.225 151.518C110.947 151.518 111.644 151.589 112.314 151.732C112.985 151.876 113.59 152.081 114.131 152.348L113.467 153.754C113.011 153.546 112.51 153.367 111.963 153.217C111.423 153.061 110.837 152.982 110.205 152.982ZM127.52 166H125.859V159.271H118.359V166H116.699V151.723H118.359V157.807H125.859V151.723H127.52V166ZM139.395 166H131.445V151.723H139.395V153.188H133.105V157.807H139.033V159.252H133.105V164.535H139.395V166ZM150.615 162.201C150.615 163.048 150.404 163.77 149.98 164.369C149.564 164.962 148.978 165.414 148.223 165.727C147.467 166.039 146.579 166.195 145.557 166.195C145.016 166.195 144.505 166.169 144.023 166.117C143.542 166.065 143.099 165.99 142.695 165.893C142.292 165.795 141.937 165.674 141.631 165.531V163.939C142.119 164.141 142.715 164.33 143.418 164.506C144.121 164.675 144.857 164.76 145.625 164.76C146.341 164.76 146.947 164.665 147.441 164.477C147.936 164.281 148.311 164.005 148.564 163.646C148.825 163.282 148.955 162.846 148.955 162.338C148.955 161.85 148.848 161.443 148.633 161.117C148.418 160.785 148.06 160.486 147.559 160.219C147.064 159.945 146.387 159.656 145.527 159.35C144.922 159.135 144.388 158.9 143.926 158.646C143.464 158.386 143.076 158.093 142.764 157.768C142.451 157.442 142.214 157.064 142.051 156.635C141.895 156.205 141.816 155.714 141.816 155.16C141.816 154.398 142.008 153.747 142.393 153.207C142.783 152.66 143.32 152.243 144.004 151.957C144.694 151.664 145.485 151.518 146.377 151.518C147.139 151.518 147.842 151.589 148.486 151.732C149.137 151.876 149.733 152.068 150.273 152.309L149.756 153.734C149.242 153.52 148.695 153.34 148.115 153.197C147.542 153.054 146.95 152.982 146.338 152.982C145.726 152.982 145.208 153.074 144.785 153.256C144.368 153.432 144.049 153.682 143.828 154.008C143.607 154.333 143.496 154.721 143.496 155.17C143.496 155.671 143.6 156.088 143.809 156.42C144.023 156.752 144.362 157.048 144.824 157.309C145.293 157.562 145.911 157.829 146.68 158.109C147.52 158.415 148.232 158.741 148.818 159.086C149.404 159.424 149.85 159.841 150.156 160.336C150.462 160.824 150.615 161.446 150.615 162.201Z" fill="#59B202"/>
<path d="M262.25 166L268.109 153.207H260.326V151.723H269.848V152.973L264.027 166H262.25ZM276.361 157.27C277.331 157.27 278.174 157.436 278.891 157.768C279.607 158.093 280.16 158.568 280.551 159.193C280.948 159.818 281.146 160.577 281.146 161.469C281.146 162.445 280.935 163.288 280.512 163.998C280.089 164.701 279.48 165.245 278.686 165.629C277.891 166.007 276.941 166.195 275.834 166.195C275.092 166.195 274.402 166.13 273.764 166C273.126 165.87 272.589 165.674 272.152 165.414V163.871C272.628 164.158 273.204 164.385 273.881 164.555C274.558 164.724 275.215 164.809 275.854 164.809C276.576 164.809 277.208 164.695 277.748 164.467C278.295 164.232 278.718 163.881 279.018 163.412C279.324 162.937 279.477 162.341 279.477 161.625C279.477 160.674 279.184 159.942 278.598 159.428C278.018 158.907 277.1 158.646 275.844 158.646C275.44 158.646 274.997 158.679 274.516 158.744C274.034 158.809 273.637 158.881 273.324 158.959L272.504 158.422L273.051 151.723H280.15V153.207H274.438L274.076 157.514C274.324 157.462 274.643 157.41 275.033 157.357C275.424 157.299 275.867 157.27 276.361 157.27ZM289.457 166V151.723H291.117V166H289.457ZM306.205 166H304.291L296.508 154.008H296.43C296.449 154.327 296.472 154.691 296.498 155.102C296.524 155.505 296.544 155.938 296.557 156.4C296.576 156.856 296.586 157.322 296.586 157.797V166H295.043V151.723H296.947L304.701 163.676H304.77C304.757 163.448 304.74 163.126 304.721 162.709C304.701 162.286 304.682 161.833 304.662 161.352C304.649 160.863 304.643 160.411 304.643 159.994V151.723H306.205V166ZM316.205 152.982C315.417 152.982 314.708 153.119 314.076 153.393C313.451 153.66 312.917 154.05 312.475 154.564C312.038 155.072 311.703 155.688 311.469 156.41C311.234 157.133 311.117 157.947 311.117 158.852C311.117 160.049 311.303 161.091 311.674 161.977C312.051 162.855 312.611 163.536 313.354 164.018C314.102 164.499 315.036 164.74 316.156 164.74C316.794 164.74 317.393 164.688 317.953 164.584C318.52 164.473 319.07 164.337 319.604 164.174V165.619C319.083 165.814 318.536 165.958 317.963 166.049C317.39 166.146 316.71 166.195 315.922 166.195C314.47 166.195 313.256 165.896 312.279 165.297C311.309 164.691 310.58 163.839 310.092 162.738C309.61 161.638 309.369 160.339 309.369 158.842C309.369 157.761 309.519 156.775 309.818 155.883C310.124 154.984 310.567 154.21 311.146 153.559C311.732 152.908 312.449 152.406 313.295 152.055C314.148 151.697 315.124 151.518 316.225 151.518C316.947 151.518 317.644 151.589 318.314 151.732C318.985 151.876 319.59 152.081 320.131 152.348L319.467 153.754C319.011 153.546 318.51 153.367 317.963 153.217C317.423 153.061 316.837 152.982 316.205 152.982ZM333.52 166H331.859V159.271H324.359V166H322.699V151.723H324.359V157.807H331.859V151.723H333.52V166ZM345.395 166H337.445V151.723H345.395V153.188H339.105V157.807H345.033V159.252H339.105V164.535H345.395V166ZM356.615 162.201C356.615 163.048 356.404 163.77 355.98 164.369C355.564 164.962 354.978 165.414 354.223 165.727C353.467 166.039 352.579 166.195 351.557 166.195C351.016 166.195 350.505 166.169 350.023 166.117C349.542 166.065 349.099 165.99 348.695 165.893C348.292 165.795 347.937 165.674 347.631 165.531V163.939C348.119 164.141 348.715 164.33 349.418 164.506C350.121 164.675 350.857 164.76 351.625 164.76C352.341 164.76 352.947 164.665 353.441 164.477C353.936 164.281 354.311 164.005 354.564 163.646C354.825 163.282 354.955 162.846 354.955 162.338C354.955 161.85 354.848 161.443 354.633 161.117C354.418 160.785 354.06 160.486 353.559 160.219C353.064 159.945 352.387 159.656 351.527 159.35C350.922 159.135 350.388 158.9 349.926 158.646C349.464 158.386 349.076 158.093 348.764 157.768C348.451 157.442 348.214 157.064 348.051 156.635C347.895 156.205 347.816 155.714 347.816 155.16C347.816 154.398 348.008 153.747 348.393 153.207C348.783 152.66 349.32 152.243 350.004 151.957C350.694 151.664 351.485 151.518 352.377 151.518C353.139 151.518 353.842 151.589 354.486 151.732C355.137 151.876 355.733 152.068 356.273 152.309L355.756 153.734C355.242 153.52 354.695 153.34 354.115 153.197C353.542 153.054 352.95 152.982 352.338 152.982C351.726 152.982 351.208 153.074 350.785 153.256C350.368 153.432 350.049 153.682 349.828 154.008C349.607 154.333 349.496 154.721 349.496 155.17C349.496 155.671 349.6 156.088 349.809 156.42C350.023 156.752 350.362 157.048 350.824 157.309C351.293 157.562 351.911 157.829 352.68 158.109C353.52 158.415 354.232 158.741 354.818 159.086C355.404 159.424 355.85 159.841 356.156 160.336C356.462 160.824 356.615 161.446 356.615 162.201Z" fill="#59B202"/>
<path d="M471.121 151.518C471.948 151.518 472.68 151.648 473.318 151.908C473.956 152.169 474.454 152.553 474.812 153.061C475.177 153.562 475.359 154.18 475.359 154.916C475.359 155.495 475.232 156.003 474.979 156.439C474.731 156.869 474.396 157.247 473.973 157.572C473.549 157.891 473.081 158.178 472.566 158.432C473.178 158.712 473.729 159.027 474.217 159.379C474.712 159.73 475.102 160.144 475.389 160.619C475.675 161.094 475.818 161.658 475.818 162.309C475.818 163.109 475.623 163.803 475.232 164.389C474.848 164.968 474.308 165.414 473.611 165.727C472.915 166.039 472.098 166.195 471.16 166.195C470.151 166.195 469.292 166.046 468.582 165.746C467.879 165.44 467.342 165.004 466.971 164.438C466.606 163.865 466.424 163.178 466.424 162.377C466.424 161.719 466.564 161.15 466.844 160.668C467.124 160.18 467.495 159.76 467.957 159.408C468.419 159.057 468.924 158.76 469.471 158.52C468.995 158.259 468.559 157.963 468.162 157.631C467.771 157.299 467.459 156.911 467.225 156.469C466.997 156.02 466.883 155.499 466.883 154.906C466.883 154.184 467.065 153.572 467.43 153.07C467.801 152.562 468.305 152.178 468.943 151.918C469.588 151.651 470.314 151.518 471.121 151.518ZM468.016 162.387C468.016 163.116 468.273 163.718 468.787 164.193C469.301 164.662 470.079 164.896 471.121 164.896C472.111 164.896 472.876 164.662 473.416 164.193C473.956 163.718 474.227 163.096 474.227 162.328C474.227 161.853 474.103 161.436 473.855 161.078C473.608 160.714 473.257 160.388 472.801 160.102C472.345 159.815 471.808 159.555 471.189 159.32L470.838 159.193C470.239 159.441 469.728 159.717 469.305 160.023C468.888 160.323 468.569 160.665 468.348 161.049C468.126 161.433 468.016 161.879 468.016 162.387ZM471.102 152.846C470.333 152.846 469.705 153.031 469.217 153.402C468.729 153.767 468.484 154.294 468.484 154.984C468.484 155.479 468.602 155.899 468.836 156.244C469.077 156.583 469.402 156.876 469.812 157.123C470.223 157.364 470.682 157.589 471.189 157.797C471.684 157.589 472.124 157.361 472.508 157.113C472.892 156.859 473.195 156.56 473.416 156.215C473.637 155.87 473.748 155.456 473.748 154.975C473.748 154.285 473.504 153.757 473.016 153.393C472.534 153.028 471.896 152.846 471.102 152.846ZM482.361 157.27C483.331 157.27 484.174 157.436 484.891 157.768C485.607 158.093 486.16 158.568 486.551 159.193C486.948 159.818 487.146 160.577 487.146 161.469C487.146 162.445 486.935 163.288 486.512 163.998C486.089 164.701 485.48 165.245 484.686 165.629C483.891 166.007 482.941 166.195 481.834 166.195C481.092 166.195 480.402 166.13 479.764 166C479.126 165.87 478.589 165.674 478.152 165.414V163.871C478.628 164.158 479.204 164.385 479.881 164.555C480.558 164.724 481.215 164.809 481.854 164.809C482.576 164.809 483.208 164.695 483.748 164.467C484.295 164.232 484.718 163.881 485.018 163.412C485.324 162.937 485.477 162.341 485.477 161.625C485.477 160.674 485.184 159.942 484.598 159.428C484.018 158.907 483.1 158.646 481.844 158.646C481.44 158.646 480.997 158.679 480.516 158.744C480.034 158.809 479.637 158.881 479.324 158.959L478.504 158.422L479.051 151.723H486.15V153.207H480.438L480.076 157.514C480.324 157.462 480.643 157.41 481.033 157.357C481.424 157.299 481.867 157.27 482.361 157.27ZM495.457 166V151.723H497.117V166H495.457ZM512.205 166H510.291L502.508 154.008H502.43C502.449 154.327 502.472 154.691 502.498 155.102C502.524 155.505 502.544 155.938 502.557 156.4C502.576 156.856 502.586 157.322 502.586 157.797V166H501.043V151.723H502.947L510.701 163.676H510.77C510.757 163.448 510.74 163.126 510.721 162.709C510.701 162.286 510.682 161.833 510.662 161.352C510.649 160.863 510.643 160.411 510.643 159.994V151.723H512.205V166ZM522.205 152.982C521.417 152.982 520.708 153.119 520.076 153.393C519.451 153.66 518.917 154.05 518.475 154.564C518.038 155.072 517.703 155.688 517.469 156.41C517.234 157.133 517.117 157.947 517.117 158.852C517.117 160.049 517.303 161.091 517.674 161.977C518.051 162.855 518.611 163.536 519.354 164.018C520.102 164.499 521.036 164.74 522.156 164.74C522.794 164.74 523.393 164.688 523.953 164.584C524.52 164.473 525.07 164.337 525.604 164.174V165.619C525.083 165.814 524.536 165.958 523.963 166.049C523.39 166.146 522.71 166.195 521.922 166.195C520.47 166.195 519.256 165.896 518.279 165.297C517.309 164.691 516.58 163.839 516.092 162.738C515.61 161.638 515.369 160.339 515.369 158.842C515.369 157.761 515.519 156.775 515.818 155.883C516.124 154.984 516.567 154.21 517.146 153.559C517.732 152.908 518.449 152.406 519.295 152.055C520.148 151.697 521.124 151.518 522.225 151.518C522.947 151.518 523.644 151.589 524.314 151.732C524.985 151.876 525.59 152.081 526.131 152.348L525.467 153.754C525.011 153.546 524.51 153.367 523.963 153.217C523.423 153.061 522.837 152.982 522.205 152.982ZM539.52 166H537.859V159.271H530.359V166H528.699V151.723H530.359V157.807H537.859V151.723H539.52V166ZM551.395 166H543.445V151.723H551.395V153.188H545.105V157.807H551.033V159.252H545.105V164.535H551.395V166ZM562.615 162.201C562.615 163.048 562.404 163.77 561.98 164.369C561.564 164.962 560.978 165.414 560.223 165.727C559.467 166.039 558.579 166.195 557.557 166.195C557.016 166.195 556.505 166.169 556.023 166.117C555.542 166.065 555.099 165.99 554.695 165.893C554.292 165.795 553.937 165.674 553.631 165.531V163.939C554.119 164.141 554.715 164.33 555.418 164.506C556.121 164.675 556.857 164.76 557.625 164.76C558.341 164.76 558.947 164.665 559.441 164.477C559.936 164.281 560.311 164.005 560.564 163.646C560.825 163.282 560.955 162.846 560.955 162.338C560.955 161.85 560.848 161.443 560.633 161.117C560.418 160.785 560.06 160.486 559.559 160.219C559.064 159.945 558.387 159.656 557.527 159.35C556.922 159.135 556.388 158.9 555.926 158.646C555.464 158.386 555.076 158.093 554.764 157.768C554.451 157.442 554.214 157.064 554.051 156.635C553.895 156.205 553.816 155.714 553.816 155.16C553.816 154.398 554.008 153.747 554.393 153.207C554.783 152.66 555.32 152.243 556.004 151.957C556.694 151.664 557.485 151.518 558.377 151.518C559.139 151.518 559.842 151.589 560.486 151.732C561.137 151.876 561.733 152.068 562.273 152.309L561.756 153.734C561.242 153.52 560.695 153.34 560.115 153.197C559.542 153.054 558.95 152.982 558.338 152.982C557.726 152.982 557.208 153.074 556.785 153.256C556.368 153.432 556.049 153.682 555.828 154.008C555.607 154.333 555.496 154.721 555.496 155.17C555.496 155.671 555.6 156.088 555.809 156.42C556.023 156.752 556.362 157.048 556.824 157.309C557.293 157.562 557.911 157.829 558.68 158.109C559.52 158.415 560.232 158.741 560.818 159.086C561.404 159.424 561.85 159.841 562.156 160.336C562.462 160.824 562.615 161.446 562.615 162.201Z" fill="#59B202"/>
</svg>
