<svg width="198" height="166" viewBox="0 0 198 166" fill="none" xmlns="http://www.w3.org/2000/svg">
<g clip-path="url(#clip0_108_7618)">
<path fill-rule="evenodd" clip-rule="evenodd" d="M10.1762 15.3164C8.42 15.3164 6.99609 16.7464 6.99609 18.5105V100.919C6.99609 102.682 8.42 104.113 10.1762 104.113H16.5363C18.2925 104.113 19.7164 102.682 19.7164 100.919V18.5105C19.7164 16.7464 18.2925 15.3164 16.5363 15.3164H10.1762ZM13.3562 33.2034C15.1124 33.2034 16.5363 31.7734 16.5363 30.0093C16.5363 28.2451 15.1124 26.8151 13.3562 26.8151C11.6001 26.8151 10.1762 28.2451 10.1762 30.0093C10.1762 31.7734 11.6001 33.2034 13.3562 33.2034ZM16.5363 39.5917C16.5363 41.3557 15.1124 42.7857 13.3562 42.7857C11.6001 42.7857 10.1762 41.3557 10.1762 39.5917C10.1762 37.8277 11.6001 36.3975 13.3562 36.3975C15.1124 36.3975 16.5363 37.8277 16.5363 39.5917Z" fill="#59B202"/>
<path fill-rule="evenodd" clip-rule="evenodd" d="M146.283 18.5105C146.283 16.7464 147.707 15.3164 149.463 15.3164H155.823C157.58 15.3164 159.004 16.7464 159.004 18.5105V100.919C159.004 102.682 157.58 104.113 155.823 104.113H149.463C147.707 104.113 146.283 102.682 146.283 100.919V18.5105ZM155.823 30.0093C155.823 31.7734 154.4 33.2034 152.643 33.2034C150.887 33.2034 149.463 31.7734 149.463 30.0093C149.463 28.2451 150.887 26.8151 152.643 26.8151C154.4 26.8151 155.823 28.2451 155.823 30.0093ZM152.643 42.7857C154.4 42.7857 155.823 41.3557 155.823 39.5917C155.823 37.8277 154.4 36.3975 152.643 36.3975C150.887 36.3975 149.463 37.8277 149.463 39.5917C149.463 41.3557 150.887 42.7857 152.643 42.7857Z" fill="#59B202"/>
<path d="M13.3559 140.266C15.112 140.266 16.5359 138.846 16.5359 137.095C16.5359 135.344 15.112 133.924 13.3559 133.924C11.5997 133.924 10.1758 135.344 10.1758 137.095C10.1758 138.846 11.5997 140.266 13.3559 140.266Z" fill="#59B202"/>
<path fill-rule="evenodd" clip-rule="evenodd" d="M0 113.626C0 111.875 1.42389 110.455 3.18008 110.455H24.1686C25.9247 110.455 27.3487 111.875 27.3487 113.626V148.511C27.3487 150.262 25.9247 151.682 24.1686 151.682H3.18008C1.42389 151.682 0 150.262 0 148.511V113.626ZM13.3563 146.608C18.6252 146.608 22.8966 142.348 22.8966 137.094C22.8966 131.84 18.6252 127.58 13.3563 127.58C8.08744 127.58 3.81609 131.84 3.81609 137.094C3.81609 142.348 8.08744 146.608 13.3563 146.608ZM13.3563 124.409C15.1125 124.409 16.5364 122.989 16.5364 121.237C16.5364 119.486 15.1125 118.066 13.3563 118.066C11.6002 118.066 10.1762 119.486 10.1762 121.237C10.1762 122.989 11.6002 124.409 13.3563 124.409Z" fill="#59B202"/>
<path d="M155.188 137.095C155.188 138.846 153.765 140.266 152.008 140.266C150.252 140.266 148.828 138.846 148.828 137.095C148.828 135.344 150.252 133.924 152.008 133.924C153.765 133.924 155.188 135.344 155.188 137.095Z" fill="#59B202"/>
<path fill-rule="evenodd" clip-rule="evenodd" d="M141.83 110.455C140.074 110.455 138.65 111.875 138.65 113.626V148.511C138.65 150.262 140.074 151.682 141.83 151.682H162.819C164.576 151.682 165.999 150.262 165.999 148.511V113.626C165.999 111.875 164.576 110.455 162.819 110.455H141.83ZM161.547 137.094C161.547 142.348 157.275 146.608 152.007 146.608C146.738 146.608 142.466 142.348 142.466 137.094C142.466 131.84 146.738 127.58 152.007 127.58C157.275 127.58 161.547 131.84 161.547 137.094ZM155.187 121.237C155.187 122.989 153.763 124.409 152.007 124.409C150.25 124.409 148.827 122.989 148.827 121.237C148.827 119.486 150.25 118.066 152.007 118.066C153.763 118.066 155.187 119.486 155.187 121.237Z" fill="#59B202"/>
<path fill-rule="evenodd" clip-rule="evenodd" d="M78.8662 51.153C80.4111 49.9958 81.4096 48.1537 81.4096 46.0789C81.4096 42.576 78.5615 39.7363 75.0494 39.7363C71.5367 39.7363 68.6893 42.576 68.6893 46.0789C68.6893 48.1537 69.6885 49.9958 71.2327 51.153H69.9613C68.2053 51.153 66.7812 52.5728 66.7812 54.3243V67.0095C66.7812 68.761 68.2053 70.1808 69.9613 70.1808H95.4019C97.1586 70.1808 98.582 68.761 98.582 67.0095V65.566L102.189 67.5763C104.295 68.7505 106.895 67.2478 106.92 64.841L107.003 56.8483C107.028 54.4415 104.461 52.8852 102.331 54.0153L98.582 56.0035V54.3243C98.582 52.5728 97.1586 51.153 95.4019 51.153H93.4945C95.0394 49.9958 96.038 48.1537 96.038 46.0789C96.038 42.576 93.1899 39.7363 89.6778 39.7363C86.1657 39.7363 83.3176 42.576 83.3176 46.0789C83.3176 48.1537 84.3162 49.9958 85.8611 51.153H78.8662ZM73.1414 57.4956H92.2219V63.8382H73.1414V57.4956Z" fill="#59B202"/>
<path fill-rule="evenodd" clip-rule="evenodd" d="M26.0762 15.6348V94.9172C26.0762 96.6684 27.5001 98.0885 29.2562 98.0885H136.743C138.5 98.0885 139.923 96.6684 139.923 94.9172V15.6348H26.0762ZM133.563 21.9774V91.7459H32.4363V21.9774H133.563Z" fill="#59B202"/>
<path fill-rule="evenodd" clip-rule="evenodd" d="M55.9702 106.968C55.9702 103.465 53.1227 101.26 49.6101 101.26C46.0974 101.26 43.2499 103.465 43.2499 106.968H40.7059C37.1932 106.968 34.3457 109.808 34.3457 113.311V143.121C34.3457 143.471 34.6305 143.755 34.9817 143.755H64.8744C65.2255 143.755 65.5105 143.471 65.5105 143.121V113.311C65.5105 109.808 62.663 106.968 59.1503 106.968H55.9702ZM40.7059 113.311V137.413H59.1503V113.311H40.7059Z" fill="#59B202"/>
<path fill-rule="evenodd" clip-rule="evenodd" d="M92.2226 106.968H89.6785C89.6785 103.465 86.8311 101.26 83.3184 101.26C79.8056 101.26 76.9582 103.465 76.9582 106.968H73.7781C70.2654 106.968 67.418 109.808 67.418 113.311V143.121C67.418 143.471 67.7029 143.755 68.054 143.755H97.9467C98.2984 143.755 98.5827 143.471 98.5827 143.121V113.311C98.5827 109.808 95.7353 106.968 92.2226 106.968ZM92.2226 113.311H73.7781V137.413H92.2226V113.311Z" fill="#59B202"/>
<path fill-rule="evenodd" clip-rule="evenodd" d="M122.751 106.968H125.295C128.808 106.968 131.655 109.808 131.655 113.311V143.121C131.655 143.471 131.371 143.755 131.019 143.755H101.126C100.775 143.755 100.49 143.471 100.49 143.121V113.311C100.49 109.808 103.338 106.968 106.85 106.968H110.03C110.03 103.465 112.878 101.26 116.391 101.26C119.903 101.26 122.751 103.465 122.751 106.968ZM125.295 113.311V137.413H106.85V113.311H125.295Z" fill="#59B202"/>
<path d="M34.3457 148.829C34.3457 147.078 35.7696 145.658 37.5258 145.658H128.476C130.233 145.658 131.656 147.078 131.656 148.829C131.656 150.581 130.233 152.001 128.476 152.001H37.5258C35.7696 152.001 34.3457 150.581 34.3457 148.829Z" fill="#59B202"/>
</g>
<defs>
<clipPath id="clip0_108_7618">
<rect width="166" height="137" fill="white" transform="translate(0 15)"/>
</clipPath>
</defs>
</svg>
