<svg width="198" height="166" viewBox="0 0 198 166" fill="none" xmlns="http://www.w3.org/2000/svg">
<g clip-path="url(#clip0_108_7634)">
<path d="M120.197 29.5135C118.441 29.5135 117.018 28.0915 117.018 26.3378C117.018 24.584 118.441 23.1621 120.197 23.1621C121.954 23.1621 123.377 24.584 123.377 26.3378C123.377 28.0915 121.954 29.5135 120.197 29.5135Z" fill="#59B202"/>
<path fill-rule="evenodd" clip-rule="evenodd" d="M141.82 13C143.577 13 145 14.4219 145 16.1757V37.1351C145 38.8889 143.577 40.3108 141.82 40.3108H108.75C106.994 40.3108 105.57 38.8889 105.57 37.1351V16.1757C105.57 14.4219 106.994 13 108.75 13H141.82ZM110.658 26.3378C110.658 31.5994 114.929 35.8649 120.198 35.8649C125.466 35.8649 129.737 31.5994 129.737 26.3378C129.737 21.0763 125.466 16.8108 120.198 16.8108C114.929 16.8108 110.658 21.0763 110.658 26.3378ZM132.917 26.3378C132.917 28.0916 134.34 29.5135 136.097 29.5135C137.853 29.5135 139.276 28.0916 139.276 26.3378C139.276 24.5841 137.853 23.1622 136.097 23.1622C134.34 23.1622 132.917 24.5841 132.917 26.3378Z" fill="#59B202"/>
<path fill-rule="evenodd" clip-rule="evenodd" d="M3.49818 13.6348C1.74183 13.6348 0.318359 15.0668 0.318359 16.8332V86.6524C0.318359 88.4187 1.74183 89.851 3.49818 89.851H9.85783C11.6142 89.851 13.0377 88.4187 13.0377 86.6524V16.8332C13.0377 15.0668 11.6142 13.6348 9.85783 13.6348H3.49818ZM6.67801 27.0183C8.43435 27.0183 9.85783 25.5864 9.85783 23.8199C9.85783 22.0532 8.43435 20.6213 6.67801 20.6213C4.92165 20.6213 3.49818 22.0532 3.49818 23.8199C3.49818 25.5864 4.92165 27.0183 6.67801 27.0183ZM9.85783 49.8375C9.85783 51.6039 8.43435 53.0359 6.67801 53.0359C4.92165 53.0359 3.49818 51.6039 3.49818 49.8375C3.49818 48.071 4.92165 46.6389 6.67801 46.6389C8.43435 46.6389 9.85783 48.071 9.85783 49.8375ZM6.67801 39.6753C8.43435 39.6753 9.85783 38.2536 9.85783 36.4996C9.85783 34.7457 8.43435 33.324 6.67801 33.324C4.92165 33.324 3.49818 34.7457 3.49818 36.4996C3.49818 38.2536 4.92165 39.6753 6.67801 39.6753Z" fill="#59B202"/>
<path d="M79.4962 142.25C81.2528 142.25 82.6761 140.828 82.6761 139.074C82.6761 137.321 81.2528 135.898 79.4962 135.898C77.7397 135.898 76.3164 137.321 76.3164 139.074C76.3164 140.828 77.7397 142.25 79.4962 142.25Z" fill="#59B202"/>
<path fill-rule="evenodd" clip-rule="evenodd" d="M69.3204 99.0605C67.5639 99.0605 66.1406 100.483 66.1406 102.236V150.506C66.1406 152.26 67.5639 153.682 69.3204 153.682H90.3073C92.0638 153.682 93.4871 152.26 93.4871 150.506V102.236C93.4871 100.483 92.0638 99.0605 90.3073 99.0605H69.3204ZM89.0354 139.074C89.0354 144.336 84.7642 148.601 79.4959 148.601C74.2276 148.601 69.9564 144.336 69.9564 139.074C69.9564 133.813 74.2276 129.547 79.4959 129.547C84.7642 129.547 89.0354 133.813 89.0354 139.074ZM82.6757 108.588C82.6757 110.341 81.2524 111.763 79.4959 111.763C77.7394 111.763 76.3161 110.341 76.3161 108.588C76.3161 106.834 77.7394 105.412 79.4959 105.412C81.2524 105.412 82.6757 106.834 82.6757 108.588ZM79.4959 123.831C81.2524 123.831 82.6757 122.409 82.6757 120.655C82.6757 118.902 81.2524 117.479 79.4959 117.479C77.7394 117.479 76.3161 118.902 76.3161 120.655C76.3161 122.409 77.7394 123.831 79.4959 123.831Z" fill="#59B202"/>
<path d="M42.6096 75.8788C42.6096 77.6324 41.1862 79.0545 39.4298 79.0545C37.6735 79.0545 36.25 77.6324 36.25 75.8788C36.25 74.1249 37.6735 72.7031 39.4298 72.7031C41.1862 72.7031 42.6096 74.1249 42.6096 75.8788Z" fill="#59B202"/>
<path fill-rule="evenodd" clip-rule="evenodd" d="M29.254 35.8652C27.4977 35.8652 26.0742 37.287 26.0742 39.0409V87.3112C26.0742 89.0648 27.4977 90.4869 29.254 90.4869H50.2409C51.9972 90.4869 53.4207 89.0648 53.4207 87.3112V39.0409C53.4207 37.287 51.9972 35.8652 50.2409 35.8652H29.254ZM48.969 75.8787C48.969 81.1402 44.6979 85.4058 39.4295 85.4058C34.161 85.4058 29.89 81.1402 29.89 75.8787C29.89 70.6172 34.161 66.3517 39.4295 66.3517C44.6979 66.3517 48.969 70.6172 48.969 75.8787ZM42.6093 45.3923C42.6093 47.1462 41.1858 48.5679 39.4295 48.5679C37.6731 48.5679 36.2497 47.1462 36.2497 45.3923C36.2497 43.6383 37.6731 42.2166 39.4295 42.2166C41.1858 42.2166 42.6093 43.6383 42.6093 45.3923ZM39.4295 60.6355C41.1858 60.6355 42.6093 59.2138 42.6093 57.4598C42.6093 55.7059 41.1858 54.2842 39.4295 54.2842C37.6731 54.2842 36.2497 55.7059 36.2497 57.4598C36.2497 59.2138 37.6731 60.6355 39.4295 60.6355Z" fill="#59B202"/>
<path d="M82.6761 72.703C82.6761 74.4569 81.2528 75.8787 79.4962 75.8787C77.7397 75.8787 76.3164 74.4569 76.3164 72.703C76.3164 70.9491 77.7397 69.5273 79.4962 69.5273C81.2528 69.5273 82.6761 70.9491 82.6761 72.703Z" fill="#59B202"/>
<path fill-rule="evenodd" clip-rule="evenodd" d="M66.1406 49.203C66.1406 47.4491 67.5639 46.0273 69.3204 46.0273H90.3073C92.0638 46.0273 93.4871 47.4491 93.4871 49.203V84.1355C93.4871 85.8891 92.0638 87.3111 90.3073 87.3111H69.3204C67.5639 87.3111 66.1406 85.8891 66.1406 84.1355V49.203ZM79.4959 82.23C84.7642 82.23 89.0354 77.9645 89.0354 72.703C89.0354 67.4414 84.7642 63.176 79.4959 63.176C74.2276 63.176 69.9564 67.4414 69.9564 72.703C69.9564 77.9645 74.2276 82.23 79.4959 82.23ZM79.4959 60.0003C81.2524 60.0003 82.6757 58.5786 82.6757 56.8246C82.6757 55.0707 81.2524 53.649 79.4959 53.649C77.7394 53.649 76.3161 55.0707 76.3161 56.8246C76.3161 58.5786 77.7394 60.0003 79.4959 60.0003Z" fill="#59B202"/>
<path d="M115.904 65.0819C115.904 63.328 117.351 61.9062 119.138 61.9062H132.068C133.854 61.9062 135.301 63.328 135.301 65.0819C135.301 66.8359 133.854 68.2576 132.068 68.2576H119.138C117.351 68.2576 115.904 66.8359 115.904 65.0819Z" fill="#59B202"/>
<path fill-rule="evenodd" clip-rule="evenodd" d="M125.603 96.8373C130.959 96.8373 135.301 92.5717 135.301 87.3102C135.301 82.0488 130.959 77.7832 125.603 77.7832C120.247 77.7832 115.904 82.0488 115.904 87.3102C115.904 92.5717 120.247 96.8373 125.603 96.8373ZM125.603 90.4859C127.389 90.4859 128.836 89.0638 128.836 87.3102C128.836 85.5566 127.389 84.1346 125.603 84.1346C123.817 84.1346 122.37 85.5566 122.37 87.3102C122.37 89.0638 123.817 90.4859 125.603 90.4859Z" fill="#59B202"/>
<path fill-rule="evenodd" clip-rule="evenodd" d="M125.603 125.419C130.959 125.419 135.301 121.154 135.301 115.892C135.301 110.631 130.959 106.365 125.603 106.365C120.247 106.365 115.904 110.631 115.904 115.892C115.904 121.154 120.247 125.419 125.603 125.419ZM125.603 119.068C127.389 119.068 128.836 117.646 128.836 115.892C128.836 114.139 127.389 112.717 125.603 112.717C123.817 112.717 122.37 114.139 122.37 115.892C122.37 117.646 123.817 119.068 125.603 119.068Z" fill="#59B202"/>
<path fill-rule="evenodd" clip-rule="evenodd" d="M109.44 49.2031C107.654 49.2031 106.207 50.6249 106.207 52.3788V141.298C106.207 143.051 107.654 144.473 109.44 144.473H141.768C143.554 144.473 145.001 143.051 145.001 141.298V52.3788C145.001 50.6249 143.554 49.2031 141.768 49.2031H109.44ZM138.536 55.5545H112.672V138.122H138.536V55.5545Z" fill="#59B202"/>
<path d="M112.671 147.648C110.886 147.648 109.439 149.071 109.439 150.824C109.439 152.578 110.886 154 112.671 154H138.535C140.32 154 141.767 152.578 141.767 150.824C141.767 149.071 140.32 147.648 138.535 147.648H112.671Z" fill="#59B202"/>
<path d="M13.9904 115.893C12.234 115.893 10.8105 117.315 10.8105 119.068C10.8105 120.822 12.234 122.244 13.9904 122.244H40.0649C41.8213 122.244 43.2448 120.822 43.2448 119.068C43.2448 117.315 41.8213 115.893 40.0649 115.893H13.9904Z" fill="#59B202"/>
<path d="M13.9904 127.324C12.234 127.324 10.8105 128.746 10.8105 130.5C10.8105 132.254 12.234 133.676 13.9904 133.676H40.0649C41.8213 133.676 43.2448 132.254 43.2448 130.5C43.2448 128.746 41.8213 127.324 40.0649 127.324H13.9904Z" fill="#59B202"/>
<path d="M13.9904 144.472C15.7467 144.472 17.1702 143.05 17.1702 141.297C17.1702 139.543 15.7467 138.121 13.9904 138.121C12.234 138.121 10.8105 139.543 10.8105 141.297C10.8105 143.05 12.234 144.472 13.9904 144.472Z" fill="#59B202"/>
<path d="M30.2093 141.297C30.2093 143.05 28.7858 144.472 27.0294 144.472C25.2731 144.472 23.8496 143.05 23.8496 141.297C23.8496 139.543 25.2731 138.121 27.0294 138.121C28.7858 138.121 30.2093 139.543 30.2093 141.297Z" fill="#59B202"/>
<path d="M43.2464 141.297C43.2464 143.05 41.8229 144.472 40.0665 144.472C38.3102 144.472 36.8867 143.05 36.8867 141.297C36.8867 139.543 38.3102 138.121 40.0665 138.121C41.8229 138.121 43.2464 139.543 43.2464 141.297Z" fill="#59B202"/>
<path fill-rule="evenodd" clip-rule="evenodd" d="M3.81654 103.189C2.06019 103.189 0.636719 104.612 0.636719 106.365V150.825C0.636719 152.578 2.06019 154 3.81654 154H50.242C51.9983 154 53.4218 152.578 53.4218 150.825V106.365C53.4218 104.612 51.9983 103.189 50.242 103.189H3.81654ZM6.99637 109.541V147.649H47.0622V109.541H6.99637Z" fill="#59B202"/>
</g>
<defs>
<clipPath id="clip0_108_7634">
<rect width="145" height="141" fill="white" transform="translate(0 13)"/>
</clipPath>
</defs>
</svg>
