<svg width="198" height="166" viewBox="0 0 198 166" fill="none" xmlns="http://www.w3.org/2000/svg">
<g clip-path="url(#clip0_108_7650)">
<path d="M38.6952 67.139C40.4468 67.139 41.867 65.7189 41.867 63.967C41.867 62.215 40.4468 60.7949 38.6952 60.7949C36.9436 60.7949 35.5234 62.215 35.5234 63.967C35.5234 65.7189 36.9436 67.139 38.6952 67.139Z" fill="#59B202"/>
<path fill-rule="evenodd" clip-rule="evenodd" d="M25.375 27.172C25.375 25.4201 26.7952 24 28.5468 24H49.4807C51.2323 24 52.6525 25.4201 52.6525 27.172V75.3871C52.6525 77.139 51.2323 78.5591 49.4807 78.5591H28.5468C26.7952 78.5591 25.375 77.139 25.375 75.3871V27.172ZM38.6966 73.4839C43.9518 73.4839 48.212 69.2233 48.212 63.9677C48.212 58.7122 43.9518 54.4516 38.6966 54.4516C33.4414 54.4516 29.1812 58.7122 29.1812 63.9677C29.1812 69.2233 33.4414 73.4839 38.6966 73.4839ZM38.6966 36.6882C40.4482 36.6882 41.8684 35.268 41.8684 33.5161C41.8684 31.7642 40.4482 30.3441 38.6966 30.3441C36.945 30.3441 35.5248 31.7642 35.5248 33.5161C35.5248 35.268 36.945 36.6882 38.6966 36.6882ZM41.8684 45.5699C41.8684 47.3218 40.4482 48.7419 38.6966 48.7419C36.945 48.7419 35.5248 47.3218 35.5248 45.5699C35.5248 43.818 36.945 42.3979 38.6966 42.3979C40.4482 42.3979 41.8684 43.818 41.8684 45.5699Z" fill="#59B202"/>
<path d="M81.8319 73.4845C81.8319 75.2365 80.4116 76.6566 78.6601 76.6566C76.9086 76.6566 75.4883 75.2365 75.4883 73.4845C75.4883 71.7326 76.9086 70.3125 78.6601 70.3125C80.4116 70.3125 81.8319 71.7326 81.8319 73.4845Z" fill="#59B202"/>
<path fill-rule="evenodd" clip-rule="evenodd" d="M68.5117 46.8379C66.7602 46.8379 65.3398 48.258 65.3398 50.0099V84.9024C65.3398 86.6543 66.7602 88.0744 68.5117 88.0744H89.4456C91.197 88.0744 92.6174 86.6543 92.6174 84.9024V50.0099C92.6174 48.258 91.197 46.8379 89.4456 46.8379H68.5117ZM88.1768 73.4831C88.1768 78.7386 83.9165 82.9992 78.6614 82.9992C73.4064 82.9992 69.146 78.7386 69.146 73.4831C69.146 68.2275 73.4064 63.9669 78.6614 63.9669C83.9165 63.9669 88.1768 68.2275 88.1768 73.4831ZM81.8332 57.6228C81.8332 59.3748 80.4129 60.7949 78.6614 60.7949C76.91 60.7949 75.4896 59.3748 75.4896 57.6228C75.4896 55.8709 76.91 54.4508 78.6614 54.4508C80.4129 54.4508 81.8332 55.8709 81.8332 57.6228Z" fill="#59B202"/>
<path d="M81.8319 127.408C81.8319 129.16 80.4116 130.58 78.6601 130.58C76.9086 130.58 75.4883 129.16 75.4883 127.408C75.4883 125.657 76.9086 124.236 78.6601 124.236C80.4116 124.236 81.8319 125.657 81.8319 127.408Z" fill="#59B202"/>
<path fill-rule="evenodd" clip-rule="evenodd" d="M68.5117 100.764C66.7602 100.764 65.3398 102.184 65.3398 103.936V138.828C65.3398 140.58 66.7602 142 68.5117 142H89.4456C91.197 142 92.6174 140.58 92.6174 138.828V103.936C92.6174 102.184 91.197 100.764 89.4456 100.764H68.5117ZM88.1768 127.409C88.1768 132.664 83.9165 136.925 78.6614 136.925C73.4064 136.925 69.146 132.664 69.146 127.409C69.146 122.153 73.4064 117.893 78.6614 117.893C83.9165 117.893 88.1768 122.153 88.1768 127.409ZM81.8332 111.549C81.8332 113.3 80.4129 114.721 78.6614 114.721C76.91 114.721 75.4896 113.3 75.4896 111.549C75.4896 109.797 76.91 108.377 78.6614 108.377C80.4129 108.377 81.8332 109.797 81.8332 111.549Z" fill="#59B202"/>
<path d="M114.979 53.1838C114.979 51.4318 116.422 50.0117 118.203 50.0117H131.102C132.883 50.0117 134.327 51.4318 134.327 53.1838C134.327 54.9357 132.883 56.3558 131.102 56.3558H118.203C116.422 56.3558 114.979 54.9357 114.979 53.1838Z" fill="#59B202"/>
<path fill-rule="evenodd" clip-rule="evenodd" d="M134.327 75.3872C134.327 80.6428 129.995 84.9034 124.653 84.9034C119.31 84.9034 114.979 80.6428 114.979 75.3872C114.979 70.1317 119.31 65.8711 124.653 65.8711C129.995 65.8711 134.327 70.1317 134.327 75.3872ZM127.877 75.3872C127.877 77.1391 126.434 78.5593 124.653 78.5593C122.871 78.5593 121.428 77.1391 121.428 75.3872C121.428 73.6353 122.871 72.2152 124.653 72.2152C126.434 72.2152 127.877 73.6353 127.877 75.3872Z" fill="#59B202"/>
<path fill-rule="evenodd" clip-rule="evenodd" d="M124.653 113.452C129.995 113.452 134.327 109.191 134.327 103.936C134.327 98.6806 129.995 94.4199 124.653 94.4199C119.31 94.4199 114.979 98.6806 114.979 103.936C114.979 109.191 119.31 113.452 124.653 113.452ZM124.653 107.108C126.434 107.108 127.877 105.688 127.877 103.936C127.877 102.184 126.434 100.764 124.653 100.764C122.871 100.764 121.428 102.184 121.428 103.936C121.428 105.688 122.871 107.108 124.653 107.108Z" fill="#59B202"/>
<path fill-rule="evenodd" clip-rule="evenodd" d="M105.305 40.4943C105.305 38.7424 106.748 37.3223 108.529 37.3223H140.776C142.557 37.3223 144.001 38.7424 144.001 40.4943V129.312C144.001 131.063 142.557 132.484 140.776 132.484H108.529C106.748 132.484 105.305 131.063 105.305 129.312V40.4943ZM111.754 43.6664H137.551V126.139H111.754V43.6664Z" fill="#59B202"/>
<path d="M111.754 135.656C109.973 135.656 108.529 137.077 108.529 138.828C108.529 140.58 109.973 142 111.754 142H137.551C139.333 142 140.776 140.58 140.776 138.828C140.776 137.077 139.333 135.656 137.551 135.656H111.754Z" fill="#59B202"/>
<path d="M10.1504 107.108C10.1504 105.356 11.5706 103.936 13.3222 103.936H39.331C41.0826 103.936 42.5028 105.356 42.5028 107.108C42.5028 108.859 41.0826 110.28 39.331 110.28H13.3222C11.5706 110.28 10.1504 108.859 10.1504 107.108Z" fill="#59B202"/>
<path d="M13.3222 115.355C11.5706 115.355 10.1504 116.776 10.1504 118.528C10.1504 120.279 11.5706 121.7 13.3222 121.7H39.331C41.0826 121.7 42.5028 120.279 42.5028 118.528C42.5028 116.776 41.0826 115.355 39.331 115.355H13.3222Z" fill="#59B202"/>
<path d="M16.494 129.313C16.494 131.064 15.0738 132.485 13.3222 132.485C11.5706 132.485 10.1504 131.064 10.1504 129.313C10.1504 127.561 11.5706 126.141 13.3222 126.141C15.0738 126.141 16.494 127.561 16.494 129.313Z" fill="#59B202"/>
<path d="M29.4979 129.313C29.4979 131.064 28.0777 132.485 26.3261 132.485C24.5745 132.485 23.1543 131.064 23.1543 129.313C23.1543 127.561 24.5745 126.141 26.3261 126.141C28.0777 126.141 29.4979 127.561 29.4979 129.313Z" fill="#59B202"/>
<path d="M39.33 132.485C41.0816 132.485 42.5018 131.064 42.5018 129.313C42.5018 127.561 41.0816 126.141 39.33 126.141C37.5784 126.141 36.1582 127.561 36.1582 129.313C36.1582 131.064 37.5784 132.485 39.33 132.485Z" fill="#59B202"/>
<path fill-rule="evenodd" clip-rule="evenodd" d="M3.17181 91.248C1.42019 91.248 0 92.6685 0 94.4201V138.829C0 140.58 1.42019 142.001 3.17181 142.001H49.4802C51.2318 142.001 52.652 140.58 52.652 138.829V94.4201C52.652 92.6685 51.2318 91.248 49.4802 91.248H3.17181ZM6.34361 97.5921V135.657H46.3084V97.5921H6.34361Z" fill="#59B202"/>
</g>
<defs>
<clipPath id="clip0_108_7650">
<rect width="144" height="118" fill="white" transform="translate(0 24)"/>
</clipPath>
</defs>
</svg>
