<svg width="285" height="285" viewBox="0 0 285 285" fill="none" xmlns="http://www.w3.org/2000/svg">
<path fill-rule="evenodd" clip-rule="evenodd" d="M114.37 140.054C116.909 137.903 118.979 135.172 120.578 131.861C122.629 127.597 123.655 122.586 123.655 116.829C123.655 111.071 122.629 106.069 120.578 101.823C118.527 97.5587 115.702 94.2661 112.104 91.945C108.523 89.606 104.403 88.4365 99.7429 88.4365C95.1008 88.4365 90.9805 89.606 87.3821 91.945C83.7836 94.2661 80.9588 97.5587 78.9076 101.823C76.8745 106.069 75.8579 111.071 75.8579 116.829C75.8579 122.586 76.8745 127.597 78.9076 131.861C80.9588 136.107 83.7746 139.4 87.3551 141.739C90.9536 144.06 95.0828 145.221 99.7429 145.221C103.803 145.221 107.453 144.34 110.694 142.578L115.99 149.647H121.604L114.37 140.054ZM104.655 127.192H99.0412L107.749 138.661C105.329 139.868 102.661 140.471 99.7429 140.471C96.1084 140.471 92.8607 139.535 90 137.664C87.1392 135.775 84.8811 133.067 83.2258 129.54C81.5705 126.014 80.7429 121.776 80.7429 116.829C80.7429 111.863 81.5705 107.616 83.2258 104.09C84.8991 100.563 87.1662 97.8646 90.0269 95.9933C92.8877 94.1221 96.1264 93.1865 99.7429 93.1865C103.377 93.1865 106.625 94.1221 109.486 95.9933C112.347 97.8646 114.605 100.572 116.26 104.117C117.915 107.643 118.743 111.881 118.743 116.829C118.761 121.776 117.942 126.023 116.287 129.567C115.027 132.252 113.412 134.457 111.443 136.182L104.655 127.192Z" fill="#59B202"/>
<path fill-rule="evenodd" clip-rule="evenodd" d="M160.132 183.465H165.422L171.345 166.813H194.531L200.453 183.465H205.743L185.637 128.192H180.239L160.132 183.465ZM192.918 162.279L183.127 134.75H182.749L172.958 162.279H192.918Z" fill="#59B202"/>
<path fill-rule="evenodd" clip-rule="evenodd" d="M99.5 61.4648C127.203 61.4648 150.33 81.0555 155.783 107.138C164.233 102.258 174.04 99.4648 184.5 99.4648C216.256 99.4648 242 125.208 242 156.965C242 170.016 237.652 182.051 230.326 191.701L237.202 216.569C238.025 219.547 235.303 222.295 232.317 221.5L198.986 212.625C194.358 213.826 189.504 214.465 184.5 214.465C156.797 214.465 133.67 194.874 128.217 168.791C119.767 173.672 109.96 176.465 99.5 176.465C94.4961 176.465 89.6416 175.826 85.0137 174.625L51.6831 183.5C48.6968 184.295 45.9746 181.547 46.7983 178.569L53.6743 153.701C46.3481 144.051 42 132.016 42 118.965C42 87.2085 67.7437 61.4648 99.5 61.4648ZM52.0826 178.219L59.1529 152.649L57.6567 150.678C50.9677 141.867 47 130.886 47 118.965C47 89.9699 70.5051 66.4648 99.5 66.4648C125.456 66.4648 147.013 85.3013 151.246 110.05C142.776 116.065 136.005 124.316 131.794 133.942L136.156 136.459C144.142 117.653 162.781 104.465 184.5 104.465C213.495 104.465 237 127.97 237 156.965C237 169.537 232.346 180.771 224.847 190.649L231.917 216.219L199.003 207.455C194.242 208.69 189.432 209.465 184.5 209.465C158.544 209.465 136.987 190.628 132.754 165.879C140.118 160.65 146.198 153.73 150.427 145.686L146.095 143.178C137.343 159.987 119.762 171.465 99.5 171.465C94.9235 171.465 90.491 170.88 86.2698 169.785L84.9974 169.455L52.0826 178.219Z" fill="#59B202"/>
<path fill-rule="evenodd" clip-rule="evenodd" d="M142.5 285C221.201 285 285 221.201 285 142.5C285 63.7994 221.201 0 142.5 0C63.7994 0 0 63.7994 0 142.5C0 221.201 63.7994 285 142.5 285ZM142.5 280C218.439 280 280 218.439 280 142.5C280 66.5608 218.439 5 142.5 5C66.5608 5 5 66.5608 5 142.5C5 218.439 66.5608 280 142.5 280Z" fill="#59B202"/>
</svg>
