<svg width="53" height="53" viewBox="0 0 53 53" fill="none" xmlns="http://www.w3.org/2000/svg">
<rect x="0.5" y="0.5" width="52" height="52" stroke="black"/>
<circle cx="26.5" cy="26.5" r="26" stroke="#438006"/>
<path d="M12.2305 14.4648H15.7209C16.4166 14.4648 16.7645 14.4648 17.0264 14.6536C17.2883 14.8424 17.3983 15.1724 17.6183 15.8324L18.8064 19.3968" stroke="#59B202" stroke-linecap="round"/>
<path d="M35.2479 35.8362H19.7137C18.6599 35.8362 18.133 35.8362 17.8392 35.5382C17.7672 35.4651 17.7069 35.3814 17.6603 35.29C17.4705 34.917 17.6371 34.4172 17.9703 33.4174V33.4174C18.3378 32.3151 18.5215 31.7639 18.922 31.4085C19.0231 31.3187 19.1332 31.2394 19.2503 31.1718C19.7141 30.9043 20.2951 30.9043 21.4571 30.9043H30.3159" stroke="#59B202" stroke-linecap="round" stroke-linejoin="round"/>
<path d="M31.282 30.9044H23.0891C21.8098 30.9044 21.1702 30.9044 20.6693 30.574C20.1683 30.2437 19.9164 29.6558 19.4125 28.48L17.3117 23.5782C16.5022 21.6894 16.0975 20.745 16.5421 20.0707C16.9867 19.3965 18.0142 19.3965 20.0691 19.3965H35.0097C37.3088 19.3965 38.4583 19.3965 38.8918 20.1436C39.3254 20.8907 38.7551 21.8888 37.6144 23.8849L34.755 28.8889C34.1931 29.8723 33.9121 30.364 33.4465 30.6342C32.981 30.9044 32.4147 30.9044 31.282 30.9044Z" stroke="#59B202" stroke-linecap="round"/>
<circle cx="34.4252" cy="39.9467" r="1.64398" fill="#59B202"/>
<circle cx="21.2729" cy="39.9467" r="1.64398" fill="#59B202"/>
</svg>
