<svg width="82" height="82" viewBox="0 0 82 82" fill="none" xmlns="http://www.w3.org/2000/svg">
<circle cx="41" cy="41" r="40.5" fill="#C4C4C4" stroke="#438006"/>
<path d="M18.9248 22.3789H25.1138C25.8096 22.3789 26.1574 22.3789 26.4193 22.5677C26.6812 22.7564 26.7912 23.0864 27.0112 23.7465L29.0989 30.0095" stroke="#59B202" stroke-linecap="round"/>
<path d="M54.5344 55.445H29.3305C28.0643 55.445 27.4312 55.445 27.1318 55.0297C26.8325 54.6144 27.0327 54.0138 27.4331 52.8126L28.1875 50.5495C28.6275 49.2295 28.8475 48.5695 29.3713 48.192C29.8951 47.8145 30.5908 47.8145 31.9822 47.8145H46.9038" stroke="#59B202" stroke-linecap="round" stroke-linejoin="round"/>
<path d="M49.6691 47.8144H34.2799C33.0006 47.8144 32.361 47.8144 31.8601 47.4841C31.3591 47.1538 31.1072 46.5659 30.6033 45.3901L25.8039 34.1915C24.9944 32.3027 24.5897 31.3583 25.0343 30.684C25.4789 30.0098 26.5064 30.0098 28.5613 30.0098H56.995C59.294 30.0098 60.4435 30.0098 60.8771 30.7569C61.3107 31.504 60.7403 32.5021 59.5997 34.4982L53.1421 45.799C52.5802 46.7823 52.2992 47.274 51.8336 47.5442C51.3681 47.8144 50.8018 47.8144 49.6691 47.8144Z" stroke="#59B202" stroke-linecap="round"/>
<ellipse cx="53.2623" cy="61.8033" rx="2.54352" ry="2.54352" fill="#59B202"/>
<ellipse cx="32.9146" cy="61.8033" rx="2.54352" ry="2.54352" fill="#59B202"/>
</svg>
